<svg width="42" height="42" viewBox="0 0 42 42" fill="none" xmlns="http://www.w3.org/2000/svg">
<path d="M39.6152 35.4681L40.998 33.9787L40.998 38.9787L38.9769 41L3.12802 41L1.00049 38.9787L1.00049 33.9787L2.27701 35.4681L2.27701 37.9149L3.34077 38.9787L38.5514 38.9787L39.6152 37.9149L39.6152 35.4681Z" fill="white"/>
<path d="M35.8926 41L34.6161 39.9362L6.95818 39.9362L5.68166 41" stroke="#000C1A" stroke-width="0.212745"/>
<rect width="0.638235" height="0.638235" transform="matrix(4.37089e-08 -1 -1 -4.37139e-08 32.0625 41)" fill="#000C1A"/>
<rect width="0.638235" height="0.638235" transform="matrix(4.37089e-08 -1 -1 -4.37139e-08 14.832 41)" fill="#000C1A"/>
<path d="M6.53939 39.617L8.02866 41L3.02897 41L1.00781 38.9787L1.00782 3.12783L3.02897 1.00018L8.02866 1.00018L6.53939 2.27678L4.09273 2.27678L3.02897 3.3406L3.02897 38.5532L4.09273 39.617L6.53939 39.617Z" fill="white"/>
<rect width="0.638235" height="0.638235" transform="matrix(1 8.7427e-08 8.74186e-08 -1 1.00781 32.0638)" fill="#000C1A"/>
<rect width="0.638235" height="0.638235" transform="matrix(1 8.74271e-08 8.74184e-08 -1 1.00781 14.8298)" fill="#000C1A"/>
<path d="M1.00781 35.8936L2.07158 34.617L2.07158 6.95731L1.00782 5.68071" stroke="#000C1A" stroke-width="0.212745"/>
<path d="M39.6152 6.53193L40.998 8.02129L40.998 3.02128L38.9769 1L3.12802 0.999998L1.00049 3.02128L1.00049 8.02129L2.27701 6.53193L2.27701 4.08511L3.34077 3.02128L38.5514 3.02128L39.6152 4.08511L39.6152 6.53193Z" fill="white"/>
<path d="M35.8926 1L34.6161 2.06383L6.95818 2.06383L5.68166 0.999999" stroke="#000C1A" stroke-width="0.212745"/>
<rect x="32.0625" y="1" width="0.638235" height="0.638235" transform="rotate(90 32.0625 1)" fill="#000C1A"/>
<rect x="14.832" y="1" width="0.638235" height="0.638235" transform="rotate(90 14.832 1)" fill="#000C1A"/>
<path d="M35.4684 39.617L33.9792 41L38.9788 41L41 38.9787L41 3.12783L38.9789 1.00018L33.9792 1.00018L35.4684 2.27677L37.9151 2.27677L38.9789 3.3406L38.9788 38.5532L37.9151 39.617L35.4684 39.617Z" fill="white"/>
<path d="M41 35.8936L39.9362 34.617L39.9362 6.95731L41 5.68071" stroke="#000C1A" stroke-width="0.212745"/>
<rect x="41" y="32.0638" width="0.638235" height="0.638235" transform="rotate(-180 41 32.0638)" fill="#000C1A"/>
<rect x="41" y="14.8298" width="0.638235" height="0.638235" transform="rotate(-180 41 14.8298)" fill="#000C1A"/>
<g filter="url(#filter0_b_210_10469)">
<path d="M32.5835 7.80847L34.1973 9.49248L34.1973 12.2992L34.1973 31.2443L34.1973 32.788L32.7589 34.1913L31.8819 34.1913L10.8331 34.1913L9.3246 34.1913L7.8161 32.788L7.8161 29.9813L7.8161 12.1588L7.8161 9.28198L9.35968 7.80847L10.9033 7.80847L30.8295 7.80847L32.5835 7.80847Z" fill="url(#paint0_linear_210_10469)" fill-opacity="0.1"/>
<path d="M32.6227 7.77095L32.6067 7.75424L32.5835 7.75424L30.8295 7.75424L10.9033 7.75424L9.35968 7.75424L9.33795 7.75424L9.32223 7.76924L7.77865 9.24275L7.76186 9.25877L7.76186 9.28198L7.76186 12.1588L7.76186 29.9813L7.76186 32.788L7.76186 32.8116L7.77916 32.8277L9.28766 34.231L9.30327 34.2456L9.3246 34.2456L10.8331 34.2456L31.8819 34.2456L32.7589 34.2456L32.781 34.2456L32.7968 34.2301L34.2351 32.8268L34.2515 32.8108L34.2515 32.788L34.2515 31.2443L34.2515 12.2992L34.2515 9.49248L34.2515 9.47069L34.2364 9.45496L32.6227 7.77095Z" stroke="white" stroke-width="0.108471"/>
</g>
<line x1="36.8828" y1="6.35964" x2="35.5256" y2="6.35964" stroke="#DD432B" stroke-width="0.193894"/>
<line x1="36.2058" y1="7.03796" x2="36.2058" y2="5.68071" stroke="#DD432B" stroke-width="0.193894"/>
<line x1="6.24805" y1="6.35964" x2="4.89079" y2="6.35964" stroke="#DD432B" stroke-width="0.193894"/>
<line x1="5.57102" y1="7.03796" x2="5.57102" y2="5.68071" stroke="#DD432B" stroke-width="0.193894"/>
<line x1="36.8828" y1="35.6404" x2="35.5256" y2="35.6404" stroke="#DD432B" stroke-width="0.193894"/>
<line x1="36.2058" y1="36.3187" x2="36.2058" y2="34.9615" stroke="#DD432B" stroke-width="0.193894"/>
<line x1="6.24805" y1="35.6404" x2="4.89079" y2="35.6404" stroke="#DD432B" stroke-width="0.193894"/>
<line x1="5.57102" y1="36.3187" x2="5.57102" y2="34.9615" stroke="#DD432B" stroke-width="0.193894"/>
<g filter="url(#filter1_dii_210_10469)">
<path d="M16.4417 11.2128C13.6776 11.2128 11.4277 13.4641 11.4277 16.2298V25.3474C11.4277 28.1117 13.6789 30.3618 16.4444 30.3618H25.5615C28.3256 30.3618 30.5755 28.1104 30.5755 25.3448V16.2271C30.5755 13.4628 28.3243 11.2128 25.5588 11.2128H16.4417ZM27.386 13.4915C27.8893 13.4915 28.2969 13.8991 28.2969 14.4025C28.2969 14.9058 27.8893 15.3161 27.386 15.3161C26.8827 15.3161 26.4724 14.9058 26.4724 14.4025C26.4724 13.8991 26.8827 13.4915 27.386 13.4915ZM21.0016 13.9483C24.7724 13.9483 27.8401 17.0163 27.8401 20.7873C27.8401 24.5582 24.7724 27.6262 21.0016 27.6262C17.2309 27.6262 14.1631 24.5582 14.1631 20.7873C14.1631 17.0163 17.2309 13.9483 21.0016 13.9483ZM21.0016 16.6839C19.9134 16.6839 18.8698 17.1162 18.1003 17.8858C17.3308 18.6553 16.8985 19.699 16.8985 20.7873C16.8985 21.8755 17.3308 22.9192 18.1003 23.6888C18.8698 24.4583 19.9134 24.8906 21.0016 24.8906C22.0898 24.8906 23.1335 24.4583 23.9029 23.6888C24.6724 22.9192 25.1047 21.8755 25.1047 20.7873C25.1047 19.699 24.6724 18.6553 23.9029 17.8858C23.1335 17.1162 22.0898 16.6839 21.0016 16.6839Z" fill="white"/>
</g>
<defs>
<filter id="filter0_b_210_10469" x="0.764878" y="0.757798" width="40.4839" height="40.4842" filterUnits="userSpaceOnUse" color-interpolation-filters="sRGB">
<feFlood flood-opacity="0" result="BackgroundImageFix"/>
<feGaussianBlur in="BackgroundImage" stdDeviation="3.47108"/>
<feComposite in2="SourceAlpha" operator="in" result="effect1_backgroundBlur_210_10469"/>
<feBlend mode="normal" in="SourceGraphic" in2="effect1_backgroundBlur_210_10469" result="shape"/>
</filter>
<filter id="filter1_dii_210_10469" x="1.42771" y="1.21274" width="39.1485" height="39.149" filterUnits="userSpaceOnUse" color-interpolation-filters="sRGB">
<feFlood flood-opacity="0" result="BackgroundImageFix"/>
<feColorMatrix in="SourceAlpha" type="matrix" values="0 0 0 0 0 0 0 0 0 0 0 0 0 0 0 0 0 0 127 0" result="hardAlpha"/>
<feOffset/>
<feGaussianBlur stdDeviation="5.00001"/>
<feColorMatrix type="matrix" values="0 0 0 0 0.607843 0 0 0 0 0.47451 0 0 0 0 0.945098 0 0 0 0.5 0"/>
<feBlend mode="normal" in2="BackgroundImageFix" result="effect1_dropShadow_210_10469"/>
<feBlend mode="normal" in="SourceGraphic" in2="effect1_dropShadow_210_10469" result="shape"/>
<feColorMatrix in="SourceAlpha" type="matrix" values="0 0 0 0 0 0 0 0 0 0 0 0 0 0 0 0 0 0 127 0" result="hardAlpha"/>
<feOffset dx="1.25" dy="1.25"/>
<feGaussianBlur stdDeviation="1.25"/>
<feComposite in2="hardAlpha" operator="arithmetic" k2="-1" k3="1"/>
<feColorMatrix type="matrix" values="0 0 0 0 1 0 0 0 0 1 0 0 0 0 1 0 0 0 0.25 0"/>
<feBlend mode="overlay" in2="shape" result="effect2_innerShadow_210_10469"/>
<feColorMatrix in="SourceAlpha" type="matrix" values="0 0 0 0 0 0 0 0 0 0 0 0 0 0 0 0 0 0 127 0" result="hardAlpha"/>
<feOffset dx="-1.25" dy="-1.25"/>
<feGaussianBlur stdDeviation="1.25"/>
<feComposite in2="hardAlpha" operator="arithmetic" k2="-1" k3="1"/>
<feColorMatrix type="matrix" values="0 0 0 0 0 0 0 0 0 0 0 0 0 0 0 0 0 0 0.25 0"/>
<feBlend mode="multiply" in2="effect2_innerShadow_210_10469" result="effect3_innerShadow_210_10469"/>
</filter>
<linearGradient id="paint0_linear_210_10469" x1="34.1973" y1="7.80847" x2="2.58437" y2="23.9365" gradientUnits="userSpaceOnUse">
<stop stop-color="white" stop-opacity="0.4"/>
<stop offset="1" stop-color="white" stop-opacity="0"/>
</linearGradient>
</defs>
</svg>
