<svg width="42" height="42" viewBox="0 0 42 42" fill="none" xmlns="http://www.w3.org/2000/svg">
<g filter="url(#filter0_b_210_10391)">
<path d="M32.5835 7.80884L34.1973 9.49285L34.1973 12.2995L34.1973 31.2447L34.1973 32.7883L32.7589 34.1917L31.8819 34.1917L10.8331 34.1917L9.3246 34.1917L7.8161 32.7883L7.8161 29.9817L7.8161 12.1592L7.8161 9.28235L9.35968 7.80884L10.9033 7.80884L30.8295 7.80884L32.5835 7.80884Z" fill="url(#paint0_linear_210_10391)" fill-opacity="0.1"/>
<path d="M32.6227 7.77131L32.6067 7.7546L32.5835 7.7546L30.8295 7.7546L10.9033 7.7546L9.35968 7.7546L9.33795 7.7546L9.32223 7.76961L7.77865 9.24312L7.76186 9.25914L7.76186 9.28235L7.76186 12.1592L7.76186 29.9817L7.76186 32.7883L7.76186 32.812L7.77916 32.8281L9.28765 34.2314L9.30327 34.2459L9.3246 34.2459L10.8331 34.2459L31.8819 34.2459L32.7589 34.2459L32.781 34.2459L32.7968 34.2305L34.2351 32.8272L34.2515 32.8112L34.2515 32.7883L34.2515 31.2447L34.2515 12.2995L34.2515 9.49285L34.2515 9.47106L34.2364 9.45532L32.6227 7.77131Z" stroke="white" stroke-width="0.108471"/>
</g>
<g style="mix-blend-mode:darken">
<path d="M35.892 1.21274L38.4606 1.21274L40.7853 3.63868L40.7853 7.80853L40.7853 36.532L40.7853 38.7828L38.7307 40.7874L37.4876 40.7874L5.57468 40.7874L3.37124 40.7874L1.21324 38.7798L1.21324 34.6171L1.21324 7.59576L1.21324 3.32508L3.42602 1.21274L5.68106 1.21274L35.892 1.21274Z" stroke="white" stroke-width="0.42549"/>
</g>
<path d="M39.6152 35.4682L40.998 33.9788L40.998 38.9788L38.9769 41.0001L3.12802 41.0001L1.00049 38.9788L1.00049 33.9788L2.27701 35.4682L2.27701 37.915L3.34077 38.9788L38.5514 38.9788L39.6152 37.915L39.6152 35.4682Z" fill="white"/>
<path d="M35.8926 41.0001L34.6161 39.9363L6.95818 39.9363L5.68166 41.0001" stroke="#000C1A" stroke-width="0.212745"/>
<rect width="0.638235" height="0.638235" transform="matrix(4.37086e-08 -1 -1 -4.37142e-08 32.0625 41.0001)" fill="#000C1A"/>
<rect width="0.638235" height="0.638235" transform="matrix(4.37086e-08 -1 -1 -4.37142e-08 14.8301 41.0001)" fill="#000C1A"/>
<path d="M6.53939 39.6171L8.02866 41.0001L3.02897 41.0001L1.00781 38.9788L1.00782 3.12769L3.02897 1.00002L8.02866 1.00002L6.53939 2.27662L4.09273 2.27662L3.02897 3.34045L3.02897 38.5533L4.09273 39.6171L6.53939 39.6171Z" fill="white"/>
<rect width="0.638235" height="0.638235" transform="matrix(1 8.74283e-08 8.74172e-08 -1 1.00781 32.064)" fill="#000C1A"/>
<rect width="0.638235" height="0.638235" transform="matrix(1 8.74283e-08 8.74172e-08 -1 1.00781 14.8298)" fill="#000C1A"/>
<path d="M1.00781 35.8937L2.07158 34.6171L2.07158 6.95744L1.00782 5.68084" stroke="#000C1A" stroke-width="0.212745"/>
<path d="M39.6152 6.53217L40.998 8.02154L40.998 3.02153L38.9769 1.00024L3.12802 1.00024L1.00049 3.02152L1.00049 8.02154L2.27701 6.53217L2.27701 4.08536L3.34077 3.02152L38.5514 3.02153L39.6152 4.08536L39.6152 6.53217Z" fill="white"/>
<path d="M35.8926 1.00024L34.6161 2.06408L6.95818 2.06408L5.68166 1.00024" stroke="#000C1A" stroke-width="0.212745"/>
<rect x="32.0625" y="1.00024" width="0.638235" height="0.638235" transform="rotate(90 32.0625 1.00024)" fill="#000C1A"/>
<rect x="14.8301" y="1.00024" width="0.638235" height="0.638235" transform="rotate(90 14.8301 1.00024)" fill="#000C1A"/>
<path d="M35.4684 39.6173L33.9792 41.0002L38.9788 41.0002L41 38.979L41 3.12781L38.9789 1.00014L33.9792 1.00014L35.4684 2.27674L37.9151 2.27674L38.9789 3.34057L38.9788 38.5534L37.9151 39.6173L35.4684 39.6173Z" fill="white"/>
<path d="M41 35.8937L39.9362 34.6171L39.9362 6.95743L41 5.68084" stroke="#000C1A" stroke-width="0.212745"/>
<rect x="41" y="32.064" width="0.638235" height="0.638235" transform="rotate(-180 41 32.064)" fill="#000C1A"/>
<rect x="41" y="14.8298" width="0.638235" height="0.638235" transform="rotate(-180 41 14.8298)" fill="#000C1A"/>
<line x1="36.8789" y1="6.3594" x2="35.5216" y2="6.3594" stroke="#DD432B" stroke-width="0.193894"/>
<line x1="36.2019" y1="7.03772" x2="36.2019" y2="5.68046" stroke="#DD432B" stroke-width="0.193894"/>
<line x1="6.24414" y1="6.3594" x2="4.88688" y2="6.3594" stroke="#DD432B" stroke-width="0.193894"/>
<line x1="5.56516" y1="7.03772" x2="5.56516" y2="5.68046" stroke="#DD432B" stroke-width="0.193894"/>
<line x1="36.8789" y1="35.6403" x2="35.5216" y2="35.6403" stroke="#DD432B" stroke-width="0.193894"/>
<line x1="36.2019" y1="36.3186" x2="36.2019" y2="34.9613" stroke="#DD432B" stroke-width="0.193894"/>
<line x1="6.24414" y1="35.6403" x2="4.88688" y2="35.6403" stroke="#DD432B" stroke-width="0.193894"/>
<line x1="5.56516" y1="36.3185" x2="5.56516" y2="34.9612" stroke="#DD432B" stroke-width="0.193894"/>
<g filter="url(#filter1_dii_210_10391)">
<path d="M31.424 20.3367C31.424 24.2793 29.5084 26.7198 26.3897 26.7198C24.7747 26.7198 23.6218 26.0186 23.2839 24.8301H23.0459C22.5324 26.0942 21.556 26.7328 20.1156 26.7328C17.5111 26.7328 15.7832 24.6303 15.7832 21.4514C15.7832 18.4097 17.4486 16.3576 19.928 16.3576C21.2806 16.3576 22.3448 17.0084 22.8461 18.1352H23.0841V16.6582H25.964V23.0161C25.964 23.9049 26.3645 24.4305 27.0412 24.4305C28.1428 24.4305 28.8447 22.9666 28.8447 20.6382C28.8447 16.1074 25.8771 13.2039 21.2563 13.2039C16.4347 13.2039 13.1544 16.5835 13.1544 21.5018C13.1544 26.4826 16.4599 29.5998 21.7697 29.5998C22.9216 29.5998 24.1109 29.4495 24.7625 29.2497V31.4773C23.8607 31.7136 22.6836 31.8509 21.4934 31.8509C14.9449 31.8509 10.5742 27.6833 10.5742 21.4375C10.5742 15.2673 14.957 10.9998 21.2936 10.9998C27.3296 10.9998 31.424 14.7799 31.424 20.3367ZM19.0766 21.5383C19.0766 23.1655 19.7525 24.1412 20.8923 24.1412C22.0442 24.1412 22.7453 23.1525 22.7453 21.5383C22.7453 19.924 22.0312 18.9353 20.8923 18.9353C19.7533 18.9353 19.0766 19.911 19.0766 21.5383Z" fill="white"/>
</g>
<defs>
<filter id="filter0_b_210_10391" x="0.764878" y="0.758164" width="40.4839" height="40.4842" filterUnits="userSpaceOnUse" color-interpolation-filters="sRGB">
<feFlood flood-opacity="0" result="BackgroundImageFix"/>
<feGaussianBlur in="BackgroundImage" stdDeviation="3.47108"/>
<feComposite in2="SourceAlpha" operator="in" result="effect1_backgroundBlur_210_10391"/>
<feBlend mode="normal" in="SourceGraphic" in2="effect1_backgroundBlur_210_10391" result="shape"/>
</filter>
<filter id="filter1_dii_210_10391" x="0.574193" y="0.99973" width="40.8497" height="40.8511" filterUnits="userSpaceOnUse" color-interpolation-filters="sRGB">
<feFlood flood-opacity="0" result="BackgroundImageFix"/>
<feColorMatrix in="SourceAlpha" type="matrix" values="0 0 0 0 0 0 0 0 0 0 0 0 0 0 0 0 0 0 127 0" result="hardAlpha"/>
<feOffset/>
<feGaussianBlur stdDeviation="5.00001"/>
<feColorMatrix type="matrix" values="0 0 0 0 1 0 0 0 0 0.0588235 0 0 0 0 0.0588235 0 0 0 0.4 0"/>
<feBlend mode="normal" in2="BackgroundImageFix" result="effect1_dropShadow_210_10391"/>
<feBlend mode="normal" in="SourceGraphic" in2="effect1_dropShadow_210_10391" result="shape"/>
<feColorMatrix in="SourceAlpha" type="matrix" values="0 0 0 0 0 0 0 0 0 0 0 0 0 0 0 0 0 0 127 0" result="hardAlpha"/>
<feOffset dx="1.25" dy="1.25"/>
<feGaussianBlur stdDeviation="1.25"/>
<feComposite in2="hardAlpha" operator="arithmetic" k2="-1" k3="1"/>
<feColorMatrix type="matrix" values="0 0 0 0 1 0 0 0 0 1 0 0 0 0 1 0 0 0 0.25 0"/>
<feBlend mode="overlay" in2="shape" result="effect2_innerShadow_210_10391"/>
<feColorMatrix in="SourceAlpha" type="matrix" values="0 0 0 0 0 0 0 0 0 0 0 0 0 0 0 0 0 0 127 0" result="hardAlpha"/>
<feOffset dx="-1.25" dy="-1.25"/>
<feGaussianBlur stdDeviation="1.25"/>
<feComposite in2="hardAlpha" operator="arithmetic" k2="-1" k3="1"/>
<feColorMatrix type="matrix" values="0 0 0 0 0 0 0 0 0 0 0 0 0 0 0 0 0 0 0.25 0"/>
<feBlend mode="multiply" in2="effect2_innerShadow_210_10391" result="effect3_innerShadow_210_10391"/>
</filter>
<linearGradient id="paint0_linear_210_10391" x1="34.1973" y1="7.80884" x2="2.58437" y2="23.9368" gradientUnits="userSpaceOnUse">
<stop stop-color="white" stop-opacity="0.4"/>
<stop offset="1" stop-color="white" stop-opacity="0"/>
</linearGradient>
</defs>
</svg>
