<svg width="42" height="42" viewBox="0 0 42 42" fill="none" xmlns="http://www.w3.org/2000/svg">
<path d="M39.6132 35.4681L40.9961 33.9787L40.9961 38.9787L38.9749 41L3.12607 41L0.998539 38.9787L0.998539 33.9787L2.27506 35.4681L2.27506 37.9149L3.33882 38.9787L38.5494 38.9787L39.6132 37.9149L39.6132 35.4681Z" fill="white"/>
<path d="M35.8906 41L34.6141 39.9362L6.95623 39.9362L5.67971 41" stroke="#000C1A" stroke-width="0.212745"/>
<rect width="0.638235" height="0.638235" transform="matrix(4.37089e-08 -1 -1 -4.37139e-08 32.0625 41)" fill="#000C1A"/>
<rect width="0.638235" height="0.638235" transform="matrix(4.37089e-08 -1 -1 -4.37139e-08 14.8281 41)" fill="#000C1A"/>
<path d="M6.53548 39.617L8.02475 41L3.02506 41L1.00391 38.9787L1.00391 3.12783L3.02506 1.00018L8.02476 1.00018L6.53549 2.27678L4.08883 2.27678L3.02506 3.3406L3.02506 38.5532L4.08882 39.617L6.53548 39.617Z" fill="white"/>
<rect width="0.638235" height="0.638235" transform="matrix(1 8.7427e-08 8.74186e-08 -1 1.00391 32.0638)" fill="#000C1A"/>
<rect width="0.638235" height="0.638235" transform="matrix(1 8.74271e-08 8.74184e-08 -1 1.00391 14.8298)" fill="#000C1A"/>
<path d="M1.00391 35.8936L2.06767 34.617L2.06767 6.95731L1.00391 5.68071" stroke="#000C1A" stroke-width="0.212745"/>
<path d="M39.6132 6.53193L40.9961 8.02129L40.9961 3.02128L38.9749 1L3.12607 0.999998L0.998539 3.02128L0.998539 8.02129L2.27505 6.53193L2.27505 4.08511L3.33882 3.02128L38.5494 3.02128L39.6132 4.08511L39.6132 6.53193Z" fill="white"/>
<path d="M35.8906 1L34.6141 2.06383L6.95623 2.06383L5.67971 0.999999" stroke="#000C1A" stroke-width="0.212745"/>
<rect x="32.0625" y="1" width="0.638235" height="0.638235" transform="rotate(90 32.0625 1)" fill="#000C1A"/>
<rect x="14.8281" y="1" width="0.638235" height="0.638235" transform="rotate(90 14.8281 1)" fill="#000C1A"/>
<path d="M35.4684 39.617L33.9792 41L38.9788 41L41 38.9787L41 3.12783L38.9789 1.00018L33.9792 1.00018L35.4684 2.27677L37.9151 2.27677L38.9789 3.3406L38.9788 38.5532L37.9151 39.617L35.4684 39.617Z" fill="white"/>
<path d="M41 35.8936L39.9362 34.617L39.9362 6.95731L41 5.68071" stroke="#000C1A" stroke-width="0.212745"/>
<rect x="41" y="32.0638" width="0.638235" height="0.638235" transform="rotate(-180 41 32.0638)" fill="#000C1A"/>
<rect x="41" y="14.8298" width="0.638235" height="0.638235" transform="rotate(-180 41 14.8298)" fill="#000C1A"/>
<g filter="url(#filter0_b_210_10352)">
<path d="M32.5816 7.80847L34.1953 9.49248L34.1953 12.2992L34.1953 31.2443L34.1953 32.788L32.757 34.1913L31.8799 34.1913L10.8311 34.1913L9.32264 34.1913L7.81414 32.788L7.81414 29.9813L7.81414 12.1588L7.81414 9.28198L9.35773 7.80847L10.9013 7.80847L30.8275 7.80847L32.5816 7.80847Z" fill="url(#paint0_linear_210_10352)" fill-opacity="0.1"/>
<path d="M32.6207 7.77095L32.6047 7.75424L32.5816 7.75424L30.8275 7.75424L10.9013 7.75424L9.35773 7.75424L9.33599 7.75424L9.32028 7.76924L7.7767 9.24275L7.75991 9.25877L7.75991 9.28198L7.75991 12.1588L7.75991 29.9813L7.75991 32.788L7.75991 32.8116L7.7772 32.8277L9.2857 34.231L9.30132 34.2456L9.32264 34.2456L10.8311 34.2456L31.8799 34.2456L32.757 34.2456L32.7791 34.2456L32.7949 34.2301L34.2332 32.8268L34.2495 32.8108L34.2495 32.788L34.2495 31.2443L34.2495 12.2992L34.2495 9.49248L34.2495 9.47069L34.2345 9.45496L32.6207 7.77095Z" stroke="white" stroke-width="0.108471"/>
</g>
<line x1="36.8789" y1="6.35964" x2="35.5216" y2="6.35964" stroke="#DD432B" stroke-width="0.193894"/>
<line x1="36.1999" y1="7.03796" x2="36.1999" y2="5.68071" stroke="#DD432B" stroke-width="0.193894"/>
<line x1="6.24609" y1="6.35964" x2="4.88883" y2="6.35964" stroke="#DD432B" stroke-width="0.193894"/>
<line x1="5.56712" y1="7.03796" x2="5.56712" y2="5.68071" stroke="#DD432B" stroke-width="0.193894"/>
<line x1="36.8789" y1="35.6404" x2="35.5216" y2="35.6404" stroke="#DD432B" stroke-width="0.193894"/>
<line x1="36.1999" y1="36.3187" x2="36.1999" y2="34.9615" stroke="#DD432B" stroke-width="0.193894"/>
<line x1="6.24609" y1="35.6404" x2="4.88883" y2="35.6404" stroke="#DD432B" stroke-width="0.193894"/>
<line x1="5.56712" y1="36.3187" x2="5.56712" y2="34.9615" stroke="#DD432B" stroke-width="0.193894"/>
<g clip-path="url(#clip0_210_10352)" filter="url(#filter1_dii_210_10352)">
<g filter="url(#filter2_dii_210_10352)">
<path d="M27.6041 15.7452C26.0226 14.4742 23.5218 14.2589 23.4161 14.2497C23.249 14.2354 23.0905 14.33 23.022 14.4827C23.0194 14.4879 22.8798 14.8931 22.7447 15.2839C24.5826 15.6056 25.8314 16.3194 25.898 16.3586C26.2098 16.5399 26.3142 16.9399 26.1322 17.2512C26.0115 17.4586 25.7929 17.5748 25.5685 17.5748C25.4569 17.5748 25.3447 17.5467 25.2416 17.4867C25.2233 17.4756 23.3913 16.4329 21.0027 16.4329C18.6134 16.4329 16.7807 17.4763 16.7625 17.4867C16.4512 17.6674 16.052 17.5611 15.8712 17.2492C15.6905 16.9386 15.7955 16.5399 16.1061 16.3586C16.1727 16.3194 17.426 15.603 19.2691 15.282C19.1269 14.8866 18.9834 14.4879 18.9808 14.4827C18.9123 14.3293 18.7537 14.2328 18.5867 14.2497C18.481 14.2582 15.9802 14.4735 14.3778 15.7622C13.54 16.536 11.8672 21.0604 11.8672 24.972C11.8672 25.0412 11.8848 25.1084 11.9194 25.1684C13.0749 27.1976 16.2249 27.7287 16.9425 27.7516C16.9471 27.7522 16.951 27.7522 16.9549 27.7522C17.0815 27.7522 17.2009 27.6916 17.2759 27.5891L18.0523 26.5373C16.3495 26.1269 15.4491 25.4816 15.3949 25.4418C15.1053 25.2284 15.0426 24.82 15.256 24.5296C15.4687 24.2406 15.8758 24.1766 16.1655 24.3887C16.1896 24.4043 17.8514 25.5677 21.0014 25.5677C24.1638 25.5677 25.821 24.3998 25.8373 24.388C26.127 24.1779 26.5354 24.2412 26.7474 24.5322C26.9588 24.8219 26.8975 25.2278 26.6091 25.4405C26.555 25.4803 25.6592 26.1243 23.9602 26.5347L24.7268 27.5885C24.8019 27.6916 24.9213 27.7516 25.0478 27.7516C25.0524 27.7516 25.0563 27.7516 25.0602 27.7509C25.7786 27.7281 28.9286 27.197 30.0834 25.1677C30.118 25.1077 30.1356 25.0405 30.1356 24.9713C30.1356 21.0604 28.4627 16.536 27.6041 15.7452ZM18.3916 23.6103C17.6707 23.6103 17.0867 22.8801 17.0867 21.9791C17.0867 21.078 17.6707 20.3478 18.3916 20.3478C19.1126 20.3478 19.6965 21.078 19.6965 21.9791C19.6965 22.8801 19.1126 23.6103 18.3916 23.6103ZM23.6112 23.6103C22.8902 23.6103 22.3063 22.8801 22.3063 21.9791C22.3063 21.078 22.8902 20.3478 23.6112 20.3478C24.3321 20.3478 24.916 21.078 24.916 21.9791C24.916 22.8801 24.3321 23.6103 23.6112 23.6103Z" fill="white"/>
</g>
</g>
<defs>
<filter id="filter0_b_210_10352" x="0.764878" y="0.757798" width="40.482" height="40.4842" filterUnits="userSpaceOnUse" color-interpolation-filters="sRGB">
<feFlood flood-opacity="0" result="BackgroundImageFix"/>
<feGaussianBlur in="BackgroundImage" stdDeviation="3.47108"/>
<feComposite in2="SourceAlpha" operator="in" result="effect1_backgroundBlur_210_10352"/>
<feBlend mode="normal" in="SourceGraphic" in2="effect1_backgroundBlur_210_10352" result="shape"/>
</filter>
<filter id="filter1_dii_210_10352" x="1.21091" y="1.21286" width="39.5743" height="39.5745" filterUnits="userSpaceOnUse" color-interpolation-filters="sRGB">
<feFlood flood-opacity="0" result="BackgroundImageFix"/>
<feColorMatrix in="SourceAlpha" type="matrix" values="0 0 0 0 0 0 0 0 0 0 0 0 0 0 0 0 0 0 127 0" result="hardAlpha"/>
<feOffset/>
<feGaussianBlur stdDeviation="5.00001"/>
<feColorMatrix type="matrix" values="0 0 0 0 0.4 0 0 0 0 0.8 0 0 0 0 1 0 0 0 0.4 0"/>
<feBlend mode="normal" in2="BackgroundImageFix" result="effect1_dropShadow_210_10352"/>
<feBlend mode="normal" in="SourceGraphic" in2="effect1_dropShadow_210_10352" result="shape"/>
<feColorMatrix in="SourceAlpha" type="matrix" values="0 0 0 0 0 0 0 0 0 0 0 0 0 0 0 0 0 0 127 0" result="hardAlpha"/>
<feOffset dx="1.25" dy="1.25"/>
<feGaussianBlur stdDeviation="1.25"/>
<feComposite in2="hardAlpha" operator="arithmetic" k2="-1" k3="1"/>
<feColorMatrix type="matrix" values="0 0 0 0 1 0 0 0 0 1 0 0 0 0 1 0 0 0 0.25 0"/>
<feBlend mode="overlay" in2="shape" result="effect2_innerShadow_210_10352"/>
<feColorMatrix in="SourceAlpha" type="matrix" values="0 0 0 0 0 0 0 0 0 0 0 0 0 0 0 0 0 0 127 0" result="hardAlpha"/>
<feOffset dx="-1.25" dy="-1.25"/>
<feGaussianBlur stdDeviation="1.25"/>
<feComposite in2="hardAlpha" operator="arithmetic" k2="-1" k3="1"/>
<feColorMatrix type="matrix" values="0 0 0 0 0 0 0 0 0 0 0 0 0 0 0 0 0 0 0.25 0"/>
<feBlend mode="multiply" in2="effect2_innerShadow_210_10352" result="effect3_innerShadow_210_10352"/>
</filter>
<filter id="filter2_dii_210_10352" x="1.86716" y="4.24778" width="38.2696" height="33.5044" filterUnits="userSpaceOnUse" color-interpolation-filters="sRGB">
<feFlood flood-opacity="0" result="BackgroundImageFix"/>
<feColorMatrix in="SourceAlpha" type="matrix" values="0 0 0 0 0 0 0 0 0 0 0 0 0 0 0 0 0 0 127 0" result="hardAlpha"/>
<feOffset/>
<feGaussianBlur stdDeviation="5.00001"/>
<feColorMatrix type="matrix" values="0 0 0 0 0 0 0 0 0 0.803922 0 0 0 0 0.176471 0 0 0 0.4 0"/>
<feBlend mode="normal" in2="BackgroundImageFix" result="effect1_dropShadow_210_10352"/>
<feBlend mode="normal" in="SourceGraphic" in2="effect1_dropShadow_210_10352" result="shape"/>
<feColorMatrix in="SourceAlpha" type="matrix" values="0 0 0 0 0 0 0 0 0 0 0 0 0 0 0 0 0 0 127 0" result="hardAlpha"/>
<feOffset dx="1.25" dy="1.25"/>
<feGaussianBlur stdDeviation="1.25"/>
<feComposite in2="hardAlpha" operator="arithmetic" k2="-1" k3="1"/>
<feColorMatrix type="matrix" values="0 0 0 0 1 0 0 0 0 1 0 0 0 0 1 0 0 0 0.25 0"/>
<feBlend mode="overlay" in2="shape" result="effect2_innerShadow_210_10352"/>
<feColorMatrix in="SourceAlpha" type="matrix" values="0 0 0 0 0 0 0 0 0 0 0 0 0 0 0 0 0 0 127 0" result="hardAlpha"/>
<feOffset dx="-1.25" dy="-1.25"/>
<feGaussianBlur stdDeviation="1.25"/>
<feComposite in2="hardAlpha" operator="arithmetic" k2="-1" k3="1"/>
<feColorMatrix type="matrix" values="0 0 0 0 0 0 0 0 0 0 0 0 0 0 0 0 0 0 0.25 0"/>
<feBlend mode="multiply" in2="effect2_innerShadow_210_10352" result="effect3_innerShadow_210_10352"/>
</filter>
<linearGradient id="paint0_linear_210_10352" x1="34.1953" y1="7.80847" x2="2.58241" y2="23.9365" gradientUnits="userSpaceOnUse">
<stop stop-color="white" stop-opacity="0.4"/>
<stop offset="1" stop-color="white" stop-opacity="0"/>
</linearGradient>
<clipPath id="clip0_210_10352">
<rect width="19.5733" height="19.5745" fill="white" transform="translate(11.2109 11.2129)"/>
</clipPath>
</defs>
</svg>
