<svg width="42" height="42" viewBox="0 0 42 42" fill="none" xmlns="http://www.w3.org/2000/svg">
<g style="mix-blend-mode:darken">
<path d="M35.8939 1.21287L38.4626 1.21287L40.7873 3.63876L40.7873 7.80855L40.7873 36.5316L40.7873 38.7823L38.7327 40.7869L37.4896 40.7869L5.57663 40.7869L3.37319 40.7869L1.21519 38.7794L1.21519 34.6167L1.21519 7.59579L1.21519 3.32517L3.42797 1.21287L5.68301 1.21287L35.8939 1.21287Z" stroke="white" stroke-width="0.42549"/>
</g>
<path d="M39.6132 35.4681L40.9961 33.9788L40.9961 38.9787L38.9749 41L3.12607 41L0.998539 38.9787L0.998539 33.9788L2.27506 35.4681L2.27506 37.9149L3.33882 38.9787L38.5494 38.9787L39.6132 37.9149L39.6132 35.4681Z" fill="white"/>
<path d="M35.8906 41L34.6141 39.9362L6.95623 39.9362L5.67971 41" stroke="#000C1A" stroke-width="0.212745"/>
<rect width="0.638235" height="0.638235" transform="matrix(4.37092e-08 -1 -1 -4.37135e-08 32.0625 41)" fill="#000C1A"/>
<rect width="0.638235" height="0.638235" transform="matrix(4.37092e-08 -1 -1 -4.37135e-08 14.8281 41)" fill="#000C1A"/>
<path d="M6.5433 39.6167L8.03257 40.9996L3.03287 40.9996L1.01172 38.9784L1.01172 3.12775L3.03288 1.00011L8.03257 1.00012L6.5433 2.2767L4.09664 2.2767L3.03288 3.34051L3.03287 38.5529L4.09664 39.6167L6.5433 39.6167Z" fill="white"/>
<rect width="0.638235" height="0.638235" transform="matrix(1 8.74263e-08 8.74192e-08 -1 1.01172 32.0636)" fill="#000C1A"/>
<rect width="0.638235" height="0.638235" transform="matrix(1 8.74263e-08 8.74192e-08 -1 1.01172 14.8296)" fill="#000C1A"/>
<path d="M1.01172 35.8933L2.07548 34.6167L2.07549 6.9573L1.01172 5.68071" stroke="#000C1A" stroke-width="0.212745"/>
<path d="M39.6132 6.53188L40.9961 8.02124L40.9961 3.02127L38.9749 1L3.12607 0.999998L0.998539 3.02126L0.998539 8.02124L2.27505 6.53188L2.27505 4.08509L3.33882 3.02126L38.5494 3.02127L39.6132 4.08509L39.6132 6.53188Z" fill="white"/>
<path d="M35.8906 1L34.6141 2.06382L6.95623 2.06382L5.67971 0.999999" stroke="#000C1A" stroke-width="0.212745"/>
<rect x="32.0625" y="1" width="0.638235" height="0.638235" transform="rotate(90 32.0625 1)" fill="#000C1A"/>
<rect x="14.8281" y="1" width="0.638235" height="0.638235" transform="rotate(90 14.8281 1)" fill="#000C1A"/>
<path d="M35.4684 39.6168L33.9792 40.9998L38.9788 40.9998L41 38.9785L41 3.12787L38.9789 1.00023L33.9792 1.00023L35.4684 2.27681L37.9151 2.27681L38.9789 3.34063L38.9788 38.553L37.9151 39.6168L35.4684 39.6168Z" fill="white"/>
<path d="M41 35.8933L39.9362 34.6167L39.9362 6.9573L41 5.68071" stroke="#000C1A" stroke-width="0.212745"/>
<rect x="41" y="32.0636" width="0.638235" height="0.638235" transform="rotate(-180 41 32.0636)" fill="#000C1A"/>
<rect x="41" y="14.8297" width="0.638235" height="0.638235" transform="rotate(-180 41 14.8297)" fill="#000C1A"/>
<g filter="url(#filter0_b_210_10312)">
<path d="M32.7378 7.80896L34.3516 9.49296L34.3516 12.2996L34.3516 31.2446L34.3516 32.7883L32.9132 34.1916L32.0362 34.1916L10.9874 34.1916L9.47889 34.1916L7.97039 32.7883L7.97039 29.9816L7.97039 12.1593L7.97039 9.28246L9.51398 7.80896L11.0576 7.80896L30.9838 7.80896L32.7378 7.80896Z" fill="url(#paint0_linear_210_10312)" fill-opacity="0.1"/>
<path d="M32.777 7.77144L32.761 7.75472L32.7378 7.75472L30.9838 7.75472L11.0576 7.75472L9.51398 7.75472L9.49224 7.75472L9.47653 7.76973L7.93295 9.24323L7.91616 9.25925L7.91616 9.28246L7.91616 12.1593L7.91616 29.9816L7.91616 32.7883L7.91616 32.8119L7.93345 32.828L9.44195 34.2313L9.45757 34.2458L9.47889 34.2458L10.9874 34.2458L32.0362 34.2458L32.9132 34.2458L32.9353 34.2458L32.9511 34.2304L34.3894 32.8271L34.4058 32.8111L34.4058 32.7883L34.4058 31.2446L34.4058 12.2996L34.4058 9.49296L34.4058 9.47117L34.3907 9.45543L32.777 7.77144Z" stroke="white" stroke-width="0.108471"/>
</g>
<line x1="37.043" y1="6.36025" x2="35.6857" y2="6.36025" stroke="#DD432B" stroke-width="0.193894"/>
<line x1="36.364" y1="7.03857" x2="36.364" y2="5.68132" stroke="#DD432B" stroke-width="0.193894"/>
<line x1="6.40625" y1="6.36025" x2="5.04899" y2="6.36025" stroke="#DD432B" stroke-width="0.193894"/>
<line x1="5.72727" y1="7.03857" x2="5.72727" y2="5.68132" stroke="#DD432B" stroke-width="0.193894"/>
<line x1="37.043" y1="35.6406" x2="35.6857" y2="35.6406" stroke="#DD432B" stroke-width="0.193894"/>
<line x1="36.364" y1="36.3188" x2="36.364" y2="34.9616" stroke="#DD432B" stroke-width="0.193894"/>
<line x1="6.40625" y1="35.6406" x2="5.04899" y2="35.6406" stroke="#DD432B" stroke-width="0.193894"/>
<line x1="5.72727" y1="36.319" x2="5.72727" y2="34.9617" stroke="#DD432B" stroke-width="0.193894"/>
<g filter="url(#filter1_dii_210_10312)">
<path d="M29.8385 17.1174C29.8468 17.3013 29.8509 17.4839 29.8509 17.6665C29.8509 23.2938 25.5699 29.7786 17.7395 29.7786C15.3341 29.7786 13.0974 29.0745 11.2148 27.8655C11.5482 27.9057 11.8871 27.9236 12.2315 27.9236C14.2275 27.9236 16.0616 27.2444 17.5168 26.1005C15.6536 26.0659 14.0809 24.8348 13.54 23.1444C13.8001 23.1942 14.067 23.2204 14.3409 23.2204C14.7296 23.2204 15.1072 23.1679 15.4627 23.0711C13.5151 22.681 12.0475 20.9601 12.0475 18.8977C12.0475 18.8797 12.0475 18.8617 12.0475 18.8437C12.6216 19.1633 13.2772 19.3541 13.9757 19.3763C12.8346 18.6141 12.0821 17.3096 12.0821 15.8337C12.0821 15.0521 12.291 14.3203 12.6575 13.6937C14.7573 16.2694 17.8944 17.9653 21.4313 18.1424C21.3593 17.8311 21.322 17.5061 21.322 17.1727C21.322 14.8225 23.2281 12.9149 25.5782 12.9149C26.8023 12.9149 27.9089 13.4323 28.6849 14.2595C29.6545 14.0672 30.566 13.7145 31.389 13.2262C31.0709 14.2207 30.3959 15.0535 29.5162 15.5819C30.3765 15.4795 31.1968 15.2513 31.9617 14.9124C31.3932 15.7673 30.6725 16.5156 29.8385 17.1174Z" fill="white"/>
</g>
<defs>
<filter id="filter0_b_210_10312" x="0.921128" y="0.758286" width="40.482" height="40.4839" filterUnits="userSpaceOnUse" color-interpolation-filters="sRGB">
<feFlood flood-opacity="0" result="BackgroundImageFix"/>
<feGaussianBlur in="BackgroundImage" stdDeviation="3.47108"/>
<feComposite in2="SourceAlpha" operator="in" result="effect1_backgroundBlur_210_10312"/>
<feBlend mode="normal" in="SourceGraphic" in2="effect1_backgroundBlur_210_10312" result="shape"/>
</filter>
<filter id="filter1_dii_210_10312" x="1.21482" y="2.91489" width="40.7461" height="36.8638" filterUnits="userSpaceOnUse" color-interpolation-filters="sRGB">
<feFlood flood-opacity="0" result="BackgroundImageFix"/>
<feColorMatrix in="SourceAlpha" type="matrix" values="0 0 0 0 0 0 0 0 0 0 0 0 0 0 0 0 0 0 127 0" result="hardAlpha"/>
<feOffset/>
<feGaussianBlur stdDeviation="5.00001"/>
<feColorMatrix type="matrix" values="0 0 0 0 0.4 0 0 0 0 0.8 0 0 0 0 1 0 0 0 0.4 0"/>
<feBlend mode="normal" in2="BackgroundImageFix" result="effect1_dropShadow_210_10312"/>
<feBlend mode="normal" in="SourceGraphic" in2="effect1_dropShadow_210_10312" result="shape"/>
<feColorMatrix in="SourceAlpha" type="matrix" values="0 0 0 0 0 0 0 0 0 0 0 0 0 0 0 0 0 0 127 0" result="hardAlpha"/>
<feOffset dx="1.25" dy="1.25"/>
<feGaussianBlur stdDeviation="1.25"/>
<feComposite in2="hardAlpha" operator="arithmetic" k2="-1" k3="1"/>
<feColorMatrix type="matrix" values="0 0 0 0 1 0 0 0 0 1 0 0 0 0 1 0 0 0 0.25 0"/>
<feBlend mode="overlay" in2="shape" result="effect2_innerShadow_210_10312"/>
<feColorMatrix in="SourceAlpha" type="matrix" values="0 0 0 0 0 0 0 0 0 0 0 0 0 0 0 0 0 0 127 0" result="hardAlpha"/>
<feOffset dx="-1.25" dy="-1.25"/>
<feGaussianBlur stdDeviation="1.25"/>
<feComposite in2="hardAlpha" operator="arithmetic" k2="-1" k3="1"/>
<feColorMatrix type="matrix" values="0 0 0 0 0 0 0 0 0 0 0 0 0 0 0 0 0 0 0.25 0"/>
<feBlend mode="multiply" in2="effect2_innerShadow_210_10312" result="effect3_innerShadow_210_10312"/>
</filter>
<linearGradient id="paint0_linear_210_10312" x1="34.3516" y1="7.80896" x2="2.73877" y2="23.937" gradientUnits="userSpaceOnUse">
<stop stop-color="white" stop-opacity="0.4"/>
<stop offset="1" stop-color="white" stop-opacity="0"/>
</linearGradient>
</defs>
</svg>
