<svg width="122" height="120" viewBox="0 0 122 120" fill="none" xmlns="http://www.w3.org/2000/svg">
<path d="M79.6134 74.4682L80.9961 72.9789L80.9961 77.9789L78.9752 80.0001L43.1307 80.0001L41.0034 77.9788L41.0034 72.9789L42.2798 74.4682L42.2798 76.915L43.3434 77.9788L78.5497 77.9789L79.6134 76.915L79.6134 74.4682Z" fill="white"/>
<path d="M75.8906 80.0001L74.6143 78.9363L46.9598 78.9363L45.6834 80.0001" stroke="#000C1A" stroke-width="0.212766"/>
<rect width="0.638299" height="0.638299" transform="matrix(4.3712e-08 -1 -1 -4.37107e-08 72.0625 80.0001)" fill="#000C1A"/>
<rect width="0.638299" height="0.638299" transform="matrix(4.3712e-08 -1 -1 -4.37107e-08 54.832 80.0001)" fill="#000C1A"/>
<path d="M46.5387 78.617L48.0278 80L43.0287 80L41.0078 77.9788L41.0078 42.1283L43.0287 40.0007L48.0278 40.0007L46.5387 41.2773L44.0924 41.2773L43.0287 42.3411L43.0287 77.5532L44.0924 78.617L46.5387 78.617Z" fill="white"/>
<path d="M41.0078 74.8939L42.0716 73.6173L42.0716 45.9581L41.0078 44.6815" stroke="#000C1A" stroke-width="0.212766"/>
<rect width="0.638299" height="0.638299" transform="matrix(1 8.74283e-08 8.74172e-08 -1 41.0078 71.064)" fill="#000C1A"/>
<rect width="0.638299" height="0.638299" transform="matrix(1 8.7428e-08 8.74176e-08 -1 41.0078 53.83)" fill="#000C1A"/>
<path d="M79.6095 45.5319L80.9922 47.0213L80.9922 42.0213L78.9713 40L43.1268 40L40.9995 42.0213L40.9995 47.0213L42.2759 45.5319L42.2759 43.0851L43.3395 42.0213L78.5458 42.0213L79.6095 43.0851L79.6095 45.5319Z" fill="white"/>
<path d="M75.8828 40L74.6065 41.0638L46.9519 41.0638L45.6756 40" stroke="#000C1A" stroke-width="0.212766"/>
<rect x="72.0586" y="40" width="0.638299" height="0.638299" transform="rotate(90 72.0586 40)" fill="#000C1A"/>
<rect x="54.8281" y="40" width="0.638299" height="0.638299" transform="rotate(90 54.8281 40)" fill="#000C1A"/>
<path d="M75.4691 78.6168L73.98 79.9998L78.9791 79.9998L81 77.9785L81 42.1281L78.9791 40.0004L73.98 40.0004L75.4691 41.277L77.9155 41.277L78.9791 42.3408L78.9791 77.553L77.9155 78.6168L75.4691 78.6168Z" fill="white"/>
<path d="M81 74.8936L79.9362 73.617L79.9362 45.9578L81 44.6812" stroke="#000C1A" stroke-width="0.212766"/>
<rect x="81" y="71.0637" width="0.638299" height="0.638299" transform="rotate(-180 81 71.0637)" fill="#000C1A"/>
<rect x="81" y="53.8297" width="0.638299" height="0.638299" transform="rotate(-180 81 53.8297)" fill="#000C1A"/>
<g filter="url(#filter0_b_210_10271)">
<path d="M72.363 46.8083L73.9766 48.4923L73.9766 51.299L73.9766 70.2437L73.9766 71.7874L72.5384 73.1907L71.6615 73.1907L50.6152 73.1907L49.1069 73.1907L47.5986 71.7874L47.5986 68.9807L47.5986 51.1586L47.5986 48.2818L49.142 46.8083L50.6854 46.8083L70.6092 46.8083L72.363 46.8083Z" fill="url(#paint0_linear_210_10271)" fill-opacity="0.1"/>
<path d="M72.4022 46.7708L72.3862 46.7541L72.363 46.7541L70.6092 46.7541L50.6854 46.7541L49.142 46.7541L49.1203 46.7541L49.1046 46.7691L47.5612 48.2426L47.5444 48.2586L47.5444 48.2818L47.5444 51.1586L47.5444 68.9807L47.5444 71.7874L47.5444 71.811L47.5617 71.8271L49.07 73.2304L49.0856 73.2449L49.1069 73.2449L50.6152 73.2449L71.6615 73.2449L72.5384 73.2449L72.5605 73.2449L72.5763 73.2295L74.0144 71.8262L74.0308 71.8102L74.0308 71.7874L74.0308 70.2437L74.0308 51.299L74.0308 48.4923L74.0308 48.4705L74.0157 48.4548L72.4022 46.7708Z" stroke="white" stroke-width="0.108482"/>
</g>
<line x1="76.7422" y1="45.3598" x2="75.3848" y2="45.3598" stroke="#DD432B" stroke-width="0.193914"/>
<line x1="76.0632" y1="46.0383" x2="76.0632" y2="44.6809" stroke="#DD432B" stroke-width="0.193914"/>
<line x1="46.1094" y1="45.3598" x2="44.752" y2="45.3598" stroke="#DD432B" stroke-width="0.193914"/>
<line x1="45.4304" y1="46.0383" x2="45.4304" y2="44.6809" stroke="#DD432B" stroke-width="0.193914"/>
<line x1="76.7422" y1="74.64" x2="75.3848" y2="74.64" stroke="#DD432B" stroke-width="0.193914"/>
<line x1="76.0632" y1="75.3186" x2="76.0632" y2="73.9612" stroke="#DD432B" stroke-width="0.193914"/>
<line x1="46.1094" y1="74.64" x2="44.752" y2="74.64" stroke="#DD432B" stroke-width="0.193914"/>
<line x1="45.4304" y1="75.3186" x2="45.4304" y2="73.9612" stroke="#DD432B" stroke-width="0.193914"/>
<g filter="url(#filter1_dii_210_10271)">
<g filter="url(#filter2_d_210_10271)">
<path fill-rule="evenodd" clip-rule="evenodd" d="M53.433 61.48L53.5206 61.3637L57.6043 54.9957C57.6626 54.9084 57.8085 54.9084 57.8668 55.0247C58.5377 56.5659 59.1211 58.4559 58.8586 59.6481C58.7419 60.1424 58.421 60.8112 58.0418 61.3928C58.0127 61.5091 57.9543 61.5963 57.896 61.6545C57.8668 61.6836 57.8376 61.7127 57.7501 61.7127L53.5497 61.7127C53.433 61.6836 53.3747 61.5673 53.433 61.48Z" fill="white"/>
</g>
<g filter="url(#filter3_d_210_10271)">
<path fill-rule="evenodd" clip-rule="evenodd" d="M70.6709 62.4425L70.6709 63.4312C70.6709 63.4894 70.6418 63.5184 70.5834 63.5475C70.2626 63.6929 69.1541 64.1872 68.7166 64.8269C67.5498 66.4262 66.6747 68.7234 64.7203 68.7234L56.4945 68.7234C53.5776 68.7234 51.2148 66.3681 51.2148 63.4312L51.2148 63.344C51.2148 63.2858 51.3024 63.2276 51.3607 63.2276L55.9986 63.2276C56.0862 63.2276 56.1445 63.3149 56.1445 63.373C56.1153 63.6638 56.1737 63.9837 56.2903 64.2454C56.582 64.8269 57.1654 65.1177 57.7488 65.1177L60.024 65.1177L60.024 63.373L57.778 63.373C57.6613 63.373 57.603 63.2567 57.6613 63.1404C57.6905 63.1113 57.7197 63.0823 57.7488 63.0241C57.9822 62.7042 58.2447 62.2681 58.5656 61.7447C58.7989 61.3957 58.9739 60.9886 59.149 60.6106C59.1781 60.5525 59.2073 60.4943 59.2365 60.378C59.2656 60.2617 59.324 60.1454 59.3531 60.0291C59.3823 59.9418 59.4115 59.8546 59.4407 59.7674C59.5282 59.4475 59.5573 59.0986 59.5573 58.7206C59.5573 58.6043 59.5573 58.4298 59.5282 58.2844C59.5282 58.139 59.4698 57.9645 59.4698 57.8192C59.4698 57.6738 59.4407 57.5284 59.4115 57.4121C59.3823 57.1794 59.3531 57.005 59.2948 56.7723L59.2656 56.7142C59.2365 56.5979 59.2073 56.4234 59.149 56.3071C59.0031 55.8709 58.8573 55.4348 58.6822 55.0567C58.6239 54.8823 58.5656 54.7369 58.5072 54.5624C58.4197 54.3589 58.303 54.1263 58.2155 53.9518C58.1864 53.8645 58.128 53.7773 58.0989 53.6901C58.0697 53.6028 58.0113 53.5156 57.9822 53.4284C57.953 53.3411 57.8947 53.283 57.8655 53.2248L57.603 52.7305C57.5738 52.6724 57.6321 52.556 57.6905 52.5851L59.4115 53.0794L59.6448 53.1376L59.8782 53.1958L59.9949 53.2248L59.9949 52.178C59.9949 51.6837 60.4032 51.2766 60.87 51.2766C61.1325 51.2766 61.3367 51.3638 61.5117 51.5383C61.6575 51.6837 61.745 51.9163 61.745 52.1489L61.745 53.661L61.9492 53.7192C61.9492 53.7192 61.9784 53.7192 61.9784 53.7482C62.0076 53.7773 62.0659 53.8645 62.1534 53.9227C62.2118 53.9809 62.2993 54.039 62.3868 54.0972C62.5326 54.2426 62.766 54.417 62.9702 54.6206C63.0577 54.6787 63.116 54.7078 63.1452 54.766C63.4077 55.0277 63.7286 55.3184 64.0494 55.6674C64.1369 55.7837 64.1953 55.8709 64.312 55.9582C64.3995 56.0454 64.4578 56.1908 64.5453 56.278C64.662 56.3943 64.7787 56.5688 64.8662 56.6851C64.8954 56.7433 64.9537 56.8014 64.9829 56.8887C65.1287 57.0922 65.2162 57.2667 65.3329 57.4702C65.3621 57.5574 65.4496 57.6447 65.4787 57.761C65.5954 57.9936 65.6829 58.2553 65.7121 58.5461C65.7413 58.6043 65.7413 58.6624 65.7413 58.6915C65.7996 58.7496 65.7996 58.8369 65.7996 58.9532C65.8288 59.2149 65.7996 59.4766 65.7413 59.7674C65.7121 59.8837 65.6829 59.9709 65.6538 60.1163C65.6246 60.2035 65.5954 60.3199 65.5371 60.4652C65.4496 60.6688 65.3037 60.9014 65.1871 61.105C65.1579 61.1631 65.0995 61.2794 65.0412 61.3667C64.9537 61.4539 64.8954 61.5121 64.8662 61.5993C64.8078 61.7156 64.7203 61.8028 64.662 61.8901C64.5745 61.9773 64.5162 62.0936 64.4286 62.1808C64.3411 62.2972 64.1953 62.4425 64.1078 62.5589C64.0494 62.617 63.9911 62.7042 63.9036 62.7624C63.8453 62.8496 63.7577 62.9369 63.6702 62.995C63.5827 63.0823 63.4952 63.1986 63.3785 63.2567L63.2035 63.4021C63.1744 63.4312 63.1452 63.4312 63.116 63.4312L61.7159 63.4312L61.7159 65.205L63.466 65.205C63.8453 65.205 64.1953 65.0596 64.487 64.8269C64.5745 64.7106 65.0412 64.3326 65.5663 63.7801C65.5954 63.7511 65.5954 63.7511 65.6246 63.7511L70.4084 62.3553C70.6126 62.2681 70.6709 62.3262 70.6709 62.4425Z" fill="white"/>
</g>
</g>
<defs>
<filter id="filter0_b_210_10271" x="40.5454" y="39.757" width="40.4834" height="40.4851" filterUnits="userSpaceOnUse" color-interpolation-filters="sRGB">
<feFlood flood-opacity="0" result="BackgroundImageFix"/>
<feGaussianBlur in="BackgroundImage" stdDeviation="3.47143"/>
<feComposite in2="SourceAlpha" operator="in" result="effect1_backgroundBlur_210_10271"/>
<feBlend mode="normal" in="SourceGraphic" in2="effect1_backgroundBlur_210_10271" result="shape"/>
</filter>
<filter id="filter1_dii_210_10271" x="41.2148" y="41.2765" width="39.4572" height="37.4469" filterUnits="userSpaceOnUse" color-interpolation-filters="sRGB">
<feFlood flood-opacity="0" result="BackgroundImageFix"/>
<feColorMatrix in="SourceAlpha" type="matrix" values="0 0 0 0 0 0 0 0 0 0 0 0 0 0 0 0 0 0 127 0" result="hardAlpha"/>
<feOffset/>
<feGaussianBlur stdDeviation="5.00004"/>
<feColorMatrix type="matrix" values="0 0 0 0 0.4 0 0 0 0 0.8 0 0 0 0 1 0 0 0 0.4 0"/>
<feBlend mode="normal" in2="BackgroundImageFix" result="effect1_dropShadow_210_10271"/>
<feBlend mode="normal" in="SourceGraphic" in2="effect1_dropShadow_210_10271" result="shape"/>
<feColorMatrix in="SourceAlpha" type="matrix" values="0 0 0 0 0 0 0 0 0 0 0 0 0 0 0 0 0 0 127 0" result="hardAlpha"/>
<feOffset dx="1.25001" dy="1.25001"/>
<feGaussianBlur stdDeviation="1.25001"/>
<feComposite in2="hardAlpha" operator="arithmetic" k2="-1" k3="1"/>
<feColorMatrix type="matrix" values="0 0 0 0 1 0 0 0 0 1 0 0 0 0 1 0 0 0 0.25 0"/>
<feBlend mode="overlay" in2="shape" result="effect2_innerShadow_210_10271"/>
<feColorMatrix in="SourceAlpha" type="matrix" values="0 0 0 0 0 0 0 0 0 0 0 0 0 0 0 0 0 0 127 0" result="hardAlpha"/>
<feOffset dx="-1.25001" dy="-1.25001"/>
<feGaussianBlur stdDeviation="1.25001"/>
<feComposite in2="hardAlpha" operator="arithmetic" k2="-1" k3="1"/>
<feColorMatrix type="matrix" values="0 0 0 0 0 0 0 0 0 0 0 0 0 0 0 0 0 0 0.25 0"/>
<feBlend mode="multiply" in2="effect2_innerShadow_210_10271" result="effect3_innerShadow_210_10271"/>
</filter>
<filter id="filter2_d_210_10271" x="2.23065" y="3.75397" width="107.871" height="109.138" filterUnits="userSpaceOnUse" color-interpolation-filters="sRGB">
<feFlood flood-opacity="0" result="BackgroundImageFix"/>
<feColorMatrix in="SourceAlpha" type="matrix" values="0 0 0 0 0 0 0 0 0 0 0 0 0 0 0 0 0 0 127 0" result="hardAlpha"/>
<feMorphology radius="10.2359" operator="dilate" in="SourceAlpha" result="effect1_dropShadow_210_10271"/>
<feOffset/>
<feGaussianBlur stdDeviation="20.4718"/>
<feColorMatrix type="matrix" values="0 0 0 0 0.0470588 0 0 0 0 0.772549 0 0 0 0 1 0 0 0 1 0"/>
<feBlend mode="normal" in2="BackgroundImageFix" result="effect1_dropShadow_210_10271"/>
<feBlend mode="normal" in="SourceGraphic" in2="effect1_dropShadow_210_10271" result="shape"/>
</filter>
<filter id="filter3_d_210_10271" x="0.0353394" y="0.0971069" width="121.816" height="119.806" filterUnits="userSpaceOnUse" color-interpolation-filters="sRGB">
<feFlood flood-opacity="0" result="BackgroundImageFix"/>
<feColorMatrix in="SourceAlpha" type="matrix" values="0 0 0 0 0 0 0 0 0 0 0 0 0 0 0 0 0 0 127 0" result="hardAlpha"/>
<feMorphology radius="10.2359" operator="dilate" in="SourceAlpha" result="effect1_dropShadow_210_10271"/>
<feOffset/>
<feGaussianBlur stdDeviation="20.4718"/>
<feColorMatrix type="matrix" values="0 0 0 0 0.0470588 0 0 0 0 0.772549 0 0 0 0 1 0 0 0 1 0"/>
<feBlend mode="normal" in2="BackgroundImageFix" result="effect1_dropShadow_210_10271"/>
<feBlend mode="normal" in="SourceGraphic" in2="effect1_dropShadow_210_10271" result="shape"/>
</filter>
<linearGradient id="paint0_linear_210_10271" x1="73.9766" y1="46.8083" x2="42.3662" y2="62.9334" gradientUnits="userSpaceOnUse">
<stop stop-color="white" stop-opacity="0.4"/>
<stop offset="1" stop-color="white" stop-opacity="0"/>
</linearGradient>
</defs>
</svg>
