<svg width="138" height="138" viewBox="0 0 138 138" fill="none" xmlns="http://www.w3.org/2000/svg">
<g filter="url(#filter0_bddi_255_12395)">
<path d="M75.8623 93.3843L73.5115 93.3843L73.5115 98.5206L75.8623 98.5206L75.8623 93.3843ZM60.3508 84.5177L58 84.5177L58 89.6541L60.3508 89.6541L60.3508 84.5177ZM75.8623 84.5177L73.5115 84.5177L73.5115 90.3474L58 90.3474L58 98.5206L60.3508 98.5206L60.3508 92.6812L75.8623 92.691L75.8623 84.5177Z" fill="black"/>
<path d="M68.1016 70.5187L65.7508 70.5187L65.7508 81.4847L68.1016 81.4847L68.1016 70.5187ZM75.8623 82.1878L58 82.1878L58 84.5216L75.8623 84.5216L75.8623 82.1878Z" fill="black"/>
<path d="M71.9967 56.5197L58 56.5197L58 58.8535L71.9967 58.8535C72.4623 58.8535 72.8525 59.0097 73.1672 59.3222C73.4885 59.6412 73.6492 60.0285 73.6492 60.4842L73.6492 66.5483C73.6492 67.0105 73.4885 67.3978 73.1672 67.7103C72.8525 68.0293 72.4623 68.1888 71.9967 68.1888L58.25 68.1663L58.25 70.5001L71.9967 70.5226C72.7312 70.5226 73.4 70.3436 74.0033 69.9855C74.6131 69.6275 75.0984 69.1457 75.459 68.5403C75.8197 67.9414 76 67.2774 76 66.5483L76 60.4842C76 59.7616 75.8197 59.0976 75.459 58.4922C75.0984 57.8933 74.6131 57.4148 74.0033 57.0567C73.4 56.6987 72.7312 56.5197 71.9967 56.5197Z" fill="black"/>
<path d="M70.4525 42.5206L63.4 42.5206L63.4 44.8545L65.7508 44.8545L65.7508 53.4867L68.1016 53.4867L68.1016 44.8545L70.4525 44.8545L70.4525 42.5206ZM70.4525 54.1897L63.4 54.1897L63.4 56.5236L70.4525 56.5236L70.4525 54.1897Z" fill="black"/>
<path d="M58 67.4999L60 67.4999L60 59.4999L58 59.4999L58 67.4999Z" fill="white"/>
<path d="M62.1377 47.6157L64.4885 47.6157L64.4885 42.4794L62.1377 42.4794L62.1377 47.6157ZM77.6492 56.4823L80 56.4823L80 51.3459L77.6492 51.3459L77.6492 56.4823ZM62.1377 56.4823L64.4885 56.4823L64.4885 50.6526L80 50.6526L80 42.4794L77.6492 42.4794L77.6492 48.3188L62.1377 48.309L62.1377 56.4823Z" fill="#B9FD02"/>
<path d="M69.8984 70.4813L72.2492 70.4813L72.2492 59.5153L69.8984 59.5153L69.8984 70.4813ZM62.1377 58.8122L80 58.8122L80 56.4784L62.1377 56.4784L62.1377 58.8122Z" fill="#B9FD02"/>
<path d="M66.0033 84.4803L80 84.4803L80 82.1465L66.0033 82.1465C65.5377 82.1465 65.1475 81.9903 64.8328 81.6778C64.5115 81.3588 64.3508 80.9715 64.3508 80.5158L64.3508 74.4517C64.3508 73.9895 64.5115 73.6022 64.8328 73.2897C65.1475 72.9707 65.5377 72.8112 66.0033 72.8112L79.75 72.8337L79.75 70.4999L66.0033 70.4774C65.2688 70.4774 64.6 70.6564 63.9967 71.0145C63.3869 71.3725 62.9016 71.8543 62.541 72.4597C62.1803 73.0586 62 73.7226 62 74.4517L62 80.5158C62 81.2384 62.1803 81.9024 62.541 82.5078C62.9016 83.1067 63.3869 83.5852 63.9967 83.9433C64.6 84.3013 65.2688 84.4803 66.0033 84.4803Z" fill="#B9FD02"/>
<path d="M67.5475 98.4794L74.6 98.4794L74.6 96.1455L72.2492 96.1455L72.2492 87.5133L69.8984 87.5133L69.8984 96.1455L67.5475 96.1455L67.5475 98.4794ZM67.5475 86.8103L74.6 86.8103L74.6 84.4764L67.5475 84.4764L67.5475 86.8103Z" fill="#B9FD02"/>
<path d="M80 73.5001L78 73.5001L78 81.5001L80 81.5001L80 73.5001Z" fill="white"/>
<path d="M62.3849 93.3843L64.6872 93.3843L64.6872 98.5206L62.3849 98.5206L62.3849 93.3843ZM77.5766 84.5177L80.25 84.5177L80.25 89.6541L77.5766 89.6541L77.5766 84.5177ZM62.3849 84.5177L64.6872 84.5177L64.6872 90.3474L80.25 90.3474L80.25 98.5206L77.5766 98.5206L77.5766 92.6812L62.3849 92.691L62.3849 84.5177Z" fill="#ED75B2"/>
<path d="M69.9855 70.5187L72.2879 70.5187L72.2879 81.4847L69.9855 81.4847L69.9855 70.5187ZM62.3849 82.1878L80.25 82.1878L80.25 84.5216L62.3849 84.5216L62.3849 82.1878Z" fill="#ED75B2"/>
<path d="M66.1707 56.5197L79.744 56.5197L79.744 58.8535L66.1707 58.8535C65.7148 58.8535 65.3327 59.0097 65.0244 59.3222C64.7097 59.6412 64.5524 60.0285 64.5524 60.4842L64.5524 66.5482C64.5524 67.0105 64.7097 67.3978 65.0244 67.7103C65.3327 68.0293 65.7148 68.1888 66.1707 68.1888L79.744 68.1888L79.744 70.5226L66.1707 70.5226C65.4515 70.5226 64.7964 70.3436 64.2056 69.9855C63.6083 69.6275 63.1331 69.1457 62.7798 68.5403C62.4266 67.9414 62.25 67.2774 62.25 66.5482L62.25 60.4842C62.25 59.7616 62.4266 59.0976 62.7798 58.4922C63.1331 57.8933 63.6083 57.4148 64.2056 57.0567C64.7964 56.6987 65.4515 56.5197 66.1707 56.5197Z" fill="#ED75B2"/>
<path d="M67.6832 42.5206L74.5902 42.5206L74.5902 44.8544L72.2879 44.8544L72.2879 53.4867L69.9855 53.4867L69.9855 44.8544L67.6832 44.8544L67.6832 42.5206ZM67.6832 54.1897L74.5902 54.1897L74.5902 56.5236L67.6832 56.5236L67.6832 54.1897Z" fill="#ED75B2"/>
<path d="M79.75 59.4998L77.75 59.4998L77.75 67.4998L79.75 67.4998L79.75 59.4998Z" fill="white"/>
<path d="M75.6151 47.6157L73.3128 47.6157L73.3128 42.4794L75.6151 42.4794L75.6151 47.6157ZM60.4234 56.4823L57.75 56.4823L57.75 51.3459L60.4234 51.3459L60.4234 56.4823ZM75.6151 56.4823L73.3128 56.4823L73.3128 50.6526L57.75 50.6526L57.75 42.4794L60.4234 42.4794L60.4234 48.3188L75.6151 48.309L75.6151 56.4823Z" fill="#E47F56"/>
<path d="M68.0145 70.4813L65.7121 70.4813L65.7121 59.5153L68.0145 59.5153L68.0145 70.4813ZM75.6151 58.8122L57.75 58.8122L57.75 56.4784L75.6151 56.4784L75.6151 58.8122Z" fill="#E47F56"/>
<path d="M71.8292 84.4803L58.256 84.4803L58.256 82.1465L71.8292 82.1465C72.2852 82.1465 72.6673 81.9903 72.9756 81.6778C73.2903 81.3588 73.4476 80.9715 73.4476 80.5158L73.4476 74.4518C73.4476 73.9895 73.2903 73.6022 72.9756 73.2897C72.6673 72.9707 72.2852 72.8112 71.8292 72.8112L58.256 72.8112L58.256 70.4774L71.8292 70.4774C72.5485 70.4774 73.2036 70.6564 73.7944 71.0145C74.3917 71.3725 74.8669 71.8543 75.2202 72.4597C75.5734 73.0586 75.75 73.7226 75.75 74.4518L75.75 80.5158C75.75 81.2384 75.5734 81.9024 75.2202 82.5078C74.8669 83.1067 74.3917 83.5852 73.7944 83.9433C73.2036 84.3013 72.5485 84.4803 71.8292 84.4803Z" fill="#E47F56"/>
<path d="M70.3168 98.4794L63.4098 98.4794L63.4098 96.1456L65.7121 96.1456L65.7121 87.5133L68.0145 87.5133L68.0145 96.1456L70.3168 96.1456L70.3168 98.4794ZM70.3168 86.8103L63.4098 86.8103L63.4098 84.4764L70.3168 84.4764L70.3168 86.8103Z" fill="#E47F56"/>
<path d="M58.25 81.5002L60.25 81.5002L60.25 73.5002L58.25 73.5002L58.25 81.5002Z" fill="white"/>
<path d="M46.6129 77.8618L46.6129 75.511L41.4766 75.511L41.4766 77.8618L46.6129 77.8618ZM55.4795 62.3503L55.4795 59.9995L50.3431 59.9995L50.3431 62.3503L55.4795 62.3503ZM55.4795 77.8618L55.4795 75.511L49.6498 75.511L49.6498 59.9995L41.4766 59.9995L41.4766 62.3503L47.316 62.3503L47.3062 77.8618L55.4795 77.8618Z" fill="#B9FD02"/>
<path d="M69.4785 70.1012L69.4785 67.7503L58.5125 67.7503L58.5125 70.1012L69.4785 70.1012ZM57.8094 77.8618L57.8094 59.9995L55.4756 59.9995L55.4756 77.8618L57.8094 77.8618Z" fill="#B9FD02"/>
<path d="M83.4775 73.9962L83.4775 59.9995L81.1437 59.9995L81.1437 73.9962C81.1437 74.4618 80.9875 74.852 80.675 75.1667C80.356 75.488 79.9687 75.6487 79.513 75.6487L73.4489 75.6487C72.9867 75.6487 72.5994 75.488 72.2869 75.1667C71.9679 74.852 71.8084 74.4618 71.8084 73.9962L71.8309 60.2495L69.4971 60.2495L69.4746 73.9962C69.4746 74.7307 69.6536 75.3995 70.0117 76.0028C70.3697 76.6126 70.8515 77.0979 71.4569 77.4585C72.0558 77.8192 72.7198 77.9995 73.4489 77.9995L79.513 77.9995C80.2356 77.9995 80.8996 77.8192 81.505 77.4585C82.1039 77.0979 82.5824 76.6126 82.9405 76.0028C83.2985 75.3995 83.4775 74.7307 83.4775 73.9962Z" fill="#B9FD02"/>
<path d="M97.4766 72.452L97.4766 65.3995L95.1427 65.3995L95.1427 67.7503L86.5105 67.7503L86.5105 70.1012L95.1427 70.1012L95.1427 72.452L97.4766 72.452ZM85.8075 72.452L85.8075 65.3995L83.4736 65.3995L83.4736 72.452L85.8075 72.452Z" fill="#B9FD02"/>
<path d="M72.5 60L72.5 62L80.5 62L80.5 60L72.5 60Z" fill="white"/>
<path d="M92.3871 63.6382L92.3871 65.989L97.5234 65.989L97.5234 63.6382L92.3871 63.6382ZM83.5205 79.1497L83.5205 81.5005L88.6569 81.5005L88.6569 79.1497L83.5205 79.1497ZM83.5205 63.6382L83.5205 65.989L89.3502 65.989L89.3502 81.5005L97.5234 81.5005L97.5234 79.1497L91.684 79.1497L91.6938 63.6382L83.5205 63.6382Z" fill="#BF90EF"/>
<path d="M69.5215 71.3988L69.5215 73.7497L80.4875 73.7497L80.4875 71.3988L69.5215 71.3988ZM81.1906 63.6382L81.1906 81.5005L83.5244 81.5005L83.5244 63.6382L81.1906 63.6382Z" fill="#BF90EF"/>
<path d="M55.5225 67.5038L55.5225 81.5005L57.8563 81.5005L57.8563 67.5038C57.8563 67.0382 58.0125 66.648 58.325 66.3333C58.644 66.012 59.0313 65.8513 59.487 65.8513L65.5511 65.8513C66.0133 65.8513 66.4006 66.012 66.7131 66.3333C67.0321 66.648 67.1916 67.0382 67.1916 67.5038L67.1691 81.2505L69.5029 81.2505L69.5254 67.5038C69.5254 66.7693 69.3464 66.1005 68.9883 65.4972C68.6303 64.8874 68.1485 64.4021 67.5431 64.0415C66.9442 63.6808 66.2802 63.5005 65.5511 63.5005L59.487 63.5005C58.7644 63.5005 58.1004 63.6808 57.495 64.0415C56.8961 64.4021 56.4176 64.8874 56.0595 65.4972C55.7015 66.1005 55.5225 66.7693 55.5225 67.5038Z" fill="#BF90EF"/>
<path d="M41.5234 69.048L41.5234 76.1005L43.8573 76.1005L43.8573 73.7497L52.4895 73.7497L52.4895 71.3988L43.8573 71.3988L43.8573 69.048L41.5234 69.048ZM53.1925 69.048L53.1925 76.1005L55.5264 76.1005L55.5264 69.048L53.1925 69.048Z" fill="#BF90EF"/>
<path d="M66.5 81.5L66.5 79.5L58.5 79.5L58.5 81.5L66.5 81.5Z" fill="white"/>
<path d="M46.6129 63.8844L46.6129 66.1867L41.4766 66.1867L41.4766 63.8844L46.6129 63.8844ZM55.4795 79.0761L55.4795 81.7495L50.3431 81.7495L50.3431 79.0761L55.4795 79.0761ZM55.4795 63.8844L55.4795 66.1867L49.6498 66.1867L49.6498 81.7495L41.4766 81.7495L41.4766 79.0761L47.316 79.0761L47.3062 63.8844L55.4795 63.8844Z" fill="#1FB9CE"/>
<path d="M69.4785 71.485L69.4785 73.7874L58.5125 73.7874L58.5125 71.485L69.4785 71.485ZM57.8094 63.8844L57.8094 81.7495L55.4756 81.7495L55.4756 63.8844L57.8094 63.8844Z" fill="#1FB9CE"/>
<path d="M83.4775 67.6703L83.4775 81.2436L81.1437 81.2436L81.1437 67.6703C81.1437 67.2143 80.9875 66.8322 80.675 66.5239C80.356 66.2092 79.9687 66.0519 79.513 66.0519L73.4489 66.0519C72.9867 66.0519 72.5994 66.2092 72.2869 66.5239C71.9679 66.8322 71.8084 67.2143 71.8084 67.6703L71.8084 81.2436L69.4746 81.2436L69.4746 67.6703C69.4746 66.951 69.6536 66.2959 70.0117 65.7051C70.3697 65.1078 70.8515 64.6326 71.4569 64.2793C72.0558 63.9261 72.7198 63.7495 73.4489 63.7495L79.513 63.7495C80.2356 63.7495 80.8996 63.9261 81.505 64.2793C82.1039 64.6326 82.5824 65.1078 82.9405 65.7051C83.2985 66.2959 83.4775 66.951 83.4775 67.6703Z" fill="#1FB9CE"/>
<path d="M97.4766 69.1827L97.4766 76.0898L95.1427 76.0898L95.1427 73.7874L86.5105 73.7874L86.5105 71.485L95.1427 71.485L95.1427 69.1827L97.4766 69.1827ZM85.8075 69.1827L85.8075 76.0897L83.4736 76.0897L83.4736 69.1827L85.8075 69.1827Z" fill="#1FB9CE"/>
<path d="M80.5 81.25L80.5 79.25L72.5 79.25L72.5 81.25L80.5 81.25Z" fill="white"/>
<path d="M92.3832 77.6156L92.3832 75.3133L97.5195 75.3133L97.5195 77.6156L92.3832 77.6156ZM83.5166 62.4239L83.5166 59.7505L88.653 59.7505L88.653 62.4239L83.5166 62.4239ZM83.5166 77.6156L83.5166 75.3133L89.3463 75.3133L89.3463 59.7505L97.5195 59.7505L97.5195 62.4239L91.6801 62.4239L91.6899 77.6156L83.5166 77.6156Z" fill="#8E3AE2"/>
<path d="M69.5176 70.015L69.5176 67.7126L80.4836 67.7126L80.4836 70.015L69.5176 70.015ZM81.1867 77.6156L81.1867 59.7505L83.5205 59.7505L83.5205 77.6156L81.1867 77.6156Z" fill="#8E3AE2"/>
<path d="M55.5186 73.8297L55.5186 60.2564L57.8524 60.2564L57.8524 73.8297C57.8524 74.2857 58.0086 74.6678 58.3211 74.9761C58.6401 75.2908 59.0274 75.4481 59.4831 75.4481L65.5471 75.4481C66.0094 75.4481 66.3967 75.2908 66.7092 74.9761C67.0282 74.6678 67.1877 74.2857 67.1877 73.8297L67.1877 60.2564L69.5215 60.2564L69.5215 73.8297C69.5215 74.549 69.3425 75.2041 68.9844 75.7949C68.6264 76.3922 68.1446 76.8674 67.5392 77.2207C66.9403 77.5739 66.2763 77.7505 65.5471 77.7505L59.4831 77.7505C58.7605 77.7505 58.0965 77.5739 57.4911 77.2207C56.8922 76.8674 56.4137 76.3922 56.0556 75.7949C55.6976 75.2041 55.5186 74.549 55.5186 73.8297Z" fill="#8E3AE2"/>
<path d="M41.5195 72.3173L41.5195 65.4102L43.8534 65.4102L43.8534 67.7126L52.4856 67.7126L52.4856 70.015L43.8533 70.015L43.8533 72.3173L41.5195 72.3173ZM53.1886 72.3173L53.1886 65.4102L55.5225 65.4102L55.5225 72.3173L53.1886 72.3173Z" fill="#8E3AE2"/>
<path d="M58.5 60.25L58.5 62.25L66.5 62.25L66.5 60.25L58.5 60.25Z" fill="white"/>
<path d="M75.8623 93.3843L73.5115 93.3843L73.5115 98.5206L75.8623 98.5206L75.8623 93.3843ZM60.3508 84.5177L58 84.5177L58 89.6541L60.3508 89.6541L60.3508 84.5177ZM75.8623 84.5177L73.5115 84.5177L73.5115 90.3474L58 90.3474L58 98.5206L60.3508 98.5206L60.3508 92.6812L75.8623 92.691L75.8623 84.5177Z" fill="white"/>
<path d="M68.1016 70.5187L65.7508 70.5187L65.7508 81.4847L68.1016 81.4847L68.1016 70.5187ZM75.8623 82.1878L58 82.1878L58 84.5216L75.8623 84.5216L75.8623 82.1878Z" fill="white"/>
<path d="M71.9967 56.5197L58 56.5197L58 58.8535L71.9967 58.8535C72.4623 58.8535 72.8525 59.0097 73.1672 59.3222C73.4885 59.6412 73.6492 60.0285 73.6492 60.4842L73.6492 66.5483C73.6492 67.0105 73.4885 67.3978 73.1672 67.7103C72.8525 68.0293 72.4623 68.1888 71.9967 68.1888L58.25 68.1663L58.25 70.5001L71.9967 70.5226C72.7312 70.5226 73.4 70.3436 74.0033 69.9855C74.6131 69.6275 75.0984 69.1457 75.459 68.5403C75.8197 67.9414 76 67.2774 76 66.5483L76 60.4842C76 59.7616 75.8197 59.0976 75.459 58.4922C75.0984 57.8933 74.6131 57.4148 74.0033 57.0567C73.4 56.6987 72.7312 56.5197 71.9967 56.5197Z" fill="white"/>
<path d="M70.4525 42.5206L63.4 42.5206L63.4 44.8545L65.7508 44.8545L65.7508 53.4867L68.1016 53.4867L68.1016 44.8545L70.4525 44.8545L70.4525 42.5206ZM70.4525 54.1897L63.4 54.1897L63.4 56.5236L70.4525 56.5236L70.4525 54.1897Z" fill="white"/>
<path d="M58 67.4999L60 67.4999L60 59.4999L58 59.4999L58 67.4999Z" fill="white"/>
<path d="M62.1377 47.6157L64.4885 47.6157L64.4885 42.4794L62.1377 42.4794L62.1377 47.6157ZM77.6492 56.4823L80 56.4823L80 51.3459L77.6492 51.3459L77.6492 56.4823ZM62.1377 56.4823L64.4885 56.4823L64.4885 50.6526L80 50.6526L80 42.4794L77.6492 42.4794L77.6492 48.3188L62.1377 48.309L62.1377 56.4823Z" fill="white"/>
<path d="M69.8984 70.4813L72.2492 70.4813L72.2492 59.5153L69.8984 59.5153L69.8984 70.4813ZM62.1377 58.8122L80 58.8122L80 56.4784L62.1377 56.4784L62.1377 58.8122Z" fill="white"/>
<path d="M66.0033 84.4803L80 84.4803L80 82.1465L66.0033 82.1465C65.5377 82.1465 65.1475 81.9903 64.8328 81.6778C64.5115 81.3588 64.3508 80.9715 64.3508 80.5158L64.3508 74.4517C64.3508 73.9895 64.5115 73.6022 64.8328 73.2897C65.1475 72.9707 65.5377 72.8112 66.0033 72.8112L79.75 72.8337L79.75 70.4999L66.0033 70.4774C65.2688 70.4774 64.6 70.6564 63.9967 71.0145C63.3869 71.3725 62.9016 71.8543 62.541 72.4597C62.1803 73.0586 62 73.7226 62 74.4517L62 80.5158C62 81.2384 62.1803 81.9024 62.541 82.5078C62.9016 83.1067 63.3869 83.5852 63.9967 83.9433C64.6 84.3013 65.2688 84.4803 66.0033 84.4803Z" fill="white"/>
<path d="M67.5475 98.4794L74.6 98.4794L74.6 96.1455L72.2492 96.1455L72.2492 87.5133L69.8984 87.5133L69.8984 96.1455L67.5475 96.1455L67.5475 98.4794ZM67.5475 86.8103L74.6 86.8103L74.6 84.4764L67.5475 84.4764L67.5475 86.8103Z" fill="white"/>
<path d="M80 73.5001L78 73.5001L78 81.5001L80 81.5001L80 73.5001Z" fill="white"/>
<path d="M62.3849 93.3843L64.6872 93.3843L64.6872 98.5206L62.3849 98.5206L62.3849 93.3843ZM77.5766 84.5177L80.25 84.5177L80.25 89.6541L77.5766 89.6541L77.5766 84.5177ZM62.3849 84.5177L64.6872 84.5177L64.6872 90.3474L80.25 90.3474L80.25 98.5206L77.5766 98.5206L77.5766 92.6812L62.3849 92.691L62.3849 84.5177Z" fill="white"/>
<path d="M69.9855 70.5187L72.2879 70.5187L72.2879 81.4847L69.9855 81.4847L69.9855 70.5187ZM62.3849 82.1878L80.25 82.1878L80.25 84.5216L62.3849 84.5216L62.3849 82.1878Z" fill="white"/>
<path d="M66.1707 56.5197L79.744 56.5197L79.744 58.8535L66.1707 58.8535C65.7148 58.8535 65.3327 59.0097 65.0244 59.3222C64.7097 59.6412 64.5524 60.0285 64.5524 60.4842L64.5524 66.5482C64.5524 67.0105 64.7097 67.3978 65.0244 67.7103C65.3327 68.0293 65.7148 68.1888 66.1707 68.1888L79.744 68.1888L79.744 70.5226L66.1707 70.5226C65.4515 70.5226 64.7964 70.3436 64.2056 69.9855C63.6083 69.6275 63.1331 69.1457 62.7798 68.5403C62.4266 67.9414 62.25 67.2774 62.25 66.5482L62.25 60.4842C62.25 59.7616 62.4266 59.0976 62.7798 58.4922C63.1331 57.8933 63.6083 57.4148 64.2056 57.0567C64.7964 56.6987 65.4515 56.5197 66.1707 56.5197Z" fill="white"/>
<path d="M67.6832 42.5206L74.5902 42.5206L74.5902 44.8544L72.2879 44.8544L72.2879 53.4867L69.9855 53.4867L69.9855 44.8544L67.6832 44.8544L67.6832 42.5206ZM67.6832 54.1897L74.5902 54.1897L74.5902 56.5236L67.6832 56.5236L67.6832 54.1897Z" fill="white"/>
<path d="M79.75 59.4998L77.75 59.4998L77.75 67.4998L79.75 67.4998L79.75 59.4998Z" fill="white"/>
<path d="M75.6151 47.6157L73.3128 47.6157L73.3128 42.4794L75.6151 42.4794L75.6151 47.6157ZM60.4234 56.4823L57.75 56.4823L57.75 51.3459L60.4234 51.3459L60.4234 56.4823ZM75.6151 56.4823L73.3128 56.4823L73.3128 50.6526L57.75 50.6526L57.75 42.4794L60.4234 42.4794L60.4234 48.3188L75.6151 48.309L75.6151 56.4823Z" fill="white"/>
<path d="M68.0145 70.4813L65.7121 70.4813L65.7121 59.5153L68.0145 59.5153L68.0145 70.4813ZM75.6151 58.8122L57.75 58.8122L57.75 56.4784L75.6151 56.4784L75.6151 58.8122Z" fill="white"/>
<path d="M71.8292 84.4803L58.256 84.4803L58.256 82.1465L71.8292 82.1465C72.2852 82.1465 72.6673 81.9903 72.9756 81.6778C73.2903 81.3588 73.4476 80.9715 73.4476 80.5158L73.4476 74.4518C73.4476 73.9895 73.2903 73.6022 72.9756 73.2897C72.6673 72.9707 72.2852 72.8112 71.8292 72.8112L58.256 72.8112L58.256 70.4774L71.8292 70.4774C72.5485 70.4774 73.2036 70.6564 73.7944 71.0145C74.3917 71.3725 74.8669 71.8543 75.2202 72.4597C75.5734 73.0586 75.75 73.7226 75.75 74.4518L75.75 80.5158C75.75 81.2384 75.5734 81.9024 75.2202 82.5078C74.8669 83.1067 74.3917 83.5852 73.7944 83.9433C73.2036 84.3013 72.5485 84.4803 71.8292 84.4803Z" fill="white"/>
<path d="M70.3168 98.4794L63.4098 98.4794L63.4098 96.1456L65.7121 96.1456L65.7121 87.5133L68.0145 87.5133L68.0145 96.1456L70.3168 96.1456L70.3168 98.4794ZM70.3168 86.8103L63.4098 86.8103L63.4098 84.4764L70.3168 84.4764L70.3168 86.8103Z" fill="white"/>
<path d="M58.25 81.5002L60.25 81.5002L60.25 73.5002L58.25 73.5002L58.25 81.5002Z" fill="white"/>
<path d="M46.6129 77.8618L46.6129 75.511L41.4766 75.511L41.4766 77.8618L46.6129 77.8618ZM55.4795 62.3503L55.4795 59.9995L50.3431 59.9995L50.3431 62.3503L55.4795 62.3503ZM55.4795 77.8618L55.4795 75.511L49.6498 75.511L49.6498 59.9995L41.4766 59.9995L41.4766 62.3503L47.316 62.3503L47.3062 77.8618L55.4795 77.8618Z" fill="white"/>
<path d="M69.4785 70.1012L69.4785 67.7503L58.5125 67.7503L58.5125 70.1012L69.4785 70.1012ZM57.8094 77.8618L57.8094 59.9995L55.4756 59.9995L55.4756 77.8618L57.8094 77.8618Z" fill="white"/>
<path d="M83.4775 73.9962L83.4775 59.9995L81.1437 59.9995L81.1437 73.9962C81.1437 74.4618 80.9875 74.852 80.675 75.1667C80.356 75.488 79.9687 75.6487 79.513 75.6487L73.4489 75.6487C72.9867 75.6487 72.5994 75.488 72.2869 75.1667C71.9679 74.852 71.8084 74.4618 71.8084 73.9962L71.8309 60.2495L69.4971 60.2495L69.4746 73.9962C69.4746 74.7307 69.6536 75.3995 70.0117 76.0028C70.3697 76.6126 70.8515 77.0979 71.4569 77.4585C72.0558 77.8192 72.7198 77.9995 73.4489 77.9995L79.513 77.9995C80.2356 77.9995 80.8996 77.8192 81.505 77.4585C82.1039 77.0979 82.5824 76.6126 82.9405 76.0028C83.2985 75.3995 83.4775 74.7307 83.4775 73.9962Z" fill="white"/>
<path d="M97.4766 72.452L97.4766 65.3995L95.1427 65.3995L95.1427 67.7503L86.5105 67.7503L86.5105 70.1012L95.1427 70.1012L95.1427 72.452L97.4766 72.452ZM85.8075 72.452L85.8075 65.3995L83.4736 65.3995L83.4736 72.452L85.8075 72.452Z" fill="white"/>
<path d="M72.5 60L72.5 62L80.5 62L80.5 60L72.5 60Z" fill="white"/>
<path d="M92.3871 63.6382L92.3871 65.989L97.5234 65.989L97.5234 63.6382L92.3871 63.6382ZM83.5205 79.1497L83.5205 81.5005L88.6569 81.5005L88.6569 79.1497L83.5205 79.1497ZM83.5205 63.6382L83.5205 65.989L89.3502 65.989L89.3502 81.5005L97.5234 81.5005L97.5234 79.1497L91.684 79.1497L91.6938 63.6382L83.5205 63.6382Z" fill="white"/>
<path d="M69.5215 71.3988L69.5215 73.7497L80.4875 73.7497L80.4875 71.3988L69.5215 71.3988ZM81.1906 63.6382L81.1906 81.5005L83.5244 81.5005L83.5244 63.6382L81.1906 63.6382Z" fill="white"/>
<path d="M55.5225 67.5038L55.5225 81.5005L57.8563 81.5005L57.8563 67.5038C57.8563 67.0382 58.0125 66.648 58.325 66.3333C58.644 66.012 59.0313 65.8513 59.487 65.8513L65.5511 65.8513C66.0133 65.8513 66.4006 66.012 66.7131 66.3333C67.0321 66.648 67.1916 67.0382 67.1916 67.5038L67.1691 81.2505L69.5029 81.2505L69.5254 67.5038C69.5254 66.7693 69.3464 66.1005 68.9883 65.4972C68.6303 64.8874 68.1485 64.4021 67.5431 64.0415C66.9442 63.6808 66.2802 63.5005 65.5511 63.5005L59.487 63.5005C58.7644 63.5005 58.1004 63.6808 57.495 64.0415C56.8961 64.4021 56.4176 64.8874 56.0595 65.4972C55.7015 66.1005 55.5225 66.7693 55.5225 67.5038Z" fill="white"/>
<path d="M41.5234 69.048L41.5234 76.1005L43.8573 76.1005L43.8573 73.7497L52.4895 73.7497L52.4895 71.3988L43.8573 71.3988L43.8573 69.048L41.5234 69.048ZM53.1925 69.048L53.1925 76.1005L55.5264 76.1005L55.5264 69.048L53.1925 69.048Z" fill="white"/>
<path d="M66.5 81.5L66.5 79.5L58.5 79.5L58.5 81.5L66.5 81.5Z" fill="white"/>
<path d="M46.6129 63.8844L46.6129 66.1867L41.4766 66.1867L41.4766 63.8844L46.6129 63.8844ZM55.4795 79.0761L55.4795 81.7495L50.3431 81.7495L50.3431 79.0761L55.4795 79.0761ZM55.4795 63.8844L55.4795 66.1867L49.6498 66.1867L49.6498 81.7495L41.4766 81.7495L41.4766 79.0761L47.316 79.0761L47.3062 63.8844L55.4795 63.8844Z" fill="white"/>
<path d="M69.4785 71.485L69.4785 73.7874L58.5125 73.7874L58.5125 71.485L69.4785 71.485ZM57.8094 63.8844L57.8094 81.7495L55.4756 81.7495L55.4756 63.8844L57.8094 63.8844Z" fill="white"/>
<path d="M83.4775 67.6703L83.4775 81.2436L81.1437 81.2436L81.1437 67.6703C81.1437 67.2143 80.9875 66.8322 80.675 66.5239C80.356 66.2092 79.9687 66.0519 79.513 66.0519L73.4489 66.0519C72.9867 66.0519 72.5994 66.2092 72.2869 66.5239C71.9679 66.8322 71.8084 67.2143 71.8084 67.6703L71.8084 81.2436L69.4746 81.2436L69.4746 67.6703C69.4746 66.951 69.6536 66.2959 70.0117 65.7051C70.3697 65.1078 70.8515 64.6326 71.4569 64.2793C72.0558 63.9261 72.7198 63.7495 73.4489 63.7495L79.513 63.7495C80.2356 63.7495 80.8996 63.9261 81.505 64.2793C82.1039 64.6326 82.5824 65.1078 82.9405 65.7051C83.2985 66.2959 83.4775 66.951 83.4775 67.6703Z" fill="white"/>
<path d="M97.4766 69.1827L97.4766 76.0898L95.1427 76.0898L95.1427 73.7874L86.5105 73.7874L86.5105 71.485L95.1427 71.485L95.1427 69.1827L97.4766 69.1827ZM85.8075 69.1827L85.8075 76.0897L83.4736 76.0897L83.4736 69.1827L85.8075 69.1827Z" fill="white"/>
<path d="M80.5 81.25L80.5 79.25L72.5 79.25L72.5 81.25L80.5 81.25Z" fill="white"/>
<path d="M92.3832 77.6156L92.3832 75.3133L97.5195 75.3133L97.5195 77.6156L92.3832 77.6156ZM83.5166 62.4239L83.5166 59.7505L88.653 59.7505L88.653 62.4239L83.5166 62.4239ZM83.5166 77.6156L83.5166 75.3133L89.3463 75.3133L89.3463 59.7505L97.5195 59.7505L97.5195 62.4239L91.6801 62.4239L91.6899 77.6156L83.5166 77.6156Z" fill="white"/>
<path d="M69.5176 70.015L69.5176 67.7126L80.4836 67.7126L80.4836 70.015L69.5176 70.015ZM81.1867 77.6156L81.1867 59.7505L83.5205 59.7505L83.5205 77.6156L81.1867 77.6156Z" fill="white"/>
<path d="M55.5186 73.8297L55.5186 60.2564L57.8524 60.2564L57.8524 73.8297C57.8524 74.2857 58.0086 74.6678 58.3211 74.9761C58.6401 75.2908 59.0274 75.4481 59.4831 75.4481L65.5471 75.4481C66.0094 75.4481 66.3967 75.2908 66.7092 74.9761C67.0282 74.6678 67.1877 74.2857 67.1877 73.8297L67.1877 60.2564L69.5215 60.2564L69.5215 73.8297C69.5215 74.549 69.3425 75.2041 68.9844 75.7949C68.6264 76.3922 68.1446 76.8674 67.5392 77.2207C66.9403 77.5739 66.2763 77.7505 65.5471 77.7505L59.4831 77.7505C58.7605 77.7505 58.0965 77.5739 57.4911 77.2207C56.8922 76.8674 56.4137 76.3922 56.0556 75.7949C55.6976 75.2041 55.5186 74.549 55.5186 73.8297Z" fill="white"/>
<path d="M41.5195 72.3173L41.5195 65.4102L43.8534 65.4102L43.8534 67.7126L52.4856 67.7126L52.4856 70.015L43.8533 70.015L43.8533 72.3173L41.5195 72.3173ZM53.1886 72.3173L53.1886 65.4102L55.5225 65.4102L55.5225 72.3173L53.1886 72.3173Z" fill="white"/>
<path d="M58.5 60.25L58.5 62.25L66.5 62.25L66.5 60.25L58.5 60.25Z" fill="white"/>
<rect x="30.5" y="30.5" width="77" height="77" rx="38.5" stroke="black" stroke-width="3"/>
</g>
<defs>
<filter id="filter0_bddi_255_12395" x="-86.52" y="-86.52" width="311.04" height="311.04" filterUnits="userSpaceOnUse" color-interpolation-filters="sRGB">
<feFlood flood-opacity="0" result="BackgroundImageFix"/>
<feGaussianBlur in="BackgroundImage" stdDeviation="57.76"/>
<feComposite in2="SourceAlpha" operator="in" result="effect1_backgroundBlur_255_12395"/>
<feColorMatrix in="SourceAlpha" type="matrix" values="0 0 0 0 0 0 0 0 0 0 0 0 0 0 0 0 0 0 127 0" result="hardAlpha"/>
<feOffset/>
<feGaussianBlur stdDeviation="14.0259"/>
<feColorMatrix type="matrix" values="0 0 0 0 0.192157 0 0 0 0 1 0 0 0 0 0.611765 0 0 0 0.5 0"/>
<feBlend mode="normal" in2="effect1_backgroundBlur_255_12395" result="effect2_dropShadow_255_12395"/>
<feColorMatrix in="SourceAlpha" type="matrix" values="0 0 0 0 0 0 0 0 0 0 0 0 0 0 0 0 0 0 127 0" result="hardAlpha"/>
<feOffset/>
<feGaussianBlur stdDeviation="3.62302"/>
<feColorMatrix type="matrix" values="0 0 0 0 0.191667 0 0 0 0 1 0 0 0 0 0.612 0 0 0 0.7 0"/>
<feBlend mode="normal" in2="effect2_dropShadow_255_12395" result="effect3_dropShadow_255_12395"/>
<feBlend mode="normal" in="SourceGraphic" in2="effect3_dropShadow_255_12395" result="shape"/>
<feColorMatrix in="SourceAlpha" type="matrix" values="0 0 0 0 0 0 0 0 0 0 0 0 0 0 0 0 0 0 127 0" result="hardAlpha"/>
<feOffset/>
<feGaussianBlur stdDeviation="1.40259"/>
<feComposite in2="hardAlpha" operator="arithmetic" k2="-1" k3="1"/>
<feColorMatrix type="matrix" values="0 0 0 0 0.192157 0 0 0 0 1 0 0 0 0 0.611765 0 0 0 0.5 0"/>
<feBlend mode="normal" in2="shape" result="effect4_innerShadow_255_12395"/>
</filter>
</defs>
</svg>
