<svg width="115" height="152" viewBox="0 0 115 152" fill="none" xmlns="http://www.w3.org/2000/svg">
<g filter="url(#filter0_b_124_7171)">
<g clip-path="url(#clip0_124_7171)">
<path fill-rule="evenodd" clip-rule="evenodd" d="M80.4812 31.7571C80.4713 31.7669 80.4553 31.7668 80.4454 31.7569L69.0484 20.3599C69.0384 20.3499 69.0384 20.3339 69.0482 20.3241L74.0683 15.304C74.0781 15.2942 74.078 15.2782 74.0681 15.2683L70.8158 12.016C70.8059 12.0061 70.7899 12.006 70.7801 12.0158L56.8054 25.9905C56.7956 26.0003 56.7956 26.0163 56.8056 26.0263L64.1617 33.3824C64.1716 33.3923 64.1717 33.4083 64.1618 33.4181L55.4729 42.107C55.4631 42.1169 55.4471 42.1168 55.4372 42.1069L48.0811 34.7508C48.0711 34.7408 48.0551 34.7408 48.0453 34.7506L36.2078 46.5881C36.198 46.5979 36.198 46.6139 36.208 46.6239L43.5641 53.98C43.574 53.9899 43.5741 54.0059 43.5642 54.0157L32.9089 64.671C32.8991 64.6809 32.8992 64.6969 32.9091 64.7068L36.1362 67.9339C36.1461 67.9438 36.1621 67.9439 36.1719 67.9341L46.8273 57.2787C46.8371 57.2689 46.8531 57.269 46.863 57.2789L54.4701 64.8859C54.48 64.8959 54.496 64.8959 54.5058 64.8861L66.3433 53.0486C66.3532 53.0388 66.3531 53.0228 66.3431 53.0129L58.7361 45.4058C58.7262 45.3959 58.7261 45.3799 58.7359 45.3701L67.4249 36.6811C67.4347 36.6713 67.4507 36.6714 67.4606 36.6813L75.0677 44.2883C75.0776 44.2983 75.0936 44.2983 75.1034 44.2885L89.0781 30.3139C89.0879 30.304 89.0878 30.288 89.0779 30.2781L85.537 26.7372C85.5271 26.7273 85.5111 26.7272 85.5012 26.737L80.4812 31.7571ZM48.835 40.8227C48.8448 40.8129 48.8608 40.8129 48.8707 40.8229L60.2711 52.2232C60.281 52.2331 60.2811 52.2491 60.2712 52.2589L53.3733 59.1568C53.3635 59.1667 53.3475 59.1666 53.3376 59.1567L41.9372 47.7563C41.9273 47.7464 41.9272 47.7304 41.9371 47.7206L48.835 40.8227ZM77.6281 34.4862C77.638 34.4764 77.6379 34.4603 77.628 34.4504L66.3316 23.1541C66.3217 23.1441 66.3057 23.1441 66.2958 23.1539L62.8208 26.6289C62.811 26.6388 62.8111 26.6548 62.821 26.6647L74.1173 37.961C74.1273 37.971 74.1433 37.971 74.1531 37.9612L77.6281 34.4862Z" fill="#EB5757"/>
<path fill-rule="evenodd" clip-rule="evenodd" d="M34.1126 55.8337C34.1224 55.8239 34.1384 55.824 34.1483 55.8339L45.5454 67.231C45.5553 67.2409 45.5554 67.2569 45.5456 67.2667L40.5255 72.2868C40.5157 72.2966 40.5158 72.3126 40.5257 72.3225L43.7779 75.5748C43.7879 75.5847 43.8039 75.5848 43.8137 75.575L57.7884 61.6003C57.7982 61.5905 57.7981 61.5745 57.7882 61.5646L50.4321 54.2085C50.4222 54.1985 50.4221 54.1825 50.4319 54.1727L59.1208 45.4838C59.1307 45.474 59.1467 45.474 59.1566 45.484L66.5127 52.8401C66.5226 52.85 66.5386 52.8501 66.5484 52.8402L78.386 41.0027C78.3958 40.9929 78.3957 40.9769 78.3858 40.967L71.0297 33.6109C71.0198 33.6009 71.0197 33.5849 71.0295 33.5751L81.6848 22.9198C81.6947 22.91 81.6946 22.8939 81.6847 22.884L78.4576 19.6569C78.4476 19.647 78.4316 19.6469 78.4218 19.6568L67.7665 30.3121C67.7567 30.3219 67.7406 30.3218 67.7307 30.3119L60.1237 22.7049C60.1138 22.6949 60.0978 22.6949 60.0879 22.7047L48.2504 34.5422C48.2406 34.552 48.2407 34.568 48.2506 34.578L55.8576 42.185C55.8676 42.1949 55.8676 42.2109 55.8578 42.2208L47.1689 50.9097C47.1591 50.9195 47.143 50.9194 47.1331 50.9095L39.5261 43.3025C39.5162 43.2926 39.5002 43.2925 39.4903 43.3023L25.5157 57.277C25.5058 57.2868 25.5059 57.3028 25.5158 57.3127L29.0568 60.8536C29.0667 60.8636 29.0827 60.8636 29.0925 60.8538L34.1126 55.8337ZM65.7588 46.7681C65.749 46.778 65.7329 46.7779 65.723 46.768L54.3227 35.3676C54.3128 35.3577 54.3127 35.3417 54.3225 35.3319L61.2204 28.434C61.2302 28.4242 61.2462 28.4242 61.2562 28.4342L72.6565 39.8345C72.6664 39.8444 72.6665 39.8604 72.6567 39.8702L65.7588 46.7681ZM36.9656 53.1046C36.9558 53.1145 36.9559 53.1305 36.9658 53.1404L48.2622 64.4368C48.2721 64.4467 48.2881 64.4468 48.2979 64.4369L51.773 60.9619C51.7828 60.9521 51.7827 60.9361 51.7728 60.9261L40.4764 49.6298C40.4665 49.6199 40.4505 49.6198 40.4407 49.6296L36.9656 53.1046Z" fill="#EB5757"/>
<path fill-rule="evenodd" clip-rule="evenodd" d="M69.3337 66.9812C69.3239 66.9713 69.324 66.9553 69.3339 66.9454L80.731 55.5484C80.7409 55.5384 80.7569 55.5384 80.7667 55.5482L85.7868 60.5683C85.7966 60.5781 85.8126 60.578 85.8225 60.5681L89.0748 57.3158C89.0847 57.3059 89.0848 57.2899 89.075 57.2801L75.1003 43.3054C75.0905 43.2956 75.0745 43.2956 75.0646 43.3056L67.7085 50.6617C67.6985 50.6716 67.6825 50.6717 67.6727 50.6618L58.9838 41.9729C58.974 41.9631 58.974 41.9471 58.984 41.9372L66.3401 34.5811C66.35 34.5711 66.3501 34.5551 66.3402 34.5453L54.5027 22.7078C54.4929 22.698 54.4769 22.698 54.467 22.708L47.1109 30.0641C47.1009 30.074 47.0849 30.0741 47.0751 30.0642L36.4198 19.4089C36.41 19.3991 36.394 19.3992 36.384 19.4091L33.1569 22.6362C33.147 22.6461 33.1469 22.6621 33.1568 22.6719L43.8121 33.3273C43.8219 33.3371 43.8218 33.3531 43.8119 33.363L36.2049 40.9701C36.195 40.98 36.1949 40.996 36.2047 41.0058L48.0422 52.8433C48.052 52.8531 48.068 52.8531 48.078 52.8431L55.685 45.2361C55.6949 45.2262 55.7109 45.2261 55.7208 45.2359L64.4097 53.9249C64.4195 53.9347 64.4194 53.9507 64.4095 53.9606L56.8025 61.5677C56.7926 61.5776 56.7925 61.5936 56.8023 61.6034L70.777 75.5781C70.7868 75.5879 70.8028 75.5878 70.8127 75.5779L74.3536 72.037C74.3636 72.0271 74.3636 72.0111 74.3538 72.0012L69.3337 66.9812ZM60.2681 35.335C60.278 35.3448 60.2779 35.3608 60.268 35.3707L48.8676 46.7711C48.8577 46.781 48.8417 46.7811 48.8319 46.7712L41.934 39.8733C41.9242 39.8635 41.9242 39.8475 41.9342 39.8376L53.3345 28.4372C53.3444 28.4273 53.3604 28.4272 53.3702 28.4371L60.2681 35.335ZM66.6046 64.1281C66.6145 64.138 66.6305 64.1379 66.6404 64.128L77.9368 52.8316C77.9467 52.8217 77.9468 52.8057 77.9369 52.7958L74.4619 49.3208C74.4521 49.311 74.4361 49.311 74.4261 49.321L63.1298 60.6173C63.1199 60.6273 63.1198 60.6433 63.1296 60.6531L66.6046 64.1281Z" fill="#EB5757"/>
<path fill-rule="evenodd" clip-rule="evenodd" d="M34.1126 31.7571C34.1224 31.7669 34.1384 31.7668 34.1483 31.7569L45.5454 20.3599C45.5553 20.3499 45.5554 20.3339 45.5456 20.3241L40.5255 15.304C40.5157 15.2942 40.5158 15.2782 40.5257 15.2683L43.7779 12.016C43.7879 12.0061 43.8039 12.006 43.8137 12.0158L57.7884 25.9905C57.7982 26.0003 57.7981 26.0163 57.7882 26.0263L50.4321 33.3824C50.4222 33.3923 50.4221 33.4083 50.4319 33.4181L59.1208 42.107C59.1307 42.1169 59.1467 42.1168 59.1566 42.1069L66.5127 34.7508C66.5226 34.7408 66.5386 34.7408 66.5484 34.7506L78.386 46.5881C78.3958 46.5979 78.3957 46.6139 78.3858 46.6239L71.0297 53.98C71.0198 53.9899 71.0197 54.0059 71.0295 54.0157L81.6848 64.671C81.6947 64.6809 81.6946 64.6969 81.6847 64.7068L78.4576 67.9339C78.4476 67.9438 78.4316 67.9439 78.4218 67.9341L67.7665 57.2787C67.7567 57.2689 67.7407 57.269 67.7307 57.2789L60.1237 64.8859C60.1138 64.8959 60.0978 64.8959 60.0879 64.8861L48.2504 53.0486C48.2406 53.0388 48.2407 53.0228 48.2506 53.0129L55.8576 45.4058C55.8676 45.3959 55.8676 45.3799 55.8578 45.3701L47.1689 36.6811C47.1591 36.6713 47.1431 36.6714 47.1331 36.6813L39.5261 44.2883C39.5162 44.2983 39.5002 44.2983 39.4903 44.2885L25.5157 30.3139C25.5058 30.304 25.5059 30.288 25.5158 30.2781L29.0568 26.7372C29.0667 26.7273 29.0827 26.7272 29.0925 26.737L34.1126 31.7571ZM65.7588 40.8227C65.749 40.8129 65.7329 40.8129 65.723 40.8229L54.3227 52.2232C54.3128 52.2331 54.3127 52.2491 54.3225 52.2589L61.2204 59.1568C61.2302 59.1667 61.2463 59.1666 61.2562 59.1567L72.6565 47.7563C72.6664 47.7464 72.6665 47.7304 72.6567 47.7206L65.7588 40.8227ZM36.9656 34.4862C36.9558 34.4764 36.9559 34.4603 36.9658 34.4504L48.2622 23.1541C48.2721 23.1441 48.2881 23.1441 48.2979 23.1539L51.773 26.6289C51.7828 26.6388 51.7827 26.6548 51.7728 26.6647L40.4764 37.961C40.4665 37.971 40.4505 37.971 40.4407 37.9612L36.9656 34.4862Z" fill="#EB5757"/>
<g filter="url(#filter1_ddi_124_7171)">
<rect x="16.0938" y="104.125" width="82.8125" height="31.25" stroke="#D1D1D6" stroke-width="31.25" stroke-dasharray="0.32 1.58"/>
</g>
<rect x="1.25" y="88.5" width="112.5" height="62.5" fill="#949D95"/>
<path d="M21.6578 107.312L23.7469 99.5031H22.7078L21.1219 106H21.1L19.3719 99.5031H18.2453L16.4953 106H16.4734L14.9422 99.5031H13.8813L15.8828 107.312H16.9656L18.7703 100.75H18.7922L20.575 107.312H21.6578ZM27.8828 103.944H24.6344C24.6489 103.725 24.6963 103.521 24.7765 103.331C24.8567 103.134 24.9661 102.963 25.1047 102.817C25.2432 102.671 25.4073 102.558 25.5969 102.478C25.7937 102.391 26.0125 102.347 26.2531 102.347C26.4864 102.347 26.6979 102.391 26.8875 102.478C27.0844 102.558 27.2521 102.671 27.3906 102.817C27.5364 102.956 27.6495 103.123 27.7297 103.32C27.8172 103.517 27.8682 103.725 27.8828 103.944ZM28.7797 105.519H27.8609C27.7807 105.891 27.613 106.168 27.3578 106.35C27.1099 106.532 26.789 106.623 26.3953 106.623C26.089 106.623 25.8229 106.572 25.5969 106.47C25.3708 106.368 25.1849 106.233 25.039 106.066C24.8932 105.891 24.7875 105.694 24.7219 105.475C24.6562 105.249 24.6271 105.012 24.6344 104.764H28.8672C28.8817 104.421 28.8489 104.06 28.7687 103.681C28.6958 103.302 28.5573 102.952 28.3531 102.631C28.1562 102.31 27.8901 102.048 27.5547 101.844C27.2265 101.632 26.8109 101.527 26.3078 101.527C25.9213 101.527 25.564 101.599 25.2359 101.745C24.9151 101.891 24.6344 102.095 24.3937 102.358C24.1604 102.62 23.9781 102.93 23.8469 103.287C23.7156 103.645 23.65 104.039 23.65 104.469C23.6646 104.899 23.7265 105.296 23.8359 105.661C23.9526 106.026 24.1239 106.339 24.35 106.602C24.576 106.864 24.8531 107.068 25.1812 107.214C25.5166 107.36 25.9104 107.433 26.3625 107.433C27.0041 107.433 27.5364 107.272 27.9594 106.952C28.3823 106.631 28.6557 106.153 28.7797 105.519ZM37.8844 107.291C37.7239 107.385 37.5016 107.433 37.2172 107.433C36.9766 107.433 36.7833 107.367 36.6375 107.236C36.4989 107.097 36.4297 106.875 36.4297 106.569C36.1745 106.875 35.8755 107.097 35.5328 107.236C35.1974 107.367 34.8328 107.433 34.4391 107.433C34.1838 107.433 33.9396 107.404 33.7062 107.345C33.4802 107.287 33.2833 107.196 33.1156 107.072C32.9479 106.948 32.813 106.787 32.7109 106.591C32.6161 106.386 32.5687 106.142 32.5687 105.858C32.5687 105.537 32.6234 105.274 32.7328 105.07C32.8422 104.866 32.9844 104.702 33.1594 104.578C33.3417 104.447 33.5458 104.348 33.7719 104.283C34.0052 104.217 34.2422 104.162 34.4828 104.119C34.738 104.068 34.9786 104.031 35.2047 104.009C35.438 103.98 35.6422 103.944 35.8172 103.9C35.9922 103.849 36.1307 103.78 36.2328 103.692C36.3349 103.597 36.3859 103.462 36.3859 103.287C36.3859 103.083 36.3458 102.919 36.2656 102.795C36.1927 102.671 36.0943 102.577 35.9703 102.511C35.8536 102.445 35.7187 102.402 35.5656 102.38C35.4198 102.358 35.2739 102.347 35.1281 102.347C34.7344 102.347 34.4062 102.423 34.1437 102.577C33.8812 102.722 33.7391 103.003 33.7172 103.419H32.7875C32.8021 103.069 32.875 102.773 33.0062 102.533C33.1375 102.292 33.3125 102.099 33.5312 101.953C33.75 101.8 33.9979 101.691 34.275 101.625C34.5594 101.559 34.862 101.527 35.1828 101.527C35.438 101.527 35.6896 101.545 35.9375 101.581C36.1927 101.618 36.4224 101.694 36.6266 101.811C36.8307 101.92 36.9948 102.077 37.1187 102.281C37.2427 102.485 37.3047 102.752 37.3047 103.08V105.989C37.3047 106.208 37.3156 106.368 37.3375 106.47C37.3667 106.572 37.4542 106.623 37.6 106.623C37.6802 106.623 37.775 106.605 37.8844 106.569V107.291ZM36.375 104.392C36.2583 104.48 36.1052 104.545 35.9156 104.589C35.726 104.626 35.5255 104.658 35.3141 104.687C35.1099 104.709 34.9021 104.739 34.6906 104.775C34.4792 104.804 34.2896 104.855 34.1219 104.928C33.9542 105.001 33.8156 105.107 33.7062 105.245C33.6042 105.377 33.5531 105.559 33.5531 105.792C33.5531 105.945 33.5823 106.077 33.6406 106.186C33.7062 106.288 33.7864 106.372 33.8812 106.437C33.9833 106.503 34.1 106.551 34.2312 106.58C34.3625 106.609 34.501 106.623 34.6469 106.623C34.9531 106.623 35.2156 106.583 35.4344 106.503C35.6531 106.416 35.8318 106.31 35.9703 106.186C36.1088 106.055 36.2109 105.916 36.2766 105.77C36.3422 105.617 36.375 105.475 36.375 105.344V104.392ZM38.7168 101.658V107.312H39.6465V104.797C39.6465 104.432 39.683 104.111 39.7559 103.834C39.8288 103.55 39.9455 103.309 40.1059 103.112C40.2663 102.916 40.4777 102.766 40.7402 102.664C41.0027 102.562 41.3199 102.511 41.6918 102.511V101.527C41.1887 101.512 40.7731 101.614 40.4449 101.833C40.1168 102.052 39.8397 102.391 39.6137 102.85H39.5918V101.658H38.7168ZM46.1262 103.944H42.8778C42.8923 103.725 42.9397 103.521 43.0199 103.331C43.1002 103.134 43.2095 102.963 43.3481 102.817C43.4866 102.671 43.6507 102.558 43.8403 102.478C44.0371 102.391 44.2559 102.347 44.4965 102.347C44.7298 102.347 44.9413 102.391 45.1309 102.478C45.3278 102.558 45.4955 102.671 45.634 102.817C45.7798 102.956 45.8929 103.123 45.9731 103.32C46.0606 103.517 46.1116 103.725 46.1262 103.944ZM47.0231 105.519H46.1043C46.0241 105.891 45.8564 106.168 45.6012 106.35C45.3533 106.532 45.0324 106.623 44.6387 106.623C44.3324 106.623 44.0663 106.572 43.8403 106.47C43.6142 106.368 43.4283 106.233 43.2824 106.066C43.1366 105.891 43.0309 105.694 42.9653 105.475C42.8996 105.249 42.8705 105.012 42.8778 104.764H47.1106C47.1252 104.421 47.0923 104.06 47.0121 103.681C46.9392 103.302 46.8007 102.952 46.5965 102.631C46.3996 102.31 46.1335 102.048 45.7981 101.844C45.4699 101.632 45.0543 101.527 44.5512 101.527C44.1647 101.527 43.8074 101.599 43.4793 101.745C43.1585 101.891 42.8778 102.095 42.6371 102.358C42.4038 102.62 42.2215 102.93 42.0903 103.287C41.959 103.645 41.8934 104.039 41.8934 104.469C41.908 104.899 41.9699 105.296 42.0793 105.661C42.196 106.026 42.3673 106.339 42.5934 106.602C42.8194 106.864 43.0965 107.068 43.4246 107.214C43.7601 107.36 44.1538 107.433 44.6059 107.433C45.2476 107.433 45.7798 107.272 46.2028 106.952C46.6257 106.631 46.8991 106.153 47.0231 105.519Z" fill="#F2F2F2"/>
<path d="M15.0438 110.425V123.812H17.9875V118.037H23.4063V123.812H26.35V110.425H23.4063V115.562H17.9875V110.425H15.0438ZM31.529 112.9V123.812H34.4727V112.9H38.4852V110.425H27.5165V112.9H31.529ZM42.5976 121.338V112.9H44.6976C45.4226 112.9 46.0289 113.006 46.5164 113.219C47.0164 113.419 47.4164 113.712 47.7164 114.1C48.0164 114.487 48.2289 114.956 48.3539 115.506C48.4914 116.044 48.5601 116.65 48.5601 117.325C48.5601 118.062 48.4664 118.687 48.2789 119.2C48.0914 119.712 47.8414 120.131 47.5289 120.456C47.2164 120.769 46.8601 120.994 46.4601 121.131C46.0601 121.269 45.6476 121.338 45.2226 121.338H42.5976ZM39.6539 110.425V123.812H45.4289C46.4539 123.812 47.3414 123.644 48.0914 123.306C48.8539 122.956 49.4851 122.481 49.9851 121.881C50.4976 121.281 50.8789 120.569 51.1289 119.744C51.3789 118.919 51.5039 118.019 51.5039 117.044C51.5039 115.931 51.3476 114.962 51.0351 114.137C50.7351 113.312 50.3101 112.625 49.7601 112.075C49.2226 111.525 48.5789 111.112 47.8289 110.837C47.0914 110.562 46.2914 110.425 45.4289 110.425H39.6539ZM53.1766 110.425V123.812H56.1203V110.425H53.1766ZM23.9688 129.925H26.8188C26.7313 129.15 26.5188 128.462 26.1813 127.862C25.8438 127.262 25.4125 126.762 24.8875 126.362C24.375 125.95 23.7875 125.637 23.125 125.425C22.475 125.212 21.7813 125.106 21.0438 125.106C20.0188 125.106 19.0938 125.287 18.2688 125.65C17.4563 126.012 16.7688 126.512 16.2063 127.15C15.6438 127.787 15.2125 128.537 14.9125 129.4C14.6125 130.25 14.4625 131.175 14.4625 132.175C14.4625 133.15 14.6125 134.062 14.9125 134.912C15.2125 135.75 15.6438 136.481 16.2063 137.106C16.7688 137.731 17.4563 138.225 18.2688 138.587C19.0938 138.938 20.0188 139.113 21.0438 139.113C21.8688 139.113 22.625 138.988 23.3125 138.737C24 138.487 24.6 138.125 25.1125 137.65C25.625 137.175 26.0375 136.6 26.35 135.925C26.6625 135.25 26.8563 134.494 26.9313 133.656H24.0812C23.9688 134.556 23.6563 135.281 23.1438 135.831C22.6438 136.381 21.9438 136.656 21.0438 136.656C20.3813 136.656 19.8188 136.531 19.3563 136.281C18.8938 136.019 18.5188 135.675 18.2313 135.25C17.9438 134.825 17.7313 134.35 17.5938 133.825C17.4688 133.287 17.4063 132.737 17.4063 132.175C17.4063 131.587 17.4688 131.019 17.5938 130.469C17.7313 129.919 17.9438 129.431 18.2313 129.006C18.5188 128.569 18.8938 128.225 19.3563 127.975C19.8188 127.712 20.3813 127.581 21.0438 127.581C21.4063 127.581 21.75 127.644 22.075 127.769C22.4125 127.881 22.7125 128.044 22.975 128.256C23.2375 128.469 23.4563 128.719 23.6313 129.006C23.8063 129.281 23.9188 129.587 23.9688 129.925ZM30.6477 133.975C30.6477 133.587 30.6852 133.206 30.7602 132.831C30.8352 132.456 30.9602 132.125 31.1352 131.837C31.3227 131.55 31.5665 131.319 31.8665 131.144C32.1665 130.956 32.5415 130.862 32.9915 130.862C33.4415 130.862 33.8165 130.956 34.1165 131.144C34.429 131.319 34.6727 131.55 34.8477 131.837C35.0352 132.125 35.1665 132.456 35.2415 132.831C35.3165 133.206 35.354 133.587 35.354 133.975C35.354 134.362 35.3165 134.744 35.2415 135.119C35.1665 135.481 35.0352 135.812 34.8477 136.112C34.6727 136.4 34.429 136.631 34.1165 136.806C33.8165 136.981 33.4415 137.069 32.9915 137.069C32.5415 137.069 32.1665 136.981 31.8665 136.806C31.5665 136.631 31.3227 136.4 31.1352 136.112C30.9602 135.812 30.8352 135.481 30.7602 135.119C30.6852 134.744 30.6477 134.362 30.6477 133.975ZM27.9852 133.975C27.9852 134.75 28.104 135.45 28.3415 136.075C28.579 136.7 28.9165 137.237 29.354 137.687C29.7915 138.125 30.3165 138.462 30.929 138.7C31.5415 138.938 32.229 139.056 32.9915 139.056C33.754 139.056 34.4415 138.938 35.054 138.7C35.679 138.462 36.2102 138.125 36.6477 137.687C37.0852 137.237 37.4227 136.7 37.6602 136.075C37.8977 135.45 38.0165 134.75 38.0165 133.975C38.0165 133.2 37.8977 132.5 37.6602 131.875C37.4227 131.237 37.0852 130.7 36.6477 130.262C36.2102 129.812 35.679 129.469 35.054 129.231C34.4415 128.981 33.754 128.856 32.9915 128.856C32.229 128.856 31.5415 128.981 30.929 129.231C30.3165 129.469 29.7915 129.812 29.354 130.262C28.9165 130.7 28.579 131.237 28.3415 131.875C28.104 132.5 27.9852 133.2 27.9852 133.975ZM39.4476 125.425V138.812H42.1101V125.425H39.4476ZM43.9066 125.425V138.812H46.5691V125.425H43.9066ZM54.8156 132.925H50.4843C50.4968 132.737 50.5343 132.525 50.5968 132.287C50.6718 132.05 50.7906 131.825 50.9531 131.612C51.1281 131.4 51.3531 131.225 51.6281 131.087C51.9156 130.937 52.2718 130.862 52.6968 130.862C53.3468 130.862 53.8281 131.037 54.1406 131.387C54.4656 131.737 54.6906 132.25 54.8156 132.925ZM50.4843 134.612H57.4781C57.5281 133.862 57.4656 133.144 57.2906 132.456C57.1156 131.769 56.8281 131.156 56.4281 130.619C56.0406 130.081 55.5406 129.656 54.9281 129.344C54.3156 129.019 53.5968 128.856 52.7718 128.856C52.0343 128.856 51.3593 128.987 50.7468 129.25C50.1468 129.512 49.6281 129.875 49.1906 130.337C48.7531 130.787 48.4156 131.325 48.1781 131.95C47.9406 132.575 47.8218 133.25 47.8218 133.975C47.8218 134.725 47.9343 135.412 48.1593 136.037C48.3968 136.662 48.7281 137.2 49.1531 137.65C49.5781 138.1 50.0968 138.45 50.7093 138.7C51.3218 138.938 52.0093 139.056 52.7718 139.056C53.8718 139.056 54.8093 138.806 55.5843 138.306C56.3593 137.806 56.9343 136.975 57.3093 135.812H54.9656C54.8781 136.112 54.6406 136.4 54.2531 136.675C53.8656 136.937 53.4031 137.069 52.8656 137.069C52.1156 137.069 51.5406 136.875 51.1406 136.487C50.7406 136.1 50.5218 135.475 50.4843 134.612ZM65.2822 132.531H67.8884C67.8509 131.906 67.7009 131.369 67.4384 130.919C67.1759 130.456 66.8322 130.075 66.4072 129.775C65.9947 129.462 65.5197 129.231 64.9822 129.081C64.4572 128.931 63.9072 128.856 63.3322 128.856C62.5447 128.856 61.8447 128.987 61.2322 129.25C60.6197 129.512 60.1009 129.881 59.6759 130.356C59.2509 130.819 58.9259 131.375 58.7009 132.025C58.4884 132.662 58.3822 133.356 58.3822 134.106C58.3822 134.831 58.5009 135.5 58.7384 136.112C58.9759 136.712 59.3072 137.231 59.7322 137.669C60.1572 138.106 60.6697 138.45 61.2697 138.7C61.8822 138.938 62.5509 139.056 63.2759 139.056C64.5634 139.056 65.6197 138.719 66.4447 138.044C67.2697 137.369 67.7697 136.387 67.9447 135.1H65.3759C65.2884 135.7 65.0697 136.181 64.7197 136.544C64.3822 136.894 63.8947 137.069 63.2572 137.069C62.8447 137.069 62.4947 136.975 62.2072 136.787C61.9197 136.6 61.6884 136.362 61.5134 136.075C61.3509 135.775 61.2322 135.444 61.1572 135.081C61.0822 134.719 61.0447 134.362 61.0447 134.012C61.0447 133.65 61.0822 133.287 61.1572 132.925C61.2322 132.55 61.3572 132.212 61.5322 131.912C61.7197 131.6 61.9572 131.35 62.2447 131.162C62.5322 130.962 62.8884 130.862 63.3134 130.862C64.4509 130.862 65.1072 131.419 65.2822 132.531ZM72.4488 129.119V126.212H69.7863V129.119H68.1738V130.9H69.7863V136.619C69.7863 137.106 69.8675 137.5 70.03 137.8C70.1925 138.1 70.4113 138.331 70.6863 138.494C70.9738 138.656 71.2988 138.762 71.6613 138.812C72.0363 138.875 72.43 138.906 72.8425 138.906C73.105 138.906 73.3738 138.9 73.6488 138.888C73.9238 138.875 74.1738 138.85 74.3988 138.812V136.75C74.2738 136.775 74.1425 136.794 74.005 136.806C73.8675 136.819 73.7238 136.825 73.5738 136.825C73.1238 136.825 72.8238 136.75 72.6738 136.6C72.5238 136.45 72.4488 136.15 72.4488 135.7V130.9H74.3988V129.119H72.4488ZM78.0281 127.619V125.425H75.3656V127.619H78.0281ZM75.3656 129.119V138.812H78.0281V129.119H75.3656ZM85.1121 138.812L88.3933 129.119H85.7496L83.7058 135.737H83.6683L81.6246 129.119H78.8308L82.1496 138.812H85.1121ZM95.6408 132.925H91.3095C91.322 132.737 91.3595 132.525 91.422 132.287C91.497 132.05 91.6158 131.825 91.7783 131.612C91.9533 131.4 92.1783 131.225 92.4533 131.087C92.7408 130.937 93.097 130.862 93.522 130.862C94.172 130.862 94.6533 131.037 94.9658 131.387C95.2908 131.737 95.5158 132.25 95.6408 132.925ZM91.3095 134.612H98.3033C98.3533 133.862 98.2908 133.144 98.1158 132.456C97.9408 131.769 97.6533 131.156 97.2533 130.619C96.8658 130.081 96.3658 129.656 95.7533 129.344C95.1408 129.019 94.422 128.856 93.597 128.856C92.8595 128.856 92.1845 128.987 91.572 129.25C90.972 129.512 90.4533 129.875 90.0158 130.337C89.5783 130.787 89.2408 131.325 89.0033 131.95C88.7658 132.575 88.647 133.25 88.647 133.975C88.647 134.725 88.7595 135.412 88.9845 136.037C89.222 136.662 89.5533 137.2 89.9783 137.65C90.4033 138.1 90.922 138.45 91.5345 138.7C92.147 138.938 92.8345 139.056 93.597 139.056C94.697 139.056 95.6345 138.806 96.4095 138.306C97.1845 137.806 97.7595 136.975 98.1345 135.812H95.7908C95.7033 136.112 95.4658 136.4 95.0783 136.675C94.6908 136.937 94.2283 137.069 93.6908 137.069C92.9408 137.069 92.3658 136.875 91.9658 136.487C91.5658 136.1 91.347 135.475 91.3095 134.612Z" fill="black"/>
<rect x="1.25" y="88.5" width="112.5" height="62.5" stroke="white" stroke-width="0.78125"/>
</g>
<rect x="1" y="1" width="113" height="150" stroke="white"/>
</g>
<defs>
<filter id="filter0_b_124_7171" x="-49.5" y="-49.5" width="214" height="251" filterUnits="userSpaceOnUse" color-interpolation-filters="sRGB">
<feFlood flood-opacity="0" result="BackgroundImageFix"/>
<feGaussianBlur in="BackgroundImage" stdDeviation="25"/>
<feComposite in2="SourceAlpha" operator="in" result="effect1_backgroundBlur_124_7171"/>
<feBlend mode="normal" in="SourceGraphic" in2="effect1_backgroundBlur_124_7171" result="shape"/>
</filter>
<filter id="filter1_ddi_124_7171" x="-13.2786" y="73.8206" width="139.46" height="87.1986" filterUnits="userSpaceOnUse" color-interpolation-filters="sRGB">
<feFlood flood-opacity="0" result="BackgroundImageFix"/>
<feColorMatrix in="SourceAlpha" type="matrix" values="0 0 0 0 0 0 0 0 0 0 0 0 0 0 0 0 0 0 127 0" result="hardAlpha"/>
<feMorphology radius="5.82514" operator="dilate" in="SourceAlpha" result="effect1_dropShadow_124_7171"/>
<feOffset dx="-1.39803" dy="-2.33006"/>
<feGaussianBlur stdDeviation="3.26208"/>
<feColorMatrix type="matrix" values="0 0 0 0 0.644583 0 0 0 0 0.825067 0 0 0 0 0.991667 0 0 0 0.15 0"/>
<feBlend mode="normal" in2="BackgroundImageFix" result="effect1_dropShadow_124_7171"/>
<feColorMatrix in="SourceAlpha" type="matrix" values="0 0 0 0 0 0 0 0 0 0 0 0 0 0 0 0 0 0 127 0" result="hardAlpha"/>
<feOffset dx="4.1941" dy="1.39803"/>
<feGaussianBlur stdDeviation="3.72809"/>
<feColorMatrix type="matrix" values="0 0 0 0 0.54625 0 0 0 0 0.73625 0 0 0 0 0.95 0 0 0 0.7 0"/>
<feBlend mode="normal" in2="effect1_dropShadow_124_7171" result="effect2_dropShadow_124_7171"/>
<feBlend mode="normal" in="SourceGraphic" in2="effect2_dropShadow_124_7171" result="shape"/>
<feColorMatrix in="SourceAlpha" type="matrix" values="0 0 0 0 0 0 0 0 0 0 0 0 0 0 0 0 0 0 127 0" result="hardAlpha"/>
<feOffset dx="-1.86405" dy="-0.699017"/>
<feGaussianBlur stdDeviation="4.66011"/>
<feComposite in2="hardAlpha" operator="arithmetic" k2="-1" k3="1"/>
<feColorMatrix type="matrix" values="0 0 0 0 0.974 0 0 0 0 0.974889 0 0 0 0 0.976 0 0 0 0.5 0"/>
<feBlend mode="normal" in2="shape" result="effect3_innerShadow_124_7171"/>
</filter>
<clipPath id="clip0_124_7171">
<rect x="1" y="1" width="113" height="150" fill="white"/>
</clipPath>
</defs>
</svg>
