{
    "asset": {
        "copyright": "2020 (c) Adobe Inc.",
        "generator": "Adobe Dimension - 3de52ae4ccc0c25be48106335282fae5a6a58dee",
        "version": "2.0"
    },
    "accessors": [
        {
            "bufferView": 0,
            "componentType": 5126,
            "count": 9504,
            "type": "VEC3",
            "max": [
                0.10017989575862885,
                0.020706389099359514,
                0.10017989575862885
            ],
            "min": [
                -0.10017989575862885,
                -0.00036475999513641,
                -0.10017989575862885
            ]
        },
        {
            "bufferView": 1,
            "componentType": 5126,
            "count": 9504,
            "type": "VEC3"
        },
        {
            "bufferView": 2,
            "componentType": 5126,
            "count": 9504,
            "type": "VEC2"
        },
        {
            "bufferView": 3,
            "componentType": 5125,
            "count": 54084,
            "type": "SCALAR",
            "max": [
                9503.0
            ],
            "min": [
                0.0
            ]
        }
    ],
    "bufferViews": [
        {
            "buffer": 0,
            "byteOffset": 0,
            "byteLength": 114048,
            "target": 34962
        },
        {
            "buffer": 0,
            "byteOffset": 114048,
            "byteLength": 114048,
            "target": 34962
        },
        {
            "buffer": 0,
            "byteOffset": 228096,
            "byteLength": 76032,
            "target": 34962
        },
        {
            "buffer": 0,
            "byteOffset": 304128,
            "byteLength": 216336,
            "target": 34963
        }
    ],
    "buffers": [
        {
            "byteLength": 520464,
            "uri": "icon-Anja_binary.bin"
        }
    ],
    "cameras": [
        {
            "perspective": {
                "znear": 0.000010000000656873454,
                "yfov": 0.6024156808853149,
                "zfar": 2.0,
                "aspectRatio": 1.3333333730697632
            },
            "type": "perspective",
            "name": "render_camera"
        }
    ],
    "images": [
        {
            "name": "composited_baseColor_opacity",
            "uri": "icon-Anja_images/composited_baseColor_opacity.png",
            "mimeType": "image/png"
        },
        {
            "name": "composited_roughness",
            "uri": "icon-Anja_images/composited_roughness.png",
            "mimeType": "image/png"
        }
    ],
    "materials": [
        {
            "pbrMetallicRoughness": {
                "baseColorTexture": {
                    "index": 0
                },
                "metallicFactor": 0.0,
                "metallicRoughnessTexture": {
                    "index": 1
                }
            },
            "emissiveTexture": {
                "index": 0
            },
            "emissiveFactor": [
                0.10999999940395355,
                0.10999999940395355,
                0.10999999940395355
            ],
            "alphaMode": "BLEND",
            "name": "Frosted Glass",
            "doubleSided": true
        }
    ],
    "meshes": [
        {
            "name": "Rounded Cube Flat",
            "primitives": [
                {
                    "attributes": {
                        "POSITION": 0,
                        "NORMAL": 1,
                        "TEXCOORD_0": 2
                    },
                    "indices": 3,
                    "material": 0
                }
            ]
        }
    ],
    "nodes": [
        {
            "translation": [
                0.7467107176780701,
                -0.37292447686195376,
                -1.9777652025222779
            ],
            "rotation": [
                -0.12059047073125839,
                0.379409521818161,
                0.04995020851492882,
                0.9159756302833557
            ],
            "scale": [
                1.0,
                1.0,
                0.9999999403953552
            ],
            "camera": 0,
            "name": "render_camera_n3d"
        },
        {
            "translation": [
                0.0,
                0.10017989575862885,
                -0.0020443724934011699
            ],
            "rotation": [
                0.7071067690849304,
                0.0,
                0.0,
                0.7071068286895752
            ],
            "scale": [
                1.0,
                0.20099999010562898,
                0.9999998211860657
            ],
            "mesh": 0,
            "name": "APP ICON"
        }
    ],
    "samplers": [
        {},
        {}
    ],
    "scenes": [
        {
            "nodes": [
                0,
                1
            ],
            "name": "scene"
        }
    ],
    "textures": [
        {
            "name": "composited_baseColor_opacity",
            "sampler": 0,
            "source": 0
        },
        {
            "name": "composited_roughness",
            "sampler": 1,
            "source": 1
        }
    ],
    "scene": 0
}