{
  "asset": {
    "version": "2.0",
    "generator": "THREE.GLTFExporter"
  },
  "scenes": [
    {
      "name": "Scene",
      "nodes": [
        4,
        9
      ]
    }
  ],
  "scene": 0,
  "nodes": [
    {
      "matrix": [
        1,
        0,
        0,
        0,
        0,
        1,
        0,
        0,
        0,
        0,
        1,
        0,
        -60.02022525138034,
        144.79250795413253,
        -12.004999999999882,
        1
      ],
      "name": "H_5",
      "extras": {
        "name": "H"
      },
      "mesh": 0
    },
    {
      "matrix": [
        1,
        0,
        0,
        0,
        0,
        1,
        0,
        0,
        0,
        0,
        1,
        0,
        -59.67226508232227,
        63.54997842996997,
        -12.035000000000082,
        1
      ],
      "name": "T_5",
      "extras": {
        "name": "T"
      },
      "mesh": 1
    },
    {
      "matrix": [
        1,
        0,
        0,
        0,
        0,
        1,
        0,
        0,
        0,
        0,
        1,
        0,
        -57.96122525138037,
        0.6051782702646165,
        -11.964999999999918,
        1
      ],
      "name": "D_5",
      "extras": {
        "name": "D"
      },
      "mesh": 2
    },
    {
      "matrix": [
        1,
        0,
        0,
        0,
        0,
        1,
        0,
        0,
        0,
        0,
        1,
        0,
        -11.074487525730262,
        -75.10937959719894,
        -11.965000000000032,
        1
      ],
      "name": "I_5",
      "extras": {
        "name": "I"
      },
      "mesh": 3
    },
    {
      "matrix": [
        0.1,
        0,
        0,
        0,
        0,
        0.1,
        1.1702427193718262e-17,
        0,
        0,
        -1.1702427193718262e-17,
        0.1,
        0,
        -0.012758513268067428,
        0,
        -1.1102230246251565e-16,
        1
      ],
      "name": "HTDI1_1",
      "extras": {
        "name": "HTDI1"
      },
      "children": [
        0,
        1,
        2,
        3
      ]
    },
    {
      "matrix": [
        1,
        0,
        0,
        0,
        0,
        1,
        0,
        0,
        0,
        0,
        1,
        0,
        -60.02022525138034,
        144.48270010561285,
        -12.004999999999882,
        1
      ],
      "name": "H_5",
      "extras": {
        "name": "H"
      },
      "mesh": 0
    },
    {
      "matrix": [
        1,
        0,
        0,
        0,
        0,
        1,
        0,
        0,
        0,
        0,
        1,
        0,
        -59.67226508232227,
        63.639822391998734,
        -12.035000000000082,
        1
      ],
      "name": "T_5",
      "extras": {
        "name": "T"
      },
      "mesh": 1
    },
    {
      "matrix": [
        1,
        0,
        0,
        0,
        0,
        1,
        0,
        0,
        0,
        0,
        1,
        0,
        -57.96122525138037,
        0.6051782702646165,
        -11.964999999999918,
        1
      ],
      "name": "D_5",
      "extras": {
        "name": "D"
      },
      "mesh": 2
    },
    {
      "matrix": [
        1,
        0,
        0,
        0,
        0,
        1,
        0,
        0,
        0,
        0,
        1,
        0,
        -11.074487525730262,
        -75.10937959719894,
        -11.965000000000032,
        1
      ],
      "name": "I_5",
      "extras": {
        "name": "I"
      },
      "mesh": 3
    },
    {
      "matrix": [
        -2.2204460492503132e-17,
        2.1895288505075268e-48,
        -0.1,
        0,
        2.789044477473679e-32,
        0.1,
        -2.1895288505075268e-48,
        0,
        0.1,
        -2.789044477473679e-32,
        -2.2204460492503132e-17,
        0,
        -0.012758513268067428,
        0,
        -1.1102230246251565e-16,
        1
      ],
      "name": "HTDI1_1",
      "extras": {
        "name": "HTDI1"
      },
      "children": [
        5,
        6,
        7,
        8
      ]
    }
  ],
  "bufferViews": [
    {
      "buffer": 0,
      "byteOffset": 0,
      "byteLength": 64440,
      "target": 34962,
      "byteStride": 12
    },
    {
      "buffer": 0,
      "byteOffset": 64440,
      "byteLength": 64440,
      "target": 34962,
      "byteStride": 12
    },
    {
      "buffer": 0,
      "byteOffset": 128880,
      "byteLength": 42960,
      "target": 34962,
      "byteStride": 8
    },
    {
      "buffer": 0,
      "byteOffset": 171840,
      "byteLength": 115200,
      "target": 34963
    },
    {
      "buffer": 0,
      "byteOffset": 287040,
      "byteLength": 42936,
      "target": 34962,
      "byteStride": 12
    },
    {
      "buffer": 0,
      "byteOffset": 329976,
      "byteLength": 42936,
      "target": 34962,
      "byteStride": 12
    },
    {
      "buffer": 0,
      "byteOffset": 372912,
      "byteLength": 28624,
      "target": 34962,
      "byteStride": 8
    },
    {
      "buffer": 0,
      "byteOffset": 401536,
      "byteLength": 77856,
      "target": 34963
    },
    {
      "buffer": 0,
      "byteOffset": 479392,
      "byteLength": 48096,
      "target": 34962,
      "byteStride": 12
    },
    {
      "buffer": 0,
      "byteOffset": 527488,
      "byteLength": 48096,
      "target": 34962,
      "byteStride": 12
    },
    {
      "buffer": 0,
      "byteOffset": 575584,
      "byteLength": 32064,
      "target": 34962,
      "byteStride": 8
    },
    {
      "buffer": 0,
      "byteOffset": 607648,
      "byteLength": 75216,
      "target": 34963
    },
    {
      "buffer": 0,
      "byteOffset": 682864,
      "byteLength": 8064,
      "target": 34962,
      "byteStride": 12
    },
    {
      "buffer": 0,
      "byteOffset": 690928,
      "byteLength": 8064,
      "target": 34962,
      "byteStride": 12
    },
    {
      "buffer": 0,
      "byteOffset": 698992,
      "byteLength": 5376,
      "target": 34962,
      "byteStride": 8
    },
    {
      "buffer": 0,
      "byteOffset": 704368,
      "byteLength": 15888,
      "target": 34963
    }
  ],
  "buffers": [
    {
      "byteLength": 720256,
      "uri": "data:application/octet-stream;base64,"
    }
  ],
  "accessors": [
    {
      "bufferView": 0,
      "componentType": 5126,
      "count": 5370,
      "max": [
        118.17290496826172,
        0,
        24
      ],
      "min": [
        0.007466738112270832,
        -80.63700103759766,
        0
      ],
      "type": "VEC3"
    },
    {
      "bufferView": 1,
      "componentType": 5126,
      "count": 5370,
      "max": [
        0.9999744892120361,
        0,
        0.9992884397506714
      ],
      "min": [
        0.0003380041744094342,
        -0.9999292492866516,
        0
      ],
      "type": "VEC3"
    },
    {
      "bufferView": 2,
      "componentType": 5126,
      "count": 5370,
      "max": [
        118.17290496826172,
        118.17290496826172
      ],
      "min": [
        -80.63700103759766,
        -80.63700103759766
      ],
      "type": "VEC2"
    },
    {
      "bufferView": 3,
      "componentType": 5125,
      "count": 28800,
      "max": [
        5369
      ],
      "min": [
        0
      ],
      "type": "SCALAR"
    },
    {
      "bufferView": 4,
      "componentType": 5126,
      "count": 3578,
      "max": [
        118.02200317382812,
        0,
        24
      ],
      "min": [
        0.0013256357051432133,
        -63.542999267578125,
        0
      ],
      "type": "VEC3"
    },
    {
      "bufferView": 5,
      "componentType": 5126,
      "count": 3578,
      "max": [
        0.9999744892120361,
        0,
        0.9992912411689758
      ],
      "min": [
        0.00006000874418532476,
        -0.9988585710525513,
        0
      ],
      "type": "VEC3"
    },
    {
      "bufferView": 6,
      "componentType": 5126,
      "count": 3578,
      "max": [
        118.02200317382812,
        118.02200317382812
      ],
      "min": [
        -63.542999267578125,
        -63.542999267578125
      ],
      "type": "VEC2"
    },
    {
      "bufferView": 7,
      "componentType": 5125,
      "count": 19464,
      "max": [
        3577
      ],
      "min": [
        0
      ],
      "type": "SCALAR"
    },
    {
      "bufferView": 8,
      "componentType": 5126,
      "count": 4008,
      "max": [
        117.97398376464844,
        0,
        24
      ],
      "min": [
        0,
        -78.49099731445312,
        0
      ],
      "type": "VEC3"
    },
    {
      "bufferView": 9,
      "componentType": 5126,
      "count": 4008,
      "max": [
        0.999804675579071,
        0,
        0.9921109080314636
      ],
      "min": [
        0,
        -0.9997513890266418,
        0
      ],
      "type": "VEC3"
    },
    {
      "bufferView": 10,
      "componentType": 5126,
      "count": 4008,
      "max": [
        117.97398376464844,
        117.97398376464844
      ],
      "min": [
        -78.49099731445312,
        -78.49099731445312
      ],
      "type": "VEC2"
    },
    {
      "bufferView": 11,
      "componentType": 5125,
      "count": 18804,
      "max": [
        4007
      ],
      "min": [
        0
      ],
      "type": "SCALAR"
    },
    {
      "bufferView": 12,
      "componentType": 5126,
      "count": 672,
      "max": [
        21.911376953125,
        0,
        24
      ],
      "min": [
        0.021877730265259743,
        -69.6831283569336,
        0
      ],
      "type": "VEC3"
    },
    {
      "bufferView": 13,
      "componentType": 5126,
      "count": 672,
      "max": [
        0.9965789914131165,
        0,
        0.9975546598434448
      ],
      "min": [
        0.0003099866444244981,
        -0.9996951818466187,
        0
      ],
      "type": "VEC3"
    },
    {
      "bufferView": 14,
      "componentType": 5126,
      "count": 672,
      "max": [
        22.828426361083984,
        21.911376953125
      ],
      "min": [
        -69.4936752319336,
        -69.4936752319336
      ],
      "type": "VEC2"
    },
    {
      "bufferView": 15,
      "componentType": 5125,
      "count": 3972,
      "max": [
        671
      ],
      "min": [
        0
      ],
      "type": "SCALAR"
    }
  ],
  "materials": [
    {
      "pbrMetallicRoughness": {
        "baseColorFactor": [
          0.0392156862745098,
          0.0392156862745098,
          0.0392156862745098,
          1
        ],
        "metallicFactor": 1,
        "roughnessFactor": 1
      },
      "emissiveFactor": [
        0.04,
        0.04,
        0.04
      ],
      "alphaMode": "BLEND",
      "doubleSided": true
    }
  ],
  "meshes": [
    {
      "primitives": [
        {
          "mode": 4,
          "attributes": {
            "POSITION": 0,
            "NORMAL": 1,
            "TEXCOORD_0": 2
          },
          "indices": 3,
          "material": 0
        }
      ]
    },
    {
      "primitives": [
        {
          "mode": 4,
          "attributes": {
            "POSITION": 4,
            "NORMAL": 5,
            "TEXCOORD_0": 6
          },
          "indices": 7,
          "material": 0
        }
      ]
    },
    {
      "primitives": [
        {
          "mode": 4,
          "attributes": {
            "POSITION": 8,
            "NORMAL": 9,
            "TEXCOORD_0": 10
          },
          "indices": 11,
          "material": 0
        }
      ]
    },
    {
      "primitives": [
        {
          "mode": 4,
          "attributes": {
            "POSITION": 12,
            "NORMAL": 13,
            "TEXCOORD_0": 14
          },
          "indices": 15,
          "material": 0
        }
      ]
    }
  ]
}