<svg width="292" height="51" viewBox="0 0 292 51" fill="none" xmlns="http://www.w3.org/2000/svg">
<g id="3DKNIHGT">
<path id="Vector" d="M176.646 33.0174H192.132C191.51 36.9289 187.879 41.5827 179.735 41.5827C171.912 41.5827 165.413 35.6853 165.413 25.2746C165.413 14.7836 171.511 8.62544 179.996 8.62544C187.458 8.62544 190.948 13.0184 192.814 18.294L202.603 14.6633C200.075 6.86023 193.014 0 179.996 0C165.473 0 154.581 11.0325 154.581 25.2746C154.581 41.3018 165.333 50.1479 177.047 50.1479C186.836 50.1479 190.427 43.3278 192.092 39.2558C193.055 37.1696 193.837 35.1236 194.158 33.9201C194.298 33.3985 194.78 33.0374 195.321 33.0374H197.909C198.852 33.0374 199.433 34.0805 198.912 34.8829C197.789 36.608 196.144 39.1956 195.141 41.1414C193.656 44.1101 192.954 47.0789 192.954 49.0447H202.322V24.3719H176.646V33.0174Z" fill="#C0CBC5"/>
<path id="Vector_2" d="M129.032 2V24.8875C129.032 26.2114 129.093 27.435 129.213 28.5583C129.935 35.5991 134.97 43.9838 136.194 46.0098C136.675 46.8122 136.113 47.8352 135.171 47.8352H132.122C131.56 47.8352 131.079 47.4541 130.958 46.9125C130.417 44.6257 127.227 38.0664 123.857 31.7879L123.777 31.6274L109.595 2.04012L109.094 2H93.0664V49.9615H103.477V27.074C103.477 25.7501 103.417 24.5264 103.297 23.4031C102.574 16.3624 97.5396 7.97763 96.316 5.95166C95.8346 5.14929 96.3962 4.12627 97.339 4.12627H100.388C100.95 4.12627 101.431 4.5074 101.551 5.04899C101.933 6.67379 103.256 10.4449 105.122 14.4768L107.469 19.0503C107.549 19.1907 107.609 19.3111 107.69 19.4515C107.71 19.4916 107.73 19.5518 107.75 19.6119L108.231 20.5547L122.273 50.0216L125.482 49.9815H139.443V2H129.032Z" fill="#C0CBC5"/>
<path id="Vector_3" d="M248.692 2V10.6254H265.141V49.9414H275.552V20.9158C275.491 17.6261 272.804 14.9582 269.494 14.9582C269.193 14.9582 268.912 14.9783 268.611 15.0184C267.889 15.1187 267.247 14.537 267.247 13.8148V11.829C267.247 11.167 267.789 10.6254 268.451 10.6254H275.552H277.016H292V2H248.692Z" fill="#C0CBC5"/>
<path id="Vector_4" d="M235.928 2V20.976H215.368H208.267C207.605 20.976 207.063 20.4344 207.063 19.7724V17.7866C207.063 17.0644 207.705 16.4627 208.427 16.583C208.708 16.6231 209.009 16.6432 209.31 16.6432C212.62 16.6432 215.328 13.9753 215.368 10.6856V2H204.957V49.9615H215.368V29.6014H234.464H235.928V39.8918V43.3219V49.9615H246.339V2H235.928Z" fill="#C0CBC5"/>
<path id="Vector_5" d="M152.228 49.9414L150.349 26.1102C150.349 26.0504 150.349 25.9906 150.349 25.9309L152.228 2H141.797L143.675 25.8711C143.675 25.9309 143.675 25.9906 143.675 26.0504L141.797 49.9414H152.228Z" fill="#C0CBC5"/>
<path id="Vector_6" d="M69.8318 21.1766L88.3865 2H74.4053L63.6937 14.196C58.0771 20.6751 52.0193 28.0167 50.7154 29.6817C50.0334 30.5442 48.5691 29.9224 48.5691 28.6787V25.7099C48.5691 25.1884 48.5892 24.5666 49.0305 24.2256C50.896 22.7813 56.8736 18.8096 56.8736 8.3387V2H46.4629V49.9615H56.8736V34.6162L62.6908 28.5784L77.6348 49.9615H90.7134L69.8318 21.1766Z" fill="#C0CBC5"/>
<path id="Vector_7" d="M18.7545 2.35352H0.661133V50.315H18.7545C32.4549 50.315 44.1093 41.4087 44.1093 26.0033C44.1093 10.979 32.4549 2.35352 18.7545 2.35352ZM18.2731 41.6695H11.0718V20.1861C10.45 17.438 8.00279 15.3719 5.07415 15.3719C4.77326 15.3719 4.47237 15.392 4.19154 15.4321C3.46941 15.5324 2.80745 14.9908 2.80745 14.2687V12.1825C2.80745 11.5206 3.34906 10.999 3.99095 10.999H11.0718H12.6966H18.6743C28.5434 10.999 33.3375 17.097 33.3375 26.2039C33.3375 36.3337 28.4832 41.6695 18.2731 41.6695Z" fill="#FCFCFC"/>
</g>
</svg>
