<svg width="1920" height="1080" viewBox="0 0 1920 1080" fill="none" xmlns="http://www.w3.org/2000/svg">
<g id="frame-black">
<path fill-rule="evenodd" clip-rule="evenodd" d="M1920 0H0V1080H1920V0ZM1871 856.134V1008C1871 1019.93 1860.25 1029.6 1847 1029.6H72C58.7452 1029.6 48 1019.93 48 1008V856.134C48 847.753 53.3864 840.129 61.8189 836.574L170.801 790.626C179.234 787.071 184.62 779.447 184.62 771.066V308.934C184.62 300.553 179.234 292.929 170.801 289.374L61.8189 243.426C53.3864 239.871 48 232.247 48 223.866V72.0001C48 60.0847 58.7201 50.4225 71.9535 50.4H608.74C618.052 50.4 626.523 55.2477 630.474 62.837L681.526 160.921C685.477 168.511 693.948 173.358 703.26 173.358L1216.74 173.358C1226.05 173.358 1234.52 168.511 1238.47 160.921L1289.53 62.837C1293.48 55.2478 1301.95 50.4 1311.26 50.4H1860.5C1871 50.4 1871 62.2663 1871 72.0001V223.866C1871 232.247 1865.61 239.871 1857.18 243.426L1748.2 289.374C1739.77 292.929 1734.38 300.553 1734.38 308.934V771.066C1734.38 779.447 1739.77 787.071 1748.2 790.626L1857.18 836.574C1865.61 840.129 1871 847.753 1871 856.134Z" fill="black"/>
<path fill-rule="evenodd" clip-rule="evenodd" d="M0 1080H1920V0H0V1080ZM49 223.866V71.9999C49 60.0705 59.7451 50.3999 73 50.3999H1848C1861.25 50.3999 1872 60.0705 1872 71.9999V223.866C1872 232.247 1866.61 239.871 1858.18 243.426L1749.2 289.374C1740.77 292.929 1735.38 300.553 1735.38 308.934V771.066C1735.38 779.447 1740.77 787.071 1749.2 790.626L1858.18 836.574C1866.61 840.129 1872 847.753 1872 856.134V1008C1872 1019.92 1861.28 1029.58 1848.05 1029.6H1311.26C1301.95 1029.6 1293.48 1024.75 1289.53 1017.16L1238.47 919.079C1234.52 911.489 1226.05 906.642 1216.74 906.642H703.26C693.948 906.642 685.477 911.489 681.526 919.079L630.474 1017.16C626.523 1024.75 618.052 1029.6 608.74 1029.6H59.5C48.9999 1029.6 48.9999 1017.73 48.9999 1008V856.134C48.9999 847.753 54.3864 840.129 62.8188 836.574L171.801 790.626C180.234 787.071 185.62 779.447 185.62 771.066V308.934C185.62 300.553 180.234 292.929 171.801 289.374L62.819 243.426C54.3865 239.871 49 232.247 49 223.866Z" fill="black"/>
</g>
</svg>
