<svg width="1920" height="1200" viewBox="0 0 1920 1200" fill="none" xmlns="http://www.w3.org/2000/svg">
<path id="UI Frame" fill-rule="evenodd" clip-rule="evenodd" d="M0 1200L1920 1200L1920 0L0.000104907 -0.000167852L0 1200ZM49.0001 248.74L49.0001 79.9997C49.0001 66.7448 59.7452 55.9997 73.0001 55.9997L1848 55.9999C1861.25 55.9999 1872 66.745 1872 79.9999L1872 248.74C1872 258.052 1866.61 266.523 1858.18 270.473L1749.2 321.526C1740.77 325.477 1735.38 333.948 1735.38 343.26L1735.38 856.74C1735.38 866.052 1740.77 874.523 1749.2 878.473L1858.18 929.526C1866.61 933.477 1872 941.948 1872 951.26L1872 1120C1872 1133.24 1861.28 1143.97 1848.05 1144L1311.26 1144C1301.95 1144 1293.48 1138.61 1289.53 1130.18L1238.47 1021.2C1234.52 1012.77 1226.05 1007.38 1216.74 1007.38L703.26 1007.38C693.948 1007.38 685.477 1012.77 681.527 1021.2L630.474 1130.18C626.523 1138.61 618.052 1144 608.74 1144L59.5 1144C48.9999 1144 48.9999 1130.82 48.9999 1120L48.9999 951.26C48.9999 941.948 54.3864 933.476 62.8189 929.526L171.801 878.473C180.234 874.523 185.62 866.052 185.62 856.74L185.62 343.26C185.62 333.948 180.234 325.476 171.801 321.526L62.8191 270.473C54.3866 266.523 49.0001 258.052 49.0001 248.74Z" fill="black"/>
</svg>
