<svg width="569" height="57" viewBox="0 0 569 57" fill="none" xmlns="http://www.w3.org/2000/svg">
<g id="Group">
<g id="Message Section" filter="url(#filter0_b_577_21988)">
<rect width="569" height="57" rx="15.2076" fill="#C4C4C4" fill-opacity="0.1"/>
<rect x="0.475239" y="0.475239" width="568.049" height="56.0495" rx="14.7324" stroke="white" stroke-opacity="0.4" stroke-width="0.950478"/>
</g>
<g id="volume">
<g id="PLUS">
<path id="Rectangle 43" d="M79.3125 35.828L72.7357 35.828C72.5969 35.828 72.4845 35.7156 72.4845 35.5768L72.4845 22.4231C72.4845 22.2843 72.5969 22.1719 72.7357 22.1719L79.3126 22.1719C83.0836 22.1719 86.1406 25.2289 86.1406 28.9999C86.1406 32.771 83.0836 35.828 79.3125 35.828Z" stroke="white" stroke-width="0.593746"/>
<path id="Vector 26" d="M81.0937 29L79.0156 29M76.9375 29L79.0156 29M79.0156 29L79.0156 31.0781M79.0156 29L79.0156 26.9219" stroke="white" stroke-width="0.593746" stroke-linecap="round" stroke-linejoin="round"/>
</g>
<g id="MINUS">
<path id="Rectangle 44" d="M21.125 22.172L27.7018 22.172C27.8406 22.172 27.953 22.2844 27.953 22.4232L27.953 35.5769C27.953 35.7157 27.8406 35.8281 27.7018 35.8281L21.1249 35.8281C17.3539 35.8281 14.2969 32.7711 14.2969 29.0001C14.2969 25.229 17.3539 22.172 21.125 22.172Z" stroke="white" stroke-width="0.593746"/>
<path id="Vector 27" d="M19.3448 29.002L21.4229 29.002L23.501 29.002" stroke="white" stroke-width="0.593746" stroke-linecap="round" stroke-linejoin="round"/>
</g>
<g id="middle">
<rect id="Rectangle 1252" x="32.1103" y="20.9824" width="16.0311" height="2.37498" rx="1.18749" transform="rotate(90 32.1103 20.9824)" fill="black" stroke="white" stroke-width="1.78124"/>
<g id="Frame">
<rect id="Rectangle 1242" x="71.001" y="21.873" width="14.2499" height="0.593746" rx="0.296873" transform="rotate(90 71.001 21.873)" fill="white"/>
<rect id="Rectangle 1243" x="69.2197" y="21.873" width="14.2499" height="0.593746" rx="0.296873" transform="rotate(90 69.2197 21.873)" fill="white"/>
<rect id="Rectangle 1244" x="67.4385" y="21.873" width="14.2499" height="0.593746" rx="0.296873" transform="rotate(90 67.4385 21.873)" fill="white"/>
<rect id="Rectangle 1245" x="65.6572" y="21.873" width="14.2499" height="0.593746" rx="0.296873" transform="rotate(90 65.6572 21.873)" fill="white"/>
<rect id="Rectangle 1246" x="63.876" y="21.873" width="14.2499" height="0.593746" rx="0.296873" transform="rotate(90 63.876 21.873)" fill="white"/>
<rect id="Rectangle 1247" x="62.0947" y="21.873" width="14.2499" height="0.593746" rx="0.296873" transform="rotate(90 62.0947 21.873)" fill="white"/>
<rect id="Rectangle 1248" x="60.3135" y="21.873" width="14.2499" height="0.593746" rx="0.296873" transform="rotate(90 60.3135 21.873)" fill="white"/>
<rect id="Rectangle 1249" x="58.5322" y="21.873" width="14.2499" height="0.593746" rx="0.296873" transform="rotate(90 58.5322 21.873)" fill="white"/>
<rect id="Rectangle 1250" x="56.751" y="21.873" width="14.2499" height="0.593746" rx="0.296873" transform="rotate(90 56.751 21.873)" fill="white"/>
<rect id="Rectangle 1251" x="54.9697" y="21.873" width="14.2499" height="0.593746" rx="0.296873" transform="rotate(90 54.9697 21.873)" fill="white"/>
<rect id="Rectangle 1266" x="53.1885" y="21.873" width="14.2499" height="0.593746" rx="0.296873" transform="rotate(90 53.1885 21.873)" fill="white"/>
<rect id="Rectangle 1253" x="51.4072" y="21.873" width="14.2499" height="0.593746" rx="0.296873" transform="rotate(90 51.4072 21.873)" fill="white"/>
<rect id="Rectangle 1254" x="49.626" y="21.873" width="14.2499" height="0.593746" rx="0.296873" transform="rotate(90 49.626 21.873)" fill="white"/>
<rect id="Rectangle 1255" x="47.8447" y="21.873" width="14.2499" height="0.593746" rx="0.296873" transform="rotate(90 47.8447 21.873)" fill="white"/>
<rect id="Rectangle 1256" x="46.0635" y="21.873" width="14.2499" height="0.593746" rx="0.296873" transform="rotate(90 46.0635 21.873)" fill="white"/>
<rect id="Rectangle 1257" x="44.2822" y="21.873" width="14.2499" height="0.593746" rx="0.296873" transform="rotate(90 44.2822 21.873)" fill="white"/>
<rect id="Rectangle 1258" x="42.501" y="21.873" width="14.2499" height="0.593746" rx="0.296873" transform="rotate(90 42.501 21.873)" fill="white"/>
<rect id="Rectangle 1259" x="40.7197" y="21.873" width="14.2499" height="0.593746" rx="0.296873" transform="rotate(90 40.7197 21.873)" fill="white"/>
<rect id="Rectangle 1260" x="38.9385" y="21.873" width="14.2499" height="0.593746" rx="0.296873" transform="rotate(90 38.9385 21.873)" fill="white"/>
<rect id="Rectangle 1261" x="37.1572" y="21.873" width="14.2499" height="0.593746" rx="0.296873" transform="rotate(90 37.1572 21.873)" fill="white"/>
<rect id="Rectangle 1262" x="35.376" y="21.873" width="14.2499" height="0.593746" rx="0.296873" transform="rotate(90 35.376 21.873)" fill="white"/>
<rect id="Rectangle 1263" x="33.5947" y="21.873" width="14.2499" height="0.593746" rx="0.296873" transform="rotate(90 33.5947 21.873)" fill="white"/>
<rect id="Rectangle 1264" x="31.8135" y="21.873" width="14.2499" height="0.593746" rx="0.296873" transform="rotate(90 31.8135 21.873)" fill="white"/>
<rect id="Rectangle 1265" x="30.0322" y="21.873" width="14.2499" height="0.593746" rx="0.296873" transform="rotate(90 30.0322 21.873)" fill="white"/>
</g>
</g>
</g>
<g id="sound">
<rect id="bar96" x="111.137" y="26.1504" width="1.89999" height="5.69996" rx="0.949993" fill="#C4C4C4"/>
<rect id="bar95" x="114.938" y="26.1504" width="1.89999" height="5.69996" rx="0.949993" fill="#C4C4C4"/>
<rect id="bar94" x="118.738" y="26.1504" width="1.89999" height="5.69996" rx="0.949993" fill="#C4C4C4"/>
<rect id="bar93" x="122.537" y="26.1504" width="1.89999" height="5.69996" rx="0.949993" fill="#C4C4C4"/>
<rect id="bar92" x="126.338" y="26.1504" width="1.89999" height="5.69996" rx="0.949993" fill="#C4C4C4"/>
<rect id="bar91" x="130.137" y="26.1504" width="1.89999" height="5.69996" rx="0.949993" fill="#C4C4C4"/>
<rect id="bar90" x="133.938" y="26.1504" width="1.89999" height="5.69996" rx="0.949993" fill="#C4C4C4"/>
<rect id="bar89" x="137.736" y="26.1504" width="1.89999" height="5.69996" rx="0.949993" fill="#C4C4C4"/>
<rect id="bar88" x="141.537" y="26.1504" width="1.89999" height="5.69996" rx="0.949993" fill="#C4C4C4"/>
<rect id="bar87" x="145.338" y="26.1504" width="1.89999" height="5.69996" rx="0.949993" fill="#C4C4C4"/>
<rect id="bar86" x="149.137" y="26.1504" width="1.89999" height="5.69996" rx="0.949993" fill="#C4C4C4"/>
<rect id="bar85" x="152.938" y="26.1504" width="1.89999" height="5.69996" rx="0.949993" fill="#C4C4C4"/>
<rect id="bar84" x="156.736" y="26.1504" width="1.89999" height="5.69996" rx="0.949993" fill="#C4C4C4"/>
<rect id="bar83" x="160.537" y="26.1504" width="1.89999" height="5.69996" rx="0.949993" fill="#C4C4C4"/>
<rect id="bar82" x="164.338" y="26.1504" width="1.89999" height="5.69996" rx="0.949993" fill="#C4C4C4"/>
<rect id="bar81" x="168.137" y="26.1504" width="1.89999" height="5.69996" rx="0.949993" fill="#C4C4C4"/>
<rect id="bar80" x="171.938" y="24.7246" width="1.89999" height="8.54994" rx="0.949993" fill="#C4C4C4"/>
<rect id="bar79" x="175.736" y="22.3496" width="1.89999" height="13.2999" rx="0.949993" fill="#C4C4C4"/>
<rect id="bar78" x="179.537" y="22.8242" width="1.89999" height="12.3499" rx="0.949993" fill="#C4C4C4"/>
<rect id="bar77" x="183.336" y="23.7754" width="1.89999" height="10.4499" rx="0.949993" fill="#C4C4C4"/>
<rect id="bar76" x="187.137" y="25.1992" width="1.89999" height="7.59994" rx="0.949993" fill="#C4C4C4"/>
<rect id="bar75" x="190.938" y="22.3496" width="1.89999" height="13.2999" rx="0.949993" fill="#C4C4C4"/>
<rect id="bar74" x="194.736" y="19.5" width="1.89999" height="18.9999" rx="0.949993" fill="#C4C4C4"/>
<rect id="bar73" x="198.537" y="18.0742" width="1.89999" height="21.8498" rx="0.949993" fill="#C4C4C4"/>
<rect id="bar72" x="202.336" y="16.1758" width="1.89999" height="25.6498" rx="0.949993" fill="#C4C4C4"/>
<rect id="bar71" x="206.137" y="19.0254" width="1.89999" height="19.9499" rx="0.949993" fill="#C4C4C4"/>
<rect id="bar70" x="209.938" y="18.0742" width="1.89999" height="21.8498" rx="0.949993" fill="#C4C4C4"/>
<rect id="bar69" x="213.736" y="21.4004" width="1.89999" height="15.1999" rx="0.949993" fill="#C4C4C4"/>
<rect id="bar68" x="217.537" y="19.9746" width="1.89999" height="18.0499" rx="0.949993" fill="#C4C4C4"/>
<rect id="bar67" x="221.336" y="22.8242" width="1.89999" height="12.3499" rx="0.949993" fill="#C4C4C4"/>
<rect id="bar66" x="225.137" y="25.1992" width="1.89999" height="7.59994" rx="0.949993" fill="#C4C4C4"/>
<rect id="bar65" x="228.938" y="26.1504" width="1.89999" height="5.69996" rx="0.949993" fill="#C4C4C4"/>
<rect id="bar64" x="232.736" y="26.1504" width="1.89999" height="5.69996" rx="0.949993" fill="#C4C4C4"/>
<rect id="bar63" x="236.537" y="26.1504" width="1.89999" height="5.69996" rx="0.949993" fill="#C4C4C4"/>
<rect id="bar62" x="240.336" y="26.1504" width="1.89999" height="5.69996" rx="0.949993" fill="#C4C4C4"/>
<rect id="bar61" x="244.137" y="26.1504" width="1.89999" height="5.69996" rx="0.949993" fill="#C4C4C4"/>
<rect id="bar60" x="247.936" y="26.1504" width="1.89999" height="5.69996" rx="0.949993" fill="#C4C4C4"/>
<rect id="bar59" x="251.736" y="25.1992" width="1.89999" height="7.59994" rx="0.949993" fill="#C4C4C4"/>
<rect id="bar58" x="255.537" y="21.4004" width="1.89999" height="15.1999" rx="0.949993" fill="#C4C4C4"/>
<rect id="bar57" x="259.336" y="16.1758" width="1.89999" height="25.6498" rx="0.949993" fill="#C4C4C4"/>
<rect id="bar56" x="263.137" y="22.3496" width="1.89999" height="13.2999" rx="0.949993" fill="#C4C4C4"/>
<rect id="bar55" x="266.936" y="19.9746" width="1.89999" height="18.0499" rx="0.949993" fill="#C4C4C4"/>
<rect id="bar54" x="270.736" y="20.9258" width="1.89999" height="16.1499" rx="0.949993" fill="#C4C4C4"/>
<rect id="bar53" x="274.537" y="23.3008" width="1.89999" height="11.3999" rx="0.949993" fill="#C4C4C4"/>
<rect id="bar52" x="278.336" y="24.7246" width="1.89999" height="8.54994" rx="0.949993" fill="#C4C4C4"/>
<rect id="bar51" x="282.137" y="26.1504" width="1.89999" height="5.69996" rx="0.949993" fill="#C4C4C4"/>
<rect id="bar50" x="285.936" y="26.1504" width="1.89999" height="5.69996" rx="0.949993" fill="#C4C4C4"/>
<rect id="bar49" x="289.736" y="26.1504" width="1.89999" height="5.69996" rx="0.949993" fill="#C4C4C4"/>
<rect id="bar48" x="293.535" y="26.1504" width="1.89999" height="5.69996" rx="0.949993" fill="#C4C4C4"/>
<rect id="bar47" x="297.336" y="26.1504" width="1.89999" height="5.69996" rx="0.949993" fill="#C4C4C4"/>
<rect id="bar46" x="301.137" y="26.1504" width="1.89999" height="5.69996" rx="0.949993" fill="#C4C4C4"/>
<rect id="bar45" x="304.936" y="26.1504" width="1.89999" height="5.69996" rx="0.949993" fill="#C4C4C4"/>
<rect id="bar44" x="308.736" y="26.1504" width="1.89999" height="5.69996" rx="0.949993" fill="#C4C4C4"/>
<rect id="bar43" x="312.535" y="26.1504" width="1.89999" height="5.69996" rx="0.949993" fill="#C4C4C4"/>
<rect id="bar42" x="316.336" y="26.1504" width="1.89999" height="5.69996" rx="0.949993" fill="#C4C4C4"/>
<rect id="bar41" x="320.137" y="26.1504" width="1.89999" height="5.69996" rx="0.949993" fill="#C4C4C4"/>
<rect id="bar40" x="323.936" y="26.1504" width="1.89999" height="5.69996" rx="0.949993" fill="#C4C4C4"/>
<rect id="bar39" x="327.736" y="26.1504" width="1.89999" height="5.69996" rx="0.949993" fill="#C4C4C4"/>
<rect id="bar38" x="331.535" y="26.1504" width="1.89999" height="5.69996" rx="0.949993" fill="#C4C4C4"/>
<rect id="bar37" x="335.336" y="26.1504" width="1.89999" height="5.69996" rx="0.949993" fill="#C4C4C4"/>
<rect id="bar36" x="339.135" y="26.1504" width="1.89999" height="5.69996" rx="0.949993" fill="#C4C4C4"/>
<rect id="bar35" x="342.936" y="24.7246" width="1.89999" height="8.54994" rx="0.949993" fill="#C4C4C4"/>
<rect id="bar34" x="346.736" y="22.3496" width="1.89999" height="13.2999" rx="0.949993" fill="#C4C4C4"/>
<rect id="bar33" x="350.535" y="22.8242" width="1.89999" height="12.3499" rx="0.949993" fill="#C4C4C4"/>
<rect id="bar32" x="354.336" y="23.7754" width="1.89999" height="10.4499" rx="0.949993" fill="#C4C4C4"/>
<rect id="bar31" x="358.135" y="25.1992" width="1.89999" height="7.59994" rx="0.949993" fill="#C4C4C4"/>
<rect id="bar30" x="361.936" y="22.3496" width="1.89999" height="13.2999" rx="0.949993" fill="#C4C4C4"/>
<rect id="bar29" x="365.736" y="19.5" width="1.89999" height="18.9999" rx="0.949993" fill="#C4C4C4"/>
<rect id="bar28" x="369.535" y="18.0742" width="1.89999" height="21.8498" rx="0.949993" fill="#C4C4C4"/>
<rect id="bar27" x="373.336" y="16.1758" width="1.89999" height="25.6498" rx="0.949993" fill="#C4C4C4"/>
<rect id="bar26" x="377.135" y="19.0254" width="1.89999" height="19.9499" rx="0.949993" fill="#C4C4C4"/>
<rect id="bar25" x="380.936" y="18.0742" width="1.89999" height="21.8498" rx="0.949993" fill="#C4C4C4"/>
<rect id="bar24" x="384.734" y="21.4004" width="1.89999" height="15.1999" rx="0.949993" fill="#C4C4C4"/>
<rect id="bar23" x="388.535" y="19.9746" width="1.89999" height="18.0499" rx="0.949993" fill="#C4C4C4"/>
<rect id="bar22" x="392.336" y="22.8242" width="1.89999" height="12.3499" rx="0.949993" fill="#C4C4C4"/>
<rect id="bar21" x="396.135" y="25.1992" width="1.89999" height="7.59994" rx="0.949993" fill="#C4C4C4"/>
<rect id="bar20" x="399.936" y="26.1504" width="1.89999" height="5.69996" rx="0.949993" fill="#C4C4C4"/>
<rect id="bar19" x="403.734" y="26.1504" width="1.89999" height="5.69996" rx="0.949993" fill="#C4C4C4"/>
<rect id="bar18" x="407.535" y="26.1504" width="1.89999" height="5.69996" rx="0.949993" fill="#C4C4C4"/>
<rect id="bar17" x="411.336" y="26.1504" width="1.89999" height="5.69996" rx="0.949993" fill="#C4C4C4"/>
<rect id="bar16" x="415.135" y="26.1504" width="1.89999" height="5.69996" rx="0.949993" fill="#C4C4C4"/>
<rect id="bar15" x="418.936" y="26.1504" width="1.89999" height="5.69996" rx="0.949993" fill="#C4C4C4"/>
<rect id="bar14" x="422.734" y="25.1992" width="1.89999" height="7.59994" rx="0.949993" fill="#C4C4C4"/>
<rect id="bar13" x="426.535" y="21.4004" width="1.89999" height="15.1999" rx="0.949993" fill="#C4C4C4"/>
<rect id="bar12" x="430.334" y="16.1758" width="1.89999" height="25.6498" rx="0.949993" fill="#C4C4C4"/>
<rect id="bar11" x="434.135" y="22.3496" width="1.89999" height="13.2999" rx="0.949993" fill="#C4C4C4"/>
<rect id="bar10" x="437.936" y="19.9746" width="1.89999" height="18.0499" rx="0.949993" fill="#C4C4C4"/>
<rect id="bar09" x="441.734" y="20.9258" width="1.89999" height="16.1499" rx="0.949993" fill="#C4C4C4"/>
<rect id="bar08" x="445.535" y="23.3008" width="1.89999" height="11.3999" rx="0.949993" fill="#C4C4C4"/>
<rect id="bar07" x="449.334" y="24.7246" width="1.89999" height="8.54994" rx="0.949993" fill="#C4C4C4"/>
<rect id="bar06" x="453.135" y="26.1504" width="1.89999" height="5.69996" rx="0.949993" fill="#C4C4C4"/>
<rect id="bar05" x="456.934" y="26.1504" width="1.89999" height="5.69996" rx="0.949993" fill="#C4C4C4"/>
<rect id="bar04" x="460.734" y="26.1504" width="1.89999" height="5.69996" rx="0.949993" fill="#C4C4C4"/>
<rect id="bar03" x="464.535" y="26.1504" width="1.89999" height="5.69996" rx="0.949993" fill="#C4C4C4"/>
<rect id="bar02" x="468.334" y="26.1504" width="1.89999" height="5.69996" rx="0.949993" fill="#C4C4C4"/>
<rect id="bar01" x="472.135" y="26.1504" width="1.89999" height="5.69996" rx="0.949993" fill="#C4C4C4"/>
</g>
<path id="play" fill-rule="evenodd" clip-rule="evenodd" d="M505.264 15.3391C504.844 15.0273 504.398 14.8117 503.946 14.6828C501.449 13.9719 498.734 15.902 498.734 18.8819V39.1195C498.734 42.2496 501.73 44.2215 504.322 43.1907C504.644 43.0623 504.961 42.8874 505.264 42.6623L518.916 32.5435C521.249 30.8145 521.249 27.1869 518.916 25.4579L505.264 15.3391ZM500.19 39.8067C500.623 41.7178 502.827 42.6978 504.468 41.4814L504.792 41.2408C503.112 41.5303 501.415 40.9618 500.19 39.8067ZM518.079 31.3927L518.12 31.3626C519.675 30.2099 519.675 27.7915 518.12 26.6388L517.998 26.5487C518.694 28.0685 518.721 29.8524 518.079 31.3927ZM505.022 16.9306L504.468 16.52C502.783 15.2713 500.506 16.3373 500.159 18.3491C501.442 17.1213 503.253 16.5426 505.022 16.9306ZM500.114 20.8365C499.89 21.3671 499.763 21.9625 499.763 22.6064L499.763 35.5201C499.763 36.164 499.89 36.7595 500.114 37.29C501.103 39.6248 503.98 40.702 506.22 39.1157L515.339 32.6589C517.769 30.9383 517.769 27.1882 515.339 25.4677L506.22 19.0109C503.98 17.4245 501.103 18.5017 500.114 20.8365ZM507.014 30.4453C507.776 30.4453 508.394 29.7978 508.394 28.999C508.394 28.2001 507.776 27.5526 507.014 27.5526C506.252 27.5526 505.634 28.2001 505.634 28.999C505.634 29.7978 506.252 30.4453 507.014 30.4453ZM509.774 28.999C509.774 30.5966 508.538 31.8917 507.014 31.8917C505.49 31.8917 504.254 30.5966 504.254 28.999C504.254 27.4013 505.49 26.1062 507.014 26.1062C508.538 26.1062 509.774 27.4013 509.774 28.999Z" fill="#C4C4C4"/>
<path id="pause" d="M542.833 41.6652C535.837 41.6652 530.166 35.9944 530.166 28.9986C530.166 22.0029 535.837 16.332 542.833 16.332C549.828 16.332 555.499 22.0029 555.499 28.9986C555.499 35.9944 549.828 41.6652 542.833 41.6652ZM542.833 39.1319C545.52 39.1319 548.098 38.0643 549.998 36.1639C551.898 34.2635 552.966 31.6861 552.966 28.9986C552.966 26.3111 551.898 23.7337 549.998 21.8333C548.098 19.933 545.52 18.8653 542.833 18.8653C540.145 18.8653 537.568 19.933 535.667 21.8333C533.767 23.7337 532.699 26.3111 532.699 28.9986C532.699 31.6861 533.767 34.2635 535.667 36.1639C537.568 38.0643 540.145 39.1319 542.833 39.1319V39.1319ZM539.033 25.1986H541.566V32.7986H539.033V25.1986ZM544.099 25.1986H546.633V32.7986H544.099V25.1986Z" fill="#C4C4C4"/>
</g>
<defs>
<filter id="filter0_b_577_21988" x="-47.5239" y="-47.5239" width="664.048" height="152.048" filterUnits="userSpaceOnUse" color-interpolation-filters="sRGB">
<feFlood flood-opacity="0" result="BackgroundImageFix"/>
<feGaussianBlur in="BackgroundImage" stdDeviation="23.7619"/>
<feComposite in2="SourceAlpha" operator="in" result="effect1_backgroundBlur_577_21988"/>
<feBlend mode="normal" in="SourceGraphic" in2="effect1_backgroundBlur_577_21988" result="shape"/>
</filter>
</defs>
</svg>
