<svg width="176" height="176" viewBox="0 0 176 176" fill="none" xmlns="http://www.w3.org/2000/svg">
<path d="M125.968 172.928L126.122 173.404L125.968 172.928C125.96 172.931 125.957 172.932 125.956 172.932L125.956 172.932L125.955 172.933L125.951 172.934L125.934 172.939C125.434 173.087 119.671 174.757 114.339 174.757H13.8076C8.55832 174.757 3.38068 173.128 1.04041 169.13L0.608902 169.383L1.04039 169.13C0.770844 168.67 0.657715 168.116 0.657715 167.529V43.6535C0.657715 42.3794 0.628784 40.4922 0.595703 38.3339C0.512955 32.9353 0.404205 25.8406 0.657135 22.4008C0.665604 22.2855 0.764297 22.0533 1.11432 21.6966C1.44836 21.3562 1.94711 20.9667 2.60448 20.5348C3.9166 19.6726 5.79008 18.6867 8.05428 17.6267C12.5781 15.5089 18.5954 13.1259 24.6397 10.8799C36.7247 6.38914 48.8724 2.463 49.2886 2.32863L49.3 2.325L49.3008 2.32474L49.3009 2.32471L49.301 2.32466L49.3065 2.32307L49.3234 2.31812C49.3234 2.31812 49.3235 2.31805 49.3236 2.31805C49.8244 2.16972 55.5869 0.500168 60.9184 0.500168H161.449C164.16 0.500168 167.486 1.69623 170.159 3.14169C171.49 3.86115 172.634 4.62932 173.437 5.31677C173.84 5.66136 174.145 5.9749 174.345 6.24165C174.556 6.5248 174.599 6.68846 174.599 6.74579V131.603C174.599 132.878 174.628 134.765 174.661 136.923C174.744 142.322 174.853 149.416 174.6 152.856C174.591 152.971 174.493 153.204 174.143 153.56C173.809 153.901 173.31 154.29 172.653 154.722C171.34 155.584 169.467 156.57 167.203 157.63C162.679 159.748 156.662 162.131 150.617 164.377C138.532 168.868 126.385 172.794 125.968 172.928Z" fill="#848484" fill-opacity="0.6" stroke="white"/>
</svg>
