<svg width="65" height="66" viewBox="0 0 65 66" fill="none" xmlns="http://www.w3.org/2000/svg">
<path d="M62.4983 56.1489L64.7109 53.766L64.7109 61.766L61.4771 65L4.11906 65L0.715019 61.766L0.71502 53.766L2.75744 56.1489L2.75744 60.0638L4.45946 61.766L60.7963 61.766L62.4983 60.0638L62.4983 56.1489Z" fill="white"/>
<path d="M56.543 65L54.5005 63.2979L10.2481 63.2979L8.20563 65" stroke="#000C1A" stroke-width="0.340391"/>
<rect width="1.02117" height="1.02117" transform="matrix(4.37086e-08 -1 -1 -4.37142e-08 50.4141 65)" fill="#000C1A"/>
<rect width="1.02117" height="1.02117" transform="matrix(4.37086e-08 -1 -1 -4.37142e-08 22.8438 65)" fill="#000C1A"/>
<path d="M9.57706 62.7872L11.9599 65L3.9604 65L0.726563 61.766L0.726568 4.40426L3.9604 1L11.9599 1L9.57707 3.04256L5.66242 3.04256L3.9604 4.74468L3.9604 61.0851L5.66242 62.7872L9.57706 62.7872Z" fill="white"/>
<rect width="1.02117" height="1.02117" transform="matrix(1 8.74283e-08 8.74172e-08 -1 0.726562 50.7021)" fill="#000C1A"/>
<rect width="1.02117" height="1.02117" transform="matrix(1 8.74283e-08 8.74172e-08 -1 0.726562 23.1276)" fill="#000C1A"/>
<path d="M0.726562 56.8297L2.42858 54.7872L2.42859 10.5318L0.726567 8.48929" stroke="#000C1A" stroke-width="0.340391"/>
<path d="M62.4983 9.85131L64.7109 12.2343L64.7109 4.23429L61.4771 1.00024L4.11906 1.00024L0.715019 4.23428L0.715019 12.2343L2.75744 9.8513L2.75744 5.93641L4.45946 4.23428L60.7963 4.23429L62.4983 5.93641L62.4983 9.85131Z" fill="white"/>
<path d="M56.543 1.00024L54.5005 2.70237L10.2481 2.70237L8.20563 1.00024" stroke="#000C1A" stroke-width="0.340391"/>
<rect x="50.4141" y="1.00024" width="1.02117" height="1.02117" transform="rotate(90 50.4141 1.00024)" fill="#000C1A"/>
<rect x="22.8438" y="1.00024" width="1.02117" height="1.02117" transform="rotate(90 22.8438 1.00024)" fill="#000C1A"/>
<path d="M55.8643 62.7872L53.4815 65L61.481 65L64.7148 61.766L64.7148 4.40426L61.481 1L53.4815 1L55.8644 3.04256L59.779 3.04256L61.481 4.74468L61.481 61.0851L59.779 62.7872L55.8643 62.7872Z" fill="white"/>
<path d="M64.7148 56.8297L63.0128 54.7872L63.0128 10.5318L64.7148 8.48929" stroke="#000C1A" stroke-width="0.340391"/>
<rect x="64.7148" y="50.7021" width="1.02117" height="1.02117" transform="rotate(-180 64.7148 50.7021)" fill="#000C1A"/>
<rect x="64.7148" y="23.1276" width="1.02117" height="1.02117" transform="rotate(-180 64.7148 23.1276)" fill="#000C1A"/>
<g filter="url(#filter0_b_190_7000)">
<path d="M51.2461 11.8934L53.8281 14.5878L53.8281 19.0785L53.8281 49.3907L53.8281 51.8605L51.5268 54.1059L50.1235 54.1059L16.4455 54.1059L14.032 54.1059L11.6184 51.8605L11.6184 47.3698L11.6184 18.854L11.6184 14.251L14.0881 11.8934L16.5578 11.8934L48.4396 11.8934L51.2461 11.8934Z" fill="url(#paint0_linear_190_7000)" fill-opacity="0.1"/>
<path d="M51.3088 11.8334L51.2832 11.8067L51.2461 11.8067L48.4396 11.8067L16.5578 11.8067L14.0881 11.8067L14.0533 11.8067L14.0282 11.8307L11.5584 14.1883L11.5316 14.2139L11.5316 14.251L11.5316 18.854L11.5316 47.3698L11.5316 51.8605L11.5316 51.8983L11.5593 51.9241L13.9729 54.1694L13.9978 54.1927L14.032 54.1927L16.4455 54.1927L50.1235 54.1927L51.5268 54.1927L51.5621 54.1927L51.5874 54.168L53.8887 51.9226L53.9149 51.8971L53.9149 51.8605L53.9149 49.3907L53.9149 19.0785L53.9149 14.5878L53.9149 14.553L53.8908 14.5278L51.3088 11.8334Z" stroke="white" stroke-width="0.173553"/>
</g>
<line x1="58.1289" y1="9.57467" x2="55.9573" y2="9.57467" stroke="#DD432B" stroke-width="0.31023"/>
<line x1="57.0441" y1="10.6599" x2="57.0441" y2="8.4883" stroke="#DD432B" stroke-width="0.31023"/>
<line x1="9.11328" y1="9.57467" x2="6.94167" y2="9.57467" stroke="#DD432B" stroke-width="0.31023"/>
<line x1="8.02848" y1="10.6599" x2="8.02848" y2="8.4883" stroke="#DD432B" stroke-width="0.31023"/>
<line x1="58.1289" y1="56.424" x2="55.9573" y2="56.424" stroke="#DD432B" stroke-width="0.31023"/>
<line x1="57.0441" y1="57.5093" x2="57.0441" y2="55.3377" stroke="#DD432B" stroke-width="0.31023"/>
<line x1="9.11328" y1="56.424" x2="6.94167" y2="56.424" stroke="#DD432B" stroke-width="0.31023"/>
<line x1="8.02848" y1="57.5093" x2="8.02848" y2="55.3377" stroke="#DD432B" stroke-width="0.31023"/>
<g filter="url(#filter1_ii_190_7000)">
<path d="M40.6262 24.1064H37.6834C35.8521 24.1064 35.2121 25.0732 35.2121 27.0306V29.2128H40.5803L39.8518 34.3191H35.2121V47.8511C34.6521 47.9055 34.0854 47.9362 33.5101 47.9362C32.3442 47.9362 31.2056 47.817 30.1061 47.594V34.3191H25V29.2128H30.1061V26.4706C30.1061 21.2791 32.6353 19 36.9499 19C39.0161 19 40.1088 19.1532 40.6262 19.223V24.1064Z" fill="white"/>
</g>
<defs>
<filter id="filter0_b_190_7000" x="0.337896" y="0.612432" width="64.7695" height="64.7744" filterUnits="userSpaceOnUse" color-interpolation-filters="sRGB">
<feFlood flood-opacity="0" result="BackgroundImageFix"/>
<feGaussianBlur in="BackgroundImage" stdDeviation="5.55371"/>
<feComposite in2="SourceAlpha" operator="in" result="effect1_backgroundBlur_190_7000"/>
<feBlend mode="normal" in="SourceGraphic" in2="effect1_backgroundBlur_190_7000" result="shape"/>
</filter>
<filter id="filter1_ii_190_7000" x="24" y="18" width="17.625" height="30.9362" filterUnits="userSpaceOnUse" color-interpolation-filters="sRGB">
<feFlood flood-opacity="0" result="BackgroundImageFix"/>
<feBlend mode="normal" in="SourceGraphic" in2="BackgroundImageFix" result="shape"/>
<feColorMatrix in="SourceAlpha" type="matrix" values="0 0 0 0 0 0 0 0 0 0 0 0 0 0 0 0 0 0 127 0" result="hardAlpha"/>
<feOffset dx="1" dy="1"/>
<feGaussianBlur stdDeviation="0.5"/>
<feComposite in2="hardAlpha" operator="arithmetic" k2="-1" k3="1"/>
<feColorMatrix type="matrix" values="0 0 0 0 0.95 0 0 0 0 0.975 0 0 0 0 1 0 0 0 0.15 0"/>
<feBlend mode="normal" in2="shape" result="effect1_innerShadow_190_7000"/>
<feColorMatrix in="SourceAlpha" type="matrix" values="0 0 0 0 0 0 0 0 0 0 0 0 0 0 0 0 0 0 127 0" result="hardAlpha"/>
<feOffset dx="-1" dy="-1"/>
<feGaussianBlur stdDeviation="0.5"/>
<feComposite in2="hardAlpha" operator="arithmetic" k2="-1" k3="1"/>
<feColorMatrix type="matrix" values="0 0 0 0 0.045 0 0 0 0 0.0475 0 0 0 0 0.05 0 0 0 0.25 0"/>
<feBlend mode="normal" in2="effect1_innerShadow_190_7000" result="effect2_innerShadow_190_7000"/>
</filter>
<linearGradient id="paint0_linear_190_7000" x1="53.8281" y1="11.8934" x2="3.24762" y2="37.6982" gradientUnits="userSpaceOnUse">
<stop stop-color="white" stop-opacity="0.4"/>
<stop offset="1" stop-color="white" stop-opacity="0"/>
</linearGradient>
</defs>
</svg>
