<svg width="196" height="192" viewBox="0 0 196 192" fill="none" xmlns="http://www.w3.org/2000/svg">
<path d="M127.456 119.15L129.668 116.767L129.668 124.766L126.435 128L69.0838 128L65.6802 124.766L65.6802 116.767L67.7224 119.15L67.7224 123.064L69.4242 124.766L125.754 124.766L127.456 123.064L127.456 119.15Z" fill="white"/>
<path d="M121.496 128L119.454 126.298L75.2071 126.298L73.1649 128" stroke="#000C1A" stroke-width="0.340424"/>
<rect width="1.02127" height="1.02127" transform="matrix(4.37114e-08 -1 -1 -4.37114e-08 115.375 128)" fill="#000C1A"/>
<rect width="1.02127" height="1.02127" transform="matrix(4.37114e-08 -1 -1 -4.37114e-08 87.8047 128)" fill="#000C1A"/>
<path d="M74.5408 125.788L76.9233 128L68.9248 128L65.6914 124.766L65.6914 67.4053L68.9248 64.0011L76.9233 64.0011L74.5408 66.0437L70.6266 66.0437L68.9248 67.7458L68.9248 124.086L70.6266 125.788L74.5408 125.788Z" fill="white"/>
<path d="M65.6914 119.831L67.3935 117.788L67.3935 73.533L65.6914 71.4904" stroke="#000C1A" stroke-width="0.340424"/>
<rect width="1.02127" height="1.02127" transform="matrix(1 8.74307e-08 8.74149e-08 -1 65.6914 113.703)" fill="#000C1A"/>
<rect width="1.02127" height="1.02127" transform="matrix(1 8.74307e-08 8.74149e-08 -1 65.6914 86.1281)" fill="#000C1A"/>
<path d="M127.456 72.851L129.668 75.2339L129.668 67.234L126.435 64L69.0838 64L65.6802 67.234L65.6802 75.2339L67.7224 72.851L67.7224 68.9361L69.4242 67.234L125.754 67.234L127.456 68.9361L127.456 72.851Z" fill="white"/>
<path d="M121.496 64L119.454 65.7021L75.2071 65.7021L73.1649 64" stroke="#000C1A" stroke-width="0.340424"/>
<rect x="115.375" y="64" width="1.02127" height="1.02127" transform="rotate(90 115.375 64)" fill="#000C1A"/>
<rect x="87.8047" y="64" width="1.02127" height="1.02127" transform="rotate(90 87.8047 64)" fill="#000C1A"/>
<path d="M120.83 125.787L118.448 128L126.446 128L129.68 124.766L129.68 67.4049L126.446 64.0006L118.448 64.0006L120.83 66.0432L124.744 66.0432L126.446 67.7453L126.446 124.085L124.744 125.787L120.83 125.787Z" fill="white"/>
<path d="M129.68 119.83L127.978 117.788L127.978 73.5325L129.68 71.4899" stroke="#000C1A" stroke-width="0.340424"/>
<rect x="129.68" y="113.702" width="1.02127" height="1.02127" transform="rotate(-180 129.68 113.702)" fill="#000C1A"/>
<rect x="129.68" y="86.1276" width="1.02127" height="1.02127" transform="rotate(-180 129.68 86.1276)" fill="#000C1A"/>
<g filter="url(#filter0_b_190_6996)">
<path d="M115.864 74.8934L118.445 77.5878L118.445 82.0785L118.445 112.39L118.445 114.86L116.144 117.105L114.741 117.105L81.0675 117.105L78.6542 117.105L76.2409 114.86L76.2409 110.369L76.2409 81.8539L76.2409 77.251L78.7103 74.8934L81.1797 74.8934L113.058 74.8934L115.864 74.8934Z" fill="url(#paint0_linear_190_6996)" fill-opacity="0.1"/>
<path d="M115.926 74.8334L115.901 74.8066L115.864 74.8066L113.058 74.8066L81.1797 74.8066L78.7103 74.8066L78.6756 74.8066L78.6504 74.8307L76.181 77.1882L76.1541 77.2139L76.1541 77.251L76.1541 81.8539L76.1541 110.369L76.1541 114.86L76.1541 114.898L76.1818 114.924L78.5951 117.169L78.6201 117.192L78.6542 117.192L81.0675 117.192L114.741 117.192L116.144 117.192L116.18 117.192L116.205 117.168L118.506 114.922L118.532 114.897L118.532 114.86L118.532 112.39L118.532 82.0785L118.532 77.5878L118.532 77.553L118.508 77.5278L115.926 74.8334Z" stroke="white" stroke-width="0.17357"/>
</g>
<line x1="122.871" y1="72.5759" x2="120.699" y2="72.5759" stroke="#DD432B" stroke-width="0.310259"/>
<line x1="121.786" y1="73.6615" x2="121.786" y2="71.4897" stroke="#DD432B" stroke-width="0.310259"/>
<line x1="73.8555" y1="72.5759" x2="71.6837" y2="72.5759" stroke="#DD432B" stroke-width="0.310259"/>
<line x1="72.7707" y1="73.6615" x2="72.7707" y2="71.4897" stroke="#DD432B" stroke-width="0.310259"/>
<line x1="122.871" y1="119.425" x2="120.699" y2="119.425" stroke="#DD432B" stroke-width="0.310259"/>
<line x1="121.786" y1="120.51" x2="121.786" y2="118.338" stroke="#DD432B" stroke-width="0.310259"/>
<line x1="73.8555" y1="119.425" x2="71.6837" y2="119.425" stroke="#DD432B" stroke-width="0.310259"/>
<line x1="72.7707" y1="120.51" x2="72.7707" y2="118.338" stroke="#DD432B" stroke-width="0.310259"/>
<g filter="url(#filter1_dii_190_6996)">
<g filter="url(#filter2_d_190_6996)">
<path fill-rule="evenodd" clip-rule="evenodd" d="M85.5757 98.3682L85.7157 98.1821L92.2496 87.9933C92.343 87.8537 92.5763 87.8537 92.6697 88.0398C93.7431 90.5056 94.6765 93.5297 94.2565 95.4372C94.0698 96.2281 93.5564 97.2982 92.9497 98.2286C92.903 98.4147 92.8097 98.5543 92.7163 98.6474C92.6697 98.6939 92.623 98.7404 92.483 98.7404L85.7624 98.7404C85.5757 98.6939 85.4823 98.5078 85.5757 98.3682Z" fill="white"/>
</g>
<g filter="url(#filter3_d_190_6996)">
<path fill-rule="evenodd" clip-rule="evenodd" d="M113.157 99.9081L113.157 101.49C113.157 101.583 113.11 101.629 113.017 101.676C112.503 101.909 110.73 102.7 110.03 103.723C108.163 106.282 106.763 109.957 103.636 109.957L90.4748 109.957C85.8077 109.957 82.0273 106.189 82.0273 101.49L82.0273 101.35C82.0273 101.257 82.1674 101.164 82.2607 101.164L89.6814 101.164C89.8214 101.164 89.9147 101.304 89.9147 101.397C89.8681 101.862 89.9614 102.374 90.1481 102.793C90.6148 103.723 91.5482 104.188 92.4816 104.188L96.122 104.188L96.122 101.397L92.5283 101.397C92.3416 101.397 92.2483 101.211 92.3416 101.025C92.3883 100.978 92.435 100.932 92.4816 100.839C92.855 100.327 93.275 99.6289 93.7884 98.7915C94.1618 98.2332 94.4418 97.5819 94.7218 96.977C94.7685 96.884 94.8152 96.7909 94.8618 96.6048C94.9085 96.4188 95.0019 96.2327 95.0485 96.0466C95.0952 95.907 95.1419 95.7674 95.1885 95.6278C95.3285 95.1161 95.3752 94.5578 95.3752 93.953C95.3752 93.7669 95.3752 93.4877 95.3285 93.2551C95.3285 93.0225 95.2352 92.7433 95.2352 92.5107C95.2352 92.2781 95.1885 92.0455 95.1419 91.8594C95.0952 91.4872 95.0485 91.208 94.9552 90.8358L94.9085 90.7428C94.8618 90.5567 94.8152 90.2775 94.7218 90.0914C94.4885 89.3936 94.2551 88.6957 93.9751 88.0909C93.8818 87.8117 93.7884 87.5791 93.6951 87.3C93.5551 86.9743 93.3684 86.6021 93.2284 86.323C93.1817 86.1834 93.0883 86.0438 93.0417 85.9042C92.995 85.7647 92.9017 85.6251 92.855 85.4855C92.8083 85.346 92.715 85.2529 92.6683 85.1599L92.2483 84.3689C92.2016 84.2759 92.2949 84.0898 92.3883 84.1363L95.1419 84.9272L95.5152 85.0203L95.8886 85.1133L96.0753 85.1599L96.0753 83.485C96.0753 82.6941 96.7287 82.0427 97.4754 82.0427C97.8954 82.0427 98.2221 82.1823 98.5022 82.4614C98.7355 82.6941 98.8755 83.0663 98.8755 83.4385L98.8755 85.8577L99.2022 85.9508C99.2022 85.9508 99.2489 85.9508 99.2489 85.9973C99.2956 86.0438 99.3889 86.1834 99.5289 86.2764C99.6223 86.3695 99.7623 86.4625 99.9023 86.5556C100.136 86.7882 100.509 87.0674 100.836 87.393C100.976 87.4861 101.069 87.5326 101.116 87.6256C101.536 88.0444 102.049 88.5096 102.563 89.0679C102.703 89.254 102.796 89.3936 102.983 89.5331C103.123 89.6727 103.216 89.9053 103.356 90.0449C103.543 90.231 103.729 90.5102 103.869 90.6963C103.916 90.7893 104.009 90.8824 104.056 91.0219C104.289 91.3476 104.429 91.6267 104.616 91.9524C104.663 92.092 104.803 92.2316 104.849 92.4177C105.036 92.7899 105.176 93.2086 105.223 93.6738C105.269 93.7669 105.269 93.8599 105.269 93.9064C105.363 93.9995 105.363 94.1391 105.363 94.3252C105.409 94.7439 105.363 95.1626 105.269 95.6278C105.223 95.8139 105.176 95.9535 105.129 96.1861C105.083 96.3257 105.036 96.5118 104.943 96.7444C104.803 97.0701 104.569 97.4423 104.383 97.768C104.336 97.861 104.243 98.0471 104.149 98.1867C104.009 98.3263 103.916 98.4193 103.869 98.5589C103.776 98.745 103.636 98.8845 103.543 99.0241C103.403 99.1637 103.309 99.3498 103.169 99.4894C103.029 99.6755 102.796 99.9081 102.656 100.094C102.563 100.187 102.469 100.327 102.329 100.42C102.236 100.559 102.096 100.699 101.956 100.792C101.816 100.932 101.676 101.118 101.489 101.211L101.209 101.443C101.162 101.49 101.116 101.49 101.069 101.49L98.8289 101.49L98.8289 104.328L101.629 104.328C102.236 104.328 102.796 104.095 103.263 103.723C103.403 103.537 104.149 102.932 104.989 102.048C105.036 102.002 105.036 102.002 105.083 102.002L112.737 99.7685C113.063 99.6289 113.157 99.722 113.157 99.9081Z" fill="white"/>
</g>
</g>
<defs>
<filter id="filter0_b_190_6996" x="64.9579" y="63.6114" width="64.7677" height="64.7762" filterUnits="userSpaceOnUse" color-interpolation-filters="sRGB">
<feFlood flood-opacity="0" result="BackgroundImageFix"/>
<feGaussianBlur in="BackgroundImage" stdDeviation="5.55424"/>
<feComposite in2="SourceAlpha" operator="in" result="effect1_backgroundBlur_190_6996"/>
<feBlend mode="normal" in="SourceGraphic" in2="effect1_backgroundBlur_190_6996" result="shape"/>
</filter>
<filter id="filter1_dii_190_6996" x="66.0273" y="66.0427" width="63.1289" height="59.9147" filterUnits="userSpaceOnUse" color-interpolation-filters="sRGB">
<feFlood flood-opacity="0" result="BackgroundImageFix"/>
<feColorMatrix in="SourceAlpha" type="matrix" values="0 0 0 0 0 0 0 0 0 0 0 0 0 0 0 0 0 0 127 0" result="hardAlpha"/>
<feOffset/>
<feGaussianBlur stdDeviation="8"/>
<feColorMatrix type="matrix" values="0 0 0 0 0.4 0 0 0 0 0.8 0 0 0 0 1 0 0 0 0.4 0"/>
<feBlend mode="normal" in2="BackgroundImageFix" result="effect1_dropShadow_190_6996"/>
<feBlend mode="normal" in="SourceGraphic" in2="effect1_dropShadow_190_6996" result="shape"/>
<feColorMatrix in="SourceAlpha" type="matrix" values="0 0 0 0 0 0 0 0 0 0 0 0 0 0 0 0 0 0 127 0" result="hardAlpha"/>
<feOffset dx="2" dy="2"/>
<feGaussianBlur stdDeviation="2"/>
<feComposite in2="hardAlpha" operator="arithmetic" k2="-1" k3="1"/>
<feColorMatrix type="matrix" values="0 0 0 0 1 0 0 0 0 1 0 0 0 0 1 0 0 0 0.25 0"/>
<feBlend mode="overlay" in2="shape" result="effect2_innerShadow_190_6996"/>
<feColorMatrix in="SourceAlpha" type="matrix" values="0 0 0 0 0 0 0 0 0 0 0 0 0 0 0 0 0 0 127 0" result="hardAlpha"/>
<feOffset dx="-2" dy="-2"/>
<feGaussianBlur stdDeviation="2"/>
<feComposite in2="hardAlpha" operator="arithmetic" k2="-1" k3="1"/>
<feColorMatrix type="matrix" values="0 0 0 0 0 0 0 0 0 0 0 0 0 0 0 0 0 0 0.25 0"/>
<feBlend mode="multiply" in2="effect2_innerShadow_190_6996" result="effect3_innerShadow_190_6996"/>
</filter>
<filter id="filter2_d_190_6996" x="3.65249" y="6.00723" width="172.593" height="174.62" filterUnits="userSpaceOnUse" color-interpolation-filters="sRGB">
<feFlood flood-opacity="0" result="BackgroundImageFix"/>
<feColorMatrix in="SourceAlpha" type="matrix" values="0 0 0 0 0 0 0 0 0 0 0 0 0 0 0 0 0 0 127 0" result="hardAlpha"/>
<feMorphology radius="16.3773" operator="dilate" in="SourceAlpha" result="effect1_dropShadow_190_6996"/>
<feOffset/>
<feGaussianBlur stdDeviation="32.7546"/>
<feColorMatrix type="matrix" values="0 0 0 0 0.0470588 0 0 0 0 0.772549 0 0 0 0 1 0 0 0 1 0"/>
<feBlend mode="normal" in2="BackgroundImageFix" result="effect1_dropShadow_190_6996"/>
<feBlend mode="normal" in="SourceGraphic" in2="effect1_dropShadow_190_6996" result="shape"/>
</filter>
<filter id="filter3_d_190_6996" x="0.140776" y="0.156157" width="194.902" height="191.688" filterUnits="userSpaceOnUse" color-interpolation-filters="sRGB">
<feFlood flood-opacity="0" result="BackgroundImageFix"/>
<feColorMatrix in="SourceAlpha" type="matrix" values="0 0 0 0 0 0 0 0 0 0 0 0 0 0 0 0 0 0 127 0" result="hardAlpha"/>
<feMorphology radius="16.3773" operator="dilate" in="SourceAlpha" result="effect1_dropShadow_190_6996"/>
<feOffset/>
<feGaussianBlur stdDeviation="32.7546"/>
<feColorMatrix type="matrix" values="0 0 0 0 0.0470588 0 0 0 0 0.772549 0 0 0 0 1 0 0 0 1 0"/>
<feBlend mode="normal" in2="BackgroundImageFix" result="effect1_dropShadow_190_6996"/>
<feBlend mode="normal" in="SourceGraphic" in2="effect1_dropShadow_190_6996" result="shape"/>
</filter>
<linearGradient id="paint0_linear_190_6996" x1="118.445" y1="74.8934" x2="67.8688" y2="100.693" gradientUnits="userSpaceOnUse">
<stop stop-color="white" stop-opacity="0.4"/>
<stop offset="1" stop-color="white" stop-opacity="0"/>
</linearGradient>
</defs>
</svg>
