<svg width="67" height="66" viewBox="0 0 67 66" fill="none" xmlns="http://www.w3.org/2000/svg">
<g style="mix-blend-mode:darken">
<path d="M56.8264 1.34051L60.9362 1.34051L64.6557 5.22196L64.6557 11.8937L64.6557 57.8507L64.6557 61.4519L61.3684 64.6592L59.3794 64.6592L8.31885 64.6592L4.79336 64.6592L1.34056 61.4471L1.34056 54.7869L1.34056 11.5532L1.34056 4.72021L4.881 1.34051L8.48906 1.34051L56.8264 1.34051Z" stroke="white" stroke-width="0.680782"/>
</g>
<path d="M62.7835 56.1493L64.9961 53.7663L64.9961 61.7662L61.7623 65.0002L4.40421 65.0002L1.00018 61.7662L1.00018 53.7663L3.0426 56.1492L3.0426 60.0641L4.74462 61.7662L61.0814 61.7662L62.7835 60.0641L62.7835 56.1493Z" fill="white"/>
<path d="M56.8281 65.0002L54.7857 63.2981L10.5332 63.2981L8.49079 65.0002" stroke="#000C1A" stroke-width="0.340391"/>
<rect width="1.02117" height="1.02117" transform="matrix(4.3709e-08 -1 -1 -4.37138e-08 50.6992 65.0002)" fill="#000C1A"/>
<rect width="1.02117" height="1.02117" transform="matrix(4.3709e-08 -1 -1 -4.37138e-08 23.1289 65.0002)" fill="#000C1A"/>
<path d="M9.86612 62.787L12.249 64.9998L4.24946 64.9998L1.01563 61.7657L1.01563 4.4045L4.24947 1.00027L12.249 1.00027L9.86613 3.04281L5.95149 3.04281L4.24947 4.74492L4.24946 61.0849L5.95148 62.787L9.86612 62.787Z" fill="white"/>
<rect width="1.02117" height="1.02117" transform="matrix(1 8.74277e-08 8.74179e-08 -1 1.01562 50.702)" fill="#000C1A"/>
<rect width="1.02117" height="1.02117" transform="matrix(1 8.74277e-08 8.74179e-08 -1 1.01562 23.1277)" fill="#000C1A"/>
<path d="M1.01562 56.8296L2.71764 54.7871L2.71765 10.5321L1.01563 8.48956" stroke="#000C1A" stroke-width="0.340391"/>
<path d="M62.7835 9.85099L64.9961 12.234L64.9961 4.23402L61.7623 1L4.40421 0.999997L1.00018 4.23401L1.00017 12.2339L3.0426 9.85099L3.0426 5.93613L4.74462 4.23401L61.0814 4.23402L62.7835 5.93613L62.7835 9.85099Z" fill="white"/>
<path d="M56.8281 1L54.7857 2.70211L10.5332 2.70211L8.49079 0.999998" stroke="#000C1A" stroke-width="0.340391"/>
<rect x="50.6992" y="1" width="1.02117" height="1.02117" transform="rotate(90 50.6992 1)" fill="#000C1A"/>
<rect x="23.1289" y="1" width="1.02117" height="1.02117" transform="rotate(90 23.1289 1)" fill="#000C1A"/>
<path d="M56.1495 62.787L53.7667 64.9998L61.7662 64.9998L65 61.7657L65 4.4045L61.7662 1.00027L53.7667 1.00027L56.1495 3.0428L60.0642 3.0428L61.7662 4.74492L61.7662 61.0849L60.0641 62.787L56.1495 62.787Z" fill="white"/>
<path d="M65 56.8296L63.298 54.7871L63.298 10.5321L65 8.48956" stroke="#000C1A" stroke-width="0.340391"/>
<rect x="65" y="50.702" width="1.02117" height="1.02117" transform="rotate(-180 65 50.702)" fill="#000C1A"/>
<rect x="65" y="23.1277" width="1.02117" height="1.02117" transform="rotate(-180 65 23.1277)" fill="#000C1A"/>
<g filter="url(#filter0_b_190_6997)">
<path d="M51.7735 11.8943L54.3555 14.5887L54.3555 19.0793L54.3555 49.3912L54.3555 51.8611L52.0541 54.1064L50.6509 54.1064L16.9729 54.1064L14.5593 54.1064L12.1457 51.8611L12.1457 47.3704L12.1457 18.8548L12.1457 14.2519L14.6154 11.8943L17.0852 11.8943L48.967 11.8943L51.7735 11.8943Z" fill="url(#paint0_linear_190_6997)" fill-opacity="0.1"/>
<path d="M51.8361 11.8342L51.8105 11.8075L51.7735 11.8075L48.967 11.8075L17.0852 11.8075L14.6154 11.8075L14.5807 11.8075L14.5555 11.8315L12.0858 14.1891L12.0589 14.2147L12.0589 14.2519L12.0589 18.8548L12.0589 47.3704L12.0589 51.8611L12.0589 51.8989L12.0866 51.9246L14.5002 54.1699L14.5252 54.1932L14.5593 54.1932L16.9729 54.1932L50.6509 54.1932L52.0541 54.1932L52.0895 54.1932L52.1147 54.1685L54.4161 51.9232L54.4422 51.8976L54.4422 51.8611L54.4422 49.3912L54.4422 19.0793L54.4422 14.5887L54.4422 14.5538L54.4181 14.5286L51.8361 11.8342Z" stroke="white" stroke-width="0.173553"/>
</g>
<line x1="58.6641" y1="9.5765" x2="56.4925" y2="9.5765" stroke="#DD432B" stroke-width="0.31023"/>
<line x1="57.5793" y1="10.6617" x2="57.5793" y2="8.49014" stroke="#DD432B" stroke-width="0.31023"/>
<line x1="9.64453" y1="9.5765" x2="7.47292" y2="9.5765" stroke="#DD432B" stroke-width="0.31023"/>
<line x1="8.55973" y1="10.6617" x2="8.55973" y2="8.49014" stroke="#DD432B" stroke-width="0.31023"/>
<line x1="58.6641" y1="56.4251" x2="56.4925" y2="56.4251" stroke="#DD432B" stroke-width="0.31023"/>
<line x1="57.5793" y1="57.5104" x2="57.5793" y2="55.3388" stroke="#DD432B" stroke-width="0.31023"/>
<line x1="9.64453" y1="56.4251" x2="7.47292" y2="56.4251" stroke="#DD432B" stroke-width="0.31023"/>
<line x1="8.55973" y1="57.5104" x2="8.55973" y2="55.3388" stroke="#DD432B" stroke-width="0.31023"/>
<g filter="url(#filter1_dii_190_6997)">
<path d="M47.1415 26.7877C47.1547 27.0821 47.1614 27.3743 47.1614 27.6664C47.1614 36.67 40.3117 47.0457 27.7831 47.0457C23.9345 47.0457 20.3558 45.9192 17.3438 43.9848C17.8771 44.049 18.4193 44.0777 18.9704 44.0777C22.164 44.0777 25.0986 42.991 27.4268 41.1607C24.4457 41.1053 21.9294 39.1355 21.064 36.4309C21.4801 36.5106 21.9072 36.5527 22.3454 36.5527C22.9673 36.5527 23.5715 36.4685 24.1403 36.3136C21.0242 35.6895 18.6761 32.9362 18.6761 29.6362C18.6761 29.6074 18.6761 29.5787 18.6761 29.5499C19.5945 30.0612 20.6435 30.3666 21.7612 30.402C19.9353 29.1825 18.7314 27.0954 18.7314 24.7338C18.7314 23.4833 19.0656 22.3125 19.6521 21.3099C23.0116 25.431 28.031 28.1445 33.69 28.4278C33.5749 27.9298 33.5152 27.4097 33.5152 26.8763C33.5152 23.1159 36.5649 20.0638 40.325 20.0638C42.2836 20.0638 44.0541 20.8916 45.2957 22.2151C46.8471 21.9075 48.3056 21.3431 49.6224 20.5618C49.1134 22.1532 48.0334 23.4855 46.6258 24.331C48.0024 24.1672 49.3148 23.802 50.5386 23.2598C49.629 24.6276 48.476 25.825 47.1415 26.7877Z" fill="white"/>
</g>
<defs>
<filter id="filter0_b_190_6997" x="0.86524" y="0.613287" width="64.7695" height="64.774" filterUnits="userSpaceOnUse" color-interpolation-filters="sRGB">
<feFlood flood-opacity="0" result="BackgroundImageFix"/>
<feGaussianBlur in="BackgroundImage" stdDeviation="5.55371"/>
<feComposite in2="SourceAlpha" operator="in" result="effect1_backgroundBlur_190_6997"/>
<feBlend mode="normal" in="SourceGraphic" in2="effect1_backgroundBlur_190_6997" result="shape"/>
</filter>
<filter id="filter1_dii_190_6997" x="1.34375" y="4.06384" width="65.1953" height="58.9819" filterUnits="userSpaceOnUse" color-interpolation-filters="sRGB">
<feFlood flood-opacity="0" result="BackgroundImageFix"/>
<feColorMatrix in="SourceAlpha" type="matrix" values="0 0 0 0 0 0 0 0 0 0 0 0 0 0 0 0 0 0 127 0" result="hardAlpha"/>
<feOffset/>
<feGaussianBlur stdDeviation="8"/>
<feColorMatrix type="matrix" values="0 0 0 0 0.4 0 0 0 0 0.8 0 0 0 0 1 0 0 0 0.4 0"/>
<feBlend mode="normal" in2="BackgroundImageFix" result="effect1_dropShadow_190_6997"/>
<feBlend mode="normal" in="SourceGraphic" in2="effect1_dropShadow_190_6997" result="shape"/>
<feColorMatrix in="SourceAlpha" type="matrix" values="0 0 0 0 0 0 0 0 0 0 0 0 0 0 0 0 0 0 127 0" result="hardAlpha"/>
<feOffset dx="2" dy="2"/>
<feGaussianBlur stdDeviation="2"/>
<feComposite in2="hardAlpha" operator="arithmetic" k2="-1" k3="1"/>
<feColorMatrix type="matrix" values="0 0 0 0 1 0 0 0 0 1 0 0 0 0 1 0 0 0 0.25 0"/>
<feBlend mode="overlay" in2="shape" result="effect2_innerShadow_190_6997"/>
<feColorMatrix in="SourceAlpha" type="matrix" values="0 0 0 0 0 0 0 0 0 0 0 0 0 0 0 0 0 0 127 0" result="hardAlpha"/>
<feOffset dx="-2" dy="-2"/>
<feGaussianBlur stdDeviation="2"/>
<feComposite in2="hardAlpha" operator="arithmetic" k2="-1" k3="1"/>
<feColorMatrix type="matrix" values="0 0 0 0 0 0 0 0 0 0 0 0 0 0 0 0 0 0 0.25 0"/>
<feBlend mode="multiply" in2="effect2_innerShadow_190_6997" result="effect3_innerShadow_190_6997"/>
</filter>
<linearGradient id="paint0_linear_190_6997" x1="54.3555" y1="11.8943" x2="3.77513" y2="37.6991" gradientUnits="userSpaceOnUse">
<stop stop-color="white" stop-opacity="0.4"/>
<stop offset="1" stop-color="white" stop-opacity="0"/>
</linearGradient>
</defs>
</svg>
