<svg width="17" height="272" viewBox="0 0 17 272" fill="none" xmlns="http://www.w3.org/2000/svg">
<g id="Lateral">
<g id="works[ ]">
<path d="M2.99981 15.6077L12.8704 20.1645V18.3558L5.29922 14.8926L12.8704 11.4716V10.0835L5.29922 6.62038L12.8705 3.18529V1.39062L2.99981 5.93336L2.99981 7.29338L10.571 10.7846L2.99981 14.2056L2.99981 15.6077Z" fill="white"/>
<path d="M2.99981 30.1703C2.99981 32.4136 3.96725 33.2689 5.38335 33.2689H10.4869C11.903 33.2689 12.8704 32.4136 12.8704 30.1703L12.8704 23.6506C12.8704 21.4073 11.903 20.552 10.4869 20.552H5.38335C3.96725 20.552 2.99981 21.4073 2.99981 23.6506L2.99981 30.1703ZM5.36933 31.4041C4.78045 31.4041 4.45798 31.0115 4.45798 30.1703L4.45798 23.6506C4.45798 22.8093 4.78045 22.4168 5.36933 22.4168L10.5009 22.4168C11.0898 22.4168 11.4123 22.8093 11.4123 23.6506L11.4123 30.1703C11.4123 31.0115 11.0898 31.4041 10.5009 31.4041H5.36933Z" fill="white"/>
<path d="M2.99981 46.3971L7.43038 44.0697C7.59863 45.8223 8.50998 46.5093 9.78587 46.5093H10.4869C11.903 46.5093 12.8704 45.654 12.8704 43.4107V35.0263H2.99981L2.99981 36.891H7.40234V42.0928L2.99981 44.4062L2.99981 46.3971ZM9.77185 44.6445C9.18298 44.6445 8.8605 44.252 8.8605 43.4107L8.8605 36.891H11.4123V43.4107C11.4123 44.252 11.0898 44.6445 10.5009 44.6445H9.77185Z" fill="white"/>
<path d="M2.99981 58.9567L8.27163 54.5822L12.8704 58.9707V56.7554L8.8605 53.0399V49.8712H12.8704V48.0065H2.99981V49.8712H7.40234V53.082L2.99981 56.8115L2.99981 58.9567Z" fill="white"/>
<path d="M2.99981 68.0916C2.99981 70.3349 3.96725 71.1902 5.38335 71.1902H6.60315C8.01925 71.1902 8.98669 70.3349 8.98669 68.0916L8.98669 62.287C8.98669 61.4457 9.30917 61.0531 9.89804 61.0531H10.5009C11.0898 61.0531 11.4123 61.4457 11.4123 62.287V70.6433H12.8704V62.287C12.8704 60.0436 11.903 59.1884 10.4869 59.1884H9.91206C8.49596 59.1884 7.52853 60.0436 7.52853 62.287L7.52853 68.0916C7.52853 68.9328 7.20605 69.3254 6.61718 69.3254H5.36933C4.78045 69.3254 4.45797 68.9328 4.45797 68.0916L4.45797 59.5108H2.99981L2.99981 68.0916Z" fill="white"/>
<path d="M1.45752 75.2446H2.46702L2.46702 74.207H13.3752V75.2446H14.4127L14.4127 72.9031H1.45752L1.45752 75.2446Z" fill="white"/>
<path d="M1.45752 197.498H14.4127V195.157H13.3752V196.194H2.46702V195.157H1.45752L1.45752 197.498Z" fill="white"/>
</g>
<g id="cities">
<g id="berlin">
<path d="M4 213.183C4 215.623 5.0095 216.31 6.13116 216.31H7.5753C8.52872 216.31 8.9914 215.763 9.18769 215.02C9.3279 215.721 9.97286 216.183 10.8281 216.183H11.7395C13.0574 216.183 13.8706 215.342 13.8706 213.155V205.121L4 205.121L4 213.183ZM6.48168 214.445C5.6825 214.445 5.45816 213.926 5.45816 213.183L5.45816 206.986L8.38851 206.986L8.38851 213.183C8.38851 213.926 8.16418 214.445 7.54726 214.445H6.48168ZM10.6178 214.319C10.071 214.319 9.84667 214.024 9.84667 213.155L9.84667 206.986L12.4125 206.986V213.155C12.4125 214.024 12.1881 214.319 11.6413 214.319H10.6178Z" fill="white"/>
<path d="M4 228.211H5.45816L5.45816 219.925H8.48665V227.791H9.94482L9.94482 219.925H12.4125V228.211H13.8706V218.06H4L4 228.211Z" fill="white"/>
<path d="M4 241.165L8.43057 238.838C8.59882 240.59 9.51017 241.277 10.7861 241.277H11.4871C12.9032 241.277 13.8706 240.422 13.8706 238.179L13.8706 229.794H4L4 231.659H8.40253L8.40253 236.861L4 239.174L4 241.165ZM10.772 239.413C10.1832 239.413 9.86069 239.02 9.86069 238.179L9.86069 231.659H12.4125L12.4125 238.179C12.4125 239.02 12.09 239.413 11.5011 239.413H10.772Z" fill="white"/>
<path d="M4 252.659H5.45816L5.45816 244.653H13.8706V242.775H4L4 252.659Z" fill="white"/>
<path d="M4 255.896H13.8706V254.031H4L4 255.896Z" fill="white"/>
<path d="M4 270.862H13.8706V269.236H6.53776L13.8706 259.407L13.8706 257.795H4L4 259.421H11.6834L4 269.951L4 270.862Z" fill="white"/>
</g>
</g>
<g id="era">
<g id="MMXXMMXXII">
<mask id="path-3-outside-1_559_19116" maskUnits="userSpaceOnUse" x="3" y="83.9883" width="9" height="103" fill="black">
<rect fill="white" x="3" y="83.9883" width="9" height="103"/>
<path d="M4 96.3715H11.4756V95.161L5.36981 90.7436L11.4756 86.305V84.9883L4 84.9883L4 86.2944L9.2244 86.2944L4 90.1065L4 91.2639L9.23502 95.0654H4L4 96.3715ZM4 109.137H11.4756V107.926L5.36981 103.509L11.4756 99.0702V97.7535H4L4 99.0596H9.2244L4 102.872L4 104.029L9.23501 107.831H4L4 109.137ZM4 120.277L7.79087 116.019L11.4756 120.256V118.44L8.48109 115.117L11.4756 111.793V109.956L7.73778 114.225L4 109.956L4 111.804L6.98385 115.117L4 118.451L4 120.277ZM4 130.855L7.79087 126.596L11.4756 130.833V129.017L8.48109 125.694L11.4756 122.37V120.533L7.73778 124.802L4 120.533L4 122.381L6.98385 125.694L4 129.028L4 130.855ZM7.4086 134.078H8.58727L8.58727 130.107H7.4086L7.4086 134.078ZM4 146.385L11.4756 146.385V145.175L5.36981 140.757L11.4756 136.319V135.002H4L4 136.308H9.22439L4 140.12L4 141.278L9.23501 145.079H4L4 146.385ZM4 159.15H11.4756L11.4756 157.94L5.36981 153.522L11.4756 149.084L11.4756 147.767H4L4 149.073H9.22439L4 152.885L4 154.043L9.23501 157.844H4L4 159.15ZM4 170.291L7.79087 166.033L11.4756 170.27L11.4756 168.454L8.48109 165.13L11.4756 161.807V159.97L7.73778 164.238L4 159.97L4 161.817L6.98385 165.13L4 168.464L4 170.291ZM4 180.868L7.79087 176.61L11.4756 180.847L11.4756 179.031L8.48109 175.707L11.4756 172.384V170.547L7.73778 174.815L4 170.547L4 172.394L6.98385 175.707L4 179.042L4 180.868ZM4 183.152H11.4756V181.74H4L4 183.152ZM4 186.056H11.4756V184.643H4L4 186.056Z"/>
</mask>
<path d="M4 96.3715H11.4756V95.161L5.36981 90.7436L11.4756 86.305V84.9883L4 84.9883L4 86.2944L9.2244 86.2944L4 90.1065L4 91.2639L9.23502 95.0654H4L4 96.3715ZM4 109.137H11.4756V107.926L5.36981 103.509L11.4756 99.0702V97.7535H4L4 99.0596H9.2244L4 102.872L4 104.029L9.23501 107.831H4L4 109.137ZM4 120.277L7.79087 116.019L11.4756 120.256V118.44L8.48109 115.117L11.4756 111.793V109.956L7.73778 114.225L4 109.956L4 111.804L6.98385 115.117L4 118.451L4 120.277ZM4 130.855L7.79087 126.596L11.4756 130.833V129.017L8.48109 125.694L11.4756 122.37V120.533L7.73778 124.802L4 120.533L4 122.381L6.98385 125.694L4 129.028L4 130.855ZM7.4086 134.078H8.58727L8.58727 130.107H7.4086L7.4086 134.078ZM4 146.385L11.4756 146.385V145.175L5.36981 140.757L11.4756 136.319V135.002H4L4 136.308H9.22439L4 140.12L4 141.278L9.23501 145.079H4L4 146.385ZM4 159.15H11.4756L11.4756 157.94L5.36981 153.522L11.4756 149.084L11.4756 147.767H4L4 149.073H9.22439L4 152.885L4 154.043L9.23501 157.844H4L4 159.15ZM4 170.291L7.79087 166.033L11.4756 170.27L11.4756 168.454L8.48109 165.13L11.4756 161.807V159.97L7.73778 164.238L4 159.97L4 161.817L6.98385 165.13L4 168.464L4 170.291ZM4 180.868L7.79087 176.61L11.4756 180.847L11.4756 179.031L8.48109 175.707L11.4756 172.384V170.547L7.73778 174.815L4 170.547L4 172.394L6.98385 175.707L4 179.042L4 180.868ZM4 183.152H11.4756V181.74H4L4 183.152ZM4 186.056H11.4756V184.643H4L4 186.056Z" stroke="white" stroke-width="0.757353" mask="url(#path-3-outside-1_559_19116)"/>
</g>
</g>
</g>
</svg>
