<svg width="636" height="217" viewBox="0 0 636 217" fill="none" xmlns="http://www.w3.org/2000/svg">
<g id="LOGO">
<g id="DAVID KNIGHT">
<path d="M48.1251 6.9043H7.65771V60.8608H48.1251C54.8311 60.8608 61.6142 54.1548 61.6142 47.3717V20.3934C61.6142 13.6874 54.8311 6.9043 48.1251 6.9043ZM48.1251 44.0572C48.1251 50.7633 41.342 57.5464 34.636 57.5464H21.1468V10.2959H34.636C41.342 10.2959 48.1251 17.079 48.1251 23.785V44.0572Z" fill="white"/>
<path d="M79.7132 6.9043C72.9301 6.9043 66.224 13.6874 66.224 20.3934V60.8608H79.7132V37.2741H106.691V60.8608C113.397 60.8608 120.181 54.1548 120.181 47.3717V6.9043H79.7132ZM79.7132 33.8826V23.785C79.7132 17.079 86.4192 10.2959 93.2023 10.2959H106.691V33.8826H79.7132Z" fill="white"/>
<path d="M170.885 6.98138L159.631 32.2639L151.692 49.9924L143.829 32.2639L132.576 6.98138C126.409 9.67921 122.94 18.6206 125.715 24.787L132.576 40.1261L138.357 53.1528C140.515 57.9318 146.296 61.015 151.692 60.9379C157.087 61.015 162.945 57.9318 165.104 53.1528L170.885 40.1261L177.745 24.787C180.443 18.6206 177.051 9.67921 170.885 6.98138Z" fill="white"/>
<path d="M183.357 6.9043V60.8608C190.063 60.8608 196.846 54.1548 196.846 47.3717V6.9043H183.357Z" fill="white"/>
<path d="M241.968 6.9043H201.501V60.8608H241.968C248.674 60.8608 255.457 54.1548 255.457 47.3717V20.3934C255.457 13.6874 248.674 6.9043 241.968 6.9043ZM241.968 44.0572C241.968 50.7633 235.185 57.5464 228.479 57.5464H214.99V10.2959H228.479C235.185 10.2959 241.968 17.079 241.968 23.785V44.0572Z" fill="white"/>
<path d="M118.669 95.3307V68.5288C105.191 68.5288 91.8671 82.0063 91.8671 95.3307C91.8671 107.124 80.0742 118.916 68.2814 118.916H38.2633V68.5288H11.4614V175.736C24.7857 175.736 38.2633 162.412 38.2633 148.935V125.502H68.2814C80.0742 125.502 91.8671 137.295 91.8671 148.935C91.8671 162.412 105.191 175.736 118.669 175.736V148.935C118.669 135.61 105.191 122.133 91.8671 122.133C105.191 122.133 118.669 108.808 118.669 95.3307Z" fill="white"/>
<path d="M208.234 95.3307V169.151H197.36L170.558 68.5288H141.153C134.414 68.5288 127.828 75.2676 127.828 82.0063V175.736C141.153 175.736 154.63 162.412 154.63 148.935V75.2676H165.351L192.153 175.736H221.558C228.297 175.736 235.036 169.151 235.036 162.412V68.5288C221.558 68.5288 208.234 82.0063 208.234 95.3307Z" fill="white"/>
<path d="M244.195 68.5288V175.736C257.52 175.736 270.997 162.412 270.997 148.935V68.5288H244.195Z" fill="white"/>
<path d="M357.282 118.916H333.85V125.502H357.282C372.138 125.502 380.715 134.079 380.715 148.935H307.048C296.94 148.935 286.832 138.98 286.832 128.871V95.3307H387.454C387.454 82.0063 373.976 68.5288 360.652 68.5288H307.048C293.571 68.5288 280.246 82.0063 280.246 95.3307V148.935C280.246 162.412 293.571 175.736 307.048 175.736H360.652C373.976 175.736 387.454 162.412 387.454 148.935C387.454 130.403 375.814 118.916 357.282 118.916Z" fill="white"/>
<path d="M477.019 68.5288V122.133H423.415V68.5288C409.937 68.5288 396.613 82.0063 396.613 95.3307V175.736H423.415V128.871H477.019V175.736C490.343 175.736 503.821 162.412 503.821 148.935V68.5288H477.019Z" fill="white"/>
<path d="M569.8 142.349V95.3307H620.188C620.188 82.0063 606.71 68.5288 593.386 68.5288H539.782C526.304 68.5288 512.98 82.0063 512.98 95.3307H563.214V142.349C563.214 155.673 549.737 169.151 536.413 169.151H533.043V175.736H599.971V169.151H596.602C583.278 169.151 569.8 155.673 569.8 142.349Z" fill="white"/>
</g>
<g id="Creative developer + UI Designer + animator">
<mask id="path-2-outside-1_559_19120" maskUnits="userSpaceOnUse" x="3.89941" y="190.791" width="626" height="15" fill="black">
<rect fill="white" x="3.89941" y="190.791" width="626" height="15"/>
<path d="M19.287 204.645V202.746H8.93451C7.83901 202.746 7.32778 202.326 7.32778 201.559V194.877C7.32778 194.11 7.83901 193.69 8.93451 193.69H19.287V191.791H8.93451C6.01318 191.791 4.89941 193.051 4.89941 194.895V201.541C4.89941 203.385 6.01318 204.645 8.93451 204.645H19.287Z"/>
<path d="M36.1309 204.645L33.1 198.875C35.3823 198.656 36.277 197.469 36.277 195.808V194.895C36.277 193.051 35.1632 191.791 32.2419 191.791H21.3234V204.645H23.7518V198.912H30.5256L33.5382 204.645H36.1309ZM33.8486 195.826C33.8486 196.593 33.3374 197.013 32.2419 197.013H23.7518V193.69H32.2419C33.3374 193.69 33.8486 194.11 33.8486 194.877V195.826Z"/>
<path d="M51.4457 204.645V202.746H40.655V198.802H50.898V196.903H40.655V193.69H51.4457V191.791H38.2267V204.645H51.4457Z"/>
<path d="M71.1267 204.645L62.6365 191.791H60.8655L52.3205 204.645H55.0228L61.7601 194.292L68.3879 204.645H71.1267Z"/>
<path d="M77.5613 204.645V193.69H84.1161V191.791H68.3956V193.69H75.133V204.645H77.5613Z"/>
<path d="M88.2644 204.645V191.791H85.8361V204.645H88.2644Z"/>
<path d="M99.8665 204.645L108.357 191.791H105.673L99.0266 202.144L92.3075 191.791H89.5505L98.0954 204.645H99.8665Z"/>
<path d="M122.767 204.645V202.746H111.977V198.802H122.22V196.903H111.977V193.69H122.767V191.791H109.548V204.645H122.767Z"/>
<path d="M145.735 204.645C149.368 204.645 150.482 203.385 150.482 200.975V195.589C150.482 193.051 149.368 191.791 145.735 191.791H133.958V204.645H145.735ZM148.054 200.957C148.054 202.326 147.543 202.746 145.735 202.746H136.387V193.69H145.735C147.543 193.69 148.054 194.11 148.054 195.589V200.957Z"/>
<path d="M165.988 204.645V202.746H155.198V198.802H165.441V196.903H155.198V193.69H165.988V191.791H152.769V204.645H165.988Z"/>
<path d="M177.179 204.645L185.669 191.791H182.985L176.339 202.144L169.62 191.791H166.863L175.408 204.645H177.179Z"/>
<path d="M200.08 204.645V202.746H189.29V198.802H199.533V196.903H189.29V193.69H200.08V191.791H186.861V204.645H200.08Z"/>
<path d="M215.014 204.645V202.746H204.589V191.791H202.142V204.645H215.014Z"/>
<path d="M228.805 204.645C231.726 204.645 232.84 203.385 232.84 201.541V194.895C232.84 193.051 231.726 191.791 228.805 191.791H220.314C217.393 191.791 216.279 193.051 216.279 194.895V201.541C216.279 203.385 217.393 204.645 220.314 204.645H228.805ZM230.411 201.559C230.411 202.326 229.9 202.746 228.805 202.746H220.314C219.219 202.746 218.708 202.326 218.708 201.559V194.877C218.708 194.11 219.219 193.69 220.314 193.69H228.805C229.9 193.69 230.411 194.11 230.411 194.877V201.559Z"/>
<path d="M245.663 199.898C248.585 199.898 249.698 198.638 249.698 196.794V194.895C249.698 193.051 248.585 191.791 245.663 191.791H235.128V204.645H237.557V199.898H245.663ZM247.27 196.812C247.27 197.579 246.759 197.999 245.663 197.999H237.557V193.69H245.663C246.759 193.69 247.27 194.11 247.27 194.877V196.812Z"/>
<path d="M264.609 204.645V202.746H253.818V198.802H264.061V196.903H253.818V193.69H264.609V191.791H251.39V204.645H264.609Z"/>
<path d="M281.478 204.645L278.447 198.875C280.729 198.656 281.624 197.469 281.624 195.808V194.895C281.624 193.051 280.51 191.791 277.589 191.791H266.67V204.645H269.099V198.912H275.873L278.885 204.645H281.478ZM279.196 195.826C279.196 196.593 278.684 197.013 277.589 197.013H269.099V193.69H277.589C278.684 193.69 279.196 194.11 279.196 194.877V195.826Z"/>
<path d="M297.14 202.235V198.693H300.682V197.342H297.14V193.799H295.788V197.342H292.246V198.693H295.788V202.235H297.14Z"/>
<path d="M324.216 204.645C327.137 204.645 327.74 203.385 327.74 201.541V191.791H325.312V201.559C325.312 202.326 324.8 202.746 323.705 202.746H315.726C314.63 202.746 314.119 202.326 314.119 201.559V191.791H311.691V201.541C311.691 203.385 312.805 204.645 315.726 204.645H324.216Z"/>
<path d="M332.577 204.645V191.791H330.149V204.645H332.577Z"/>
<path d="M355.956 204.645C359.589 204.645 360.703 203.385 360.703 200.975V195.589C360.703 193.051 359.589 191.791 355.956 191.791H344.179V204.645H355.956ZM358.275 200.957C358.275 202.326 357.763 202.746 355.956 202.746H346.608V193.69H355.956C357.763 193.69 358.275 194.11 358.275 195.589V200.957Z"/>
<path d="M376.209 204.645V202.746H365.419V198.802H375.662V196.903H365.419V193.69H376.209V191.791H362.99V204.645H376.209Z"/>
<path d="M389.609 204.645C392.531 204.645 393.645 203.385 393.645 201.541V199.953C393.645 198.108 392.531 196.849 389.609 196.849H382.051C380.955 196.849 380.444 196.429 380.444 195.662V194.877C380.444 194.11 380.955 193.69 382.051 193.69H392.932V191.791H382.051C379.129 191.791 378.015 193.051 378.015 194.895V195.644C378.015 197.488 379.129 198.747 382.051 198.747H389.609C390.705 198.747 391.216 199.167 391.216 199.934V201.559C391.216 202.326 390.705 202.746 389.609 202.746H378.435V204.645H389.609Z"/>
<path d="M398.158 204.645V191.791H395.729V204.645H398.158Z"/>
<path d="M410.8 204.645C413.849 204.645 415.383 203.732 415.383 201.906V197.634H412.955V201.906C412.955 202.472 412.243 202.746 410.8 202.746H405.122C403.68 202.746 402.967 202.454 402.967 201.87V194.566C402.967 193.982 403.68 193.69 405.122 193.69H415.182V191.791H405.122C402.073 191.791 400.539 192.722 400.539 194.566V201.87C400.539 203.714 402.073 204.645 405.122 204.645H410.8Z"/>
<path d="M434.64 204.645V191.791H432.522V201.34L419.723 191.791H417.623V204.645H419.741V194.639L433.453 204.645H434.64Z"/>
<path d="M450.224 204.645V202.746H439.433V198.802H449.676V196.903H439.433V193.69H450.224V191.791H437.004V204.645H450.224Z"/>
<path d="M467.093 204.645L464.062 198.875C466.344 198.656 467.239 197.469 467.239 195.808V194.895C467.239 193.051 466.125 191.791 463.204 191.791H452.285V204.645H454.714V198.912H461.487L464.5 204.645H467.093ZM464.81 195.826C464.81 196.593 464.299 197.013 463.204 197.013H454.714V193.69H463.204C464.299 193.69 464.81 194.11 464.81 194.877V195.826Z"/>
<path d="M482.754 202.235V198.693H486.297V197.342H482.754V193.799H481.403V197.342H477.861V198.693H481.403V202.235H482.754Z"/>
<path d="M514.98 204.645L506.49 191.791H504.719L496.174 204.645H498.876L505.613 194.292L512.241 204.645H514.98Z"/>
<path d="M533.188 204.645V191.791H531.07V201.34L518.271 191.791H516.172V204.645H518.29V194.639L532.002 204.645H533.188Z"/>
<path d="M538.073 204.645V191.791H535.645V204.645H538.073Z"/>
<path d="M560.119 204.645V191.791H558.037L550.442 202.29L542.81 191.791H540.546V204.645H542.792V195.662L549.346 204.645H551.337L557.873 195.644V204.645H560.119Z"/>
<path d="M580.115 204.645L571.624 191.791H569.853L561.308 204.645H564.011L570.748 194.292L577.376 204.645H580.115Z"/>
<path d="M586.549 204.645V193.69H593.104V191.791H577.383V193.69H584.121V204.645H586.549Z"/>
<path d="M606.649 204.645C609.571 204.645 610.685 203.385 610.685 201.541V194.895C610.685 193.051 609.571 191.791 606.649 191.791H598.159C595.238 191.791 594.124 193.051 594.124 194.895V201.541C594.124 203.385 595.238 204.645 598.159 204.645H606.649ZM608.256 201.559C608.256 202.326 607.745 202.746 606.649 202.746H598.159C597.064 202.746 596.553 202.326 596.553 201.559V194.877C596.553 194.11 597.064 193.69 598.159 193.69H606.649C607.745 193.69 608.256 194.11 608.256 194.877V201.559Z"/>
<path d="M627.781 204.645L624.75 198.875C627.032 198.656 627.927 197.469 627.927 195.808V194.895C627.927 193.051 626.813 191.791 623.892 191.791H612.973V204.645H615.402V198.912H622.175L625.188 204.645H627.781ZM625.498 195.826C625.498 196.593 624.987 197.013 623.892 197.013H615.402V193.69H623.892C624.987 193.69 625.498 194.11 625.498 194.877V195.826Z"/>
</mask>
<path d="M19.287 204.645V202.746H8.93451C7.83901 202.746 7.32778 202.326 7.32778 201.559V194.877C7.32778 194.11 7.83901 193.69 8.93451 193.69H19.287V191.791H8.93451C6.01318 191.791 4.89941 193.051 4.89941 194.895V201.541C4.89941 203.385 6.01318 204.645 8.93451 204.645H19.287Z" fill="white"/>
<path d="M36.1309 204.645L33.1 198.875C35.3823 198.656 36.277 197.469 36.277 195.808V194.895C36.277 193.051 35.1632 191.791 32.2419 191.791H21.3234V204.645H23.7518V198.912H30.5256L33.5382 204.645H36.1309ZM33.8486 195.826C33.8486 196.593 33.3374 197.013 32.2419 197.013H23.7518V193.69H32.2419C33.3374 193.69 33.8486 194.11 33.8486 194.877V195.826Z" fill="white"/>
<path d="M51.4457 204.645V202.746H40.655V198.802H50.898V196.903H40.655V193.69H51.4457V191.791H38.2267V204.645H51.4457Z" fill="white"/>
<path d="M71.1267 204.645L62.6365 191.791H60.8655L52.3205 204.645H55.0228L61.7601 194.292L68.3879 204.645H71.1267Z" fill="white"/>
<path d="M77.5613 204.645V193.69H84.1161V191.791H68.3956V193.69H75.133V204.645H77.5613Z" fill="white"/>
<path d="M88.2644 204.645V191.791H85.8361V204.645H88.2644Z" fill="white"/>
<path d="M99.8665 204.645L108.357 191.791H105.673L99.0266 202.144L92.3075 191.791H89.5505L98.0954 204.645H99.8665Z" fill="white"/>
<path d="M122.767 204.645V202.746H111.977V198.802H122.22V196.903H111.977V193.69H122.767V191.791H109.548V204.645H122.767Z" fill="white"/>
<path d="M145.735 204.645C149.368 204.645 150.482 203.385 150.482 200.975V195.589C150.482 193.051 149.368 191.791 145.735 191.791H133.958V204.645H145.735ZM148.054 200.957C148.054 202.326 147.543 202.746 145.735 202.746H136.387V193.69H145.735C147.543 193.69 148.054 194.11 148.054 195.589V200.957Z" fill="white"/>
<path d="M165.988 204.645V202.746H155.198V198.802H165.441V196.903H155.198V193.69H165.988V191.791H152.769V204.645H165.988Z" fill="white"/>
<path d="M177.179 204.645L185.669 191.791H182.985L176.339 202.144L169.62 191.791H166.863L175.408 204.645H177.179Z" fill="white"/>
<path d="M200.08 204.645V202.746H189.29V198.802H199.533V196.903H189.29V193.69H200.08V191.791H186.861V204.645H200.08Z" fill="white"/>
<path d="M215.014 204.645V202.746H204.589V191.791H202.142V204.645H215.014Z" fill="white"/>
<path d="M228.805 204.645C231.726 204.645 232.84 203.385 232.84 201.541V194.895C232.84 193.051 231.726 191.791 228.805 191.791H220.314C217.393 191.791 216.279 193.051 216.279 194.895V201.541C216.279 203.385 217.393 204.645 220.314 204.645H228.805ZM230.411 201.559C230.411 202.326 229.9 202.746 228.805 202.746H220.314C219.219 202.746 218.708 202.326 218.708 201.559V194.877C218.708 194.11 219.219 193.69 220.314 193.69H228.805C229.9 193.69 230.411 194.11 230.411 194.877V201.559Z" fill="white"/>
<path d="M245.663 199.898C248.585 199.898 249.698 198.638 249.698 196.794V194.895C249.698 193.051 248.585 191.791 245.663 191.791H235.128V204.645H237.557V199.898H245.663ZM247.27 196.812C247.27 197.579 246.759 197.999 245.663 197.999H237.557V193.69H245.663C246.759 193.69 247.27 194.11 247.27 194.877V196.812Z" fill="white"/>
<path d="M264.609 204.645V202.746H253.818V198.802H264.061V196.903H253.818V193.69H264.609V191.791H251.39V204.645H264.609Z" fill="white"/>
<path d="M281.478 204.645L278.447 198.875C280.729 198.656 281.624 197.469 281.624 195.808V194.895C281.624 193.051 280.51 191.791 277.589 191.791H266.67V204.645H269.099V198.912H275.873L278.885 204.645H281.478ZM279.196 195.826C279.196 196.593 278.684 197.013 277.589 197.013H269.099V193.69H277.589C278.684 193.69 279.196 194.11 279.196 194.877V195.826Z" fill="white"/>
<path d="M297.14 202.235V198.693H300.682V197.342H297.14V193.799H295.788V197.342H292.246V198.693H295.788V202.235H297.14Z" fill="white"/>
<path d="M324.216 204.645C327.137 204.645 327.74 203.385 327.74 201.541V191.791H325.312V201.559C325.312 202.326 324.8 202.746 323.705 202.746H315.726C314.63 202.746 314.119 202.326 314.119 201.559V191.791H311.691V201.541C311.691 203.385 312.805 204.645 315.726 204.645H324.216Z" fill="white"/>
<path d="M332.577 204.645V191.791H330.149V204.645H332.577Z" fill="white"/>
<path d="M355.956 204.645C359.589 204.645 360.703 203.385 360.703 200.975V195.589C360.703 193.051 359.589 191.791 355.956 191.791H344.179V204.645H355.956ZM358.275 200.957C358.275 202.326 357.763 202.746 355.956 202.746H346.608V193.69H355.956C357.763 193.69 358.275 194.11 358.275 195.589V200.957Z" fill="white"/>
<path d="M376.209 204.645V202.746H365.419V198.802H375.662V196.903H365.419V193.69H376.209V191.791H362.99V204.645H376.209Z" fill="white"/>
<path d="M389.609 204.645C392.531 204.645 393.645 203.385 393.645 201.541V199.953C393.645 198.108 392.531 196.849 389.609 196.849H382.051C380.955 196.849 380.444 196.429 380.444 195.662V194.877C380.444 194.11 380.955 193.69 382.051 193.69H392.932V191.791H382.051C379.129 191.791 378.015 193.051 378.015 194.895V195.644C378.015 197.488 379.129 198.747 382.051 198.747H389.609C390.705 198.747 391.216 199.167 391.216 199.934V201.559C391.216 202.326 390.705 202.746 389.609 202.746H378.435V204.645H389.609Z" fill="white"/>
<path d="M398.158 204.645V191.791H395.729V204.645H398.158Z" fill="white"/>
<path d="M410.8 204.645C413.849 204.645 415.383 203.732 415.383 201.906V197.634H412.955V201.906C412.955 202.472 412.243 202.746 410.8 202.746H405.122C403.68 202.746 402.967 202.454 402.967 201.87V194.566C402.967 193.982 403.68 193.69 405.122 193.69H415.182V191.791H405.122C402.073 191.791 400.539 192.722 400.539 194.566V201.87C400.539 203.714 402.073 204.645 405.122 204.645H410.8Z" fill="white"/>
<path d="M434.64 204.645V191.791H432.522V201.34L419.723 191.791H417.623V204.645H419.741V194.639L433.453 204.645H434.64Z" fill="white"/>
<path d="M450.224 204.645V202.746H439.433V198.802H449.676V196.903H439.433V193.69H450.224V191.791H437.004V204.645H450.224Z" fill="white"/>
<path d="M467.093 204.645L464.062 198.875C466.344 198.656 467.239 197.469 467.239 195.808V194.895C467.239 193.051 466.125 191.791 463.204 191.791H452.285V204.645H454.714V198.912H461.487L464.5 204.645H467.093ZM464.81 195.826C464.81 196.593 464.299 197.013 463.204 197.013H454.714V193.69H463.204C464.299 193.69 464.81 194.11 464.81 194.877V195.826Z" fill="white"/>
<path d="M482.754 202.235V198.693H486.297V197.342H482.754V193.799H481.403V197.342H477.861V198.693H481.403V202.235H482.754Z" fill="white"/>
<path d="M514.98 204.645L506.49 191.791H504.719L496.174 204.645H498.876L505.613 194.292L512.241 204.645H514.98Z" fill="white"/>
<path d="M533.188 204.645V191.791H531.07V201.34L518.271 191.791H516.172V204.645H518.29V194.639L532.002 204.645H533.188Z" fill="white"/>
<path d="M538.073 204.645V191.791H535.645V204.645H538.073Z" fill="white"/>
<path d="M560.119 204.645V191.791H558.037L550.442 202.29L542.81 191.791H540.546V204.645H542.792V195.662L549.346 204.645H551.337L557.873 195.644V204.645H560.119Z" fill="white"/>
<path d="M580.115 204.645L571.624 191.791H569.853L561.308 204.645H564.011L570.748 194.292L577.376 204.645H580.115Z" fill="white"/>
<path d="M586.549 204.645V193.69H593.104V191.791H577.383V193.69H584.121V204.645H586.549Z" fill="white"/>
<path d="M606.649 204.645C609.571 204.645 610.685 203.385 610.685 201.541V194.895C610.685 193.051 609.571 191.791 606.649 191.791H598.159C595.238 191.791 594.124 193.051 594.124 194.895V201.541C594.124 203.385 595.238 204.645 598.159 204.645H606.649ZM608.256 201.559C608.256 202.326 607.745 202.746 606.649 202.746H598.159C597.064 202.746 596.553 202.326 596.553 201.559V194.877C596.553 194.11 597.064 193.69 598.159 193.69H606.649C607.745 193.69 608.256 194.11 608.256 194.877V201.559Z" fill="white"/>
<path d="M627.781 204.645L624.75 198.875C627.032 198.656 627.927 197.469 627.927 195.808V194.895C627.927 193.051 626.813 191.791 623.892 191.791H612.973V204.645H615.402V198.912H622.175L625.188 204.645H627.781ZM625.498 195.826C625.498 196.593 624.987 197.013 623.892 197.013H615.402V193.69H623.892C624.987 193.69 625.498 194.11 625.498 194.877V195.826Z" fill="white"/>
<path d="M19.287 204.645V202.746H8.93451C7.83901 202.746 7.32778 202.326 7.32778 201.559V194.877C7.32778 194.11 7.83901 193.69 8.93451 193.69H19.287V191.791H8.93451C6.01318 191.791 4.89941 193.051 4.89941 194.895V201.541C4.89941 203.385 6.01318 204.645 8.93451 204.645H19.287Z" stroke="black" stroke-width="2" mask="url(#path-2-outside-1_559_19120)"/>
<path d="M36.1309 204.645L33.1 198.875C35.3823 198.656 36.277 197.469 36.277 195.808V194.895C36.277 193.051 35.1632 191.791 32.2419 191.791H21.3234V204.645H23.7518V198.912H30.5256L33.5382 204.645H36.1309ZM33.8486 195.826C33.8486 196.593 33.3374 197.013 32.2419 197.013H23.7518V193.69H32.2419C33.3374 193.69 33.8486 194.11 33.8486 194.877V195.826Z" stroke="black" stroke-width="2" mask="url(#path-2-outside-1_559_19120)"/>
<path d="M51.4457 204.645V202.746H40.655V198.802H50.898V196.903H40.655V193.69H51.4457V191.791H38.2267V204.645H51.4457Z" stroke="black" stroke-width="2" mask="url(#path-2-outside-1_559_19120)"/>
<path d="M71.1267 204.645L62.6365 191.791H60.8655L52.3205 204.645H55.0228L61.7601 194.292L68.3879 204.645H71.1267Z" stroke="black" stroke-width="2" mask="url(#path-2-outside-1_559_19120)"/>
<path d="M77.5613 204.645V193.69H84.1161V191.791H68.3956V193.69H75.133V204.645H77.5613Z" stroke="black" stroke-width="2" mask="url(#path-2-outside-1_559_19120)"/>
<path d="M88.2644 204.645V191.791H85.8361V204.645H88.2644Z" stroke="black" stroke-width="2" mask="url(#path-2-outside-1_559_19120)"/>
<path d="M99.8665 204.645L108.357 191.791H105.673L99.0266 202.144L92.3075 191.791H89.5505L98.0954 204.645H99.8665Z" stroke="black" stroke-width="2" mask="url(#path-2-outside-1_559_19120)"/>
<path d="M122.767 204.645V202.746H111.977V198.802H122.22V196.903H111.977V193.69H122.767V191.791H109.548V204.645H122.767Z" stroke="black" stroke-width="2" mask="url(#path-2-outside-1_559_19120)"/>
<path d="M145.735 204.645C149.368 204.645 150.482 203.385 150.482 200.975V195.589C150.482 193.051 149.368 191.791 145.735 191.791H133.958V204.645H145.735ZM148.054 200.957C148.054 202.326 147.543 202.746 145.735 202.746H136.387V193.69H145.735C147.543 193.69 148.054 194.11 148.054 195.589V200.957Z" stroke="black" stroke-width="2" mask="url(#path-2-outside-1_559_19120)"/>
<path d="M165.988 204.645V202.746H155.198V198.802H165.441V196.903H155.198V193.69H165.988V191.791H152.769V204.645H165.988Z" stroke="black" stroke-width="2" mask="url(#path-2-outside-1_559_19120)"/>
<path d="M177.179 204.645L185.669 191.791H182.985L176.339 202.144L169.62 191.791H166.863L175.408 204.645H177.179Z" stroke="black" stroke-width="2" mask="url(#path-2-outside-1_559_19120)"/>
<path d="M200.08 204.645V202.746H189.29V198.802H199.533V196.903H189.29V193.69H200.08V191.791H186.861V204.645H200.08Z" stroke="black" stroke-width="2" mask="url(#path-2-outside-1_559_19120)"/>
<path d="M215.014 204.645V202.746H204.589V191.791H202.142V204.645H215.014Z" stroke="black" stroke-width="2" mask="url(#path-2-outside-1_559_19120)"/>
<path d="M228.805 204.645C231.726 204.645 232.84 203.385 232.84 201.541V194.895C232.84 193.051 231.726 191.791 228.805 191.791H220.314C217.393 191.791 216.279 193.051 216.279 194.895V201.541C216.279 203.385 217.393 204.645 220.314 204.645H228.805ZM230.411 201.559C230.411 202.326 229.9 202.746 228.805 202.746H220.314C219.219 202.746 218.708 202.326 218.708 201.559V194.877C218.708 194.11 219.219 193.69 220.314 193.69H228.805C229.9 193.69 230.411 194.11 230.411 194.877V201.559Z" stroke="black" stroke-width="2" mask="url(#path-2-outside-1_559_19120)"/>
<path d="M245.663 199.898C248.585 199.898 249.698 198.638 249.698 196.794V194.895C249.698 193.051 248.585 191.791 245.663 191.791H235.128V204.645H237.557V199.898H245.663ZM247.27 196.812C247.27 197.579 246.759 197.999 245.663 197.999H237.557V193.69H245.663C246.759 193.69 247.27 194.11 247.27 194.877V196.812Z" stroke="black" stroke-width="2" mask="url(#path-2-outside-1_559_19120)"/>
<path d="M264.609 204.645V202.746H253.818V198.802H264.061V196.903H253.818V193.69H264.609V191.791H251.39V204.645H264.609Z" stroke="black" stroke-width="2" mask="url(#path-2-outside-1_559_19120)"/>
<path d="M281.478 204.645L278.447 198.875C280.729 198.656 281.624 197.469 281.624 195.808V194.895C281.624 193.051 280.51 191.791 277.589 191.791H266.67V204.645H269.099V198.912H275.873L278.885 204.645H281.478ZM279.196 195.826C279.196 196.593 278.684 197.013 277.589 197.013H269.099V193.69H277.589C278.684 193.69 279.196 194.11 279.196 194.877V195.826Z" stroke="black" stroke-width="2" mask="url(#path-2-outside-1_559_19120)"/>
<path d="M297.14 202.235V198.693H300.682V197.342H297.14V193.799H295.788V197.342H292.246V198.693H295.788V202.235H297.14Z" stroke="black" stroke-width="2" mask="url(#path-2-outside-1_559_19120)"/>
<path d="M324.216 204.645C327.137 204.645 327.74 203.385 327.74 201.541V191.791H325.312V201.559C325.312 202.326 324.8 202.746 323.705 202.746H315.726C314.63 202.746 314.119 202.326 314.119 201.559V191.791H311.691V201.541C311.691 203.385 312.805 204.645 315.726 204.645H324.216Z" stroke="black" stroke-width="2" mask="url(#path-2-outside-1_559_19120)"/>
<path d="M332.577 204.645V191.791H330.149V204.645H332.577Z" stroke="black" stroke-width="2" mask="url(#path-2-outside-1_559_19120)"/>
<path d="M355.956 204.645C359.589 204.645 360.703 203.385 360.703 200.975V195.589C360.703 193.051 359.589 191.791 355.956 191.791H344.179V204.645H355.956ZM358.275 200.957C358.275 202.326 357.763 202.746 355.956 202.746H346.608V193.69H355.956C357.763 193.69 358.275 194.11 358.275 195.589V200.957Z" stroke="black" stroke-width="2" mask="url(#path-2-outside-1_559_19120)"/>
<path d="M376.209 204.645V202.746H365.419V198.802H375.662V196.903H365.419V193.69H376.209V191.791H362.99V204.645H376.209Z" stroke="black" stroke-width="2" mask="url(#path-2-outside-1_559_19120)"/>
<path d="M389.609 204.645C392.531 204.645 393.645 203.385 393.645 201.541V199.953C393.645 198.108 392.531 196.849 389.609 196.849H382.051C380.955 196.849 380.444 196.429 380.444 195.662V194.877C380.444 194.11 380.955 193.69 382.051 193.69H392.932V191.791H382.051C379.129 191.791 378.015 193.051 378.015 194.895V195.644C378.015 197.488 379.129 198.747 382.051 198.747H389.609C390.705 198.747 391.216 199.167 391.216 199.934V201.559C391.216 202.326 390.705 202.746 389.609 202.746H378.435V204.645H389.609Z" stroke="black" stroke-width="2" mask="url(#path-2-outside-1_559_19120)"/>
<path d="M398.158 204.645V191.791H395.729V204.645H398.158Z" stroke="black" stroke-width="2" mask="url(#path-2-outside-1_559_19120)"/>
<path d="M410.8 204.645C413.849 204.645 415.383 203.732 415.383 201.906V197.634H412.955V201.906C412.955 202.472 412.243 202.746 410.8 202.746H405.122C403.68 202.746 402.967 202.454 402.967 201.87V194.566C402.967 193.982 403.68 193.69 405.122 193.69H415.182V191.791H405.122C402.073 191.791 400.539 192.722 400.539 194.566V201.87C400.539 203.714 402.073 204.645 405.122 204.645H410.8Z" stroke="black" stroke-width="2" mask="url(#path-2-outside-1_559_19120)"/>
<path d="M434.64 204.645V191.791H432.522V201.34L419.723 191.791H417.623V204.645H419.741V194.639L433.453 204.645H434.64Z" stroke="black" stroke-width="2" mask="url(#path-2-outside-1_559_19120)"/>
<path d="M450.224 204.645V202.746H439.433V198.802H449.676V196.903H439.433V193.69H450.224V191.791H437.004V204.645H450.224Z" stroke="black" stroke-width="2" mask="url(#path-2-outside-1_559_19120)"/>
<path d="M467.093 204.645L464.062 198.875C466.344 198.656 467.239 197.469 467.239 195.808V194.895C467.239 193.051 466.125 191.791 463.204 191.791H452.285V204.645H454.714V198.912H461.487L464.5 204.645H467.093ZM464.81 195.826C464.81 196.593 464.299 197.013 463.204 197.013H454.714V193.69H463.204C464.299 193.69 464.81 194.11 464.81 194.877V195.826Z" stroke="black" stroke-width="2" mask="url(#path-2-outside-1_559_19120)"/>
<path d="M482.754 202.235V198.693H486.297V197.342H482.754V193.799H481.403V197.342H477.861V198.693H481.403V202.235H482.754Z" stroke="black" stroke-width="2" mask="url(#path-2-outside-1_559_19120)"/>
<path d="M514.98 204.645L506.49 191.791H504.719L496.174 204.645H498.876L505.613 194.292L512.241 204.645H514.98Z" stroke="black" stroke-width="2" mask="url(#path-2-outside-1_559_19120)"/>
<path d="M533.188 204.645V191.791H531.07V201.34L518.271 191.791H516.172V204.645H518.29V194.639L532.002 204.645H533.188Z" stroke="black" stroke-width="2" mask="url(#path-2-outside-1_559_19120)"/>
<path d="M538.073 204.645V191.791H535.645V204.645H538.073Z" stroke="black" stroke-width="2" mask="url(#path-2-outside-1_559_19120)"/>
<path d="M560.119 204.645V191.791H558.037L550.442 202.29L542.81 191.791H540.546V204.645H542.792V195.662L549.346 204.645H551.337L557.873 195.644V204.645H560.119Z" stroke="black" stroke-width="2" mask="url(#path-2-outside-1_559_19120)"/>
<path d="M580.115 204.645L571.624 191.791H569.853L561.308 204.645H564.011L570.748 194.292L577.376 204.645H580.115Z" stroke="black" stroke-width="2" mask="url(#path-2-outside-1_559_19120)"/>
<path d="M586.549 204.645V193.69H593.104V191.791H577.383V193.69H584.121V204.645H586.549Z" stroke="black" stroke-width="2" mask="url(#path-2-outside-1_559_19120)"/>
<path d="M606.649 204.645C609.571 204.645 610.685 203.385 610.685 201.541V194.895C610.685 193.051 609.571 191.791 606.649 191.791H598.159C595.238 191.791 594.124 193.051 594.124 194.895V201.541C594.124 203.385 595.238 204.645 598.159 204.645H606.649ZM608.256 201.559C608.256 202.326 607.745 202.746 606.649 202.746H598.159C597.064 202.746 596.553 202.326 596.553 201.559V194.877C596.553 194.11 597.064 193.69 598.159 193.69H606.649C607.745 193.69 608.256 194.11 608.256 194.877V201.559Z" stroke="black" stroke-width="2" mask="url(#path-2-outside-1_559_19120)"/>
<path d="M627.781 204.645L624.75 198.875C627.032 198.656 627.927 197.469 627.927 195.808V194.895C627.927 193.051 626.813 191.791 623.892 191.791H612.973V204.645H615.402V198.912H622.175L625.188 204.645H627.781ZM625.498 195.826C625.498 196.593 624.987 197.013 623.892 197.013H615.402V193.69H623.892C624.987 193.69 625.498 194.11 625.498 194.877V195.826Z" stroke="black" stroke-width="2" mask="url(#path-2-outside-1_559_19120)"/>
</g>
<path id="HTDI" fill-rule="evenodd" clip-rule="evenodd" d="M595.61 132.481L605.117 132.481L605.117 127.048L607.852 127.048L607.852 142.105L601.705 142.105L601.705 151.481H607.852V164.242H601.741L601.741 175.732H599.212L599.176 164.242H592.636L592.636 151.481H598.992L598.992 142.105L592.636 142.105L592.636 127.048L595.61 127.048L595.61 132.481ZM604.999 154.32H595.489L595.489 161.772H604.999L604.999 154.32ZM595.662 135.443L605.085 135.443V139.216L595.662 139.216L595.662 135.443Z" fill="white"/>
</g>
</svg>
