{
  "asset": {
    "version": "2.0",
    "generator": "THREE.GLTFExporter"
  },
  "scenes": [
    {
      "name": "Scene",
      "nodes": [
        0
      ]
    }
  ],
  "scene": 0,
  "nodes": [
    {
      "matrix": [
        0.05,
        0,
        0,
        0,
        0,
        0.05,
        0,
        0,
        0,
        0,
        0.05,
        0,
        0.36511777686656366,
        -0.06304989326115873,
        -3.503571340530848,
        1
      ],
      "name": "Path_1",
      "extras": {
        "name": "Path"
      },
      "mesh": 0
    }
  ],
  "bufferViews": [
    {
      "buffer": 0,
      "byteOffset": 0,
      "byteLength": 95832,
      "target": 34962,
      "byteStride": 12
    },
    {
      "buffer": 0,
      "byteOffset": 95832,
      "byteLength": 95832,
      "target": 34962,
      "byteStride": 12
    },
    {
      "buffer": 0,
      "byteOffset": 191664,
      "byteLength": 63888,
      "target": 34962,
      "byteStride": 8
    },
    {
      "buffer": 0,
      "byteOffset": 255552,
      "byteLength": 71712,
      "target": 34963
    }
  ],
  "buffers": [
    {
      "byteLength": 327264,
      "uri": "data:application/octet-stream;base64,"
    }
  ],
  "accessors": [
    {
      "bufferView": 0,
      "componentType": 5126,
      "count": 7986,
      "max": [
        981.410888671875,
        575.7936401367188,
        9.656854629516602
      ],
      "min": [
        -742.085693359375,
        -507.702880859375,
        -51.798988342285156
      ],
      "type": "VEC3"
    },
    {
      "bufferView": 1,
      "componentType": 5126,
      "count": 7986,
      "max": [
        1,
        1,
        1
      ],
      "min": [
        -1,
        -1,
        -1
      ],
      "type": "VEC3"
    },
    {
      "bufferView": 2,
      "componentType": 5126,
      "count": 7986,
      "max": [
        1,
        1
      ],
      "min": [
        0,
        0
      ],
      "type": "VEC2"
    },
    {
      "bufferView": 3,
      "componentType": 5123,
      "count": 35856,
      "max": [
        7985
      ],
      "min": [
        0
      ],
      "type": "SCALAR"
    }
  ],
  "materials": [
    {
      "pbrMetallicRoughness": {
        "baseColorFactor": [
          0.9607843137254902,
          0.9607843137254902,
          0.9607843137254902,
          0.5
        ],
        "metallicFactor": 1,
        "roughnessFactor": 0
      },
      "emissiveFactor": [
        0.45,
        0.45,
        0.45
      ],
      "alphaMode": "BLEND",
      "doubleSided": true,
      "name": "Deep Blue Sea"
    }
  ],
  "meshes": [
    {
      "primitives": [
        {
          "mode": 4,
          "attributes": {
            "POSITION": 0,
            "NORMAL": 1,
            "TEXCOORD_0": 2
          },
          "indices": 3,
          "material": 0
        }
      ]
    }
  ]
}