<svg width="72" height="74" viewBox="0 0 72 74" fill="none" xmlns="http://www.w3.org/2000/svg">
<g id="ALIEN-PLAY" clip-path="url(#clip0_909_22462)">
<g id="Group">
<path id="Vector" d="M36.9409 5.02539C52.3703 5.02539 61.6351 10.3391 66.0241 21.4417C69.1529 29.3475 67.4847 36.5188 62.7234 43.2365C57.7473 50.2567 51.1102 55.8512 44.4444 61.3161C39.8335 65.0961 32.8455 64.7649 28.1128 60.7545C22.6714 56.1464 17.2943 51.4303 12.7049 46.0014C5.88872 37.9516 3.27539 29.0883 8.22282 19.3825C13.2275 9.57588 21.9124 5.04699 33.2894 5.02539C34.5065 5.02539 35.7237 5.02539 36.9409 5.02539ZM36.5686 6.99103C34.5925 7.08463 32.6092 7.09903 30.6402 7.28623C10.693 9.17987 1.77182 27.7418 13.3135 43.2797C17.9244 49.4934 24.0747 54.3031 29.7954 59.48C33.0459 62.4249 39.2965 62.8641 42.5542 60.1136C49.9288 53.8855 57.6614 47.8806 62.5373 39.4493C66.5468 32.5155 66.3105 25.5314 62.2437 18.7561C56.566 9.28787 47.3298 6.60942 36.5686 6.99103V6.99103Z" fill="#090909"/>
<path id="Subtract" fill-rule="evenodd" clip-rule="evenodd" d="M36.5702 6.99089C47.3243 6.60928 56.5676 9.28774 62.2454 18.7559C66.3122 25.5312 66.5484 32.5082 62.5389 39.4491C58.1292 47.0745 51.3828 52.721 44.6778 58.3329L44.6777 58.3329C43.969 58.9261 43.2608 59.5188 42.5559 60.1135C39.2981 62.864 33.0476 62.4248 29.797 59.4799C28.5846 58.3828 27.3529 57.3018 26.1207 56.2203C21.5386 52.1989 16.9488 48.1707 13.3151 43.2796C1.77349 27.7417 10.6946 9.17973 30.6419 7.2789C31.9919 7.15054 33.3487 7.10342 34.7053 7.05631C35.3272 7.03471 35.9491 7.01311 36.5702 6.98369V6.99089ZM59.3671 36.9939L59.3668 36.9936C48.5913 33.4943 42.6343 36.7272 40.6296 46.7282C40.4519 47.6156 40.4128 48.3395 40.522 48.9241C40.7949 50.3915 41.9983 50.9847 44.2814 51.0773C51.119 51.3725 57.2621 45.8356 59.3671 36.9939ZM13.7161 36.8715C14.3433 40.4123 16.3061 42.9673 18.2407 45.4855C18.5367 45.8707 18.832 46.2551 19.1217 46.6421C21.7485 50.1521 25.3288 51.587 29.813 50.9822C29.8268 50.9803 29.8406 50.9785 29.8544 50.9766C29.9673 50.9617 30.0809 50.9484 30.1946 50.935C31.1264 50.8256 32.0606 50.7159 32.5966 49.7598C32.6175 49.7226 32.6375 49.6845 32.6566 49.6455C32.8492 49.2527 32.9513 48.7666 32.9755 48.2151C33.1467 44.3425 29.4775 37.255 26.2907 36.571C26.2877 36.5704 26.2846 36.5697 26.2816 36.5691C22.2649 35.7194 18.1695 35.3234 13.7161 36.8715Z" fill="#612AB1"/>
</g>
<g id="Vector_2" filter="url(#filter0_d_909_22462)">
<path d="M61.987 37.2391C59.6818 46.924 52.9544 52.9888 45.4664 52.6655C41.9694 52.5156 40.7854 51.309 41.4676 47.9019C43.663 36.9473 50.1866 33.4062 61.987 37.2391V37.2391Z" fill="url(#paint0_radial_909_22462)"/>
<path d="M61.987 37.2391C59.6818 46.924 52.9544 52.9888 45.4664 52.6655C41.9694 52.5156 40.7854 51.309 41.4676 47.9019C43.663 36.9473 50.1866 33.4062 61.987 37.2391V37.2391Z" fill="white" fill-opacity="0.7"/>
</g>
<g id="Vector_3" filter="url(#filter1_d_909_22462)">
<path d="M11.0996 37.1398C16.0088 35.4588 20.5082 35.883 24.9289 36.8099C28.987 37.6582 33.7623 47.8776 31.879 51.2003C31.2171 52.3706 30.0036 52.3785 28.861 52.5277C23.9124 53.1954 19.9488 51.6401 17.049 47.799C14.6456 44.6099 11.8955 41.5857 11.0996 37.1398V37.1398Z" fill="url(#paint1_radial_909_22462)"/>
<path d="M11.0996 37.1398C16.0088 35.4588 20.5082 35.883 24.9289 36.8099C28.987 37.6582 33.7623 47.8776 31.879 51.2003C31.2171 52.3706 30.0036 52.3785 28.861 52.5277C23.9124 53.1954 19.9488 51.6401 17.049 47.799C14.6456 44.6099 11.8955 41.5857 11.0996 37.1398V37.1398Z" fill="white" fill-opacity="0.7"/>
</g>
<path id="Subtract_2" fill-rule="evenodd" clip-rule="evenodd" d="M36.183 2.26674C48.5877 1.82656 59.2497 4.91613 65.7989 15.8376C70.4899 23.6528 70.7625 31.7006 66.1375 39.7069C61.051 48.5027 53.269 55.0159 45.5349 61.4891C44.7174 62.1734 43.9005 62.8571 43.0873 63.5431C39.3296 66.7157 32.1197 66.2091 28.3702 62.8122C26.9717 61.5467 25.5509 60.2998 24.1295 59.0523C18.8441 54.4136 13.5499 49.7672 9.35847 44.1253C-3.95468 26.2026 6.33576 4.79155 29.3447 2.59896C30.9019 2.4509 32.467 2.39655 34.0317 2.3422C34.7491 2.31729 35.4665 2.29238 36.183 2.25844V2.26674ZM45.7015 53.2453C44.9491 53.213 44.2983 53.1344 43.7452 52.999C41.0993 52.5925 40.242 51.2178 40.8657 48.1036C42.9325 37.7928 48.6413 33.7187 58.7054 35.8516C60.0858 36.1133 61.551 36.4962 63.1028 37.0002C60.6747 47.199 53.5887 53.5858 45.7015 53.2453ZM9.96746 37.4567C10.816 41.1714 12.9425 43.9394 15.0401 46.6698C15.3448 47.0665 15.6489 47.4623 15.9484 47.8602C15.9844 47.908 16.0202 47.9559 16.056 48.0039C16.2918 48.3189 16.5343 48.6195 16.7835 48.9055C19.745 52.3073 23.6444 53.6625 28.4362 53.0037C28.4407 53.0031 28.4452 53.0024 28.4497 53.0018C28.5753 52.9854 28.7018 52.9706 28.8283 52.9557C29.6099 52.8639 30.3929 52.772 30.9997 52.3046C31.2274 52.1297 31.4303 51.9016 31.5993 51.6001C31.9791 50.9257 32.1006 49.9811 32.0187 48.8887C31.677 44.2998 27.7507 37.1094 24.3148 36.3848C19.7015 35.409 15.0063 34.9601 9.88676 36.7109" fill="#612AB1"/>
<path id="Vector_4" d="M36.183 2.26723C48.5877 1.82705 59.2497 4.91662 65.7989 15.8381C70.4899 23.6533 70.7625 31.7011 66.1375 39.7074C60.5133 49.4329 51.5938 56.3678 43.0873 63.5436C39.3296 66.7162 32.1197 66.2096 28.3702 62.8127C21.7714 56.8412 14.6771 51.285 9.35847 44.1258C-3.95468 26.203 6.33576 4.79204 29.3447 2.59944C31.6159 2.38351 33.9036 2.3669 36.183 2.25893V2.26723ZM62.4789 36.8753C50.0495 32.839 43.1782 36.568 40.8657 48.1041C40.1472 51.6919 41.3943 52.9709 45.0777 53.1204C52.9648 53.461 60.0508 47.0742 62.4789 36.8753V36.8753ZM9.82096 36.7341C10.6551 41.4432 13.5374 44.6408 16.0563 48.0044C19.0956 52.0657 23.2415 53.7184 28.4362 53.0042C29.642 52.8381 30.9056 52.8381 31.5993 51.6006C33.5732 48.0957 28.5684 37.2906 24.3151 36.3853C19.6819 35.4053 14.9579 34.9485 9.82096 36.7341V36.7341Z" fill="#612AB1"/>
<g id="Vector_5">
<path d="M25.3177 27.3952V30.7272H24.1953V22.9526H28.685V23.5082H29.2465V24.0639H29.808V26.2846H29.2465V26.8402H28.685V27.3958H25.3177V27.3952ZM25.3177 24.0633V26.2846H28.1241V25.729H28.6856V24.6189H28.1241V24.0633H25.3177Z" fill="white"/>
<path d="M30.9304 30.7278V22.9526H32.0528V29.6171H36.5425V30.7278H30.9304Z" fill="white"/>
<path d="M38.7879 30.7278H37.6655V25.1739H38.227V24.6183H38.7885V24.0627H39.35V23.5082H39.9115V22.9526H41.0339V23.5082H41.5954V24.0639H42.1569V24.6195H42.7184V25.1751H43.2799V30.7289H42.1575V28.5076H38.7902V30.7289L38.7879 30.7278ZM42.1552 27.3958V25.7296H41.5937V25.1739H41.0322V24.6183H39.9097V25.1739H39.3482V25.7296H38.7868V27.3958H42.1552Z" fill="white"/>
<path d="M47.7678 30.7278H46.6454V27.9509H46.0839V27.3952H45.5224V26.8396H44.9609V26.284H44.3994V22.9526H45.5218V25.7296H46.0833V26.2852H46.6448V26.8408H47.7673V26.2852H48.3287V25.7296H48.8902V22.9526H50.0127V26.2846H49.4512V26.8402H48.8897V27.3958H48.3282V27.9514H47.7667V30.7283L47.7678 30.7278Z" fill="white"/>
</g>
</g>
<defs>
<filter id="filter0_d_909_22462" x="31.0474" y="25.5098" width="41.1748" height="37.4038" filterUnits="userSpaceOnUse" color-interpolation-filters="sRGB">
<feFlood flood-opacity="0" result="BackgroundImageFix"/>
<feColorMatrix in="SourceAlpha" type="matrix" values="0 0 0 0 0 0 0 0 0 0 0 0 0 0 0 0 0 0 127 0" result="hardAlpha"/>
<feMorphology radius="2.04716" operator="dilate" in="SourceAlpha" result="effect1_dropShadow_909_22462"/>
<feOffset/>
<feGaussianBlur stdDeviation="4.09433"/>
<feColorMatrix type="matrix" values="0 0 0 0 0.123294 0 0 0 0 0.0470588 0 0 0 0 1 0 0 0 0.8 0"/>
<feBlend mode="normal" in2="BackgroundImageFix" result="effect1_dropShadow_909_22462"/>
<feBlend mode="normal" in="SourceGraphic" in2="effect1_dropShadow_909_22462" result="shape"/>
</filter>
<filter id="filter1_d_909_22462" x="0.863788" y="25.7608" width="41.6748" height="37.1528" filterUnits="userSpaceOnUse" color-interpolation-filters="sRGB">
<feFlood flood-opacity="0" result="BackgroundImageFix"/>
<feColorMatrix in="SourceAlpha" type="matrix" values="0 0 0 0 0 0 0 0 0 0 0 0 0 0 0 0 0 0 127 0" result="hardAlpha"/>
<feMorphology radius="2.04716" operator="dilate" in="SourceAlpha" result="effect1_dropShadow_909_22462"/>
<feOffset/>
<feGaussianBlur stdDeviation="4.09433"/>
<feColorMatrix type="matrix" values="0 0 0 0 0.123294 0 0 0 0 0.0470588 0 0 0 0 1 0 0 0 0.8 0"/>
<feBlend mode="normal" in2="BackgroundImageFix" result="effect1_dropShadow_909_22462"/>
<feBlend mode="normal" in="SourceGraphic" in2="effect1_dropShadow_909_22462" result="shape"/>
</filter>
<radialGradient id="paint0_radial_909_22462" cx="0" cy="0" r="1" gradientUnits="userSpaceOnUse" gradientTransform="translate(51.6351 44.2117) rotate(141.657) scale(14.4658 10.5203)">
<stop stop-color="#151515"/>
<stop offset="1" stop-color="#151515" stop-opacity="0"/>
</radialGradient>
<radialGradient id="paint1_radial_909_22462" cx="0" cy="0" r="1" gradientUnits="userSpaceOnUse" gradientTransform="translate(21.7009 44.3373) rotate(142.732) scale(14.6003 10.5164)">
<stop stop-color="#151515"/>
<stop offset="1" stop-color="#151515" stop-opacity="0"/>
</radialGradient>
<clipPath id="clip0_909_22462">
<rect width="72" height="74" fill="white"/>
</clipPath>
</defs>
</svg>
