<svg width="292" height="69" viewBox="0 0 292 69" fill="none" xmlns="http://www.w3.org/2000/svg">
<g id="DARK-LOGO">
<path d="M65.2067 67.5V1.50001H105.072C121.238 1.50001 126.062 4.96924 126.062 18.8462C126.062 28.8308 121.322 33.8231 111.504 34.8385C119.63 36.0231 123.692 40.8462 123.692 50.3231C123.692 64.0308 119.376 67.5 105.072 67.5H65.2067ZM82.9809 15.0385V28.2385H99.6548C105.156 28.2385 107.526 26.2077 107.526 21.5539C107.526 15.7154 106.765 15.0385 99.6548 15.0385H82.9809ZM82.9809 41.7769V53.9615H97.962C104.479 53.9615 105.156 53.3692 105.156 47.7846C105.156 43.5538 103.04 41.7769 97.962 41.7769H82.9809Z" fill="#B9FD02"/>
<path d="M1 1.50001H18.7742V15.3769L28.9309 26.7154L43.3195 1.50001H62.9558L41.2882 38.3923L61.263 67.5H40.6957L18.7742 35.3462V67.5H1V1.50001Z" fill="#B9FD02"/>
<path d="M128.313 67.5V1.5H177.625V16.7308H146.087V67.5H128.313Z" fill="#B9FD02"/>
<path d="M179.057 67.5V1.5H228.994V16.7308H196.831V67.5H179.057Z" fill="#B9FD02"/>
<path d="M268.994 67.5H231.245V1.5H249.019V24.7692H262.223C271.448 24.7692 272.379 24.0077 272.379 16.7308V1.5H291V17.7462C291 26.2077 286.514 30.1 277.712 31.0308C286.937 32.3 291 37.4615 291 48.3769C291 63.6923 286.599 67.5 268.994 67.5ZM249.019 38.3077V53.1154H264.423C272.379 53.1154 273.226 52.3538 273.226 45.8385C273.226 39.0692 272.379 38.3077 264.423 38.3077H249.019Z" fill="#B9FD02"/>
<path d="M65.2067 67.5V1.50001H105.072C121.238 1.50001 126.062 4.96924 126.062 18.8462C126.062 28.8308 121.322 33.8231 111.504 34.8385C119.63 36.0231 123.692 40.8462 123.692 50.3231C123.692 64.0308 119.376 67.5 105.072 67.5H65.2067ZM82.9809 15.0385V28.2385H99.6548C105.156 28.2385 107.526 26.2077 107.526 21.5539C107.526 15.7154 106.765 15.0385 99.6548 15.0385H82.9809ZM82.9809 41.7769V53.9615H97.962C104.479 53.9615 105.156 53.3692 105.156 47.7846C105.156 43.5538 103.04 41.7769 97.962 41.7769H82.9809Z" stroke="#612AB1" stroke-width="1.125"/>
<path d="M1 1.50001H18.7742V15.3769L28.9309 26.7154L43.3195 1.50001H62.9558L41.2882 38.3923L61.263 67.5H40.6957L18.7742 35.3462V67.5H1V1.50001Z" stroke="#612AB1" stroke-width="1.125"/>
<path d="M128.313 67.5V1.5H177.625V16.7308H146.087V67.5H128.313Z" stroke="#612AB1" stroke-width="1.125"/>
<path d="M179.057 67.5V1.5H228.994V16.7308H196.831V67.5H179.057Z" stroke="#612AB1" stroke-width="1.125"/>
<path d="M268.994 67.5H231.245V1.5H249.019V24.7692H262.223C271.448 24.7692 272.379 24.0077 272.379 16.7308V1.5H291V17.7462C291 26.2077 286.514 30.1 277.712 31.0308C286.937 32.3 291 37.4615 291 48.3769C291 63.6923 286.599 67.5 268.994 67.5ZM249.019 38.3077V53.1154H264.423C272.379 53.1154 273.226 52.3538 273.226 45.8385C273.226 39.0692 272.379 38.3077 264.423 38.3077H249.019Z" stroke="#612AB1" stroke-width="1.125"/>
</g>
</svg>
