<svg width="296" height="76" viewBox="0 0 296 76" fill="none" xmlns="http://www.w3.org/2000/svg">
<g id="KBLLR">
<rect width="296" height="72" transform="translate(0 2)" fill="black" fill-opacity="0.9"/>
<g id="ALL-LINES-GROUPS" style="mix-blend-mode:overlay" opacity="0.5">
<g id="LINES">
<g id="Vector" style="mix-blend-mode:overlay" opacity="0.5">
<path d="M260.331 2.84955C260.609 2.84955 260.84 2.49367 260.884 2.02628H268.02L278.791 20.9616H288.304C288.348 21.429 288.579 21.7849 288.857 21.7849C289.166 21.7849 289.418 21.3437 289.418 20.7976C289.418 20.2515 289.167 19.8103 288.857 19.8103C288.579 19.8103 288.348 20.1662 288.304 20.6336H278.868L268.097 1.69828H260.884C260.84 1.23088 260.609 0.875 260.331 0.875C260.021 0.875 259.77 1.31616 259.77 1.86228C259.77 2.40839 260.02 2.84955 260.331 2.84955V2.84955Z" fill="white"/>
</g>
<g id="Vector_2" style="mix-blend-mode:overlay" opacity="0.5">
<path d="M279.585 15.1528C279.863 15.1528 280.093 14.7969 280.138 14.3295H281.346L283.464 18.0523H288.304C288.349 18.5197 288.579 18.8755 288.857 18.8755C289.167 18.8755 289.419 18.4344 289.419 17.8883C289.419 17.3422 289.168 16.901 288.857 16.901C288.579 16.901 288.349 17.2569 288.304 17.7243H283.541L281.424 14.0015H280.138C280.093 13.5341 279.863 13.1782 279.585 13.1782C279.275 13.1782 279.023 13.6194 279.023 14.1655C279.023 14.7116 279.274 15.1528 279.585 15.1528V15.1528Z" fill="white"/>
</g>
<g id="Vector_3" style="mix-blend-mode:overlay" opacity="0.5">
<path d="M284.082 31.746H288.036C288.081 32.2134 288.311 32.5693 288.589 32.5693C288.899 32.5693 289.151 32.1281 289.151 31.582C289.151 31.0359 288.9 30.5947 288.589 30.5947C288.311 30.5947 288.081 30.9506 288.036 31.418H284.082C284.037 30.9506 283.806 30.5947 283.528 30.5947C283.219 30.5947 282.967 31.0359 282.967 31.582C282.967 32.1281 283.218 32.5693 283.528 32.5693C283.806 32.5693 284.037 32.2134 284.082 31.746Z" fill="white"/>
</g>
<g id="Vector_4" style="mix-blend-mode:overlay" opacity="0.5">
<path d="M258.579 19.1967C258.857 19.1967 259.088 18.8408 259.132 18.3734H266.705L274.312 31.7459H277.326C277.371 32.2133 277.602 32.5692 277.88 32.5692C278.189 32.5692 278.441 32.128 278.441 31.5819C278.441 31.0358 278.19 30.5946 277.88 30.5946C277.602 30.5946 277.371 30.9505 277.326 31.4179H274.39L266.783 18.0454H259.132C259.088 17.578 258.857 17.2222 258.579 17.2222C258.269 17.2222 258.018 17.6633 258.018 18.2094C258.018 18.7556 258.269 19.1967 258.579 19.1967V19.1967Z" fill="white"/>
</g>
<g id="Vector_5" style="mix-blend-mode:overlay" opacity="0.5">
<path d="M233.436 40.5215H226.671C226.627 40.0541 226.396 39.6982 226.118 39.6982C225.808 39.6982 225.557 40.1394 225.557 40.6855C225.557 41.2316 225.808 41.6727 226.118 41.6727C226.396 41.6727 226.627 41.3169 226.671 40.8495H233.513L246.298 18.3734H252.521C252.565 18.8408 252.796 19.1967 253.074 19.1967C253.384 19.1967 253.635 18.7556 253.635 18.2094C253.635 17.6633 253.384 17.2222 253.074 17.2222C252.796 17.2222 252.565 17.578 252.521 18.0454H246.221L233.436 40.5215V40.5215Z" fill="white"/>
</g>
<g id="Vector_6" style="mix-blend-mode:overlay" opacity="0.5">
<path d="M254.109 28.8368L259.427 38.1864H269.736L277.324 51.526H281.853C281.898 51.9934 282.128 52.3493 282.406 52.3493C282.716 52.3493 282.968 51.9082 282.968 51.362C282.968 50.8159 282.717 50.3748 282.406 50.3748C282.128 50.3748 281.898 50.7306 281.853 51.198H277.401L269.813 37.8584H259.505L254.186 28.5088H246.393L240.319 39.1868C240.1 38.9129 239.795 38.9457 239.598 39.2917C239.379 39.6771 239.379 40.3019 239.598 40.6873C239.817 41.0727 240.173 41.0727 240.392 40.6873C240.589 40.3413 240.607 39.805 240.452 39.4196L246.471 28.8384H254.11L254.109 28.8368Z" fill="white"/>
</g>
<g id="Vector_7" style="mix-blend-mode:overlay" opacity="0.5">
<path d="M274.381 41.7189C274.6 42.1043 274.955 42.1043 275.174 41.7189C275.394 41.3335 275.394 40.7087 275.174 40.3233C274.978 39.9773 274.672 39.9445 274.453 40.2183L269.593 31.674H263.166L258.055 22.6885H249.127C249.082 22.2211 248.851 21.8652 248.573 21.8652C248.264 21.8652 248.012 22.3064 248.012 22.8525C248.012 23.3986 248.263 23.8398 248.573 23.8398C248.851 23.8398 249.082 23.4839 249.127 23.0165H257.978L263.089 32.002H269.516L274.322 40.4512C274.166 40.8366 274.185 41.3729 274.381 41.7189H274.381Z" fill="white"/>
</g>
<g id="Vector_8" style="mix-blend-mode:overlay" opacity="0.5">
<path d="M289.2 49.5529C289.419 49.1675 289.419 48.5427 289.2 48.1573C289.003 47.8113 288.698 47.7785 288.479 48.0524L284.783 41.5547H280.138C280.093 41.0873 279.863 40.7314 279.585 40.7314C279.275 40.7314 279.023 41.1726 279.023 41.7187C279.023 42.2648 279.274 42.706 279.585 42.706C279.863 42.706 280.093 42.3501 280.138 41.8827H284.706L288.347 48.2836C288.191 48.669 288.21 49.2053 288.406 49.5513C288.626 49.9367 288.981 49.9367 289.2 49.5513V49.5529Z" fill="white"/>
</g>
</g>
<g id="LINES_2">
<g id="Vector_9" style="mix-blend-mode:overlay" opacity="0.5">
<path d="M273.804 63.2982C274.023 63.6836 274.378 63.6836 274.597 63.2982C274.817 62.9128 274.817 62.288 274.597 61.9026C274.401 61.5566 274.096 61.5238 273.876 61.7977L265.066 46.3096H256.625C256.58 45.8422 256.349 45.4863 256.071 45.4863C255.762 45.4863 255.51 45.9275 255.51 46.4736C255.51 47.0197 255.761 47.4609 256.071 47.4609C256.349 47.4609 256.58 47.105 256.625 46.6376H264.989L273.744 62.0289C273.588 62.4143 273.607 62.9506 273.804 63.2966V63.2982Z" fill="white"/>
</g>
<g id="Vector_10" style="mix-blend-mode:overlay" opacity="0.5">
<path d="M279.56 64.2841C279.838 64.2841 280.068 63.9282 280.113 63.4608H287.986C288.031 63.9282 288.262 64.2841 288.54 64.2841C288.849 64.2841 289.101 63.843 289.101 63.2968C289.101 62.7507 288.85 62.3096 288.54 62.3096C288.262 62.3096 288.031 62.6655 287.986 63.1328H280.113C280.068 62.6655 279.838 62.3096 279.56 62.3096C279.25 62.3096 278.998 62.7507 278.998 63.2968C278.998 63.843 279.249 64.2841 279.56 64.2841Z" fill="white"/>
</g>
<g id="Vector_11" style="mix-blend-mode:overlay" opacity="0.5">
<path d="M289.88 67.0542C289.602 67.0542 289.372 67.4101 289.327 67.8774H271.786L267.123 59.6808C267.279 59.2954 267.261 58.7591 267.064 58.4131C266.845 58.0277 266.489 58.0277 266.27 58.4131C266.051 58.7985 266.051 59.4233 266.27 59.8087C266.467 60.1547 266.772 60.1875 266.991 59.9137L271.708 68.2054H289.326C289.371 68.6728 289.601 69.0287 289.879 69.0287C290.189 69.0287 290.441 68.5876 290.441 68.0414C290.441 67.4953 290.19 67.0542 289.879 67.0542H289.88Z" fill="white"/>
</g>
<g id="Vector_12" style="mix-blend-mode:overlay" opacity="0.5">
<path d="M250.145 46.6376H251.864C251.909 47.105 252.139 47.4609 252.417 47.4609C252.727 47.4609 252.979 47.0197 252.979 46.4736C252.979 45.9275 252.728 45.4863 252.417 45.4863C252.139 45.4863 251.909 45.8422 251.864 46.3096H250.067L237.136 69.0431H226.671C226.627 68.5757 226.396 68.2199 226.118 68.2199C225.808 68.2199 225.557 68.661 225.557 69.2071C225.557 69.7532 225.808 70.1944 226.118 70.1944C226.396 70.1944 226.627 69.8385 226.671 69.3711H237.213L250.145 46.6376V46.6376Z" fill="white"/>
</g>
<g id="Vector_13" style="mix-blend-mode:overlay" opacity="0.5">
<path d="M257.237 56.4629C256.959 56.4629 256.728 56.8188 256.684 57.2862H253.804L245.637 71.6426H241.533C241.488 71.1752 241.258 70.8194 240.98 70.8194C240.67 70.8194 240.418 71.2605 240.418 71.8066C240.418 72.3527 240.669 72.7939 240.98 72.7939C241.258 72.7939 241.488 72.438 241.533 71.9706H245.715L253.881 57.6142H256.684C256.728 58.0816 256.959 58.4374 257.237 58.4374C257.547 58.4374 257.798 57.9963 257.798 57.4502C257.798 56.9041 257.548 56.4629 257.237 56.4629Z" fill="white"/>
</g>
<g id="Vector_14" style="mix-blend-mode:overlay" opacity="0.5">
<path d="M131.773 30.7892C131.463 30.7892 131.211 31.2303 131.211 31.7764C131.211 32.3225 131.462 32.7637 131.773 32.7637C132.051 32.7637 132.281 32.4078 132.326 31.9404H150.784L164.056 8.60831H170.954C170.998 9.0757 171.229 9.43158 171.507 9.43158C171.816 9.43158 172.068 8.99042 172.068 8.44431C172.068 7.89819 171.817 7.45703 171.507 7.45703C171.229 7.45703 170.998 7.81291 170.954 8.28031H163.978L150.706 31.6124H132.325C132.28 31.145 132.05 30.7892 131.772 30.7892H131.773Z" fill="white"/>
</g>
<g id="Vector_15" style="mix-blend-mode:overlay" opacity="0.5">
<path d="M172.009 10.9551C171.699 10.9551 171.447 11.3962 171.447 11.9424C171.447 12.4885 171.698 12.9296 172.009 12.9296C172.287 12.9296 172.517 12.5738 172.562 12.1064H184.116L200.8 41.4375H207.357C207.401 41.9049 207.632 42.2608 207.91 42.2608C208.22 42.2608 208.471 41.8197 208.471 41.2735C208.471 40.7274 208.22 40.2863 207.91 40.2863C207.632 40.2863 207.401 40.6422 207.357 41.1095H200.878L184.193 11.7784H172.563C172.518 11.311 172.288 10.9551 172.01 10.9551H172.009Z" fill="white"/>
</g>
<g id="Vector_16" style="mix-blend-mode:overlay" opacity="0.5">
<path d="M224.387 19.5429H235.068C235.113 20.0103 235.343 20.3661 235.621 20.3661C235.931 20.3661 236.183 19.925 236.183 19.3789C236.183 18.8328 235.932 18.3916 235.621 18.3916C235.343 18.3916 235.113 18.7475 235.068 19.2149H224.309L215.332 34.9965H207.897L203.031 26.4423H197.535C197.49 25.9749 197.26 25.619 196.982 25.619C196.672 25.619 196.42 26.0602 196.42 26.6063C196.42 27.1524 196.671 27.5936 196.982 27.5936C197.26 27.5936 197.49 27.2377 197.535 26.7703H202.954L207.82 35.3245H215.409L224.386 19.5429H224.387Z" fill="white"/>
</g>
<g id="Vector_17" style="mix-blend-mode:overlay" opacity="0.5">
<path d="M200.32 30.6411C200.1 30.2557 199.745 30.2557 199.526 30.6411C199.307 31.0265 199.307 31.6513 199.526 32.0367C199.723 32.3828 200.028 32.4156 200.247 32.1417L203.479 37.8243H211.508C211.552 38.2917 211.783 38.6475 212.061 38.6475C212.371 38.6475 212.622 38.2064 212.622 37.6603C212.622 37.1141 212.371 36.673 212.061 36.673C211.783 36.673 211.552 37.0289 211.508 37.4963H203.557L200.379 31.9105C200.535 31.5251 200.516 30.9888 200.32 30.6427V30.6411Z" fill="white"/>
</g>
<g id="Vector_18" style="mix-blend-mode:overlay" opacity="0.5">
<path d="M208.045 24.1206C208.201 23.7352 208.182 23.1989 207.986 22.8529C207.766 22.4675 207.411 22.4675 207.192 22.8529C206.973 23.2383 206.973 23.8631 207.192 24.2485C207.389 24.5945 207.694 24.6273 207.913 24.3535L210.598 29.0734H215.555L222.723 16.4717H235.783L242.544 4.58505C242.763 4.85893 243.068 4.82613 243.265 4.48009C243.485 4.09469 243.485 3.46986 243.265 3.08446C243.046 2.69906 242.691 2.69906 242.471 3.08446C242.275 3.4305 242.256 3.96677 242.412 4.35217L235.704 16.142H222.645L215.477 28.7437H210.673L208.043 24.1206H208.045Z" fill="white"/>
</g>
<g id="Vector_19" style="mix-blend-mode:overlay" opacity="0.5">
<path d="M186.55 7.76847L195.324 23.1942H202.111L206.112 16.1603H213.308C213.353 16.6277 213.584 16.9836 213.862 16.9836C214.171 16.9836 214.423 16.5424 214.423 15.9963C214.423 15.4502 214.172 15.009 213.862 15.009C213.584 15.009 213.353 15.3649 213.308 15.8323H206.035L202.034 22.8662H195.402L186.682 7.53723C186.838 7.15184 186.819 6.61555 186.622 6.26952C186.403 5.88412 186.048 5.88412 185.828 6.26952C185.609 6.65491 185.609 7.27975 185.828 7.66515C186.025 8.01119 186.33 8.04399 186.55 7.77011V7.76847Z" fill="white"/>
</g>
<g id="Vector_20" style="mix-blend-mode:overlay" opacity="0.5">
<path d="M236.608 48.3886C236.918 48.3886 237.17 47.9474 237.17 47.4013C237.17 46.8552 236.919 46.4141 236.608 46.4141C236.33 46.4141 236.1 46.7699 236.055 47.2373H218.729L213.242 56.8821H198.651L195.198 50.8109C195.353 50.4255 195.335 49.8892 195.138 49.5432C194.919 49.1578 194.563 49.1578 194.344 49.5432C194.125 49.9286 194.125 50.5534 194.344 50.9388C194.541 51.2848 194.846 51.3176 195.065 51.0437L198.573 57.2101H213.318L218.804 47.5653H236.053C236.098 48.0327 236.328 48.3886 236.606 48.3886H236.608Z" fill="white"/>
</g>
<g id="Vector_21" style="mix-blend-mode:overlay" opacity="0.5">
<path d="M190.479 44.4199C190.698 44.8053 191.053 44.8053 191.273 44.4199C191.492 44.0345 191.492 43.4097 191.273 43.0243C191.076 42.6783 190.771 42.6455 190.551 42.9193L182.781 29.2599H173.64L170.993 24.6056C171.148 24.2202 171.13 23.6839 170.933 23.3379C170.714 22.9525 170.358 22.9525 170.139 23.3379C169.92 23.7233 169.92 24.3481 170.139 24.7335C170.336 25.0795 170.641 25.1123 170.86 24.8385L173.562 29.5879H182.703L190.419 43.1522C190.263 43.5376 190.282 44.0739 190.479 44.4199V44.4199Z" fill="white"/>
</g>
</g>
<g id="LINES_3">
<g id="Vector_22" style="mix-blend-mode:overlay" opacity="0.5">
<path d="M231.62 58.004L233.839 54.1041C234.058 54.378 234.363 54.3452 234.56 53.9991C234.779 53.6137 234.779 52.9889 234.56 52.6035C234.34 52.2181 233.985 52.2181 233.766 52.6035C233.569 52.9495 233.55 53.4858 233.706 53.8712L231.542 57.676H220.537C220.492 57.2086 220.261 56.8527 219.983 56.8527C219.674 56.8527 219.422 57.2939 219.422 57.84C219.422 58.3861 219.673 58.8273 219.983 58.8273C220.261 58.8273 220.492 58.4714 220.537 58.004H231.619H231.62Z" fill="white"/>
</g>
<g id="Vector_23" style="mix-blend-mode:overlay" opacity="0.5">
<path d="M139.67 60.8836C139.392 60.8836 139.161 61.2395 139.116 61.7069H127.275L118.142 45.6514H113.851C113.806 45.184 113.576 44.8281 113.298 44.8281C112.988 44.8281 112.736 45.2693 112.736 45.8154C112.736 46.3615 112.987 46.8027 113.298 46.8027C113.576 46.8027 113.806 46.4468 113.851 45.9794H118.066L127.199 62.0349H139.117C139.162 62.5023 139.392 62.8582 139.67 62.8582C139.98 62.8582 140.232 62.417 140.232 61.8709C140.232 61.3248 139.981 60.8836 139.67 60.8836H139.67Z" fill="white"/>
</g>
<g id="Vector_24" style="mix-blend-mode:overlay" opacity="0.5">
<path d="M189.398 68.3277C189.12 68.3277 188.89 68.6835 188.845 69.1509H182.153L173.677 54.25H152.649L149.167 60.3721C148.948 60.0982 148.643 60.131 148.446 60.477C148.226 60.8624 148.226 61.4873 148.446 61.8727C148.665 62.2581 149.02 62.2581 149.24 61.8727C149.436 61.5266 149.455 60.9904 149.299 60.605L152.727 54.5796H173.601L182.077 69.4806H188.846C188.891 69.948 189.121 70.3039 189.399 70.3039C189.709 70.3039 189.961 69.8627 189.961 69.3166C189.961 68.7705 189.71 68.3293 189.399 68.3293L189.398 68.3277Z" fill="white"/>
</g>
<g id="Vector_25" style="mix-blend-mode:overlay" opacity="0.5">
<path d="M203.091 71.5314C202.813 71.5314 202.583 71.8873 202.538 72.3547H194.413L176.745 41.295H160.294C160.25 40.8276 160.019 40.4717 159.741 40.4717C159.432 40.4717 159.18 40.9128 159.18 41.459C159.18 42.0051 159.431 42.4462 159.741 42.4462C160.019 42.4462 160.25 42.0904 160.294 41.623H176.667L194.335 72.6827H202.537C202.582 73.1501 202.812 73.506 203.09 73.506C203.4 73.506 203.652 73.0648 203.652 72.5187C203.652 71.9726 203.401 71.5314 203.09 71.5314H203.091Z" fill="white"/>
</g>
<g id="Vector_26" style="mix-blend-mode:overlay" opacity="0.5">
<path d="M123.906 31.938H127.138C127.183 32.4054 127.413 32.7613 127.691 32.7613C128.001 32.7613 128.253 32.3202 128.253 31.774C128.253 31.2279 128.002 30.7868 127.691 30.7868C127.413 30.7868 127.183 31.1426 127.138 31.61H123.982L119.984 24.5811H112.294L105.231 36.9974C105.012 36.7235 104.707 36.7563 104.51 37.1024C104.291 37.4878 104.291 38.1126 104.51 38.498C104.729 38.8834 105.085 38.8834 105.304 38.498C105.501 38.152 105.519 37.6157 105.364 37.2303L112.371 24.9107H119.907L123.906 31.9397V31.938Z" fill="white"/>
</g>
<g id="Vector_27" style="mix-blend-mode:overlay" opacity="0.5">
<path d="M127.282 38.6455C127.56 38.6455 127.791 38.2896 127.835 37.8222H129.969L136.625 49.5235H144.155C144.2 49.9909 144.43 50.3468 144.708 50.3468C145.018 50.3468 145.27 49.9056 145.27 49.3595C145.27 48.8134 145.019 48.3722 144.708 48.3722C144.43 48.3722 144.2 48.7281 144.155 49.1955H136.703L130.046 37.4942H127.835C127.791 37.0268 127.56 36.6709 127.282 36.6709C126.973 36.6709 126.721 37.1121 126.721 37.6582C126.721 38.2043 126.972 38.6455 127.282 38.6455V38.6455Z" fill="white"/>
</g>
<g id="Vector_28" style="mix-blend-mode:overlay" opacity="0.5">
<path d="M150.253 44.8675H157.007C157.052 45.3349 157.282 45.6908 157.56 45.6908C157.87 45.6908 158.122 45.2496 158.122 44.7035C158.122 44.1574 157.871 43.7162 157.56 43.7162C157.282 43.7162 157.052 44.0721 157.007 44.5395H150.33L148.484 41.294H138.789C138.744 40.8266 138.513 40.4707 138.235 40.4707C137.926 40.4707 137.674 40.9119 137.674 41.458C137.674 42.0041 137.925 42.4453 138.235 42.4453C138.513 42.4453 138.744 42.0894 138.789 41.622H148.407L150.253 44.8675Z" fill="white"/>
</g>
<g id="Vector_29" style="mix-blend-mode:overlay" opacity="0.5">
<path d="M116.944 10.793C116.635 10.793 116.383 11.2341 116.383 11.7802C116.383 12.3264 116.634 12.7675 116.944 12.7675C117.222 12.7675 117.453 12.4116 117.498 11.9442H131.046L136.578 21.6694H142.732C142.777 22.1368 143.007 22.4926 143.285 22.4926C143.595 22.4926 143.847 22.0515 143.847 21.5054C143.847 20.9593 143.596 20.5181 143.285 20.5181C143.007 20.5181 142.777 20.874 142.732 21.3414H136.655L131.123 11.6162H117.499C117.454 11.1488 117.223 10.793 116.945 10.793H116.944Z" fill="white"/>
</g>
<g id="Vector_30" style="mix-blend-mode:overlay" opacity="0.5">
<path d="M95.6113 32.0986H87.7182L85.0632 27.4312H75.4872L71.9441 33.6598C71.7249 33.386 71.4199 33.4188 71.223 33.7648C71.0038 34.1502 71.0038 34.775 71.223 35.1604C71.4422 35.5458 71.7977 35.5458 72.0169 35.1604C72.2137 34.8144 72.2324 34.2781 72.0766 33.8927L75.5646 27.7608H84.9867L87.6417 32.4282H95.6887L111.4 4.80753H119.729C119.774 5.27492 120.004 5.63079 120.282 5.63079C120.592 5.63079 120.844 5.18964 120.844 4.64353C120.844 4.09741 120.593 3.65625 120.282 3.65625C120.004 3.65625 119.774 4.01213 119.729 4.47953H111.323L95.6113 32.1002V32.0986Z" fill="white"/>
</g>
<g id="Vector_31" style="mix-blend-mode:overlay" opacity="0.5">
<path d="M128.81 65.3553C128.613 65.7013 128.594 66.2376 128.75 66.623L125.826 71.7643H105.872L101.827 64.6534H77.8121C77.7673 64.186 77.5369 63.8301 77.2589 63.8301C76.9491 63.8301 76.6973 64.2712 76.6973 64.8174C76.6973 65.3635 76.9482 65.8046 77.2589 65.8046C77.5369 65.8046 77.7673 65.4488 77.8121 64.9814H101.751L105.796 72.0923H125.903L128.883 66.8542C129.102 67.1281 129.407 67.0953 129.604 66.7493C129.823 66.3639 129.823 65.739 129.604 65.3536C129.384 64.9682 129.029 64.9682 128.81 65.3536V65.3553Z" fill="white"/>
</g>
<g id="Vector_32" style="mix-blend-mode:overlay" opacity="0.5">
<path d="M119.728 66.0858H109.42L105.437 59.083H89.9722C89.9274 58.6156 89.697 58.2598 89.419 58.2598C89.1093 58.2598 88.8574 58.7009 88.8574 59.247C88.8574 59.7932 89.1084 60.2343 89.419 60.2343C89.697 60.2343 89.9274 59.8784 89.9722 59.411H105.359L109.343 66.4138H119.728C119.773 66.8812 120.003 67.2371 120.281 67.2371C120.591 67.2371 120.843 66.7959 120.843 66.2498C120.843 65.7037 120.592 65.2625 120.281 65.2625C120.003 65.2625 119.773 65.6184 119.728 66.0858Z" fill="white"/>
</g>
<g id="Vector_33" style="mix-blend-mode:overlay" opacity="0.5">
<path d="M119.311 57.6511L116.657 52.9854H108.58C108.535 52.518 108.304 52.1621 108.026 52.1621C107.717 52.1621 107.465 52.6033 107.465 53.1494C107.465 53.6955 107.716 54.1367 108.026 54.1367C108.304 54.1367 108.535 53.7808 108.58 53.3134H116.579L119.178 57.8824C119.022 58.2678 119.041 58.8041 119.238 59.1501C119.457 59.5355 119.812 59.5355 120.032 59.1501C120.251 58.7647 120.251 58.1399 120.032 57.7545C119.835 57.4084 119.53 57.3756 119.311 57.6495V57.6511Z" fill="white"/>
</g>
<g id="Vector_34" style="mix-blend-mode:overlay" opacity="0.5">
<path d="M175.486 64.0023C175.208 64.0023 174.978 64.3582 174.933 64.8256H172.235L169.24 59.5596H157.056L151.601 69.1502H144.959C144.914 68.6828 144.683 68.327 144.405 68.327C144.096 68.327 143.844 68.7681 143.844 69.3142C143.844 69.8603 144.095 70.3015 144.405 70.3015C144.683 70.3015 144.914 69.9456 144.959 69.4782H151.678L157.134 59.8876H169.163L172.159 65.1536H174.934C174.979 65.621 175.209 65.9768 175.487 65.9768C175.797 65.9768 176.049 65.5357 176.049 64.9896C176.049 64.4435 175.798 64.0023 175.487 64.0023H175.486Z" fill="white"/>
</g>
<g id="Vector_35" style="mix-blend-mode:overlay" opacity="0.5">
<path d="M6.06253 6.90477C6.34053 6.90477 6.57095 6.54889 6.61572 6.08149H19.1219L20.9392 2.8868C21.1584 3.16068 21.4634 3.12788 21.6603 2.78184C21.8795 2.39644 21.8795 1.77161 21.6603 1.38622C21.4411 1.00082 21.0856 1.00082 20.8664 1.38622C20.6696 1.73225 20.6509 2.26853 20.8067 2.65392L19.0436 5.7535H6.61479C6.57001 5.2861 6.33959 4.93023 6.06159 4.93023C5.75188 4.93023 5.5 5.37138 5.5 5.9175C5.5 6.46361 5.75094 6.90477 6.06159 6.90477H6.06253Z" fill="white"/>
</g>
<g id="Vector_36" style="mix-blend-mode:overlay" opacity="0.5">
<path d="M32.6529 69.5145C32.9626 69.5145 33.2145 69.0733 33.2145 68.5272C33.2145 67.9811 32.9636 67.5399 32.6529 67.5399C32.3749 67.5399 32.1445 67.8958 32.0997 68.3632H24.1833L19.9993 61.0078H7.7105C7.66572 60.5405 7.4353 60.1846 7.1573 60.1846C6.84758 60.1846 6.5957 60.6257 6.5957 61.1718C6.5957 61.718 6.84665 62.1591 7.1573 62.1591C7.4353 62.1591 7.66572 61.8032 7.7105 61.3358H19.921L24.1049 68.6912H32.0988C32.1436 69.1586 32.374 69.5145 32.652 69.5145H32.6529Z" fill="white"/>
</g>
<g id="Vector_37" style="mix-blend-mode:overlay" opacity="0.5">
<path d="M38.9229 69.5144C39.2009 69.5144 39.4313 69.1585 39.4761 68.6911H46.5063L53.5272 56.3485H63.9745C64.0193 56.8159 64.2497 57.1718 64.5277 57.1718C64.8374 57.1718 65.0893 56.7306 65.0893 56.1845C65.0893 55.6384 64.8383 55.1973 64.5277 55.1973C64.2497 55.1973 64.0193 55.5531 63.9745 56.0205H53.4497L46.4289 68.3631H39.4761C39.4313 67.8957 39.2009 67.5398 38.9229 67.5398C38.6132 67.5398 38.3613 67.981 38.3613 68.5271C38.3613 69.0732 38.6123 69.5144 38.9229 69.5144V69.5144Z" fill="white"/>
</g>
<g id="Vector_38" style="mix-blend-mode:overlay" opacity="0.5">
<path d="M15.0411 65.3525C14.8442 65.6986 14.8256 66.2348 14.9814 66.6202L13.5419 69.1507H7.7105C7.66572 68.6833 7.4353 68.3275 7.1573 68.3275C6.84758 68.3275 6.5957 68.7686 6.5957 69.3147C6.5957 69.8608 6.84665 70.302 7.1573 70.302C7.4353 70.302 7.66572 69.9461 7.7105 69.4787H13.6194L15.1129 66.8531C15.3321 67.127 15.6372 67.0942 15.834 66.7482C16.0532 66.3628 16.0532 65.7379 15.834 65.3525C15.6148 64.9671 15.2594 64.9671 15.0401 65.3525H15.0411Z" fill="white"/>
</g>
</g>
<g id="LINES_4">
<g id="Vector_39" style="mix-blend-mode:overlay" opacity="0.5">
<path d="M83.8056 68.5318C83.5276 68.5318 83.2972 68.8877 83.2524 69.3551H61.2766L56.85 61.5734C57.0058 61.188 56.9872 60.6517 56.7903 60.3056C56.5711 59.9203 56.2157 59.9203 55.9965 60.3056C55.7772 60.691 55.7772 61.3159 55.9965 61.7013C56.1933 62.0473 56.4983 62.0801 56.7176 61.8062L61.1991 69.6847H83.2524C83.2972 70.1521 83.5276 70.508 83.8056 70.508C84.1153 70.508 84.3672 70.0669 84.3672 69.5207C84.3672 68.9746 84.1163 68.5335 83.8056 68.5335V68.5318Z" fill="white"/>
</g>
<g id="Vector_40" style="mix-blend-mode:overlay" opacity="0.5">
<path d="M52.7422 65.9707C52.5454 66.3167 52.5267 66.853 52.6825 67.2384L48.8876 73.9099H27.9761C27.9313 73.4425 27.7009 73.0866 27.4229 73.0866C27.1132 73.0866 26.8613 73.5278 26.8613 74.0739C26.8613 74.62 27.1123 75.0611 27.4229 75.0611C27.7009 75.0611 27.9313 74.7053 27.9761 74.2379H48.9659L52.815 67.4713C53.0342 67.7452 53.3393 67.7123 53.5361 67.3663C53.7553 66.9809 53.7553 66.3561 53.5361 65.9707C53.3169 65.5853 52.9614 65.5853 52.7422 65.9707Z" fill="white"/>
</g>
<g id="Vector_41" style="mix-blend-mode:overlay" opacity="0.5">
<path d="M52.448 6.2504L59.0342 17.8287H71.8109L75.242 11.7968H99.5753C99.6201 12.2642 99.8505 12.6201 100.128 12.6201C100.438 12.6201 100.69 12.179 100.69 11.6328C100.69 11.0867 100.439 10.6456 100.128 10.6456C99.8505 10.6456 99.6201 11.0014 99.5753 11.4688H75.1646L71.7335 17.5007H59.1116L52.5805 6.01917C52.7363 5.63377 52.7176 5.09749 52.5208 4.75145C52.3016 4.36605 51.9461 4.36605 51.7269 4.75145C51.5077 5.13685 51.5077 5.76168 51.7269 6.14708C51.9238 6.49312 52.2288 6.52592 52.448 6.25204V6.2504Z" fill="white"/>
</g>
<g id="Vector_42" style="mix-blend-mode:overlay" opacity="0.5">
<path d="M67.0799 13.1774C67.3178 12.8625 67.3719 12.2819 67.2114 11.8506C68.3076 9.97775 70.0763 6.60757 70.3188 6.14345H93.0018C93.0466 6.61085 93.277 6.96673 93.555 6.96673C93.8647 6.96673 94.1166 6.52557 94.1166 5.97945C94.1166 5.43334 93.8657 4.99219 93.555 4.99219C93.277 4.99219 93.0466 5.34806 93.0018 5.81545H70.2377L70.2097 5.86794C70.1873 5.91058 68.2525 9.61531 67.0855 11.6095C66.8905 11.3439 66.6116 11.3275 66.4054 11.6013C66.1582 11.9293 66.1078 12.5476 66.2944 12.9838C66.481 13.4201 66.8327 13.507 67.0808 13.179L67.0799 13.1774Z" fill="white"/>
</g>
<g id="Vector_43" style="mix-blend-mode:overlay" opacity="0.5">
<path d="M66.7185 32.6085C67.0282 32.6085 67.2801 32.1674 67.2801 31.6212C67.2801 31.0751 67.0291 30.634 66.7185 30.634C66.4405 30.634 66.2101 30.9898 66.1653 31.4572H56.5837L43.7687 8.92871H32.5172L24.6605 22.7407H7.05425C7.00947 22.2733 6.77905 21.9174 6.50105 21.9174C6.19133 21.9174 5.93945 22.3586 5.93945 22.9047C5.93945 23.4508 6.1904 23.892 6.50105 23.892C6.77905 23.892 7.00947 23.5361 7.05425 23.0687H24.7398L32.5965 9.25671H43.6931L56.5081 31.7852H66.1671C66.2119 32.2526 66.4423 32.6085 66.7203 32.6085H66.7185Z" fill="white"/>
</g>
<g id="Vector_44" style="mix-blend-mode:overlay" opacity="0.5">
<path d="M46.9036 22.4074C46.6275 22.3975 46.3942 22.7403 46.342 23.2011C40.3538 22.9568 39.5954 23.1519 39.4648 23.2634C39.2092 23.1306 37.8603 20.6198 36.6802 18.2205L36.6522 18.1631H31.8059L25.2888 29.62H7.71049C7.66572 29.1526 7.4353 28.7968 7.1573 28.7968C6.84758 28.7968 6.5957 29.2379 6.5957 29.784C6.5957 30.3302 6.84665 30.7713 7.1573 30.7713C7.4353 30.7713 7.66572 30.4154 7.71049 29.948H25.3662L31.8833 18.4911H36.5673C37.1914 19.7572 39.1 23.5718 39.4695 23.5964C39.5049 23.5996 39.5366 23.58 39.5609 23.5455C39.795 23.3783 42.4258 23.3733 46.3373 23.5308C46.3746 24.0031 46.6013 24.3721 46.8812 24.3819C47.1909 24.3934 47.4475 23.9604 47.454 23.416C47.4605 22.8715 47.2142 22.4205 46.9045 22.409L46.9036 22.4074Z" fill="white"/>
</g>
<g id="Vector_45" style="mix-blend-mode:overlay" opacity="0.5">
<path d="M72.9482 47.3986L75.1271 50.6182H86.0474L95.5907 36.5172H115.114C115.167 36.9837 115.441 37.3389 115.771 37.3389C116.138 37.3389 116.438 36.8986 116.438 36.3535C116.438 35.8085 116.14 35.3682 115.771 35.3682C115.441 35.3682 115.167 35.7233 115.114 36.1898H95.4988L85.9554 50.2908H75.2191L73.0401 47.0712H67.0328C66.9796 46.6048 66.706 46.2496 66.3759 46.2496C66.0081 46.2496 65.709 46.6899 65.709 47.2349C65.709 47.78 66.007 48.2203 66.3759 48.2203C66.706 48.2203 66.9796 47.8651 67.0328 47.3986H72.9482Z" fill="white"/>
</g>
<g id="Vector_46" style="mix-blend-mode:overlay" opacity="0.5">
<path d="M17.7905 62.1182C17.4806 62.1182 17.2285 62.4645 17.2285 62.8932C17.2285 63.322 17.4796 63.6683 17.7905 63.6683C18.0687 63.6683 18.2993 63.3889 18.3441 63.022H35.678L38.6326 67.0969H47.9745C48.0193 67.4638 48.2499 67.7432 48.5281 67.7432C48.838 67.7432 49.0901 67.3968 49.0901 66.9681C49.0901 66.5394 48.8389 66.193 48.5281 66.193C48.2499 66.193 48.0193 66.4724 47.9745 66.8394H38.7101L35.7554 62.7645H18.3441C18.2993 62.3975 18.0687 62.1182 17.7905 62.1182Z" fill="white"/>
</g>
<g id="Vector_47" style="mix-blend-mode:overlay">
<path d="M231.336 47.9932C230.835 47.9932 230.417 47.6146 230.31 47.1093H224.447L218.202 40.3715H207.002L201.086 46.7549H188.95L184.896 42.3809C184.489 42.6577 183.945 42.6054 183.592 42.2238C183.18 41.7799 183.18 41.0611 183.592 40.6181C184.003 40.1742 184.669 40.1742 185.08 40.6181C185.435 41.0007 185.482 41.5866 185.226 42.0255L189.143 46.2516H200.891L206.807 39.8682H218.395L224.639 46.6059H230.31C230.416 46.0996 230.834 45.7221 231.335 45.7221C231.916 45.7221 232.387 46.2304 232.387 46.8576C232.387 47.4848 231.916 47.9932 231.335 47.9932H231.336Z" fill="white"/>
</g>
<g id="Vector_48" style="mix-blend-mode:overlay" opacity="0.5">
<path d="M19.9443 43.3448H7.71049C7.66572 42.8774 7.4353 42.5215 7.1573 42.5215C6.84758 42.5215 6.5957 42.9626 6.5957 43.5088C6.5957 44.0549 6.84665 44.496 7.1573 44.496C7.4353 44.496 7.66572 44.1402 7.71049 43.6728H19.8669L25.9007 54.2802H37.4703L41.6254 46.9757C41.8446 47.2496 42.1496 47.2168 42.3465 46.8707C42.5657 46.4853 42.5657 45.8605 42.3465 45.4751C42.1272 45.0897 41.7718 45.0897 41.5526 45.4751C41.3558 45.8211 41.3371 46.3574 41.4929 46.7428L37.3919 53.9522H25.9772L19.9434 43.3448H19.9443Z" fill="white"/>
</g>
<g id="Vector_49" style="mix-blend-mode:overlay" opacity="0.5">
<path d="M7.05425 37.0087H21.623L27.9657 48.159H31.6991C31.7439 48.6264 31.9743 48.9822 32.2523 48.9822C32.562 48.9822 32.8139 48.5411 32.8139 47.995C32.8139 47.4489 32.5629 47.0077 32.2523 47.0077C31.9743 47.0077 31.7439 47.3636 31.6991 47.831H28.0431L21.7005 36.6807H7.05425C7.00947 36.2133 6.77905 35.8574 6.50105 35.8574C6.19133 35.8574 5.93945 36.2986 5.93945 36.8447C5.93945 37.3908 6.1904 37.832 6.50105 37.832C6.77905 37.832 7.00947 37.4761 7.05425 37.0087Z" fill="white"/>
</g>
<g id="Vector_50" style="mix-blend-mode:overlay" opacity="0.5">
<path d="M7.66995 34.1334C7.94795 34.1334 8.17837 33.7775 8.22315 33.3101H27.2977L32.27 42.0513H39.789L43.8013 34.9977C44.0206 35.2716 44.3256 35.2388 44.5225 34.8927C44.7417 34.5073 44.7417 33.8825 44.5225 33.4971C44.3032 33.1117 43.9478 33.1117 43.7286 33.4971C43.5317 33.8431 43.5131 34.3794 43.6689 34.7648L39.7116 41.7216H32.3465L27.3742 32.9805H8.22221C8.17744 32.5131 7.94701 32.1572 7.66902 32.1572C7.3593 32.1572 7.10742 32.5984 7.10742 33.1445C7.10742 33.6906 7.35837 34.1318 7.66902 34.1318L7.66995 34.1334Z" fill="white"/>
</g>
</g>
</g>
<g id="DARK-LOGO">
<path d="M67.3071 70.9932V5.00001H107.157C123.317 5.00001 128.139 8.46889 128.139 22.3444C128.139 32.328 123.401 37.3198 113.587 38.335C121.709 39.5195 125.77 44.3421 125.77 53.8181C125.77 67.5244 121.455 70.9932 107.157 70.9932H67.3071ZM85.0745 18.5371V31.7357H101.742C107.241 31.7357 109.61 29.7052 109.61 25.0518C109.61 19.2139 108.849 18.5371 101.742 18.5371H85.0745ZM85.0745 45.2728V57.4562H100.05C106.565 57.4562 107.241 56.8639 107.241 51.2799C107.241 47.0495 105.126 45.2728 100.05 45.2728H85.0745Z" fill="#B9FD02"/>
<path d="M3.125 5.00001H20.8924V18.8755L31.0452 30.2128L45.4283 5.00001H65.0571L43.3978 41.8885L63.365 70.9932H42.8055L20.8924 38.8427V70.9932H3.125V5.00001Z" fill="#B9FD02"/>
<path d="M130.389 70.9932V5H179.682V20.2292H148.157V70.9932H130.389Z" fill="#B9FD02"/>
<path d="M181.114 70.9932V5H231.032V20.2292H198.881V70.9932H181.114Z" fill="#B9FD02"/>
<path d="M271.016 70.9932H233.282V5H251.049V28.2668H264.248C273.47 28.2668 274.4 27.5054 274.4 20.2292V5H293.014V21.2445C293.014 29.7052 288.53 33.5971 279.731 34.5277C288.953 35.7968 293.014 40.9578 293.014 51.8721C293.014 67.1859 288.614 70.9932 271.016 70.9932ZM251.049 41.8039V56.6101H266.447C274.4 56.6101 275.247 55.8486 275.247 49.3339C275.247 42.5654 274.4 41.8039 266.447 41.8039H251.049Z" fill="#B9FD02"/>
<path d="M67.3071 70.9932V5.00001H107.157C123.317 5.00001 128.139 8.46889 128.139 22.3444C128.139 32.328 123.401 37.3198 113.587 38.335C121.709 39.5195 125.77 44.3421 125.77 53.8181C125.77 67.5244 121.455 70.9932 107.157 70.9932H67.3071ZM85.0745 18.5371V31.7357H101.742C107.241 31.7357 109.61 29.7052 109.61 25.0518C109.61 19.2139 108.849 18.5371 101.742 18.5371H85.0745ZM85.0745 45.2728V57.4562H100.05C106.565 57.4562 107.241 56.8639 107.241 51.2799C107.241 47.0495 105.126 45.2728 100.05 45.2728H85.0745Z" stroke="#612AB1" stroke-width="1.125"/>
<path d="M3.125 5.00001H20.8924V18.8755L31.0452 30.2128L45.4283 5.00001H65.0571L43.3978 41.8885L63.365 70.9932H42.8055L20.8924 38.8427V70.9932H3.125V5.00001Z" stroke="#612AB1" stroke-width="1.125"/>
<path d="M130.389 70.9932V5H179.682V20.2292H148.157V70.9932H130.389Z" stroke="#612AB1" stroke-width="1.125"/>
<path d="M181.114 70.9932V5H231.032V20.2292H198.881V70.9932H181.114Z" stroke="#612AB1" stroke-width="1.125"/>
<path d="M271.016 70.9932H233.282V5H251.049V28.2668H264.248C273.47 28.2668 274.4 27.5054 274.4 20.2292V5H293.014V21.2445C293.014 29.7052 288.53 33.5971 279.731 34.5277C288.953 35.7968 293.014 40.9578 293.014 51.8721C293.014 67.1859 288.614 70.9932 271.016 70.9932ZM251.049 41.8039V56.6101H266.447C274.4 56.6101 275.247 55.8486 275.247 49.3339C275.247 42.5654 274.4 41.8039 266.447 41.8039H251.049Z" stroke="#612AB1" stroke-width="1.125"/>
</g>
<g id="ALIEN">
<path id="Vector_51" d="M215.033 36.8755C221.229 36.8755 224.949 38.998 226.711 43.4327C227.967 46.5906 227.297 49.455 225.386 52.1383C223.388 54.9424 220.723 57.177 218.046 59.3599C216.195 60.8698 213.389 60.7375 211.489 59.1356C209.304 57.295 207.145 55.4112 205.302 53.2427C202.566 50.0274 201.516 46.487 203.503 42.6102C205.512 38.6931 208.999 36.8841 213.567 36.8755C214.056 36.8755 214.545 36.8755 215.033 36.8755ZM214.884 37.6606C214.091 37.698 213.294 37.7038 212.504 37.7785C204.495 38.5349 200.913 45.9492 205.547 52.1556C207.398 54.6376 209.868 56.5587 212.164 58.6265C213.47 59.8028 215.979 59.9783 217.287 58.8796C220.248 56.3919 223.353 53.9933 225.311 50.6256C226.921 47.856 226.826 45.0663 225.193 42.36C222.913 38.5781 219.205 37.5082 214.884 37.6606V37.6606Z" fill="#090909"/>
<path id="Vector_52" d="M214.884 37.6604C219.202 37.508 222.914 38.5778 225.193 42.3598C226.826 45.0661 226.921 47.8529 225.311 50.6253C223.353 53.9931 220.249 56.3945 217.288 58.8794C215.98 59.978 213.47 59.8026 212.165 58.6263C209.868 56.5585 207.398 54.6344 205.547 52.1553C200.913 45.949 204.495 38.5347 212.504 37.7754C213.295 37.7007 214.091 37.6949 214.884 37.6575V37.6604ZM224.038 49.6446C219.711 48.2469 217.319 49.5382 216.514 53.5329C216.264 54.7754 216.698 55.2183 217.98 55.27C220.726 55.388 223.192 53.1763 224.038 49.6446V49.6446ZM205.708 49.5957C205.998 51.2264 207.002 52.3337 207.879 53.4984C208.936 54.9048 210.38 55.4771 212.188 55.2298C212.608 55.1723 213.047 55.1723 213.289 54.7437C213.976 53.5301 212.234 49.7884 210.753 49.4749C209.141 49.1356 207.496 48.9774 205.708 49.5957V49.5957Z" fill="#612AB1"/>
<path id="Vector_53" d="M224.036 49.6447C223.191 53.1764 220.724 55.3881 217.979 55.2702C216.697 55.2155 216.263 54.7755 216.513 53.5331C217.318 49.5383 219.71 48.247 224.036 49.6447V49.6447Z" fill="white"/>
<path id="Vector_54" d="M205.707 49.5963C207.498 48.9808 209.14 49.1361 210.752 49.4755C212.233 49.7861 213.975 53.5278 213.288 54.7443C213.046 55.1728 212.604 55.1757 212.187 55.2304C210.381 55.4748 208.935 54.9054 207.877 53.499C207.001 52.3314 205.997 51.2241 205.707 49.5963V49.5963Z" fill="white"/>
</g>
</g>
</svg>
