<svg width="232" height="53" viewBox="0 0 232 53" fill="none" xmlns="http://www.w3.org/2000/svg">
<g id="KBLLR-CIRCUITS" clip-path="url(#clip0_909_22449)">
<g id="Vector">
<path d="M51.372 52.8216V6.10664e-06H83.2682C96.2027 6.10664e-06 100.063 2.77653 100.063 13.8826C100.063 21.8736 96.2704 25.8691 88.4149 26.6817C94.916 27.6298 98.1666 31.4898 98.1666 39.0745C98.1666 50.0451 94.7129 52.8216 83.2682 52.8216H51.372ZM65.5932 10.8352V21.3995H78.9341C83.3359 21.3995 85.2321 19.7743 85.2321 16.0497C85.2321 11.377 84.6226 10.8352 78.9341 10.8352H65.5932ZM65.5932 32.2348V41.9864H77.5797C82.7941 41.9864 83.3359 41.5124 83.3359 37.0429C83.3359 33.6569 81.6429 32.2348 77.5797 32.2348H65.5932Z" fill="#545AE9"/>
<path d="M0 6.10664e-06H14.2212V11.1061L22.3476 20.1806L33.86 6.10664e-06H49.5711L32.2347 29.526L48.2167 52.8216H31.7607L14.2212 27.088V52.8216H0V6.10664e-06Z" fill="#545AE9"/>
<path d="M101.864 52.8216V0H141.318V12.1896H116.085V52.8216H101.864Z" fill="#545AE9"/>
<path d="M142.464 52.8216V0H182.419V12.1896H156.685V52.8216H142.464Z" fill="#545AE9"/>
<path d="M214.423 52.8216H184.22V0H198.441V18.623H209.005C216.387 18.623 217.132 18.0135 217.132 12.1896V0H232.03V13.0022C232.03 19.7743 228.441 22.8894 221.398 23.6343C228.779 24.6501 232.03 28.781 232.03 37.5169C232.03 49.7742 228.509 52.8216 214.423 52.8216ZM198.441 29.4582V41.3092H210.766C217.132 41.3092 217.809 40.6997 217.809 35.4853C217.809 30.0677 217.132 29.4582 210.766 29.4582H198.441Z" fill="#545AE9"/>
<path d="M51.372 52.8216V6.10664e-06H83.2682C96.2027 6.10664e-06 100.063 2.77653 100.063 13.8826C100.063 21.8736 96.2704 25.8691 88.4149 26.6817C94.916 27.6298 98.1666 31.4898 98.1666 39.0745C98.1666 50.0451 94.7129 52.8216 83.2682 52.8216H51.372ZM65.5932 10.8352V21.3995H78.9341C83.3359 21.3995 85.2321 19.7743 85.2321 16.0497C85.2321 11.377 84.6226 10.8352 78.9341 10.8352H65.5932ZM65.5932 32.2348V41.9864H77.5797C82.7941 41.9864 83.3359 41.5124 83.3359 37.0429C83.3359 33.6569 81.6429 32.2348 77.5797 32.2348H65.5932Z" stroke="white" stroke-opacity="0.951" stroke-width="0.5"/>
<path d="M0 6.10664e-06H14.2212V11.1061L22.3476 20.1806L33.86 6.10664e-06H49.5711L32.2347 29.526L48.2167 52.8216H31.7607L14.2212 27.088V52.8216H0V6.10664e-06Z" stroke="white" stroke-opacity="0.951" stroke-width="0.5"/>
<path d="M101.864 52.8216V0H141.318V12.1896H116.085V52.8216H101.864Z" stroke="white" stroke-opacity="0.951" stroke-width="0.5"/>
<path d="M142.464 52.8216V0H182.419V12.1896H156.685V52.8216H142.464Z" stroke="white" stroke-opacity="0.951" stroke-width="0.5"/>
<path d="M214.423 52.8216H184.22V0H198.441V18.623H209.005C216.387 18.623 217.132 18.0135 217.132 12.1896V0H232.03V13.0022C232.03 19.7743 228.441 22.8894 221.398 23.6343C228.779 24.6501 232.03 28.781 232.03 37.5169C232.03 49.7742 228.509 52.8216 214.423 52.8216ZM198.441 29.4582V41.3092H210.766C217.132 41.3092 217.809 40.6997 217.809 35.4853C217.809 30.0677 217.132 29.4582 210.766 29.4582H198.441Z" stroke="white" stroke-opacity="0.951" stroke-width="0.5"/>
</g>
<g id="Group">
<g id="Vector_2" style="mix-blend-mode:overlay">
<path d="M0.844958 9.64435C1.24721 9.64435 1.5828 9.21383 1.66819 8.63904H14.6437L19.9209 0.572501H31.7271L40.116 13.3954L40.1707 13.479H55.1905L57.6534 9.71419H68.0004C68.0858 10.2901 68.4214 10.7195 68.8236 10.7195C69.2903 10.7195 69.6686 10.1413 69.6686 9.42794C69.6686 8.71461 69.2903 8.13638 68.8236 8.13638C68.4214 8.13638 68.0858 8.5669 68.0004 9.14169H57.4976L55.0346 12.9065H40.3258L31.9369 0.0835898L31.8822 0H19.7651L14.4879 8.06654H1.66819C1.5828 7.4906 1.24721 7.06123 0.844958 7.06123C0.378283 7.06123 0 7.63945 0 8.35279C0 9.06612 0.378283 9.64435 0.844958 9.64435Z" fill="white"/>
</g>
<g id="Vector_3" style="mix-blend-mode:overlay">
<path d="M49.5394 24.6716C49.6248 25.2475 49.9604 25.6769 50.3627 25.6769C50.8293 25.6769 51.2076 25.0987 51.2076 24.3853C51.2076 23.672 50.8293 23.0938 50.3627 23.0938C49.9604 23.0938 49.6248 23.5243 49.5394 24.0991H37.9055L28.2964 38.7871H15.9186L12.7081 33.8797H1.66819C1.5828 33.3037 1.24721 32.8743 0.844958 32.8743C0.378284 32.8743 0 33.4526 0 34.1659C0 34.8792 0.378284 35.4575 0.844958 35.4575C1.24721 35.4575 1.5828 35.027 1.66819 34.4522H12.553L15.7636 39.3596H28.4522L38.0613 24.6716H49.5394Z" fill="white"/>
</g>
<g id="Vector_4" style="mix-blend-mode:overlay">
<path d="M73.4647 41.2227C73.0625 41.2227 72.7269 41.6532 72.6415 42.228H67.9343L62.9207 49.8915H53.9288L49.1789 42.631H39.4364L36.1817 47.606C35.8551 47.2912 35.4184 47.3507 35.1345 47.7847C34.8041 48.2896 34.8041 49.1071 35.1345 49.6109C35.4648 50.1159 35.9997 50.1159 36.3293 49.6109C36.6139 49.1758 36.6521 48.5094 36.4461 48.0102L39.5907 43.2035H49.0224L53.7722 50.464H63.075L68.0886 42.8005H72.6407C72.7261 43.3764 73.0617 43.8058 73.464 43.8058C73.9306 43.8058 74.3089 43.2276 74.3089 42.5142C74.3089 41.8009 73.9306 41.2227 73.464 41.2227H73.4647Z" fill="white"/>
</g>
<g id="Vector_5" style="mix-blend-mode:overlay">
<path d="M56.5481 23.0934C56.0814 23.0934 55.7031 23.6716 55.7031 24.385C55.7031 25.0983 56.0814 25.6765 56.5481 25.6765C56.9503 25.6765 57.2859 25.246 57.3713 24.6712H73.5416L83.4916 9.46215H98.5705L102.669 15.7276H108.613C108.699 16.3035 109.034 16.7329 109.437 16.7329C109.903 16.7329 110.282 16.1547 110.282 15.4413C110.282 14.728 109.903 14.1498 109.437 14.1498C109.034 14.1498 108.699 14.5803 108.613 15.1551H102.825L98.7256 8.88965H83.3358L73.3858 24.0987H57.3706C57.2852 23.5228 56.9496 23.0934 56.5473 23.0934H56.5481Z" fill="white"/>
</g>
<g id="Vector_6" style="mix-blend-mode:overlay">
<path d="M146.549 41.6451C146.147 41.6451 145.811 42.0756 145.726 42.6504H133.233L129.977 47.6278H116.824L108.098 34.2896L108.044 34.2061H100.617L93.17 45.5897C92.8434 45.2748 92.4067 45.3343 92.1228 45.7683C91.7924 46.2732 91.7924 47.0908 92.1228 47.5946C92.4531 48.0995 92.9879 48.0995 93.3175 47.5946C93.6022 47.1595 93.6404 46.4931 93.4344 45.9938L100.772 34.7786H107.887L116.613 48.1167L116.668 48.2003H130.13L133.386 43.2229H145.724C145.809 43.7989 146.145 44.2282 146.547 44.2282C147.014 44.2282 147.392 43.65 147.392 42.9367C147.392 42.2234 147.014 41.6451 146.547 41.6451H146.549Z" fill="white"/>
</g>
<g id="Vector_7" style="mix-blend-mode:overlay">
<path d="M116.01 13.0935C116.431 13.0935 116.783 12.6621 116.872 12.0861H125.056L133.954 -0.929684H146.139L160.393 19.9221H171.378L181.405 4.8111C181.75 5.11862 182.207 5.04977 182.5 4.60799C182.841 4.09508 182.832 3.27579 182.481 2.77779C182.131 2.27979 181.571 2.29241 181.23 2.80533C180.937 3.2471 180.903 3.91722 181.123 4.41178L171.211 19.3484H160.556L146.302 -1.50342H133.791L124.894 11.5123H116.872C116.783 10.9351 116.431 10.5048 116.01 10.5048C115.521 10.5048 115.125 11.0843 115.125 11.7992C115.125 12.5141 115.521 13.0935 116.01 13.0935V13.0935Z" fill="white"/>
</g>
<g id="Vector_8" style="mix-blend-mode:overlay">
<path d="M230.113 35.0559C229.711 35.0559 229.375 35.4864 229.29 36.0612H216.728L209.903 25.6279H193.978L183.127 42.2144H166.672C166.587 41.6385 166.251 41.2091 165.849 41.2091C165.382 41.2091 165.004 41.7873 165.004 42.5007C165.004 43.214 165.382 43.7922 165.849 43.7922C166.251 43.7922 166.587 43.3617 166.672 42.7869H183.282L194.133 26.2004H209.748L216.573 36.6337H229.29C229.375 37.2085 229.711 37.639 230.113 37.639C230.58 37.639 230.958 37.0608 230.958 36.3474C230.958 35.6341 230.58 35.0559 230.113 35.0559V35.0559Z" fill="white"/>
</g>
<g id="Vector_9" style="mix-blend-mode:overlay">
<path d="M227.533 46.8321C227.13 46.8321 226.795 47.2626 226.71 47.8374H212.674L204.207 34.8954C204.413 34.3962 204.374 33.7287 204.09 33.2947C203.76 32.7898 203.225 32.7898 202.896 33.2947C202.566 33.7997 202.566 34.6172 202.896 35.121C203.18 35.5561 203.616 35.6145 203.943 35.2996L212.52 48.4099H226.71C226.796 48.9858 227.131 49.4152 227.533 49.4152C228 49.4152 228.378 48.837 228.378 48.1236C228.378 47.4103 228 46.8321 227.533 46.8321H227.533Z" fill="white"/>
</g>
<g id="Vector_10" style="mix-blend-mode:overlay">
<path d="M231.167 12.8195C230.765 12.8195 230.429 13.25 230.344 13.8248H217.07L211.308 5.01855H191.393L183.184 17.5666C182.857 17.2518 182.42 17.3113 182.136 17.7452C181.806 18.2502 181.806 19.0677 182.136 19.5715C182.467 20.0765 183.002 20.0765 183.331 19.5715C183.616 19.1364 183.654 18.47 183.448 17.9708L191.548 5.58991H211.153L216.914 14.3961H230.343C230.429 14.9721 230.764 15.4014 231.166 15.4014C231.633 15.4014 232.011 14.8232 232.011 14.1099C232.011 13.3965 231.633 12.8183 231.166 12.8183L231.167 12.8195Z" fill="white"/>
</g>
<g id="Vector_11" style="mix-blend-mode:overlay">
<path d="M184.579 48.1627C184.201 48.1627 183.885 48.5931 183.804 49.1676H176.475L162.622 26.6904H157.196C157.115 26.1147 156.799 25.6855 156.421 25.6855C155.981 25.6855 155.625 26.2635 155.625 26.9765C155.625 27.6895 155.981 28.2675 156.421 28.2675C156.799 28.2675 157.115 27.8371 157.196 27.2626H162.476L176.329 49.7398H183.804C183.885 50.3155 184.201 50.7446 184.579 50.7446C185.019 50.7446 185.375 50.1667 185.375 49.4537C185.375 48.7407 185.019 48.1627 184.579 48.1627V48.1627Z" fill="white"/>
</g>
</g>
</g>
<defs>
<clipPath id="clip0_909_22449">
<rect width="232" height="53" fill="white"/>
</clipPath>
</defs>
</svg>
