{
    "asset": {
        "copyright": "2020 (c) Adobe Inc.",
        "generator": "Adobe Dimension - 3de52ae4ccc0c25be48106335282fae5a6a58dee",
        "version": "2.0"
    },
    "accessors": [
        {
            "bufferView": 0,
            "componentType": 5126,
            "count": 2048,
            "type": "VEC3",
            "max": [
                14.216461181640625,
                21.246746063232423,
                1.7899999618530274
            ],
            "min": [
                -14.253538131713868,
                0.001745699904859066,
                0.0
            ]
        },
        {
            "bufferView": 1,
            "componentType": 5126,
            "count": 2048,
            "type": "VEC3"
        },
        {
            "bufferView": 2,
            "componentType": 5126,
            "count": 2048,
            "type": "VEC2"
        },
        {
            "bufferView": 3,
            "componentType": 5125,
            "count": 5232,
            "type": "SCALAR",
            "max": [
                2047.0
            ],
            "min": [
                0.0
            ]
        }
    ],
    "bufferViews": [
        {
            "buffer": 0,
            "byteOffset": 0,
            "byteLength": 24576,
            "target": 34962
        },
        {
            "buffer": 0,
            "byteOffset": 24576,
            "byteLength": 24576,
            "target": 34962
        },
        {
            "buffer": 0,
            "byteOffset": 49152,
            "byteLength": 16384,
            "target": 34962
        },
        {
            "buffer": 0,
            "byteOffset": 65536,
            "byteLength": 20928,
            "target": 34963
        }
    ],
    "buffers": [
        {
            "byteLength": 86464,
            "uri": "g-o-d_binary.bin"
        }
    ],
    "cameras": [
        {
            "perspective": {
                "znear": 0.00005302693534758873,
                "yfov": 0.6024156808853149,
                "zfar": 2.9164812564849855,
                "aspectRatio": 1.3333333730697632
            },
            "type": "perspective",
            "name": "render_camera"
        }
    ],
    "images": [
        {
            "name": "basecolor_image_texture",
            "uri": "g-o-d_images/basecolor_image_texture.jpg",
            "mimeType": "image/jpeg"
        },
        {
            "name": "roughness_image_texture",
            "uri": "g-o-d_images/roughness_image_texture.png",
            "mimeType": "image/png"
        },
        {
            "name": "normal_image_texture",
            "uri": "g-o-d_images/normal_image_texture.png",
            "mimeType": "image/png"
        }
    ],
    "materials": [
        {
            "pbrMetallicRoughness": {
                "baseColorTexture": {
                    "index": 0
                },
                "metallicFactor": 0.0,
                "metallicRoughnessTexture": {
                    "index": 1
                }
            },
            "normalTexture": {
                "index": 2
            },
            "name": "Wood Parquet",
            "doubleSided": true
        }
    ],
    "meshes": [
        {
            "name": "Path",
            "primitives": [
                {
                    "attributes": {
                        "POSITION": 0,
                        "NORMAL": 1,
                        "TEXCOORD_0": 2
                    },
                    "indices": 3,
                    "material": 0
                }
            ]
        }
    ],
    "nodes": [
        {
            "translation": [
                1.3620046377182007,
                0.2949998676776886,
                1.3522409200668336
            ],
            "rotation": [
                -0.12059047073125839,
                0.379409521818161,
                0.04995020851492882,
                0.9159756302833557
            ],
            "scale": [
                1.0,
                1.0,
                0.9999999403953552
            ],
            "camera": 0,
            "name": "render_camera_n3d"
        },
        {
            "translation": [
                -0.06153915449976921,
                -0.00012685447291005403,
                0.021108092740178109
            ],
            "rotation": [
                -2.293268508424262e-8,
                0.8197454214096069,
                -1.5447319867689658e-8,
                0.5727280974388123
            ],
            "scale": [
                0.07267557829618454,
                0.07267560809850693,
                0.07267560064792633
            ],
            "mesh": 0,
            "name": "GOO"
        }
    ],
    "samplers": [
        {},
        {},
        {}
    ],
    "scenes": [
        {
            "nodes": [
                0,
                1
            ],
            "name": "scene"
        }
    ],
    "textures": [
        {
            "name": "basecolor_image_texture",
            "sampler": 0,
            "source": 0
        },
        {
            "name": "roughness_image_texture",
            "sampler": 1,
            "source": 1
        },
        {
            "name": "normal_image_texture",
            "sampler": 2,
            "source": 2
        }
    ],
    "scene": 0
}