<svg width="296" height="89" viewBox="0 0 296 89" fill="none" xmlns="http://www.w3.org/2000/svg">
<g id="crows+logo">
<g id="KBLLR">
<rect width="196.846" height="47.8613" transform="translate(56.668 21.5)" fill="black" fill-opacity="0.8"/>
<g id="Group" style="mix-blend-mode:overlay" opacity="0.5">
<g id="Vector" style="mix-blend-mode:overlay" opacity="0.5">
<path d="M230.053 23.066C230.238 23.066 230.391 22.8294 230.421 22.5187H235.166L242.329 35.1058H248.655C248.685 35.4165 248.838 35.653 249.023 35.653C249.229 35.653 249.397 35.3598 249.397 34.9968C249.397 34.6337 249.23 34.3405 249.023 34.3405C248.838 34.3405 248.685 34.577 248.655 34.8877H242.381L235.218 22.3007H230.421C230.391 21.99 230.238 21.7534 230.053 21.7534C229.847 21.7534 229.68 22.0467 229.68 22.4097C229.68 22.7727 229.847 23.066 230.053 23.066V23.066Z" fill="white"/>
</g>
<g id="Vector_2" style="mix-blend-mode:overlay" opacity="0.5">
<path d="M242.858 31.2442C243.043 31.2442 243.196 31.0076 243.226 30.6969H244.029L245.437 33.1716H248.656C248.686 33.4823 248.839 33.7189 249.024 33.7189C249.23 33.7189 249.397 33.4256 249.397 33.0626C249.397 32.6996 249.23 32.4063 249.024 32.4063C248.839 32.4063 248.686 32.6429 248.656 32.9536H245.489L244.081 30.4789H243.226C243.196 30.1682 243.043 29.9316 242.858 29.9316C242.652 29.9316 242.484 30.2249 242.484 30.5879C242.484 30.9509 242.651 31.2442 242.858 31.2442V31.2442Z" fill="white"/>
</g>
<g id="Vector_3" style="mix-blend-mode:overlay" opacity="0.5">
<path d="M245.847 42.2746H248.477C248.506 42.5853 248.66 42.8218 248.845 42.8218C249.05 42.8218 249.218 42.5286 249.218 42.1656C249.218 41.8025 249.051 41.5093 248.845 41.5093C248.66 41.5093 248.506 41.7458 248.477 42.0565H245.847C245.817 41.7458 245.664 41.5093 245.479 41.5093C245.273 41.5093 245.105 41.8025 245.105 42.1656C245.105 42.5286 245.272 42.8218 245.479 42.8218C245.664 42.8218 245.817 42.5853 245.847 42.2746Z" fill="white"/>
</g>
<g id="Vector_4" style="mix-blend-mode:overlay" opacity="0.5">
<path d="M228.887 33.9327C229.072 33.9327 229.225 33.6961 229.255 33.3854H234.291L239.35 42.2746H241.354C241.384 42.5853 241.537 42.8219 241.722 42.8219C241.928 42.8219 242.096 42.5286 242.096 42.1656C242.096 41.8026 241.929 41.5093 241.722 41.5093C241.537 41.5093 241.384 41.7459 241.354 42.0566H239.401L234.343 33.1674H229.255C229.225 32.8567 229.072 32.6201 228.887 32.6201C228.681 32.6201 228.514 32.9134 228.514 33.2764C228.514 33.6394 228.681 33.9327 228.887 33.9327V33.9327Z" fill="white"/>
</g>
<g id="Vector_5" style="mix-blend-mode:overlay" opacity="0.5">
<path d="M212.166 48.1081H207.667C207.637 47.7974 207.484 47.5608 207.299 47.5608C207.093 47.5608 206.926 47.8541 206.926 48.2171C206.926 48.5801 207.093 48.8734 207.299 48.8734C207.484 48.8734 207.637 48.6368 207.667 48.3261H212.217L220.719 33.3854H224.857C224.887 33.6961 225.04 33.9327 225.225 33.9327C225.431 33.9327 225.599 33.6394 225.599 33.2764C225.599 32.9134 225.432 32.6201 225.225 32.6201C225.04 32.6201 224.887 32.8567 224.857 33.1674H220.668L212.166 48.1081V48.1081Z" fill="white"/>
</g>
<g id="Vector_6" style="mix-blend-mode:overlay" opacity="0.5">
<path d="M225.914 40.3406L229.451 46.5556H236.306L241.352 55.423H244.364C244.394 55.7337 244.547 55.9703 244.732 55.9703C244.938 55.9703 245.105 55.6771 245.105 55.314C245.105 54.951 244.938 54.6577 244.732 54.6577C244.547 54.6577 244.394 54.8943 244.364 55.205H241.403L236.357 46.3376H229.502L225.965 40.1226H220.783L216.743 47.2206C216.597 47.0386 216.395 47.0604 216.264 47.2904C216.118 47.5466 216.118 47.9619 216.264 48.2181C216.409 48.4743 216.646 48.4743 216.792 48.2181C216.922 47.9881 216.935 47.6316 216.831 47.3754L220.834 40.3417H225.914L225.914 40.3406Z" fill="white"/>
</g>
<g id="Vector_7" style="mix-blend-mode:overlay" opacity="0.5">
<path d="M239.395 48.9036C239.541 49.1598 239.777 49.1598 239.923 48.9036C240.069 48.6474 240.069 48.2321 239.923 47.9759C239.792 47.7458 239.589 47.724 239.444 47.9061L236.211 42.2263H231.938L228.538 36.2533H222.601C222.571 35.9426 222.418 35.7061 222.233 35.7061C222.027 35.7061 221.859 35.9993 221.859 36.3623C221.859 36.7254 222.026 37.0186 222.233 37.0186C222.418 37.0186 222.571 36.782 222.601 36.4713H228.487L231.886 42.4444H236.16L239.356 48.0609C239.252 48.3171 239.265 48.6736 239.396 48.9036H239.395Z" fill="white"/>
</g>
<g id="Vector_8" style="mix-blend-mode:overlay" opacity="0.5">
<path d="M249.252 54.112C249.398 53.8559 249.398 53.4405 249.252 53.1843C249.121 52.9543 248.918 52.9325 248.773 53.1145L246.315 48.7953H243.226C243.196 48.4846 243.043 48.248 242.858 48.248C242.652 48.248 242.484 48.5413 242.484 48.9043C242.484 49.2674 242.651 49.5606 242.858 49.5606C243.043 49.5606 243.196 49.324 243.226 49.0133H246.263L248.684 53.2683C248.581 53.5244 248.593 53.8809 248.724 54.111C248.87 54.3672 249.106 54.3672 249.252 54.111V54.112Z" fill="white"/>
</g>
<g id="Vector_9" style="mix-blend-mode:overlay" opacity="0.5">
<path d="M239.013 63.2485C239.159 63.5047 239.396 63.5047 239.541 63.2485C239.687 62.9923 239.687 62.577 239.541 62.3208C239.41 62.0907 239.208 62.0689 239.062 62.251L233.203 51.9555H227.589C227.559 51.6448 227.406 51.4082 227.221 51.4082C227.015 51.4082 226.848 51.7015 226.848 52.0645C226.848 52.4275 227.015 52.7208 227.221 52.7208C227.406 52.7208 227.559 52.4842 227.589 52.1735H233.151L238.974 62.4047C238.87 62.6609 238.883 63.0174 239.013 63.2474V63.2485Z" fill="white"/>
</g>
<g id="Vector_10" style="mix-blend-mode:overlay" opacity="0.5">
<path d="M242.838 63.9034C243.023 63.9034 243.176 63.6668 243.206 63.3561H248.442C248.472 63.6668 248.625 63.9034 248.81 63.9034C249.016 63.9034 249.184 63.6101 249.184 63.2471C249.184 62.8841 249.017 62.5908 248.81 62.5908C248.625 62.5908 248.472 62.8274 248.442 63.1381H243.206C243.176 62.8274 243.023 62.5908 242.838 62.5908C242.632 62.5908 242.465 62.8841 242.465 63.2471C242.465 63.6101 242.632 63.9034 242.838 63.9034Z" fill="white"/>
</g>
<g id="Vector_11" style="mix-blend-mode:overlay" opacity="0.5">
<path d="M249.701 65.7448C249.516 65.7448 249.363 65.9814 249.333 66.2921H237.668L234.568 60.8434C234.671 60.5872 234.659 60.2308 234.528 60.0007C234.382 59.7445 234.146 59.7445 234 60.0007C233.854 60.2569 233.854 60.6723 234 60.9285C234.131 61.1585 234.334 61.1803 234.48 60.9982L237.616 66.5101H249.333C249.363 66.8208 249.516 67.0574 249.701 67.0574C249.907 67.0574 250.074 66.7641 250.074 66.4011C250.074 66.0381 249.907 65.7448 249.701 65.7448H249.701Z" fill="white"/>
</g>
<g id="Vector_12" style="mix-blend-mode:overlay" opacity="0.5">
<path d="M223.277 52.1735H224.421C224.45 52.4842 224.604 52.7208 224.789 52.7208C224.994 52.7208 225.162 52.4275 225.162 52.0645C225.162 51.7015 224.995 51.4082 224.789 51.4082C224.604 51.4082 224.45 51.6448 224.421 51.9555H223.226L214.626 67.0674H207.667C207.637 66.7567 207.484 66.5201 207.299 66.5201C207.093 66.5201 206.926 66.8133 206.926 67.1764C206.926 67.5394 207.093 67.8326 207.299 67.8326C207.484 67.8326 207.637 67.5961 207.667 67.2854H214.677L223.277 52.1735V52.1735Z" fill="white"/>
</g>
<g id="Vector_13" style="mix-blend-mode:overlay" opacity="0.5">
<path d="M227.994 58.7041C227.809 58.7041 227.655 58.9407 227.626 59.2514H225.71L220.28 68.7947H217.55C217.52 68.484 217.367 68.2474 217.182 68.2474C216.976 68.2474 216.809 68.5407 216.809 68.9037C216.809 69.2667 216.975 69.56 217.182 69.56C217.367 69.56 217.52 69.3234 217.55 69.0127H220.331L225.762 59.4694H227.626C227.655 59.7801 227.809 60.0167 227.994 60.0167C228.199 60.0167 228.367 59.7234 228.367 59.3604C228.367 58.9974 228.2 58.7041 227.994 58.7041Z" fill="white"/>
</g>
<g id="Vector_14" style="mix-blend-mode:overlay" opacity="0.5">
<path d="M144.557 41.6377C144.351 41.6377 144.184 41.931 144.184 42.294C144.184 42.657 144.35 42.9503 144.557 42.9503C144.742 42.9503 144.895 42.7137 144.925 42.403H157.2L166.026 26.8932H170.613C170.643 27.2039 170.796 27.4405 170.981 27.4405C171.187 27.4405 171.355 27.1472 171.355 26.7842C171.355 26.4212 171.188 26.1279 170.981 26.1279C170.796 26.1279 170.643 26.3645 170.613 26.6752H165.975L157.148 42.185H144.924C144.895 41.8743 144.741 41.6377 144.556 41.6377H144.557Z" fill="white"/>
</g>
<g id="Vector_15" style="mix-blend-mode:overlay" opacity="0.5">
<path d="M171.315 28.4536C171.109 28.4536 170.941 28.7469 170.941 29.1099C170.941 29.4729 171.108 29.7662 171.315 29.7662C171.5 29.7662 171.653 29.5296 171.683 29.2189H179.366L190.462 48.7165H194.822C194.852 49.0272 195.005 49.2638 195.19 49.2638C195.396 49.2638 195.563 48.9705 195.563 48.6075C195.563 48.2445 195.396 47.9512 195.19 47.9512C195.005 47.9512 194.852 48.1878 194.822 48.4985H190.513L179.418 29.0009H171.683C171.654 28.6902 171.5 28.4536 171.316 28.4536H171.315Z" fill="white"/>
</g>
<g id="Vector_16" style="mix-blend-mode:overlay" opacity="0.5">
<path d="M206.149 34.1628H213.253C213.282 34.4735 213.436 34.71 213.621 34.71C213.827 34.71 213.994 34.4168 213.994 34.0537C213.994 33.6907 213.827 33.3975 213.621 33.3975C213.436 33.3975 213.282 33.634 213.253 33.9447H206.098L200.128 44.4354H195.183L191.947 38.7491H188.292C188.262 38.4384 188.109 38.2018 187.924 38.2018C187.718 38.2018 187.551 38.4951 187.551 38.8581C187.551 39.2211 187.718 39.5144 187.924 39.5144C188.109 39.5144 188.262 39.2778 188.292 38.9671H191.896L195.132 44.6534H200.179L206.149 34.1628H206.149Z" fill="white"/>
</g>
<g id="Vector_17" style="mix-blend-mode:overlay" opacity="0.5">
<path d="M190.141 41.5398C189.995 41.2836 189.759 41.2836 189.613 41.5398C189.467 41.796 189.467 42.2113 189.613 42.4675C189.744 42.6976 189.947 42.7194 190.093 42.5373L192.242 46.3147H197.581C197.611 46.6254 197.764 46.862 197.949 46.862C198.155 46.862 198.323 46.5687 198.323 46.2057C198.323 45.8427 198.156 45.5494 197.949 45.5494C197.764 45.5494 197.611 45.786 197.581 46.0967H192.294L190.181 42.3836C190.284 42.1274 190.272 41.7709 190.141 41.5409V41.5398Z" fill="white"/>
</g>
<g id="Vector_18" style="mix-blend-mode:overlay" opacity="0.5">
<path d="M195.282 37.2055C195.386 36.9493 195.374 36.5928 195.243 36.3628C195.097 36.1066 194.861 36.1066 194.715 36.3628C194.569 36.619 194.569 37.0343 194.715 37.2905C194.846 37.5205 195.049 37.5423 195.194 37.3603L196.98 40.4978H200.277L205.044 32.121H213.728L218.225 24.2194C218.371 24.4015 218.574 24.3797 218.704 24.1497C218.85 23.8935 218.85 23.4781 218.704 23.2219C218.559 22.9657 218.322 22.9657 218.177 23.2219C218.046 23.452 218.033 23.8084 218.137 24.0646L213.676 31.9018H204.991L200.224 40.2787H197.03L195.281 37.2055H195.282Z" fill="white"/>
</g>
<g id="Vector_19" style="mix-blend-mode:overlay" opacity="0.5">
<path d="M180.985 26.335L186.821 36.5891H191.334L193.995 31.9134H198.781C198.81 32.2241 198.964 32.4607 199.148 32.4607C199.354 32.4607 199.522 32.1674 199.522 31.8044C199.522 31.4414 199.355 31.1481 199.148 31.1481C198.964 31.1481 198.81 31.3847 198.781 31.6954H193.943L191.283 36.3711H186.872L181.073 26.1813C181.177 25.9251 181.165 25.5687 181.034 25.3386C180.888 25.0824 180.652 25.0824 180.506 25.3386C180.36 25.5948 180.36 26.0102 180.506 26.2664C180.637 26.4964 180.84 26.5182 180.985 26.3361V26.335Z" fill="white"/>
</g>
<g id="Vector_20" style="mix-blend-mode:overlay" opacity="0.5">
<path d="M214.274 53.3379C214.48 53.3379 214.648 53.0447 214.648 52.6817C214.648 52.3186 214.481 52.0254 214.274 52.0254C214.09 52.0254 213.936 52.262 213.907 52.5726H202.384L198.736 58.9839H189.032L186.736 54.9481C186.839 54.6919 186.827 54.3354 186.696 54.1054C186.55 53.8492 186.314 53.8492 186.168 54.1054C186.022 54.3616 186.022 54.777 186.168 55.0332C186.299 55.2632 186.502 55.285 186.647 55.1029L188.98 59.2019H198.786L202.434 52.7907H213.905C213.935 53.1014 214.088 53.3379 214.273 53.3379H214.274Z" fill="white"/>
</g>
<g id="Vector_21" style="mix-blend-mode:overlay" opacity="0.5">
<path d="M183.6 50.6994C183.746 50.9556 183.983 50.9556 184.128 50.6994C184.274 50.4432 184.274 50.0278 184.128 49.7717C183.997 49.5416 183.795 49.5198 183.649 49.7019L178.482 40.6219H172.402L170.642 37.528C170.745 37.2718 170.733 36.9153 170.602 36.6853C170.456 36.4291 170.22 36.4291 170.074 36.6853C169.928 36.9415 169.928 37.3568 170.074 37.613C170.205 37.8431 170.408 37.8649 170.554 37.6828L172.35 40.8399H178.43L183.561 49.8567C183.457 50.1129 183.47 50.4694 183.6 50.6994V50.6994Z" fill="white"/>
</g>
<g id="Vector_22" style="mix-blend-mode:overlay" opacity="0.5">
<path d="M210.96 59.7293L212.435 57.1369C212.581 57.319 212.784 57.2972 212.915 57.0671C213.06 56.811 213.06 56.3956 212.915 56.1394C212.769 55.8832 212.532 55.8832 212.387 56.1394C212.256 56.3694 212.243 56.7259 212.347 56.9821L210.908 59.5113H203.589C203.559 59.2006 203.406 58.964 203.221 58.964C203.015 58.964 202.848 59.2573 202.848 59.6203C202.848 59.9833 203.015 60.2766 203.221 60.2766C203.406 60.2766 203.559 60.04 203.589 59.7293H210.959H210.96Z" fill="white"/>
</g>
<g id="Vector_23" style="mix-blend-mode:overlay" opacity="0.5">
<path d="M149.81 61.6434C149.625 61.6434 149.471 61.88 149.442 62.1907H141.567L135.494 51.518H132.64C132.61 51.2073 132.457 50.9707 132.272 50.9707C132.066 50.9707 131.898 51.264 131.898 51.627C131.898 51.99 132.065 52.2833 132.272 52.2833C132.457 52.2833 132.61 52.0467 132.64 51.736H135.443L141.516 62.4087H149.442C149.472 62.7194 149.625 62.956 149.81 62.956C150.016 62.956 150.184 62.6627 150.184 62.2997C150.184 61.9367 150.017 61.6434 149.81 61.6434H149.81Z" fill="white"/>
</g>
<g id="Vector_24" style="mix-blend-mode:overlay" opacity="0.5">
<path d="M182.879 66.5914C182.694 66.5914 182.541 66.8279 182.511 67.1386H178.061L172.424 57.2334H158.44L156.124 61.303C155.978 61.1209 155.775 61.1427 155.644 61.3728C155.499 61.629 155.499 62.0443 155.644 62.3005C155.79 62.5567 156.027 62.5567 156.172 62.3005C156.303 62.0705 156.316 61.714 156.212 61.4578L158.491 57.4525H172.373L178.01 67.3578H182.511C182.541 67.6685 182.695 67.905 182.879 67.905C183.085 67.905 183.253 67.6118 183.253 67.2488C183.253 66.8857 183.086 66.5925 182.879 66.5925L182.879 66.5914Z" fill="white"/>
</g>
<g id="Vector_25" style="mix-blend-mode:overlay" opacity="0.5">
<path d="M191.985 68.7219C191.8 68.7219 191.647 68.9584 191.617 69.2691H186.214L174.464 48.6225H163.525C163.495 48.3118 163.342 48.0752 163.157 48.0752C162.951 48.0752 162.783 48.3685 162.783 48.7315C162.783 49.0945 162.95 49.3878 163.157 49.3878C163.342 49.3878 163.495 49.1512 163.525 48.8405H174.413L186.162 69.4872H191.617C191.647 69.7978 191.8 70.0344 191.985 70.0344C192.191 70.0344 192.358 69.7412 192.358 69.3781C192.358 69.0151 192.191 68.7219 191.985 68.7219H191.985Z" fill="white"/>
</g>
<g id="Vector_26" style="mix-blend-mode:overlay" opacity="0.5">
<path d="M139.328 42.4022H141.478C141.507 42.7129 141.661 42.9495 141.846 42.9495C142.052 42.9495 142.219 42.6562 142.219 42.2932C142.219 41.9302 142.052 41.6369 141.846 41.6369C141.661 41.6369 141.507 41.8735 141.478 42.1842H139.379L136.72 37.5117H131.606L126.909 45.7654C126.763 45.5833 126.561 45.6051 126.43 45.8351C126.284 46.0913 126.284 46.5067 126.43 46.7629C126.575 47.0191 126.812 47.0191 126.958 46.7629C127.088 46.5328 127.101 46.1764 126.997 45.9202L131.658 37.7308H136.669L139.328 42.4033V42.4022Z" fill="white"/>
</g>
<g id="Vector_27" style="mix-blend-mode:overlay" opacity="0.5">
<path d="M141.573 46.8614C141.758 46.8614 141.911 46.6248 141.941 46.3141H143.359L147.786 54.0925H152.794C152.823 54.4032 152.977 54.6397 153.161 54.6397C153.367 54.6397 153.535 54.3465 153.535 53.9834C153.535 53.6204 153.368 53.3272 153.161 53.3272C152.977 53.3272 152.823 53.5637 152.794 53.8744H147.837L143.411 46.0961H141.941C141.911 45.7854 141.758 45.5488 141.573 45.5488C141.367 45.5488 141.199 45.8421 141.199 46.2051C141.199 46.5681 141.366 46.8614 141.573 46.8614V46.8614Z" fill="white"/>
</g>
<g id="Vector_28" style="mix-blend-mode:overlay" opacity="0.5">
<path d="M156.846 50.997H161.337C161.367 51.3077 161.52 51.5442 161.705 51.5442C161.911 51.5442 162.079 51.251 162.079 50.8879C162.079 50.5249 161.912 50.2317 161.705 50.2317C161.52 50.2317 161.367 50.4682 161.337 50.7789H156.897L155.669 48.6215H149.222C149.192 48.3108 149.039 48.0742 148.854 48.0742C148.648 48.0742 148.48 48.3675 148.48 48.7305C148.48 49.0935 148.647 49.3868 148.854 49.3868C149.039 49.3868 149.192 49.1502 149.222 48.8395H155.618L156.846 50.997Z" fill="white"/>
</g>
<g id="Vector_29" style="mix-blend-mode:overlay" opacity="0.5">
<path d="M134.698 28.3467C134.492 28.3467 134.324 28.6399 134.324 29.003C134.324 29.366 134.491 29.6592 134.698 29.6592C134.883 29.6592 135.036 29.4227 135.066 29.112H144.075L147.754 35.5767H151.847C151.877 35.8874 152.03 36.1239 152.215 36.1239C152.421 36.1239 152.588 35.8307 152.588 35.4676C152.588 35.1046 152.421 34.8114 152.215 34.8114C152.03 34.8114 151.877 35.0479 151.847 35.3586H147.806L144.127 28.8939H135.066C135.036 28.5832 134.883 28.3467 134.698 28.3467H134.698Z" fill="white"/>
</g>
<g id="Vector_30" style="mix-blend-mode:overlay" opacity="0.5">
<path d="M120.508 42.5093H115.259L113.493 39.4067H107.125L104.769 43.5471C104.623 43.3651 104.42 43.3869 104.289 43.6169C104.143 43.8731 104.143 44.2884 104.289 44.5446C104.435 44.8008 104.671 44.8008 104.817 44.5446C104.948 44.3146 104.96 43.9581 104.857 43.7019L107.176 39.6258H113.442L115.208 42.7284H120.559L131.008 24.3678H136.547C136.576 24.6785 136.73 24.9151 136.914 24.9151C137.12 24.9151 137.288 24.6218 137.288 24.2588C137.288 23.8958 137.121 23.6025 136.914 23.6025C136.73 23.6025 136.576 23.8391 136.547 24.1498H130.956L120.508 42.5104V42.5093Z" fill="white"/>
</g>
<g id="Vector_31" style="mix-blend-mode:overlay" opacity="0.5">
<path d="M142.59 64.6164C142.459 64.8464 142.446 65.2029 142.55 65.4591L140.605 68.8768H127.336L124.646 64.1498H108.675C108.645 63.8391 108.492 63.6025 108.307 63.6025C108.101 63.6025 107.934 63.8958 107.934 64.2588C107.934 64.6218 108.1 64.9151 108.307 64.9151C108.492 64.9151 108.645 64.6785 108.675 64.3678H124.595L127.285 69.0948H140.656L142.638 65.6128C142.784 65.7949 142.987 65.7731 143.117 65.543C143.263 65.2869 143.263 64.8715 143.117 64.6153C142.972 64.3591 142.735 64.3591 142.59 64.6153V64.6164Z" fill="white"/>
</g>
<g id="Vector_32" style="mix-blend-mode:overlay" opacity="0.5">
<path d="M136.547 65.1017H129.692L127.043 60.4467H116.759C116.729 60.136 116.576 59.8994 116.391 59.8994C116.185 59.8994 116.018 60.1927 116.018 60.5557C116.018 60.9187 116.184 61.212 116.391 61.212C116.576 61.212 116.729 60.9754 116.759 60.6647H126.992L129.641 65.3197H136.547C136.577 65.6304 136.73 65.867 136.915 65.867C137.121 65.867 137.289 65.5737 137.289 65.2107C137.289 64.8477 137.122 64.5544 136.915 64.5544C136.73 64.5544 136.577 64.791 136.547 65.1017Z" fill="white"/>
</g>
<g id="Vector_33" style="mix-blend-mode:overlay" opacity="0.5">
<path d="M136.272 59.495L134.507 56.3935H129.136C129.106 56.0828 128.953 55.8462 128.768 55.8462C128.562 55.8462 128.395 56.1394 128.395 56.5025C128.395 56.8655 128.561 57.1587 128.768 57.1587C128.953 57.1587 129.106 56.9222 129.136 56.6115H134.456L136.184 59.6487C136.08 59.9049 136.093 60.2614 136.224 60.4914C136.37 60.7476 136.606 60.7476 136.752 60.4914C136.898 60.2352 136.898 59.8198 136.752 59.5637C136.621 59.3336 136.418 59.3118 136.272 59.4939V59.495Z" fill="white"/>
</g>
<g id="Vector_34" style="mix-blend-mode:overlay" opacity="0.5">
<path d="M173.629 63.7169C173.444 63.7169 173.291 63.9535 173.261 64.2642H171.467L169.475 60.7637H161.372L157.744 67.139H153.327C153.298 66.8283 153.144 66.5917 152.959 66.5917C152.753 66.5917 152.586 66.885 152.586 67.248C152.586 67.611 152.753 67.9043 152.959 67.9043C153.144 67.9043 153.298 67.6677 153.327 67.357H157.796L161.424 60.9817H169.424L171.416 64.4822H173.262C173.291 64.7929 173.445 65.0295 173.629 65.0295C173.835 65.0295 174.003 64.7362 174.003 64.3732C174.003 64.0102 173.836 63.7169 173.629 63.7169H173.629Z" fill="white"/>
</g>
<g id="Vector_35" style="mix-blend-mode:overlay" opacity="0.5">
<path d="M60.9581 25.7619C61.143 25.7619 61.2962 25.5253 61.326 25.2146H69.6428L70.8514 23.091C70.9971 23.2731 71.2 23.2513 71.3309 23.0212C71.4767 22.765 71.4767 22.3497 71.3309 22.0935C71.1851 21.8373 70.9488 21.8373 70.803 22.0935C70.6721 22.3235 70.6597 22.68 70.7633 22.9362L69.5907 24.9966H61.3253C61.2956 24.6859 61.1423 24.4494 60.9575 24.4494C60.7515 24.4494 60.584 24.7426 60.584 25.1056C60.584 25.4687 60.7509 25.7619 60.9575 25.7619H60.9581Z" fill="white"/>
</g>
<g id="Vector_36" style="mix-blend-mode:overlay" opacity="0.5">
<path d="M78.6411 67.3812C78.8471 67.3812 79.0146 67.0879 79.0146 66.7249C79.0146 66.3618 78.8477 66.0686 78.6411 66.0686C78.4562 66.0686 78.303 66.3052 78.2732 66.6159H73.0086L70.2262 61.7265H62.0539C62.0241 61.4158 61.8708 61.1792 61.686 61.1792C61.48 61.1792 61.3125 61.4725 61.3125 61.8355C61.3125 62.1985 61.4794 62.4918 61.686 62.4918C61.8708 62.4918 62.0241 62.2552 62.0539 61.9445H70.1741L72.9565 66.8339H78.2726C78.3024 67.1446 78.4556 67.3812 78.6405 67.3812H78.6411Z" fill="white"/>
</g>
<g id="Vector_37" style="mix-blend-mode:overlay" opacity="0.5">
<path d="M82.811 67.3814C82.9958 67.3814 83.1491 67.1448 83.1789 66.8341H87.8541L92.5231 58.6295H99.4708C99.5006 58.9402 99.6538 59.1768 99.8387 59.1768C100.045 59.1768 100.212 58.8836 100.212 58.5205C100.212 58.1575 100.045 57.8643 99.8387 57.8643C99.6538 57.8643 99.5006 58.1008 99.4708 58.4115H92.4716L87.8026 66.6161H83.1789C83.1491 66.3054 82.9958 66.0688 82.811 66.0688C82.605 66.0688 82.4375 66.3621 82.4375 66.7251C82.4375 67.0881 82.6044 67.3814 82.811 67.3814V67.3814Z" fill="white"/>
</g>
<g id="Vector_38" style="mix-blend-mode:overlay" opacity="0.5">
<path d="M66.9288 64.614C66.7979 64.844 66.7855 65.2005 66.8891 65.4567L65.9319 67.1388H62.0539C62.0241 66.8281 61.8708 66.5916 61.686 66.5916C61.48 66.5916 61.3125 66.8848 61.3125 67.2479C61.3125 67.6109 61.4794 67.9041 61.686 67.9041C61.8708 67.9041 62.0241 67.6676 62.0539 67.3569H65.9834L66.9766 65.6115C67.1224 65.7936 67.3253 65.7718 67.4562 65.5417C67.602 65.2856 67.602 64.8702 67.4562 64.614C67.3104 64.3578 67.074 64.3578 66.9282 64.614H66.9288Z" fill="white"/>
</g>
<g id="Vector_39" style="mix-blend-mode:overlay" opacity="0.5">
<path d="M112.658 66.7278C112.473 66.7278 112.32 66.9644 112.29 67.2751H97.6754L94.7317 62.1022C94.8353 61.846 94.8229 61.4895 94.692 61.2595C94.5462 61.0033 94.3098 61.0033 94.164 61.2595C94.0182 61.5157 94.0182 61.9311 94.164 62.1873C94.2949 62.4173 94.4978 62.4391 94.6436 62.257L97.6239 67.4942H112.29C112.32 67.8049 112.473 68.0414 112.658 68.0414C112.864 68.0414 113.031 67.7482 113.031 67.3852C113.031 67.0221 112.864 66.7289 112.658 66.7289V66.7278Z" fill="white"/>
</g>
<g id="Vector_40" style="mix-blend-mode:overlay" opacity="0.5">
<path d="M92.0004 65.0251C91.8695 65.2552 91.8571 65.6117 91.9607 65.8678L89.437 70.3026H75.5304C75.5006 69.9919 75.3474 69.7554 75.1625 69.7554C74.9566 69.7554 74.7891 70.0486 74.7891 70.4117C74.7891 70.7747 74.9559 71.0679 75.1625 71.0679C75.3474 71.0679 75.5006 70.8314 75.5304 70.5207H89.4891L92.0488 66.0226C92.1946 66.2047 92.3974 66.1829 92.5283 65.9529C92.6741 65.6967 92.6741 65.2813 92.5283 65.0251C92.3826 64.769 92.1462 64.769 92.0004 65.0251Z" fill="white"/>
</g>
<g id="Vector_41" style="mix-blend-mode:overlay" opacity="0.5">
<path d="M91.8037 25.3272L96.1837 33.0238H104.68L106.962 29.0142H123.144C123.174 29.3249 123.327 29.5614 123.512 29.5614C123.718 29.5614 123.886 29.2682 123.886 28.9052C123.886 28.5421 123.719 28.2489 123.512 28.2489C123.327 28.2489 123.174 28.4854 123.144 28.7961H106.911L104.629 32.8058H96.2352L91.8918 25.1735C91.9954 24.9173 91.983 24.5608 91.8521 24.3308C91.7063 24.0746 91.47 24.0746 91.3242 24.3308C91.1784 24.587 91.1784 25.0024 91.3242 25.2585C91.4551 25.4886 91.658 25.5104 91.8037 25.3283V25.3272Z" fill="white"/>
</g>
<g id="Vector_42" style="mix-blend-mode:overlay" opacity="0.5">
<path d="M101.535 29.9322C101.693 29.7229 101.729 29.337 101.622 29.0503C102.351 27.8053 103.528 25.565 103.689 25.2565H118.773C118.803 25.5672 118.956 25.8038 119.141 25.8038C119.347 25.8038 119.515 25.5105 119.515 25.1475C119.515 24.7845 119.348 24.4912 119.141 24.4912C118.956 24.4912 118.803 24.7278 118.773 25.0385H103.635L103.616 25.0734C103.601 25.1017 102.315 27.5644 101.539 28.89C101.409 28.7134 101.223 28.7025 101.086 28.8846C100.922 29.1026 100.888 29.5136 101.012 29.8036C101.137 30.0936 101.37 30.1514 101.535 29.9333L101.535 29.9322Z" fill="white"/>
</g>
<g id="Vector_43" style="mix-blend-mode:overlay" opacity="0.5">
<path d="M101.294 42.8483C101.5 42.8483 101.668 42.5551 101.668 42.192C101.668 41.829 101.501 41.5358 101.294 41.5358C101.109 41.5358 100.956 41.7723 100.926 42.083H94.5544L86.0322 27.1074H78.5498L73.3249 36.2888H61.6164C61.5866 35.9781 61.4333 35.7415 61.2485 35.7415C61.0425 35.7415 60.875 36.0348 60.875 36.3978C60.875 36.7608 61.0419 37.0541 61.2485 37.0541C61.4333 37.0541 61.5866 36.8175 61.6164 36.5068H73.3776L78.6025 27.3255H85.982L94.5042 42.3011H100.928C100.957 42.6118 101.111 42.8483 101.296 42.8483H101.294Z" fill="white"/>
</g>
<g id="Vector_44" style="mix-blend-mode:overlay" opacity="0.5">
<path d="M88.1181 36.0674C87.9345 36.0609 87.7794 36.2887 87.7446 36.5951C83.7624 36.4326 83.258 36.5624 83.1711 36.6365C83.0012 36.5482 82.1041 34.8792 81.3193 33.2842L81.3007 33.2461H78.0778L73.7438 40.862H62.0539C62.0241 40.5513 61.8708 40.3147 61.686 40.3147C61.48 40.3147 61.3125 40.608 61.3125 40.971C61.3125 41.334 61.4794 41.6273 61.686 41.6273C61.8708 41.6273 62.0241 41.3907 62.0539 41.08H73.7953L78.1293 33.4641H81.2442C81.6593 34.3057 82.9286 36.8415 83.1742 36.8578C83.1978 36.86 83.2189 36.8469 83.235 36.824C83.3908 36.7128 85.1402 36.7095 87.7415 36.8142C87.7663 37.1282 87.9171 37.3735 88.1032 37.38C88.3092 37.3876 88.4798 37.0998 88.4841 36.7379C88.4885 36.376 88.3247 36.0762 88.1187 36.0685L88.1181 36.0674Z" fill="white"/>
</g>
<g id="Vector_45" style="mix-blend-mode:overlay" opacity="0.5">
<path d="M105.437 52.6797L106.886 54.8199H114.149L120.495 45.4464H133.478C133.514 45.7565 133.696 45.9926 133.915 45.9926C134.16 45.9926 134.359 45.6999 134.359 45.3376C134.359 44.9753 134.16 44.6826 133.915 44.6826C133.696 44.6826 133.514 44.9187 133.478 45.2288H120.434L114.087 54.6023H106.947L105.498 52.4621H101.503C101.468 52.152 101.286 51.9159 101.067 51.9159C100.822 51.9159 100.623 52.2086 100.623 52.5709C100.623 52.9332 100.821 53.2259 101.067 53.2259C101.286 53.2259 101.468 52.9898 101.503 52.6797H105.437Z" fill="white"/>
</g>
<g id="Vector_46" style="mix-blend-mode:overlay" opacity="0.5">
<path d="M68.7565 62.4648C68.5504 62.4648 68.3828 62.6951 68.3828 62.9801C68.3828 63.2651 68.5498 63.4953 68.7565 63.4953C68.9415 63.4953 69.0949 63.3096 69.1247 63.0656H80.6521L82.617 65.7744H88.8295C88.8593 66.0183 89.0127 66.204 89.1977 66.204C89.4038 66.204 89.5714 65.9738 89.5714 65.6888C89.5714 65.4038 89.4044 65.1736 89.1977 65.1736C89.0127 65.1736 88.8593 65.3593 88.8295 65.6032H82.6685L80.7036 62.8945H69.1247C69.0949 62.6506 68.9415 62.4648 68.7565 62.4648Z" fill="white"/>
</g>
<g id="Vector_47" style="mix-blend-mode:overlay">
<path d="M210.769 53.0752C210.435 53.0752 210.157 52.8236 210.087 52.4876H206.187L202.034 48.0088H194.586L190.651 52.2521H182.581L179.885 49.3445C179.615 49.5285 179.253 49.4937 179.018 49.2401C178.744 48.945 178.744 48.4672 179.018 48.1727C179.291 47.8776 179.734 47.8776 180.007 48.1727C180.243 48.427 180.275 48.8165 180.104 49.1083L182.709 51.9175H190.522L194.456 47.6742H202.162L206.315 52.1531H210.086C210.157 51.8165 210.435 51.5655 210.768 51.5655C211.155 51.5655 211.468 51.9034 211.468 52.3204C211.468 52.7373 211.155 53.0752 210.768 53.0752H210.769Z" fill="white"/>
</g>
<g id="Vector_48" style="mix-blend-mode:overlay" opacity="0.5">
<path d="M70.1896 49.9853H62.0539C62.0241 49.6746 61.8708 49.438 61.686 49.438C61.48 49.438 61.3125 49.7312 61.3125 50.0943C61.3125 50.4573 61.4794 50.7506 61.686 50.7506C61.8708 50.7506 62.0241 50.514 62.0539 50.2033H70.1381L74.1507 57.2545H81.8448L84.6079 52.3989C84.7537 52.5809 84.9566 52.5591 85.0875 52.3291C85.2333 52.0729 85.2333 51.6576 85.0875 51.4014C84.9417 51.1452 84.7053 51.1452 84.5596 51.4014C84.4287 51.6314 84.4162 51.9879 84.5198 52.2441L81.7926 57.0364H74.2016L70.189 49.9853H70.1896Z" fill="white"/>
</g>
<g id="Vector_49" style="mix-blend-mode:overlay" opacity="0.5">
<path d="M61.6164 45.7731H71.3049L75.5229 53.1851H78.0057C78.0355 53.4958 78.1887 53.7324 78.3736 53.7324C78.5795 53.7324 78.747 53.4392 78.747 53.0761C78.747 52.7131 78.5802 52.4198 78.3736 52.4198C78.1887 52.4198 78.0355 52.6564 78.0057 52.9671H75.5744L71.3564 45.5551H61.6164C61.5866 45.2444 61.4333 45.0078 61.2485 45.0078C61.0425 45.0078 60.875 45.3011 60.875 45.6641C60.875 46.0271 61.0419 46.3204 61.2485 46.3204C61.4333 46.3204 61.5866 46.0838 61.6164 45.7731Z" fill="white"/>
</g>
<g id="Vector_50" style="mix-blend-mode:overlay" opacity="0.5">
<path d="M62.0264 43.862C62.2113 43.862 62.3645 43.6254 62.3943 43.3147H75.0793L78.386 49.1253H83.3863L86.0546 44.4365C86.2003 44.6186 86.4032 44.5968 86.5341 44.3667C86.6799 44.1106 86.6799 43.6952 86.5341 43.439C86.3883 43.1828 86.152 43.1828 86.0062 43.439C85.8753 43.669 85.8629 44.0255 85.9665 44.2817L83.3348 48.9062H78.4369L75.1302 43.0956H62.3937C62.3639 42.7849 62.2107 42.5483 62.0258 42.5483C61.8198 42.5483 61.6523 42.8416 61.6523 43.2046C61.6523 43.5676 61.8192 43.8609 62.0258 43.8609L62.0264 43.862Z" fill="white"/>
</g>
</g>
<path id="CROW" d="M89.0215 22.3399L39.6097 21.099C35.7578 20.9665 31.9411 21.9454 28.6085 23.9209C27.7308 24.4565 26.8903 25.0523 26.0932 25.704C24.1387 27.3528 22.4847 29.3332 21.2067 31.5546L20.6443 32.4994L20.6443 32.4995C18.9355 35.3909 17.9323 38.647 17.7179 41.9974C17.5844 44.1095 16.6916 46.105 15.2067 47.6103C13.5522 49.4106 11.6435 50.9555 9.54303 52.1945C10.5112 52.9011 11.6356 53.361 12.8209 53.5354C14.0063 53.7098 15.2177 53.5936 16.3527 53.1965C14.6887 54.883 10.4741 59.362 8.58775 63.389C6.25039 68.3474 5.45363 72.9465 8.46582 76.4081L25.2 57.3357L25.2 57.3357C25.7387 56.7177 26.3972 56.2175 27.1347 55.8662C27.8721 55.5149 28.6724 55.3202 29.4858 55.2941L28.6733 56.4896C27.4158 58.3261 26.703 60.483 26.6189 62.7065L26.0454 77.8401C28.9205 76.2726 31.1796 73.7598 32.4443 70.7235C34.0927 66.9872 35.1249 58.0171 35.1249 58.0171C35.0916 60.8083 35.8148 63.5507 37.2168 65.9488C38.6185 68.3469 40.6457 70.3095 43.0798 71.6251C46.0913 73.2664 49.093 73.1379 52.3688 72.938C49.912 70.0295 48.4226 66.4147 48.1083 62.5981C49.7249 64.6648 51.7823 66.3377 54.1298 67.4942C56.477 68.6504 59.055 69.261 61.6742 69.2809L59.6636 61.6616C59.6636 61.6616 78.1033 68.9802 86.6747 53.3493L86.4862 53.2814C82.9306 53.6958 79.334 53.452 75.874 52.5618C72.4137 51.6716 69.1485 50.1503 66.2388 48.0726C68.9136 48.4827 71.622 48.6425 74.3291 48.55C77.436 48.4624 80.4863 47.6579 83.245 46.1979C86.0038 44.7379 88.3974 42.6616 90.242 40.1287C90.7819 39.3951 91.2562 38.6149 91.6591 37.7973L79.1338 35.614C88.4706 32.1653 89.0211 22.3401 89.0211 22.3401L89.0215 22.3399ZM31.7005 45.1358C31.3827 45.8487 30.8625 46.4516 30.206 46.8682C29.5495 47.2849 28.7863 47.4963 28.0132 47.4758C27.2401 47.4552 26.4919 47.2035 25.8638 46.7528C25.2356 46.302 24.7557 45.6724 24.4849 44.9438C24.2142 44.2154 24.1648 43.4208 24.343 42.661C24.5212 41.9012 24.9191 41.2105 25.4861 40.6764C26.0531 40.1424 26.7636 39.7891 27.5275 39.6615C28.2914 39.5339 29.0742 39.6376 29.7766 39.9596C30.7128 40.3862 31.4408 41.1703 31.8014 42.1404C32.1619 43.1105 32.1256 44.1875 31.7005 45.1357L31.7005 45.1358Z" fill="#292929"/>
<path id="CROW_2" d="M226.84 63.2942L238.739 27.1219C239.641 24.2927 241.332 21.7797 243.613 19.8785C244.225 19.3818 244.87 18.9279 245.544 18.52C247.234 17.5332 249.085 16.851 251.011 16.5047L251.835 16.3438L251.835 16.3438C254.354 15.8602 256.952 15.9837 259.413 16.7043C260.965 17.1598 262.629 17.0338 264.094 16.3502C265.815 15.6206 267.419 14.6399 268.852 13.4399C269.109 14.3271 269.148 15.2631 268.967 16.1686C268.785 17.0742 268.388 17.9227 267.809 18.6423C269.451 17.8761 273.758 15.9896 277.139 15.6741C281.304 15.2749 284.813 15.8995 286.52 18.99L268.492 26.1432L268.492 26.1433C267.908 26.3725 267.379 26.7195 266.935 27.1626C266.492 27.6057 266.145 28.1355 265.916 28.7187L266.985 28.4419C268.629 28.0098 270.363 28.0567 271.981 28.5771L282.998 32.1183C281.128 33.7942 278.739 34.7762 276.231 34.8997C273.121 35.1186 266.412 33.5219 266.412 33.5219C268.425 34.2276 270.207 35.4694 271.567 37.1135C272.926 38.7576 273.811 40.7415 274.125 42.8514C274.525 45.4654 273.655 47.6095 272.664 49.9338C271.211 47.3909 269.001 45.3651 266.341 44.1391C267.407 45.8523 268.076 47.7824 268.299 49.7879C268.521 51.7931 268.293 53.8231 267.629 55.7285L262.678 52.2774C262.678 52.2774 263.161 67.569 249.717 69.7002L249.717 69.5457C250.935 67.0745 251.691 64.4014 251.947 61.6584C252.203 58.9152 251.956 56.1486 251.217 53.4943C250.819 55.5421 250.233 57.5488 249.466 59.4886C248.599 61.7198 247.231 63.7224 245.469 65.342C243.706 66.9617 241.596 68.1553 239.299 68.8312C238.633 69.0311 237.95 69.1711 237.258 69.2496L238.932 59.5918C234.039 65.4638 226.841 63.294 226.841 63.294L226.84 63.2942ZM258.048 27.6692C258.642 27.6251 259.21 27.4053 259.679 27.038C260.148 26.6707 260.497 26.1723 260.683 25.606C260.868 25.0397 260.881 24.4311 260.72 23.8576C260.559 23.2839 260.231 22.7711 259.778 22.3841C259.325 21.9972 258.767 21.7536 258.175 21.6843C257.583 21.6149 256.984 21.723 256.454 21.9947C255.924 22.2663 255.486 22.6894 255.197 23.2103C254.907 23.7311 254.779 24.3261 254.829 24.9199C254.893 25.7107 255.267 26.4439 255.871 26.9591C256.474 27.4744 257.257 27.7296 258.048 27.6692L258.048 27.6692Z" fill="#292929"/>
<g id="Vector_51">
<path d="M101.405 67.3649V23.4966H127.894C138.637 23.4966 141.842 25.8025 141.842 35.0261C141.842 41.6626 138.693 44.9808 132.169 45.6557C137.568 46.4431 140.268 49.6489 140.268 55.9479C140.268 65.059 137.399 67.3649 127.894 67.3649H101.405ZM113.215 32.4952V41.2689H124.295C127.951 41.2689 129.525 39.9191 129.525 36.8258C129.525 32.9452 129.019 32.4952 124.295 32.4952H113.215ZM113.215 50.2675V58.3663H123.17C127.501 58.3663 127.951 57.9726 127.951 54.2607C127.951 51.4486 126.545 50.2675 123.17 50.2675H113.215Z" fill="#779832"/>
<path d="M58.7402 23.4966H70.5509V32.7202L77.2999 40.2565L86.861 23.4966H99.909L85.5112 48.0179L98.7841 67.3649H85.1175L70.5509 45.9932V67.3649H58.7402V23.4966Z" fill="#779832"/>
<path d="M143.338 67.3649V23.4966H176.105V33.62H155.149V67.3649H143.338Z" fill="#779832"/>
<path d="M177.056 67.3649V23.4966H210.239V33.62H188.867V67.3649H177.056Z" fill="#779832"/>
<path d="M236.818 67.3649H211.735V23.4966H223.545V38.963H232.319C238.449 38.963 239.068 38.4568 239.068 33.62V23.4966H251.441V34.2949C251.441 39.9191 248.46 42.5062 242.611 43.1248C248.741 43.9685 251.441 47.3992 251.441 54.6543C251.441 64.834 248.516 67.3649 236.818 67.3649ZM223.545 47.9616V57.8039H233.781C239.068 57.8039 239.63 57.2977 239.63 52.9671C239.63 48.4678 239.068 47.9616 233.781 47.9616H223.545Z" fill="#779832"/>
<path d="M101.405 67.3649V23.4966H127.894C138.637 23.4966 141.842 25.8025 141.842 35.0261C141.842 41.6626 138.693 44.9808 132.169 45.6557C137.568 46.4431 140.268 49.6489 140.268 55.9479C140.268 65.059 137.399 67.3649 127.894 67.3649H101.405ZM113.215 32.4952V41.2689H124.295C127.951 41.2689 129.525 39.9191 129.525 36.8258C129.525 32.9452 129.019 32.4952 124.295 32.4952H113.215ZM113.215 50.2675V58.3663H123.17C127.501 58.3663 127.951 57.9726 127.951 54.2607C127.951 51.4486 126.545 50.2675 123.17 50.2675H113.215Z" stroke="black" stroke-opacity="0.951" stroke-width="0.747833"/>
<path d="M58.7402 23.4966H70.5509V32.7202L77.2999 40.2565L86.861 23.4966H99.909L85.5112 48.0179L98.7841 67.3649H85.1175L70.5509 45.9932V67.3649H58.7402V23.4966Z" stroke="black" stroke-opacity="0.951" stroke-width="0.747833"/>
<path d="M143.338 67.3649V23.4966H176.105V33.62H155.149V67.3649H143.338Z" stroke="black" stroke-opacity="0.951" stroke-width="0.747833"/>
<path d="M177.056 67.3649V23.4966H210.239V33.62H188.867V67.3649H177.056Z" stroke="black" stroke-opacity="0.951" stroke-width="0.747833"/>
<path d="M236.818 67.3649H211.735V23.4966H223.545V38.963H232.319C238.449 38.963 239.068 38.4568 239.068 33.62V23.4966H251.441V34.2949C251.441 39.9191 248.46 42.5062 242.611 43.1248C248.741 43.9685 251.441 47.3992 251.441 54.6543C251.441 64.834 248.516 67.3649 236.818 67.3649ZM223.545 47.9616V57.8039H233.781C239.068 57.8039 239.63 57.2977 239.63 52.9671C239.63 48.4678 239.068 47.9616 233.781 47.9616H223.545Z" stroke="black" stroke-opacity="0.951" stroke-width="0.747833"/>
</g>
<g id="Group_2" style="mix-blend-mode:overlay">
<g id="Vector_52" style="mix-blend-mode:overlay">
<path d="M38.0341 29.2328C38.4195 29.2328 38.741 28.8467 38.8228 28.3314H51.2536L56.3093 21.0988H67.6199L75.6566 32.596L75.709 32.6709H90.0982L92.4578 29.2954H102.37C102.452 29.8118 102.774 30.1968 103.159 30.1968C103.606 30.1968 103.969 29.6783 103.969 29.0387C103.969 28.3991 103.606 27.8807 103.159 27.8807C102.774 27.8807 102.452 28.2667 102.37 28.7821H92.3085L89.9489 32.1576H75.8575L67.8208 20.6604L67.7684 20.5854H56.16L51.1043 27.8181H38.8228C38.741 27.3017 38.4195 26.9167 38.0341 26.9167C37.587 26.9167 37.2246 27.4351 37.2246 28.0747C37.2246 28.7143 37.587 29.2328 38.0341 29.2328Z" fill="white"/>
</g>
<g id="Vector_53" style="mix-blend-mode:overlay">
<path d="M84.6844 42.7062C84.7662 43.2226 85.0877 43.6076 85.4731 43.6076C85.9202 43.6076 86.2826 43.0891 86.2826 42.4495C86.2826 41.81 85.9202 41.2915 85.4731 41.2915C85.0877 41.2915 84.7662 41.6775 84.6844 42.1929H73.5389L64.3331 55.3625H52.475L49.3992 50.9624H38.8228C38.741 50.446 38.4195 50.061 38.0341 50.061C37.587 50.061 37.2246 50.5794 37.2246 51.219C37.2246 51.8586 37.587 52.3771 38.0341 52.3771C38.4195 52.3771 38.741 51.991 38.8228 51.4757H49.2507L52.3264 55.8758H64.4824L73.6881 42.7062H84.6844Z" fill="white"/>
</g>
<g id="Vector_54" style="mix-blend-mode:overlay">
<path d="M107.607 45.4805C107.222 45.4805 106.9 45.8665 106.818 46.3819H102.309L97.5056 53.2531H88.8911L84.3406 46.7432H75.0071L71.889 51.2039C71.5762 50.9216 71.1578 50.975 70.8858 51.3641C70.5693 51.8168 70.5693 52.5498 70.8858 53.0016C71.2023 53.4543 71.7147 53.4543 72.0304 53.0016C72.3031 52.6114 72.3397 52.0139 72.1424 51.5663L75.155 47.2565H84.1907L88.7412 53.7664H97.6534L102.457 46.8952H106.818C106.899 47.4116 107.221 47.7965 107.606 47.7965C108.053 47.7965 108.416 47.2781 108.416 46.6385C108.416 45.9989 108.053 45.4805 107.606 45.4805H107.607Z" fill="white"/>
</g>
<g id="Vector_55" style="mix-blend-mode:overlay">
<path d="M91.3993 41.292C90.9522 41.292 90.5898 41.8104 90.5898 42.45C90.5898 43.0896 90.9522 43.608 91.3993 43.608C91.7847 43.608 92.1062 43.222 92.188 42.7067H107.68L117.212 29.07H131.658L135.585 34.6877H141.279C141.361 35.2041 141.682 35.5891 142.068 35.5891C142.515 35.5891 142.877 35.0706 142.877 34.431C142.877 33.7914 142.515 33.273 142.068 33.273C141.682 33.273 141.361 33.659 141.279 34.1744H135.733L131.806 28.5566H117.063L107.53 42.1934H92.1873C92.1055 41.677 91.784 41.292 91.3986 41.292H91.3993Z" fill="white"/>
</g>
<g id="Vector_56" style="mix-blend-mode:overlay">
<path d="M162.516 46.9444C162.13 46.9444 161.809 47.3304 161.727 47.8458H149.758L146.639 52.3086H134.039L125.679 40.3494L125.627 40.2744H118.512L111.377 50.4812C111.064 50.1988 110.646 50.2522 110.374 50.6413C110.058 51.0941 110.058 51.8271 110.374 52.2788C110.691 52.7315 111.203 52.7315 111.519 52.2788C111.791 51.8887 111.828 51.2912 111.631 50.8436L118.66 40.7877H125.477L133.836 52.7469L133.889 52.8219H146.786L149.905 48.3591H161.725C161.807 48.8755 162.128 49.2605 162.514 49.2605C162.961 49.2605 163.323 48.7421 163.323 48.1025C163.323 47.4629 162.961 46.9444 162.514 46.9444H162.516Z" fill="white"/>
</g>
<g id="Vector_57" style="mix-blend-mode:overlay">
<path d="M146.227 41.6887C146.613 41.6887 146.934 41.3026 147.016 40.7873H154.503L162.643 29.1422H173.791L186.831 47.7981H196.88L206.053 34.2784C206.369 34.5536 206.787 34.492 207.055 34.0967C207.367 33.6378 207.359 32.9048 207.038 32.4593C206.717 32.0137 206.205 32.025 205.893 32.4839C205.625 32.8792 205.594 33.4787 205.796 33.9212L196.728 47.2848H186.98L173.939 28.6289H162.495L154.355 40.274H147.016C146.934 39.7576 146.613 39.3726 146.227 39.3726C145.78 39.3726 145.418 39.891 145.418 40.5306C145.418 41.1702 145.78 41.6887 146.227 41.6887V41.6887Z" fill="white"/>
</g>
<g id="Vector_58" style="mix-blend-mode:overlay">
<path d="M257.677 52.0167C257.291 52.0167 256.97 52.4028 256.888 52.9181H244.854L238.315 43.5635H223.059L212.663 58.4352H196.899C196.817 57.9188 196.496 57.5338 196.11 57.5338C195.663 57.5338 195.301 58.0523 195.301 58.6919C195.301 59.3315 195.663 59.8499 196.11 59.8499C196.496 59.8499 196.818 59.4639 196.899 58.9485H212.812L223.207 44.0768H238.166L244.705 53.4314H256.888C256.97 53.9468 257.291 54.3328 257.677 54.3328C258.124 54.3328 258.486 53.8144 258.486 53.1748C258.486 52.5352 258.124 52.0167 257.677 52.0167V52.0167Z" fill="white"/>
</g>
<g id="Vector_59" style="mix-blend-mode:overlay">
<path d="M255.207 62.576C254.822 62.576 254.5 62.962 254.418 63.4774H240.972L232.861 51.8734C233.058 51.4258 233.021 50.8273 232.749 50.4382C232.432 49.9854 231.92 49.9854 231.604 50.4382C231.288 50.8909 231.288 51.6239 231.604 52.0757C231.877 52.4658 232.294 52.5181 232.607 52.2358L240.824 63.9907H254.419C254.501 64.5071 254.822 64.8921 255.208 64.8921C255.655 64.8921 256.017 64.3737 256.017 63.7341C256.017 63.0945 255.655 62.576 255.208 62.576H255.207Z" fill="white"/>
</g>
<g id="Vector_60" style="mix-blend-mode:overlay">
<path d="M258.688 32.0794C258.303 32.0794 257.982 32.4654 257.9 32.9808H245.183L239.663 25.085H220.584L212.719 36.3358C212.406 36.0535 211.988 36.1069 211.716 36.4959C211.399 36.9487 211.399 37.6817 211.716 38.1334C212.032 38.5862 212.545 38.5862 212.861 38.1334C213.133 37.7433 213.17 37.1458 212.972 36.6982L220.732 25.5972H239.514L245.033 33.4931H257.899C257.981 34.0095 258.302 34.3944 258.688 34.3944C259.135 34.3944 259.497 33.876 259.497 33.2364C259.497 32.5968 259.135 32.0784 258.688 32.0784L258.688 32.0794Z" fill="white"/>
</g>
<g id="Vector_61" style="mix-blend-mode:overlay">
<path d="M192.063 57.622C191.678 57.622 191.357 58.008 191.275 58.5234H183.819L169.724 38.3604H164.204C164.122 37.844 163.8 37.459 163.415 37.459C162.968 37.459 162.605 37.9774 162.605 38.617C162.605 39.2566 162.968 39.7751 163.415 39.7751C163.8 39.7751 164.122 39.3891 164.204 38.8737H169.576L183.67 59.0367H191.275C191.357 59.5531 191.678 59.9381 192.063 59.9381C192.511 59.9381 192.873 59.4196 192.873 58.78C192.873 58.1404 192.511 57.622 192.063 57.622V57.622Z" fill="white"/>
</g>
</g>
</g>
</g>
</svg>
