<svg width="50" height="50" fill="none" xmlns="http://www.w3.org/2000/svg">
  <g clip-path="url(#a)">
    <path d="M23.984-.016C23.434-.004 22.992.45 23 1v17.586l-4.293-4.293a.992.992 0 0 0-.973-.273.99.99 0 0 0-.715.715.992.992 0 0 0 .274.972l6 6a1 1 0 0 0 1.414 0l6-6a.992.992 0 0 0 .273-.973.99.99 0 0 0-.714-.714.992.992 0 0 0-.973.273L25 18.586V1a1.003 1.003 0 0 0-1.016-1.016ZM20.016 5.29a.826.826 0 0 0-.172.016c-5.153.808-8.93 3.293-11.348 6.683C6.078 15.38 5 19.625 5 24c0 3.926.922 7.602 3.035 10.676C9.902 37.395 11 40.613 11 43.89V50h2v-6.11c0-3.723-1.242-7.325-3.316-10.344v-.004C7.836 30.856 7 27.613 7 24c0-4.047 1-7.875 3.125-10.848 2.121-2.976 5.344-5.136 10.031-5.875a1 1 0 0 0-.14-1.988Zm7.941.031a.997.997 0 0 0-.113 1.985c4.476.719 7.422 2.61 9.425 5.18 2.004 2.57 3.055 5.882 3.477 9.433a.969.969 0 0 0 .117.363l4.024 7.282v.004c.203.363.113.683-.242.878l-3.118 1.676a.996.996 0 0 0-.527.88v4.51c0 3.278-2.86 5.977-6.125 5.673h-.031L32.062 43A1 1 0 0 0 31 44v6h2.001v-4.934l1.688.11C39.14 45.59 43 41.949 43 37.512v-3.914l2.605-1.395c.004-.004.008-.008.008-.012 1.27-.703 1.719-2.34 1.024-3.597l-3.965-7.172c-.469-3.695-1.574-7.277-3.828-10.168-2.305-2.957-5.793-5.137-10.688-5.922a.829.829 0 0 0-.199-.012Z" fill="#4F4F4F"/>
  </g>
  <defs>
    <clipPath id="a">
      <path fill="#fff" d="M0 0h50v50H0z"/>
    </clipPath>
  </defs>
</svg>
