<svg width="292" height="67" viewBox="0 0 292 67" fill="none" xmlns="http://www.w3.org/2000/svg">
<g id="KBLLR">
<g id="B" style="mix-blend-mode:multiply">
<path d="M65.207 66.5V0.500009H105.072C121.238 0.500009 126.063 3.96924 126.063 17.8462C126.063 27.8308 121.323 32.8231 111.505 33.8385C119.63 35.0231 123.693 39.8462 123.693 49.3231C123.693 63.0308 119.376 66.5 105.072 66.5H65.207ZM82.9812 14.0385V27.2385H99.6551C105.157 27.2385 107.527 25.2077 107.527 20.5539C107.527 14.7154 106.765 14.0385 99.6551 14.0385H82.9812ZM82.9812 40.7769V52.9615H97.9624C104.48 52.9615 105.157 52.3692 105.157 46.7846C105.157 42.5538 103.041 40.7769 97.9624 40.7769H82.9812Z" fill="#6F6F6F"/>
<path d="M65.207 66.5V0.500009H105.072C121.238 0.500009 126.063 3.96924 126.063 17.8462C126.063 27.8308 121.323 32.8231 111.505 33.8385C119.63 35.0231 123.693 39.8462 123.693 49.3231C123.693 63.0308 119.376 66.5 105.072 66.5H65.207ZM82.9812 14.0385V27.2385H99.6551C105.157 27.2385 107.527 25.2077 107.527 20.5539C107.527 14.7154 106.765 14.0385 99.6551 14.0385H82.9812ZM82.9812 40.7769V52.9615H97.9624C104.48 52.9615 105.157 52.3692 105.157 46.7846C105.157 42.5538 103.041 40.7769 97.9624 40.7769H82.9812Z" stroke="black" stroke-opacity="0.951" stroke-width="0.875"/>
</g>
<g id="K" style="mix-blend-mode:multiply">
<path d="M1 0.500009H18.7742V14.3769L28.9309 25.7154L43.3195 0.500009H62.9558L41.2882 37.3923L61.263 66.5H40.6957L18.7742 34.3462V66.5H1V0.500009Z" fill="#6F6F6F"/>
<path d="M1 0.500009H18.7742V14.3769L28.9309 25.7154L43.3195 0.500009H62.9558L41.2882 37.3923L61.263 66.5H40.6957L18.7742 34.3462V66.5H1V0.500009Z" stroke="black" stroke-opacity="0.951" stroke-width="0.875"/>
</g>
<g id="LL" style="mix-blend-mode:multiply">
<path d="M128.312 66.5V0.5H177.624V15.7308H146.087V66.5H128.312Z" fill="#6F6F6F"/>
<path d="M179.056 66.5V0.5H228.993V15.7308H196.83V66.5H179.056Z" fill="#6F6F6F"/>
<path d="M128.312 66.5V0.5H177.624V15.7308H146.087V66.5H128.312Z" stroke="black" stroke-opacity="0.951" stroke-width="0.875"/>
<path d="M179.056 66.5V0.5H228.993V15.7308H196.83V66.5H179.056Z" stroke="black" stroke-opacity="0.951" stroke-width="0.875"/>
</g>
<g id="R" style="mix-blend-mode:multiply">
<path d="M268.995 66.5H231.246V0.5H249.02V23.7692H262.224C271.45 23.7692 272.381 23.0077 272.381 15.7308V0.5H291.001V16.7462C291.001 25.2077 286.515 29.1 277.713 30.0308C286.939 31.3 291.001 36.4615 291.001 47.3769C291.001 62.6923 286.6 66.5 268.995 66.5ZM249.02 37.3077V52.1154H264.425C272.381 52.1154 273.227 51.3538 273.227 44.8385C273.227 38.0692 272.381 37.3077 264.425 37.3077H249.02Z" fill="#6F6F6F"/>
<path d="M268.995 66.5H231.246V0.5H249.02V23.7692H262.224C271.45 23.7692 272.381 23.0077 272.381 15.7308V0.5H291.001V16.7462C291.001 25.2077 286.515 29.1 277.713 30.0308C286.939 31.3 291.001 36.4615 291.001 47.3769C291.001 62.6923 286.6 66.5 268.995 66.5ZM249.02 37.3077V52.1154H264.425C272.381 52.1154 273.227 51.3538 273.227 44.8385C273.227 38.0692 272.381 37.3077 264.425 37.3077H249.02Z" stroke="black" stroke-opacity="0.951" stroke-width="0.875"/>
</g>
</g>
</svg>
