<svg width="32" height="32" viewBox="0 0 32 32" fill="none" xmlns="http://www.w3.org/2000/svg">
<g clip-path="url(#clip0_253_12174)">
<path d="M20.2492 -0.0146404C19.9667 -0.010224 19.6974 0.106107 19.5006 0.30882C19.3037 0.511534 19.1954 0.784068 19.1992 1.06661V2.13328H18.1326C17.9912 2.13128 17.8509 2.15739 17.7197 2.2101C17.5885 2.26281 17.4692 2.34106 17.3685 2.44031C17.2678 2.53955 17.1879 2.65782 17.1333 2.78822C17.0788 2.91863 17.0507 3.05858 17.0507 3.19994C17.0507 3.3413 17.0788 3.48125 17.1333 3.61166C17.1879 3.74207 17.2678 3.86033 17.3685 3.95958C17.4692 4.05883 17.5885 4.13708 17.7197 4.18979C17.8509 4.2425 17.9912 4.26861 18.1326 4.26661H19.1992V5.33328C19.1972 5.47462 19.2233 5.61496 19.276 5.74612C19.3288 5.87729 19.407 5.99667 19.5062 6.09733C19.6055 6.19799 19.7238 6.27793 19.8542 6.33248C19.9846 6.38704 20.1245 6.41514 20.2659 6.41514C20.4072 6.41514 20.5472 6.38704 20.6776 6.33248C20.808 6.27793 20.9263 6.19799 21.0255 6.09733C21.1248 5.99667 21.203 5.87729 21.2557 5.74612C21.3084 5.61496 21.3346 5.47462 21.3326 5.33328V4.26661H22.3992C22.5406 4.26861 22.6809 4.2425 22.8121 4.18979C22.9432 4.13708 23.0626 4.05883 23.1633 3.95958C23.2639 3.86033 23.3439 3.74207 23.3984 3.61166C23.453 3.48125 23.4811 3.3413 23.4811 3.19994C23.4811 3.05858 23.453 2.91863 23.3984 2.78822C23.3439 2.65782 23.2639 2.53955 23.1633 2.44031C23.0626 2.34106 22.9432 2.26281 22.8121 2.2101C22.6809 2.15739 22.5406 2.13128 22.3992 2.13328H21.3326V1.06661C21.3345 0.923901 21.3078 0.782251 21.254 0.650048C21.2003 0.517845 21.1205 0.397777 21.0195 0.296955C20.9185 0.196132 20.7982 0.116605 20.6659 0.0630824C20.5336 0.00955996 20.3919 -0.0168693 20.2492 -0.0146404V-0.0146404ZM13.2159 3.51244C7.48682 4.78498 3.19922 9.88794 3.19922 15.9999C3.19922 23.0687 8.93042 28.7999 15.9992 28.7999C22.1112 28.7999 27.2142 24.5123 28.4867 18.7833C26.8483 19.7219 24.956 20.2666 22.9326 20.2666C16.747 20.2666 11.7326 15.2522 11.7326 9.06661C11.7326 7.04314 12.2772 5.15084 13.2159 3.51244ZM26.6659 7.46661C26.0771 7.46661 25.5992 7.94448 25.5992 8.53328V9.59994C25.5992 10.1887 25.1214 10.6666 24.5326 10.6666H23.4659C22.8771 10.6666 22.3992 11.1445 22.3992 11.7333C22.3992 12.3221 22.8771 12.7999 23.4659 12.7999H24.5326C25.1214 12.7999 25.5992 13.2778 25.5992 13.8666V14.9333C25.5992 15.5221 26.0771 15.9999 26.6659 15.9999C27.2547 15.9999 27.7326 15.5221 27.7326 14.9333V13.8666C27.7326 13.2778 28.2104 12.7999 28.7992 12.7999H29.8659C30.4547 12.7999 30.9326 12.3221 30.9326 11.7333C30.9326 11.1445 30.4547 10.6666 29.8659 10.6666H28.7992C28.2104 10.6666 27.7326 10.1887 27.7326 9.59994V8.53328C27.7326 7.94448 27.2547 7.46661 26.6659 7.46661Z" fill="white"/>
</g>
<defs>
<clipPath id="clip0_253_12174">
<rect width="32" height="32" fill="white"/>
</clipPath>
</defs>
</svg>
