<svg width="32" height="32" viewBox="0 0 32 32" fill="none" xmlns="http://www.w3.org/2000/svg">
<path fill-rule="evenodd" clip-rule="evenodd" d="M18.802 6.67C18.802 6.6752 18.7978 6.67943 18.7925 6.67943L12.7522 6.67943C12.747 6.67943 12.7427 6.67521 12.7427 6.67L12.7427 4.00943C12.7427 4.00422 12.7384 4 12.7332 4L11.0095 4C11.0043 4 11 4.00422 11 4.00943V11.4158C11 11.421 11.0043 11.4252 11.0095 11.4252H14.9081C14.9134 11.4252 14.9177 11.4295 14.9177 11.4347V16.0397C14.9177 16.0449 14.9134 16.0491 14.9081 16.0491H11.0095C11.0043 16.0491 11 16.0533 11 16.0585V22.3322C11 22.3375 11.0043 22.3417 11.0095 22.3417H14.9081C14.9134 22.3417 14.9177 22.3459 14.9177 22.3511V27.9983C14.9177 28.0035 14.9219 28.0077 14.9272 28.0077H16.6375C16.6428 28.0077 16.647 28.0035 16.647 27.9983V22.3511C16.647 22.3459 16.6513 22.3417 16.6565 22.3417H20.6882C20.6934 22.3417 20.6977 22.3375 20.6977 22.3322V16.0585C20.6977 16.0533 20.6934 16.0491 20.6882 16.0491H16.6565C16.6513 16.0491 16.647 16.0449 16.647 16.0397V11.4347C16.647 11.4295 16.6513 11.4252 16.6565 11.4252H20.6882C20.6934 11.4252 20.6977 11.421 20.6977 11.4158V4.00943C20.6977 4.00422 20.6934 4 20.6882 4L18.8115 4C18.8063 4 18.802 4.00422 18.802 4.00943V6.67ZM12.8183 17.4583C12.8183 17.4531 12.8226 17.4489 12.8278 17.4489H18.8699C18.8751 17.4489 18.8794 17.4531 18.8794 17.4583V21.1141C18.8794 21.1193 18.8751 21.1236 18.8699 21.1236H12.8278C12.8226 21.1236 12.8183 21.1193 12.8183 21.1141V17.4583ZM18.7692 8.14922C18.7692 8.14401 18.7649 8.13979 18.7597 8.13979H12.7727C12.7675 8.13979 12.7632 8.14401 12.7632 8.14922V9.99094C12.7632 9.99615 12.7675 10.0004 12.7727 10.0004H18.7597C18.7649 10.0004 18.7692 9.99615 18.7692 9.99094V8.14922Z" fill="#EB5757"/>
<path fill-rule="evenodd" clip-rule="evenodd" d="M18.802 6.67C18.802 6.6752 18.7978 6.67943 18.7925 6.67943L12.7522 6.67943C12.747 6.67943 12.7427 6.67521 12.7427 6.67L12.7427 4.00943C12.7427 4.00422 12.7384 4 12.7332 4L11.0095 4C11.0043 4 11 4.00422 11 4.00943V11.4158C11 11.421 11.0043 11.4252 11.0095 11.4252H14.9081C14.9134 11.4252 14.9177 11.4295 14.9177 11.4347V16.0397C14.9177 16.0449 14.9134 16.0491 14.9081 16.0491H11.0095C11.0043 16.0491 11 16.0533 11 16.0585V22.3322C11 22.3375 11.0043 22.3417 11.0095 22.3417H14.9081C14.9134 22.3417 14.9177 22.3459 14.9177 22.3511V27.9983C14.9177 28.0035 14.9219 28.0077 14.9272 28.0077H16.6375C16.6428 28.0077 16.647 28.0035 16.647 27.9983V22.3511C16.647 22.3459 16.6513 22.3417 16.6565 22.3417H20.6882C20.6934 22.3417 20.6977 22.3375 20.6977 22.3322V16.0585C20.6977 16.0533 20.6934 16.0491 20.6882 16.0491H16.6565C16.6513 16.0491 16.647 16.0449 16.647 16.0397V11.4347C16.647 11.4295 16.6513 11.4252 16.6565 11.4252H20.6882C20.6934 11.4252 20.6977 11.421 20.6977 11.4158V4.00943C20.6977 4.00422 20.6934 4 20.6882 4L18.8115 4C18.8063 4 18.802 4.00422 18.802 4.00943V6.67ZM12.8183 17.4583C12.8183 17.4531 12.8226 17.4489 12.8278 17.4489H18.8699C18.8751 17.4489 18.8794 17.4531 18.8794 17.4583V21.1141C18.8794 21.1193 18.8751 21.1236 18.8699 21.1236H12.8278C12.8226 21.1236 12.8183 21.1193 12.8183 21.1141V17.4583ZM18.7692 8.14922C18.7692 8.14401 18.7649 8.13979 18.7597 8.13979H12.7727C12.7675 8.13979 12.7632 8.14401 12.7632 8.14922V9.99094C12.7632 9.99615 12.7675 10.0004 12.7727 10.0004H18.7597C18.7649 10.0004 18.7692 9.99615 18.7692 9.99094V8.14922Z" fill="#EB5757"/>
<path fill-rule="evenodd" clip-rule="evenodd" d="M18.802 6.67C18.802 6.6752 18.7978 6.67943 18.7925 6.67943L12.7522 6.67943C12.747 6.67943 12.7427 6.67521 12.7427 6.67L12.7427 4.00943C12.7427 4.00422 12.7384 4 12.7332 4L11.0095 4C11.0043 4 11 4.00422 11 4.00943L11 11.4158C11 11.421 11.0043 11.4252 11.0095 11.4252H14.9081C14.9134 11.4252 14.9177 11.4295 14.9177 11.4347L14.9177 16.0397C14.9177 16.0449 14.9134 16.0491 14.9081 16.0491H11.0095C11.0043 16.0491 11 16.0533 11 16.0585V22.3322C11 22.3375 11.0043 22.3417 11.0095 22.3417H14.9081C14.9134 22.3417 14.9177 22.3459 14.9177 22.3511L14.9177 27.9983C14.9177 28.0035 14.9219 28.0077 14.9272 28.0077H16.6375C16.6428 28.0077 16.647 28.0035 16.647 27.9983V22.3511C16.647 22.3459 16.6513 22.3417 16.6565 22.3417H20.6882C20.6934 22.3417 20.6977 22.3375 20.6977 22.3322V16.0585C20.6977 16.0533 20.6934 16.0491 20.6882 16.0491H16.6565C16.6513 16.0491 16.647 16.0449 16.647 16.0397V11.4347C16.647 11.4295 16.6513 11.4252 16.6565 11.4252H20.6882C20.6934 11.4252 20.6977 11.421 20.6977 11.4158V4.00943C20.6977 4.00422 20.6934 4 20.6882 4L18.8115 4C18.8063 4 18.802 4.00422 18.802 4.00943V6.67ZM12.8183 17.4583C12.8183 17.4531 12.8226 17.4489 12.8278 17.4489H18.8699C18.8751 17.4489 18.8794 17.4531 18.8794 17.4583V21.1141C18.8794 21.1193 18.8751 21.1236 18.8699 21.1236H12.8278C12.8226 21.1236 12.8183 21.1193 12.8183 21.1141V17.4583ZM18.7692 8.14922C18.7692 8.14401 18.7649 8.13979 18.7597 8.13979H12.7727C12.7675 8.13979 12.7632 8.14401 12.7632 8.14922V9.99094C12.7632 9.99615 12.7675 10.0004 12.7727 10.0004H18.7597C18.7649 10.0004 18.7692 9.99615 18.7692 9.99094V8.14922Z" fill="#EB5757"/>
<path fill-rule="evenodd" clip-rule="evenodd" d="M12.8953 6.67C12.8953 6.6752 12.8995 6.67943 12.9048 6.67943L18.945 6.67943C18.9503 6.67943 18.9546 6.67521 18.9546 6.67L18.9546 4.00943C18.9546 4.00422 18.9588 4 18.9641 4L20.6877 4C20.693 4 20.6973 4.00422 20.6973 4.00943L20.6973 11.4158C20.6973 11.421 20.693 11.4252 20.6877 11.4252H16.7891C16.7839 11.4252 16.7796 11.4295 16.7796 11.4347V16.0397C16.7796 16.0449 16.7839 16.0491 16.7891 16.0491H20.6877C20.693 16.0491 20.6973 16.0533 20.6973 16.0585V22.3322C20.6973 22.3375 20.693 22.3417 20.6877 22.3417H16.7891C16.7839 22.3417 16.7796 22.3459 16.7796 22.3511V27.9983C16.7796 28.0035 16.7753 28.0077 16.7701 28.0077H15.0598C15.0545 28.0077 15.0502 28.0035 15.0502 27.9983L15.0502 22.3511C15.0502 22.3459 15.046 22.3417 15.0407 22.3417L11.0091 22.3417C11.0038 22.3417 10.9996 22.3375 10.9996 22.3322L10.9996 16.0585C10.9996 16.0533 11.0038 16.0491 11.0091 16.0491L15.0407 16.0491C15.046 16.0491 15.0502 16.0449 15.0502 16.0397L15.0502 11.4347C15.0502 11.4295 15.046 11.4252 15.0407 11.4252L11.0091 11.4252C11.0038 11.4252 10.9996 11.421 10.9996 11.4158L10.9996 4.00943C10.9996 4.00422 11.0038 4 11.0091 4L12.8857 4C12.891 4 12.8953 4.00422 12.8953 4.00943V6.67ZM18.8789 17.4583C18.8789 17.4531 18.8747 17.4489 18.8694 17.4489H12.8274C12.8222 17.4489 12.8179 17.4531 12.8179 17.4583V21.1141C12.8179 21.1193 12.8222 21.1236 12.8274 21.1236L18.8694 21.1236C18.8747 21.1236 18.8789 21.1193 18.8789 21.1141V17.4583ZM12.9281 8.14922C12.9281 8.14401 12.9324 8.13979 12.9376 8.13979L18.9245 8.13979C18.9298 8.13979 18.934 8.14401 18.934 8.14922V9.99094C18.934 9.99615 18.9298 10.0004 18.9245 10.0004L12.9376 10.0004C12.9324 10.0004 12.9281 9.99615 12.9281 9.99094L12.9281 8.14922Z" fill="#EB5757"/>
</svg>
