<svg width="32" height="32" viewBox="0 0 32 32" fill="none" xmlns="http://www.w3.org/2000/svg">
<path d="M15.9846 1.05213C15.7021 1.05655 15.4328 1.17288 15.236 1.37559C15.0391 1.57831 14.9307 1.85084 14.9346 2.13338V5.33338C14.9326 5.47473 14.9587 5.61506 15.0114 5.74623C15.0641 5.87739 15.1424 5.99678 15.2416 6.09744C15.3409 6.1981 15.4591 6.27803 15.5895 6.33259C15.7199 6.38715 15.8599 6.41524 16.0013 6.41524C16.1426 6.41524 16.2826 6.38715 16.413 6.33259C16.5434 6.27803 16.6617 6.1981 16.7609 6.09744C16.8601 5.99678 16.9384 5.87739 16.9911 5.74623C17.0438 5.61506 17.0699 5.47473 17.0679 5.33338V2.13338C17.0699 1.99067 17.0432 1.84902 16.9894 1.71682C16.9356 1.58462 16.8559 1.46455 16.7549 1.36373C16.6538 1.2629 16.5336 1.18338 16.4013 1.12985C16.269 1.07633 16.1273 1.0499 15.9846 1.05213ZM6.18459 5.1188C5.97258 5.11927 5.76551 5.1829 5.58982 5.30158C5.41413 5.42026 5.27778 5.5886 5.1982 5.78512C5.11861 5.98163 5.09938 6.1974 5.14297 6.40489C5.18656 6.61238 5.29099 6.80218 5.44293 6.95005L7.70543 9.21255C7.80372 9.31492 7.92144 9.39665 8.05171 9.45295C8.18198 9.50925 8.32218 9.539 8.46409 9.54044C8.60599 9.54188 8.74676 9.51499 8.87815 9.46135C9.00954 9.40771 9.1289 9.32839 9.22925 9.22804C9.3296 9.12769 9.40892 9.00833 9.46256 8.87694C9.5162 8.74555 9.54309 8.60478 9.54165 8.46287C9.54021 8.32097 9.51046 8.18077 9.45416 8.0505C9.39786 7.92023 9.31613 7.8025 9.21376 7.70422L6.95126 5.44172C6.85161 5.33928 6.7324 5.25792 6.6007 5.20244C6.469 5.14697 6.3275 5.11853 6.18459 5.1188ZM25.7846 5.1188C25.5075 5.12706 25.2445 5.24287 25.0513 5.44172L22.7888 7.70422C22.6864 7.80251 22.6047 7.92023 22.5484 8.0505C22.4921 8.18077 22.4623 8.32096 22.4609 8.46287C22.4594 8.60478 22.4863 8.74555 22.54 8.87694C22.5936 9.00832 22.6729 9.12769 22.7733 9.22804C22.8736 9.32839 22.993 9.40771 23.1244 9.46135C23.2558 9.51499 23.3965 9.54188 23.5384 9.54043C23.6803 9.53899 23.8205 9.50925 23.9508 9.45295C24.0811 9.39665 24.1988 9.31492 24.2971 9.21255L26.5596 6.95005C26.7137 6.80022 26.819 6.60733 26.8616 6.39664C26.9043 6.18595 26.8822 5.9673 26.7985 5.76934C26.7147 5.57138 26.5731 5.40335 26.3921 5.28727C26.2112 5.17118 25.9995 5.11246 25.7846 5.1188ZM16.0013 8.53338C14.021 8.53338 12.1218 9.32005 10.7215 10.7203C9.32126 12.1206 8.53459 14.0198 8.53459 16C8.53459 17.9803 9.32126 19.8795 10.7215 21.2798C12.1218 22.6801 14.021 23.4667 16.0013 23.4667C17.9815 23.4667 19.8807 22.6801 21.281 21.2798C22.6813 19.8795 23.4679 17.9803 23.4679 16C23.4679 14.0198 22.6813 12.1206 21.281 10.7203C19.8807 9.32005 17.9815 8.53338 16.0013 8.53338ZM2.13459 14.9334C1.99325 14.9314 1.85291 14.9575 1.72175 15.0102C1.59058 15.0629 1.4712 15.1412 1.37054 15.2404C1.26988 15.3397 1.18994 15.4579 1.13539 15.5883C1.08083 15.7187 1.05273 15.8587 1.05273 16C1.05273 16.1414 1.08083 16.2814 1.13539 16.4118C1.18994 16.5422 1.26988 16.6604 1.37054 16.7597C1.4712 16.8589 1.59058 16.9372 1.72175 16.9899C1.85291 17.0426 1.99325 17.0687 2.13459 17.0667H5.33459C5.47594 17.0687 5.61627 17.0426 5.74744 16.9899C5.87861 16.9372 5.99799 16.8589 6.09865 16.7597C6.19931 16.6604 6.27924 16.5422 6.3338 16.4118C6.38836 16.2814 6.41645 16.1414 6.41645 16C6.41645 15.8587 6.38836 15.7187 6.3338 15.5883C6.27924 15.4579 6.19931 15.3397 6.09865 15.2404C5.99799 15.1412 5.87861 15.0629 5.74744 15.0102C5.61627 14.9575 5.47594 14.9314 5.33459 14.9334H2.13459ZM26.6679 14.9334C26.5266 14.9314 26.3862 14.9575 26.2551 15.0102C26.1239 15.0629 26.0045 15.1412 25.9039 15.2404C25.8032 15.3397 25.7233 15.4579 25.6687 15.5883C25.6142 15.7187 25.5861 15.8587 25.5861 16C25.5861 16.1414 25.6142 16.2814 25.6687 16.4118C25.7233 16.5422 25.8032 16.6604 25.9039 16.7597C26.0045 16.8589 26.1239 16.9372 26.2551 16.9899C26.3862 17.0426 26.5266 17.0687 26.6679 17.0667H29.8679C30.0093 17.0687 30.1496 17.0426 30.2808 16.9899C30.4119 16.9372 30.5313 16.8589 30.632 16.7597C30.7326 16.6604 30.8126 16.5422 30.8671 16.4118C30.9217 16.2814 30.9498 16.1414 30.9498 16C30.9498 15.8587 30.9217 15.7187 30.8671 15.5883C30.8126 15.4579 30.7326 15.3397 30.632 15.2404C30.5313 15.1412 30.4119 15.0629 30.2808 15.0102C30.1496 14.9575 30.0093 14.9314 29.8679 14.9334H26.6679ZM8.43876 22.4646C8.16164 22.4729 7.89862 22.5887 7.70543 22.7875L5.44293 25.0501C5.34056 25.1483 5.25883 25.2661 5.20253 25.3963C5.14623 25.5266 5.11648 25.6668 5.11504 25.8087C5.1136 25.9506 5.14049 26.0914 5.19413 26.2228C5.24777 26.3542 5.32709 26.4735 5.42744 26.5739C5.52779 26.6742 5.64715 26.7535 5.77854 26.8072C5.90992 26.8608 6.05069 26.8877 6.1926 26.8863C6.33451 26.8848 6.47471 26.8551 6.60498 26.7988C6.73524 26.7425 6.85297 26.6608 6.95126 26.5584L9.21376 24.2959C9.3679 24.1461 9.47317 23.9532 9.5158 23.7425C9.55842 23.5318 9.5364 23.3131 9.45262 23.1152C9.36885 22.9172 9.22722 22.7492 9.0463 22.6331C8.86539 22.517 8.65362 22.4583 8.43876 22.4646ZM23.5325 22.4646C23.3203 22.4647 23.113 22.528 22.9369 22.6465C22.7609 22.7651 22.6243 22.9334 22.5444 23.13C22.4646 23.3266 22.4452 23.5425 22.4887 23.7502C22.5322 23.9579 22.6367 24.1479 22.7888 24.2959L25.0513 26.5584C25.1495 26.6608 25.2673 26.7425 25.3975 26.7988C25.5278 26.8551 25.668 26.8848 25.8099 26.8863C25.9518 26.8877 26.0926 26.8608 26.224 26.8072C26.3554 26.7535 26.4747 26.6742 26.5751 26.5739C26.6754 26.4735 26.7547 26.3542 26.8084 26.2228C26.862 26.0914 26.8889 25.9506 26.8875 25.8087C26.886 25.6668 26.8563 25.5266 26.8 25.3963C26.7437 25.2661 26.662 25.1483 26.5596 25.0501L24.2971 22.7875C24.1977 22.6854 24.0788 22.6041 23.9475 22.5487C23.8162 22.4932 23.6751 22.4646 23.5325 22.4646ZM15.9846 25.5855C15.7021 25.5899 15.4328 25.7062 15.236 25.9089C15.0391 26.1116 14.9307 26.3842 14.9346 26.6667V29.8667C14.9326 30.0081 14.9587 30.1484 15.0114 30.2796C15.0641 30.4107 15.1424 30.5301 15.2416 30.6308C15.3409 30.7314 15.4591 30.8114 15.5895 30.8659C15.7199 30.9205 15.8599 30.9486 16.0013 30.9486C16.1426 30.9486 16.2826 30.9205 16.413 30.8659C16.5434 30.8114 16.6617 30.7314 16.7609 30.6308C16.8601 30.5301 16.9384 30.4107 16.9911 30.2796C17.0438 30.1484 17.0699 30.0081 17.0679 29.8667V26.6667C17.0699 26.524 17.0432 26.3824 16.9894 26.2502C16.9356 26.118 16.8559 25.9979 16.7549 25.8971C16.6538 25.7962 16.5336 25.7167 16.4013 25.6632C16.269 25.6097 16.1273 25.5832 15.9846 25.5855Z" fill="white"/>
</svg>
