<?xml version="1.0" standalone="no"?>
<svg id="dknight" width="160" height="34" viewBox="0 0 160 34" fill="none" xmlns="http://www.w3.org/2000/svg" style="max-width: 100%; max-height: 100%;">
<mask id="path-1-inside-1_818_37758" fill="white">
<path d="M23.3463 0.772418V7.00284H6.22805C3.09623 7.00284 0 10.1003 0 13.2333V19.4637C0 22.5611 3.09623 25.6941 6.22805 25.6941H18.6842C20.3924 25.6941 22.1363 24.7328 23.3463 23.3088V25.6941H24.9122V0.772418H23.3463ZM23.3463 14.7998C23.3463 17.1139 20.9974 19.4637 18.6842 19.4637H1.53032V17.8972C1.53032 15.5474 3.87919 13.2333 6.22805 13.2333H23.3463V14.7998Z" stroke-dasharray="0,0,0,0,0,149.04945373535156"><animate attributeType="XML" attributeName="stroke-dasharray" repeatCount="indefinite" dur="4.545454545454546s" values="0,0,0,0,0,149.04945373535156; 0,0,0,126.69203567504883,22.357418060302734,0; 0,0,11.178709030151367,137.8707447052002,0,0; 0,74.52472686767578,0,74.52472686767578,0,0" keyTimes="0; 0.5; 0.575; 1"></animate></path>
<path d="M52.2731 11.6668V6.96724C49.1769 6.96724 46.045 9.317 46.045 11.6668C46.045 13.3401 44.23 14.9778 42.0947 15.5474H33.8025V0.736816H27.5744V25.6585C30.6706 25.6585 33.8025 22.5611 33.8025 19.4281V17.1139H42.0947C44.23 17.6836 46.045 19.3213 46.045 20.9946C46.045 23.3444 49.1769 25.6585 52.2731 25.6585V20.9946C52.2731 18.716 49.2836 16.4375 46.2586 16.3307C49.2836 16.2239 52.2731 13.9453 52.2731 11.6668Z" stroke-dasharray="0,0,0,0,0,129.20346069335938"><animate attributeType="XML" attributeName="stroke-dasharray" repeatCount="indefinite" dur="4.545454545454546s" values="0,0,0,0,0,129.20346069335938; 0,0,0,109.82294158935547,19.380519104003906,0; 0,0,9.690259552001953,119.51320114135743,0,0; 0,64.60173034667969,0,64.60173034667969,0,0" keyTimes="0; 0.5; 0.575; 1"></animate></path>
<path d="M74.4066 6.96724H54.9751V25.6585C58.0713 25.6585 61.2031 22.5611 61.2031 19.4281V8.53375H68.1785C70.9189 8.53375 73.6236 11.2395 73.6592 13.9809V25.6585C76.7554 25.6585 79.8873 22.5611 79.8873 19.4281V12.4144C79.8873 9.70863 77.1469 6.96724 74.4066 6.96724Z" stroke-dasharray="0,0,0,0,0,110.89606475830078"><animate attributeType="XML" attributeName="stroke-dasharray" repeatCount="indefinite" dur="4.545454545454546s" values="0,0,0,0,0,110.89606475830078; 0,0,0,94.26165504455567,16.634409713745118,0; 0,0,8.317204856872559,102.57885990142823,0,0; 0,55.44803237915039,0,55.44803237915039,0,0" keyTimes="0; 0.5; 0.575; 1"></animate></path>
<path d="M82.5495 8.10652V25.6941C85.4678 25.6941 88.386 22.7391 88.386 19.8197V8.10652H82.5495ZM85.4678 5.15152C86.6778 5.15152 87.6743 4.19025 87.6743 2.94417C87.6743 1.73368 86.6778 0.772418 85.4678 0.772418C84.2577 0.772418 83.2612 1.73368 83.2612 2.94417C83.2612 4.19025 84.2577 5.15152 85.4678 5.15152Z" stroke-dasharray="0,0,0,0,0,58.02508544921875"><animate attributeType="XML" attributeName="stroke-dasharray" repeatCount="indefinite" dur="4.545454545454546s" values="0,0,0,0,0,58.02508544921875; 0,0,0,49.32132263183593,8.703762817382811,0; 0,0,4.351881408691406,53.673204040527345,0,0; 0,29.012542724609375,0,29.012542724609375,0,0" keyTimes="0; 0.5; 0.575; 1"></animate></path>
<path d="M114.425 7.07405V9.42381C113.215 8.03531 111.471 7.07405 109.762 7.07405H97.3063C94.1745 7.07405 91.0783 10.1715 91.0783 13.3045V19.5349C91.0783 22.6323 94.1745 25.7653 97.3063 25.7653H109.762C111.471 25.7653 113.215 24.8041 114.425 23.38V25.7653C114.425 27.2962 112.859 28.8627 111.293 28.8627H91.0783C91.0783 31.2125 94.1745 33.5266 97.3063 33.5266H109.762C112.859 33.5266 115.99 31.2125 115.99 28.8627V7.07405H114.425ZM114.425 19.5349H97.3063C94.9575 19.5349 92.6086 17.1851 92.6086 14.8354V13.3045H109.762C112.076 13.3045 114.425 15.6186 114.425 17.9684V19.5349Z" stroke-dasharray="0,0,0,0,0,195.64581298828125"><animate attributeType="XML" attributeName="stroke-dasharray" repeatCount="indefinite" dur="4.545454545454546s" values="0,0,0,0,0,195.64581298828125; 0,0,0,166.29894104003907,29.346871948242185,0; 0,0,14.673435974121093,180.97237701416017,0,0; 0,97.82290649414062,0,97.82290649414062,0,0" keyTimes="0; 0.5; 0.575; 1"></animate></path>
<path d="M138.084 6.96724H124.881V0.736816H118.653V25.6585C121.749 25.6585 124.881 22.5611 124.881 19.4281V8.53375H131.856C134.597 8.53375 137.301 11.2751 137.337 13.9809V25.6585C140.433 25.6585 143.565 22.5611 143.565 19.4281V12.45C143.565 9.70863 140.825 7.00284 138.084 6.96724Z" stroke-dasharray="0,0,0,0,0,123.33462524414062"><animate attributeType="XML" attributeName="stroke-dasharray" repeatCount="indefinite" dur="4.545454545454546s" values="0,0,0,0,0,123.33462524414062; 0,0,0,104.83443145751953,18.500193786621093,0; 0,0,9.250096893310547,114.08452835083008,0,0; 0,61.66731262207031,0,61.66731262207031,0,0" keyTimes="0; 0.5; 0.575; 1"></animate></path>
<path d="M158.434 24.1276C156.121 24.1276 153.772 21.7778 153.772 19.4281V8.53375H156.904V6.96724H153.772V0.736816H147.544V6.96724H144.448V8.53375H147.544V19.4281C147.544 22.5611 150.676 25.6585 153.772 25.6585H160V24.1276H158.434Z" stroke-dasharray="0,0,0,0,0,82.28587341308594"><animate attributeType="XML" attributeName="stroke-dasharray" repeatCount="indefinite" dur="4.545454545454546s" values="0,0,0,0,0,82.28587341308594; 0,0,0,69.94299240112305,12.34288101196289,0; 0,0,6.171440505981445,76.1144329071045,0,0; 0,41.14293670654297,0,41.14293670654297,0,0" keyTimes="0; 0.5; 0.575; 1"></animate></path>
</mask>
<path d="M23.3463 0.772418V7.00284H6.22805C3.09623 7.00284 0 10.1003 0 13.2333V19.4637C0 22.5611 3.09623 25.6941 6.22805 25.6941H18.6842C20.3924 25.6941 22.1363 24.7328 23.3463 23.3088V25.6941H24.9122V0.772418H23.3463ZM23.3463 14.7998C23.3463 17.1139 20.9974 19.4637 18.6842 19.4637H1.53032V17.8972C1.53032 15.5474 3.87919 13.2333 6.22805 13.2333H23.3463V14.7998Z" fill="white" stroke-dasharray="0,0,0,0,0,149.04945373535156"><animate attributeType="XML" attributeName="stroke-dasharray" repeatCount="indefinite" dur="4.545454545454546s" values="0,0,0,0,0,149.04945373535156; 0,0,0,126.69203567504883,22.357418060302734,0; 0,0,11.178709030151367,137.8707447052002,0,0; 0,74.52472686767578,0,74.52472686767578,0,0" keyTimes="0; 0.5; 0.575; 1"></animate></path>
<path d="M52.2731 11.6668V6.96724C49.1769 6.96724 46.045 9.317 46.045 11.6668C46.045 13.3401 44.23 14.9778 42.0947 15.5474H33.8025V0.736816H27.5744V25.6585C30.6706 25.6585 33.8025 22.5611 33.8025 19.4281V17.1139H42.0947C44.23 17.6836 46.045 19.3213 46.045 20.9946C46.045 23.3444 49.1769 25.6585 52.2731 25.6585V20.9946C52.2731 18.716 49.2836 16.4375 46.2586 16.3307C49.2836 16.2239 52.2731 13.9453 52.2731 11.6668Z" fill="white" stroke-dasharray="0,0,0,0,0,129.20346069335938"><animate attributeType="XML" attributeName="stroke-dasharray" repeatCount="indefinite" dur="4.545454545454546s" values="0,0,0,0,0,129.20346069335938; 0,0,0,109.82294158935547,19.380519104003906,0; 0,0,9.690259552001953,119.51320114135743,0,0; 0,64.60173034667969,0,64.60173034667969,0,0" keyTimes="0; 0.5; 0.575; 1"></animate></path>
<path d="M74.4066 6.96724H54.9751V25.6585C58.0713 25.6585 61.2031 22.5611 61.2031 19.4281V8.53375H68.1785C70.9189 8.53375 73.6236 11.2395 73.6592 13.9809V25.6585C76.7554 25.6585 79.8873 22.5611 79.8873 19.4281V12.4144C79.8873 9.70863 77.1469 6.96724 74.4066 6.96724Z" fill="white" stroke-dasharray="0,0,0,0,0,110.89606475830078"><animate attributeType="XML" attributeName="stroke-dasharray" repeatCount="indefinite" dur="4.545454545454546s" values="0,0,0,0,0,110.89606475830078; 0,0,0,94.26165504455567,16.634409713745118,0; 0,0,8.317204856872559,102.57885990142823,0,0; 0,55.44803237915039,0,55.44803237915039,0,0" keyTimes="0; 0.5; 0.575; 1"></animate></path>
<path d="M82.5495 8.10652V25.6941C85.4678 25.6941 88.386 22.7391 88.386 19.8197V8.10652H82.5495ZM85.4678 5.15152C86.6778 5.15152 87.6743 4.19025 87.6743 2.94417C87.6743 1.73368 86.6778 0.772418 85.4678 0.772418C84.2577 0.772418 83.2612 1.73368 83.2612 2.94417C83.2612 4.19025 84.2577 5.15152 85.4678 5.15152Z" fill="white" stroke-dasharray="0,0,0,0,0,58.02508544921875"><animate attributeType="XML" attributeName="stroke-dasharray" repeatCount="indefinite" dur="4.545454545454546s" values="0,0,0,0,0,58.02508544921875; 0,0,0,49.32132263183593,8.703762817382811,0; 0,0,4.351881408691406,53.673204040527345,0,0; 0,29.012542724609375,0,29.012542724609375,0,0" keyTimes="0; 0.5; 0.575; 1"></animate></path>
<path d="M114.425 7.07405V9.42381C113.215 8.03531 111.471 7.07405 109.762 7.07405H97.3063C94.1745 7.07405 91.0783 10.1715 91.0783 13.3045V19.5349C91.0783 22.6323 94.1745 25.7653 97.3063 25.7653H109.762C111.471 25.7653 113.215 24.8041 114.425 23.38V25.7653C114.425 27.2962 112.859 28.8627 111.293 28.8627H91.0783C91.0783 31.2125 94.1745 33.5266 97.3063 33.5266H109.762C112.859 33.5266 115.99 31.2125 115.99 28.8627V7.07405H114.425ZM114.425 19.5349H97.3063C94.9575 19.5349 92.6086 17.1851 92.6086 14.8354V13.3045H109.762C112.076 13.3045 114.425 15.6186 114.425 17.9684V19.5349Z" fill="white" stroke-dasharray="0,0,0,0,0,195.64581298828125"><animate attributeType="XML" attributeName="stroke-dasharray" repeatCount="indefinite" dur="4.545454545454546s" values="0,0,0,0,0,195.64581298828125; 0,0,0,166.29894104003907,29.346871948242185,0; 0,0,14.673435974121093,180.97237701416017,0,0; 0,97.82290649414062,0,97.82290649414062,0,0" keyTimes="0; 0.5; 0.575; 1"></animate></path>
<path d="M138.084 6.96724H124.881V0.736816H118.653V25.6585C121.749 25.6585 124.881 22.5611 124.881 19.4281V8.53375H131.856C134.597 8.53375 137.301 11.2751 137.337 13.9809V25.6585C140.433 25.6585 143.565 22.5611 143.565 19.4281V12.45C143.565 9.70863 140.825 7.00284 138.084 6.96724Z" fill="white" stroke-dasharray="0,0,0,0,0,123.33462524414062"><animate attributeType="XML" attributeName="stroke-dasharray" repeatCount="indefinite" dur="4.545454545454546s" values="0,0,0,0,0,123.33462524414062; 0,0,0,104.83443145751953,18.500193786621093,0; 0,0,9.250096893310547,114.08452835083008,0,0; 0,61.66731262207031,0,61.66731262207031,0,0" keyTimes="0; 0.5; 0.575; 1"></animate></path>
<path d="M158.434 24.1276C156.121 24.1276 153.772 21.7778 153.772 19.4281V8.53375H156.904V6.96724H153.772V0.736816H147.544V6.96724H144.448V8.53375H147.544V19.4281C147.544 22.5611 150.676 25.6585 153.772 25.6585H160V24.1276H158.434Z" fill="white" stroke-dasharray="0,0,0,0,0,82.28587341308594"><animate attributeType="XML" attributeName="stroke-dasharray" repeatCount="indefinite" dur="4.545454545454546s" values="0,0,0,0,0,82.28587341308594; 0,0,0,69.94299240112305,12.34288101196289,0; 0,0,6.171440505981445,76.1144329071045,0,0; 0,41.14293670654297,0,41.14293670654297,0,0" keyTimes="0; 0.5; 0.575; 1"></animate></path>
<path d="M23.3463 0.772418V7.00284H6.22805C3.09623 7.00284 0 10.1003 0 13.2333V19.4637C0 22.5611 3.09623 25.6941 6.22805 25.6941H18.6842C20.3924 25.6941 22.1363 24.7328 23.3463 23.3088V25.6941H24.9122V0.772418H23.3463ZM23.3463 14.7998C23.3463 17.1139 20.9974 19.4637 18.6842 19.4637H1.53032V17.8972C1.53032 15.5474 3.87919 13.2333 6.22805 13.2333H23.3463V14.7998Z" stroke="url(#paint0_diamond_818_37758)" stroke-width="0.718025" mask="url(#path-1-inside-1_818_37758)" stroke-dasharray="0,0,0,0,0,149.04945373535156"><animate attributeType="XML" attributeName="stroke-dasharray" repeatCount="indefinite" dur="4.545454545454546s" values="0,0,0,0,0,149.04945373535156; 0,0,0,126.69203567504883,22.357418060302734,0; 0,0,11.178709030151367,137.8707447052002,0,0; 0,74.52472686767578,0,74.52472686767578,0,0" keyTimes="0; 0.5; 0.575; 1"></animate></path>
<path d="M52.2731 11.6668V6.96724C49.1769 6.96724 46.045 9.317 46.045 11.6668C46.045 13.3401 44.23 14.9778 42.0947 15.5474H33.8025V0.736816H27.5744V25.6585C30.6706 25.6585 33.8025 22.5611 33.8025 19.4281V17.1139H42.0947C44.23 17.6836 46.045 19.3213 46.045 20.9946C46.045 23.3444 49.1769 25.6585 52.2731 25.6585V20.9946C52.2731 18.716 49.2836 16.4375 46.2586 16.3307C49.2836 16.2239 52.2731 13.9453 52.2731 11.6668Z" stroke="url(#paint1_diamond_818_37758)" stroke-width="0.718025" mask="url(#path-1-inside-1_818_37758)" stroke-dasharray="0,0,0,0,0,129.20346069335938"><animate attributeType="XML" attributeName="stroke-dasharray" repeatCount="indefinite" dur="4.545454545454546s" values="0,0,0,0,0,129.20346069335938; 0,0,0,109.82294158935547,19.380519104003906,0; 0,0,9.690259552001953,119.51320114135743,0,0; 0,64.60173034667969,0,64.60173034667969,0,0" keyTimes="0; 0.5; 0.575; 1"></animate></path>
<path d="M74.4066 6.96724H54.9751V25.6585C58.0713 25.6585 61.2031 22.5611 61.2031 19.4281V8.53375H68.1785C70.9189 8.53375 73.6236 11.2395 73.6592 13.9809V25.6585C76.7554 25.6585 79.8873 22.5611 79.8873 19.4281V12.4144C79.8873 9.70863 77.1469 6.96724 74.4066 6.96724Z" stroke="url(#paint2_diamond_818_37758)" stroke-width="0.718025" mask="url(#path-1-inside-1_818_37758)" stroke-dasharray="0,0,0,0,0,110.89606475830078"><animate attributeType="XML" attributeName="stroke-dasharray" repeatCount="indefinite" dur="4.545454545454546s" values="0,0,0,0,0,110.89606475830078; 0,0,0,94.26165504455567,16.634409713745118,0; 0,0,8.317204856872559,102.57885990142823,0,0; 0,55.44803237915039,0,55.44803237915039,0,0" keyTimes="0; 0.5; 0.575; 1"></animate></path>
<path d="M82.5495 8.10652V25.6941C85.4678 25.6941 88.386 22.7391 88.386 19.8197V8.10652H82.5495ZM85.4678 5.15152C86.6778 5.15152 87.6743 4.19025 87.6743 2.94417C87.6743 1.73368 86.6778 0.772418 85.4678 0.772418C84.2577 0.772418 83.2612 1.73368 83.2612 2.94417C83.2612 4.19025 84.2577 5.15152 85.4678 5.15152Z" stroke="url(#paint3_diamond_818_37758)" stroke-width="0.718025" mask="url(#path-1-inside-1_818_37758)" stroke-dasharray="0,0,0,0,0,58.02508544921875"><animate attributeType="XML" attributeName="stroke-dasharray" repeatCount="indefinite" dur="4.545454545454546s" values="0,0,0,0,0,58.02508544921875; 0,0,0,49.32132263183593,8.703762817382811,0; 0,0,4.351881408691406,53.673204040527345,0,0; 0,29.012542724609375,0,29.012542724609375,0,0" keyTimes="0; 0.5; 0.575; 1"></animate></path>
<path d="M114.425 7.07405V9.42381C113.215 8.03531 111.471 7.07405 109.762 7.07405H97.3063C94.1745 7.07405 91.0783 10.1715 91.0783 13.3045V19.5349C91.0783 22.6323 94.1745 25.7653 97.3063 25.7653H109.762C111.471 25.7653 113.215 24.8041 114.425 23.38V25.7653C114.425 27.2962 112.859 28.8627 111.293 28.8627H91.0783C91.0783 31.2125 94.1745 33.5266 97.3063 33.5266H109.762C112.859 33.5266 115.99 31.2125 115.99 28.8627V7.07405H114.425ZM114.425 19.5349H97.3063C94.9575 19.5349 92.6086 17.1851 92.6086 14.8354V13.3045H109.762C112.076 13.3045 114.425 15.6186 114.425 17.9684V19.5349Z" stroke="url(#paint4_diamond_818_37758)" stroke-width="0.718025" mask="url(#path-1-inside-1_818_37758)" stroke-dasharray="0,0,0,0,0,195.64581298828125"><animate attributeType="XML" attributeName="stroke-dasharray" repeatCount="indefinite" dur="4.545454545454546s" values="0,0,0,0,0,195.64581298828125; 0,0,0,166.29894104003907,29.346871948242185,0; 0,0,14.673435974121093,180.97237701416017,0,0; 0,97.82290649414062,0,97.82290649414062,0,0" keyTimes="0; 0.5; 0.575; 1"></animate></path>
<path d="M138.084 6.96724H124.881V0.736816H118.653V25.6585C121.749 25.6585 124.881 22.5611 124.881 19.4281V8.53375H131.856C134.597 8.53375 137.301 11.2751 137.337 13.9809V25.6585C140.433 25.6585 143.565 22.5611 143.565 19.4281V12.45C143.565 9.70863 140.825 7.00284 138.084 6.96724Z" stroke="url(#paint5_diamond_818_37758)" stroke-width="0.718025" mask="url(#path-1-inside-1_818_37758)" stroke-dasharray="0,0,0,0,0,123.33462524414062"><animate attributeType="XML" attributeName="stroke-dasharray" repeatCount="indefinite" dur="4.545454545454546s" values="0,0,0,0,0,123.33462524414062; 0,0,0,104.83443145751953,18.500193786621093,0; 0,0,9.250096893310547,114.08452835083008,0,0; 0,61.66731262207031,0,61.66731262207031,0,0" keyTimes="0; 0.5; 0.575; 1"></animate></path>
<path d="M158.434 24.1276C156.121 24.1276 153.772 21.7778 153.772 19.4281V8.53375H156.904V6.96724H153.772V0.736816H147.544V6.96724H144.448V8.53375H147.544V19.4281C147.544 22.5611 150.676 25.6585 153.772 25.6585H160V24.1276H158.434Z" stroke="url(#paint6_diamond_818_37758)" stroke-width="0.718025" mask="url(#path-1-inside-1_818_37758)" stroke-dasharray="0,0,0,0,0,82.28587341308594"><animate attributeType="XML" attributeName="stroke-dasharray" repeatCount="indefinite" dur="4.545454545454546s" values="0,0,0,0,0,82.28587341308594; 0,0,0,69.94299240112305,12.34288101196289,0; 0,0,6.171440505981445,76.1144329071045,0,0; 0,41.14293670654297,0,41.14293670654297,0,0" keyTimes="0; 0.5; 0.575; 1"></animate></path>
<defs>
<radialGradient id="paint0_diamond_818_37758" cx="0" cy="0" r="1" gradientUnits="userSpaceOnUse" gradientTransform="translate(112 8.36045) rotate(141.817) scale(40.7104 81.0668)">
<stop stop-color="#BCEEEB"></stop>
<stop offset="0.0001" stop-color="#E1EEBC"></stop>
<stop offset="1" stop-color="#BCD9EE"></stop>
</radialGradient>
<radialGradient id="paint1_diamond_818_37758" cx="0" cy="0" r="1" gradientUnits="userSpaceOnUse" gradientTransform="translate(112 8.36045) rotate(141.817) scale(40.7104 81.0668)">
<stop stop-color="#BCEEEB"></stop>
<stop offset="0.0001" stop-color="#E1EEBC"></stop>
<stop offset="1" stop-color="#BCD9EE"></stop>
</radialGradient>
<radialGradient id="paint2_diamond_818_37758" cx="0" cy="0" r="1" gradientUnits="userSpaceOnUse" gradientTransform="translate(112 8.36045) rotate(141.817) scale(40.7104 81.0668)">
<stop stop-color="#BCEEEB"></stop>
<stop offset="0.0001" stop-color="#E1EEBC"></stop>
<stop offset="1" stop-color="#BCD9EE"></stop>
</radialGradient>
<radialGradient id="paint3_diamond_818_37758" cx="0" cy="0" r="1" gradientUnits="userSpaceOnUse" gradientTransform="translate(112 8.36045) rotate(141.817) scale(40.7104 81.0668)">
<stop stop-color="#BCEEEB"></stop>
<stop offset="0.0001" stop-color="#E1EEBC"></stop>
<stop offset="1" stop-color="#BCD9EE"></stop>
</radialGradient>
<radialGradient id="paint4_diamond_818_37758" cx="0" cy="0" r="1" gradientUnits="userSpaceOnUse" gradientTransform="translate(112 8.36045) rotate(141.817) scale(40.7104 81.0668)">
<stop stop-color="#BCEEEB"></stop>
<stop offset="0.0001" stop-color="#E1EEBC"></stop>
<stop offset="1" stop-color="#BCD9EE"></stop>
</radialGradient>
<radialGradient id="paint5_diamond_818_37758" cx="0" cy="0" r="1" gradientUnits="userSpaceOnUse" gradientTransform="translate(112 8.36045) rotate(141.817) scale(40.7104 81.0668)">
<stop stop-color="#BCEEEB"></stop>
<stop offset="0.0001" stop-color="#E1EEBC"></stop>
<stop offset="1" stop-color="#BCD9EE"></stop>
</radialGradient>
<radialGradient id="paint6_diamond_818_37758" cx="0" cy="0" r="1" gradientUnits="userSpaceOnUse" gradientTransform="translate(112 8.36045) rotate(141.817) scale(40.7104 81.0668)">
<stop stop-color="#BCEEEB"></stop>
<stop offset="0.0001" stop-color="#E1EEBC"></stop>
<stop offset="1" stop-color="#BCD9EE"></stop>
</radialGradient>
</defs>
<setting>{"type":"shift","speed":11,"random":1,"shift":1,"size":1,"rupture":15}</setting></svg>