<svg width="358" height="229" viewBox="0 0 358 229" fill="none" xmlns="http://www.w3.org/2000/svg">
<g filter="url(#filter0_bdi_815_29250)">
<mask id="path-1-inside-1_815_29250" fill="white">
<path d="M122.382 96.0338V101.944H105.268C102.137 101.944 99.0415 104.883 99.0415 107.855V113.766C99.0415 116.704 102.137 119.676 105.268 119.676H117.721C119.429 119.676 121.172 118.764 122.382 117.413V119.676H123.947V96.0338H122.382ZM122.382 109.341C122.382 111.537 120.034 113.766 117.721 113.766H100.571V112.28C100.571 110.05 102.92 107.855 105.268 107.855H122.382V109.341Z"/>
<path d="M151.301 106.369V101.911C148.206 101.911 145.075 104.14 145.075 106.369C145.075 107.956 143.26 109.51 141.125 110.05H132.835V96H126.609V119.643C129.704 119.643 132.835 116.704 132.835 113.732V111.537H141.125C143.26 112.077 145.075 113.631 145.075 115.218C145.075 117.447 148.206 119.643 151.301 119.643V115.218C151.301 113.056 148.312 110.895 145.288 110.793C148.312 110.692 151.301 108.531 151.301 106.369Z"/>
<path d="M173.429 101.911H154.002V119.643C157.098 119.643 160.229 116.704 160.229 113.732V103.397H167.202C169.942 103.397 172.646 105.964 172.682 108.564V119.643C175.777 119.643 178.908 116.704 178.908 113.732V107.078C178.908 104.511 176.169 101.911 173.429 101.911Z"/>
<path d="M181.57 102.991V119.676C184.487 119.676 187.405 116.873 187.405 114.103V102.991H181.57ZM184.487 100.188C185.697 100.188 186.693 99.2762 186.693 98.0941C186.693 96.9457 185.697 96.0338 184.487 96.0338C183.278 96.0338 182.281 96.9457 182.281 98.0941C182.281 99.2762 183.278 100.188 184.487 100.188Z"/>
<path d="M213.437 102.012V104.241C212.227 102.924 210.483 102.012 208.776 102.012H196.323C193.192 102.012 190.096 104.95 190.096 107.923V113.833C190.096 116.772 193.192 119.744 196.323 119.744H208.776C210.483 119.744 212.227 118.832 213.437 117.481V119.744C213.437 121.196 211.871 122.682 210.306 122.682H190.096C190.096 124.911 193.192 127.107 196.323 127.107H208.776C211.871 127.107 215.002 124.911 215.002 122.682V102.012H213.437ZM213.437 113.833H196.323C193.974 113.833 191.626 111.604 191.626 109.375V107.923H208.776C211.088 107.923 213.437 110.118 213.437 112.347V113.833Z"/>
<path d="M237.09 101.911H223.89V96H217.664V119.643C220.759 119.643 223.89 116.704 223.89 113.732V103.397H230.864C233.603 103.397 236.307 105.997 236.343 108.564V119.643C239.438 119.643 242.569 116.704 242.569 113.732V107.112C242.569 104.511 239.83 101.944 237.09 101.911Z"/>
<path d="M257.435 118.19C255.122 118.19 252.774 115.961 252.774 113.732V103.397H255.905V101.911H252.774V96H246.547V101.911H243.452V103.397H246.547V113.732C246.547 116.704 249.678 119.643 252.774 119.643H259V118.19H257.435Z"/>
</mask>
<path d="M122.382 96.0338V101.944H105.268C102.137 101.944 99.0415 104.883 99.0415 107.855V113.766C99.0415 116.704 102.137 119.676 105.268 119.676H117.721C119.429 119.676 121.172 118.764 122.382 117.413V119.676H123.947V96.0338H122.382ZM122.382 109.341C122.382 111.537 120.034 113.766 117.721 113.766H100.571V112.28C100.571 110.05 102.92 107.855 105.268 107.855H122.382V109.341Z" fill="#C4C4C4" fill-opacity="0.1" shape-rendering="crispEdges"/>
<path d="M151.301 106.369V101.911C148.206 101.911 145.075 104.14 145.075 106.369C145.075 107.956 143.26 109.51 141.125 110.05H132.835V96H126.609V119.643C129.704 119.643 132.835 116.704 132.835 113.732V111.537H141.125C143.26 112.077 145.075 113.631 145.075 115.218C145.075 117.447 148.206 119.643 151.301 119.643V115.218C151.301 113.056 148.312 110.895 145.288 110.793C148.312 110.692 151.301 108.531 151.301 106.369Z" fill="#C4C4C4" fill-opacity="0.1" shape-rendering="crispEdges"/>
<path d="M173.429 101.911H154.002V119.643C157.098 119.643 160.229 116.704 160.229 113.732V103.397H167.202C169.942 103.397 172.646 105.964 172.682 108.564V119.643C175.777 119.643 178.908 116.704 178.908 113.732V107.078C178.908 104.511 176.169 101.911 173.429 101.911Z" fill="#C4C4C4" fill-opacity="0.1" shape-rendering="crispEdges"/>
<path d="M181.57 102.991V119.676C184.487 119.676 187.405 116.873 187.405 114.103V102.991H181.57ZM184.487 100.188C185.697 100.188 186.693 99.2762 186.693 98.0941C186.693 96.9457 185.697 96.0338 184.487 96.0338C183.278 96.0338 182.281 96.9457 182.281 98.0941C182.281 99.2762 183.278 100.188 184.487 100.188Z" fill="#C4C4C4" fill-opacity="0.1" shape-rendering="crispEdges"/>
<path d="M213.437 102.012V104.241C212.227 102.924 210.483 102.012 208.776 102.012H196.323C193.192 102.012 190.096 104.95 190.096 107.923V113.833C190.096 116.772 193.192 119.744 196.323 119.744H208.776C210.483 119.744 212.227 118.832 213.437 117.481V119.744C213.437 121.196 211.871 122.682 210.306 122.682H190.096C190.096 124.911 193.192 127.107 196.323 127.107H208.776C211.871 127.107 215.002 124.911 215.002 122.682V102.012H213.437ZM213.437 113.833H196.323C193.974 113.833 191.626 111.604 191.626 109.375V107.923H208.776C211.088 107.923 213.437 110.118 213.437 112.347V113.833Z" fill="#C4C4C4" fill-opacity="0.1" shape-rendering="crispEdges"/>
<path d="M237.09 101.911H223.89V96H217.664V119.643C220.759 119.643 223.89 116.704 223.89 113.732V103.397H230.864C233.603 103.397 236.307 105.997 236.343 108.564V119.643C239.438 119.643 242.569 116.704 242.569 113.732V107.112C242.569 104.511 239.83 101.944 237.09 101.911Z" fill="#C4C4C4" fill-opacity="0.1" shape-rendering="crispEdges"/>
<path d="M257.435 118.19C255.122 118.19 252.774 115.961 252.774 113.732V103.397H255.905V101.911H252.774V96H246.547V101.911H243.452V103.397H246.547V113.732C246.547 116.704 249.678 119.643 252.774 119.643H259V118.19H257.435Z" fill="#C4C4C4" fill-opacity="0.1" shape-rendering="crispEdges"/>
<path d="M122.382 96.0338V101.944H105.268C102.137 101.944 99.0415 104.883 99.0415 107.855V113.766C99.0415 116.704 102.137 119.676 105.268 119.676H117.721C119.429 119.676 121.172 118.764 122.382 117.413V119.676H123.947V96.0338H122.382ZM122.382 109.341C122.382 111.537 120.034 113.766 117.721 113.766H100.571V112.28C100.571 110.05 102.92 107.855 105.268 107.855H122.382V109.341Z" stroke="white" stroke-opacity="0.8" stroke-width="0.599857" shape-rendering="crispEdges" mask="url(#path-1-inside-1_815_29250)"/>
<path d="M151.301 106.369V101.911C148.206 101.911 145.075 104.14 145.075 106.369C145.075 107.956 143.26 109.51 141.125 110.05H132.835V96H126.609V119.643C129.704 119.643 132.835 116.704 132.835 113.732V111.537H141.125C143.26 112.077 145.075 113.631 145.075 115.218C145.075 117.447 148.206 119.643 151.301 119.643V115.218C151.301 113.056 148.312 110.895 145.288 110.793C148.312 110.692 151.301 108.531 151.301 106.369Z" stroke="white" stroke-opacity="0.8" stroke-width="0.599857" shape-rendering="crispEdges" mask="url(#path-1-inside-1_815_29250)"/>
<path d="M173.429 101.911H154.002V119.643C157.098 119.643 160.229 116.704 160.229 113.732V103.397H167.202C169.942 103.397 172.646 105.964 172.682 108.564V119.643C175.777 119.643 178.908 116.704 178.908 113.732V107.078C178.908 104.511 176.169 101.911 173.429 101.911Z" stroke="white" stroke-opacity="0.8" stroke-width="0.599857" shape-rendering="crispEdges" mask="url(#path-1-inside-1_815_29250)"/>
<path d="M181.57 102.991V119.676C184.487 119.676 187.405 116.873 187.405 114.103V102.991H181.57ZM184.487 100.188C185.697 100.188 186.693 99.2762 186.693 98.0941C186.693 96.9457 185.697 96.0338 184.487 96.0338C183.278 96.0338 182.281 96.9457 182.281 98.0941C182.281 99.2762 183.278 100.188 184.487 100.188Z" stroke="white" stroke-opacity="0.8" stroke-width="0.599857" shape-rendering="crispEdges" mask="url(#path-1-inside-1_815_29250)"/>
<path d="M213.437 102.012V104.241C212.227 102.924 210.483 102.012 208.776 102.012H196.323C193.192 102.012 190.096 104.95 190.096 107.923V113.833C190.096 116.772 193.192 119.744 196.323 119.744H208.776C210.483 119.744 212.227 118.832 213.437 117.481V119.744C213.437 121.196 211.871 122.682 210.306 122.682H190.096C190.096 124.911 193.192 127.107 196.323 127.107H208.776C211.871 127.107 215.002 124.911 215.002 122.682V102.012H213.437ZM213.437 113.833H196.323C193.974 113.833 191.626 111.604 191.626 109.375V107.923H208.776C211.088 107.923 213.437 110.118 213.437 112.347V113.833Z" stroke="white" stroke-opacity="0.8" stroke-width="0.599857" shape-rendering="crispEdges" mask="url(#path-1-inside-1_815_29250)"/>
<path d="M237.09 101.911H223.89V96H217.664V119.643C220.759 119.643 223.89 116.704 223.89 113.732V103.397H230.864C233.603 103.397 236.307 105.997 236.343 108.564V119.643C239.438 119.643 242.569 116.704 242.569 113.732V107.112C242.569 104.511 239.83 101.944 237.09 101.911Z" stroke="white" stroke-opacity="0.8" stroke-width="0.599857" shape-rendering="crispEdges" mask="url(#path-1-inside-1_815_29250)"/>
<path d="M257.435 118.19C255.122 118.19 252.774 115.961 252.774 113.732V103.397H255.905V101.911H252.774V96H246.547V101.911H243.452V103.397H246.547V113.732C246.547 116.704 249.678 119.643 252.774 119.643H259V118.19H257.435Z" stroke="white" stroke-opacity="0.8" stroke-width="0.599857" shape-rendering="crispEdges" mask="url(#path-1-inside-1_815_29250)"/>
</g>
<mask id="path-2-inside-2_815_29250" fill="white">
<path d="M122.34 96.9264V102.837H105.226C102.095 102.837 99 105.775 99 108.748V114.658C99 117.597 102.095 120.569 105.226 120.569H117.679C119.387 120.569 121.131 119.657 122.34 118.306V120.569H123.906V96.9264H122.34ZM122.34 110.234C122.34 112.429 119.992 114.658 117.679 114.658H100.53V113.172C100.53 110.943 102.878 108.748 105.226 108.748H122.34V110.234ZM151.26 107.262V102.803C148.164 102.803 145.033 105.032 145.033 107.262C145.033 108.849 143.219 110.403 141.084 110.943H132.794V96.8926H126.567V120.535C129.663 120.535 132.794 117.597 132.794 114.624V112.429H141.084C143.219 112.969 145.033 114.523 145.033 116.111C145.033 118.34 148.164 120.535 151.26 120.535V116.111C151.26 113.949 148.271 111.787 145.247 111.686C148.271 111.585 151.26 109.423 151.26 107.262ZM173.387 102.803H153.961V120.535C157.056 120.535 160.187 117.597 160.187 114.624V104.289H167.161C169.901 104.289 172.605 106.856 172.64 109.457V120.535C175.736 120.535 178.867 117.597 178.867 114.624V107.971C178.867 105.404 176.127 102.803 173.387 102.803ZM181.528 103.884V120.569C184.446 120.569 187.363 117.766 187.363 114.996V103.884H181.528ZM184.446 101.081C185.655 101.081 186.652 100.169 186.652 98.9866C186.652 97.8383 185.655 96.9264 184.446 96.9264C183.236 96.9264 182.24 97.8383 182.24 98.9866C182.24 100.169 183.236 101.081 184.446 101.081ZM213.395 102.905V105.134C212.185 103.816 210.442 102.905 208.734 102.905H196.281C193.15 102.905 190.055 105.843 190.055 108.815V114.726C190.055 117.664 193.15 120.636 196.281 120.636H208.734C210.442 120.636 212.185 119.725 213.395 118.374V120.636C213.395 122.089 211.83 123.575 210.264 123.575H190.055C190.055 125.804 193.15 127.999 196.281 127.999H208.734C211.83 127.999 214.961 125.804 214.961 123.575V102.905H213.395ZM213.395 114.726H196.281C193.933 114.726 191.585 112.497 191.585 110.267V108.815H208.734C211.047 108.815 213.395 111.011 213.395 113.24V114.726ZM237.049 102.803H223.849V96.8926H217.622V120.535C220.718 120.535 223.849 117.597 223.849 114.624V104.289H230.822C233.562 104.289 236.266 106.89 236.301 109.457V120.535C239.397 120.535 242.528 117.597 242.528 114.624V108.005C242.528 105.404 239.788 102.837 237.049 102.803ZM257.393 119.083C255.081 119.083 252.732 116.854 252.732 114.624V104.289H255.863V102.803H252.732V96.8926H246.506V102.803H243.41V104.289H246.506V114.624C246.506 117.597 249.637 120.535 252.732 120.535H258.959V119.083H257.393Z"/>
</mask>
<path d="M122.34 96.9264V102.837H105.226C102.095 102.837 99 105.775 99 108.748V114.658C99 117.597 102.095 120.569 105.226 120.569H117.679C119.387 120.569 121.131 119.657 122.34 118.306V120.569H123.906V96.9264H122.34ZM122.34 110.234C122.34 112.429 119.992 114.658 117.679 114.658H100.53V113.172C100.53 110.943 102.878 108.748 105.226 108.748H122.34V110.234ZM151.26 107.262V102.803C148.164 102.803 145.033 105.032 145.033 107.262C145.033 108.849 143.219 110.403 141.084 110.943H132.794V96.8926H126.567V120.535C129.663 120.535 132.794 117.597 132.794 114.624V112.429H141.084C143.219 112.969 145.033 114.523 145.033 116.111C145.033 118.34 148.164 120.535 151.26 120.535V116.111C151.26 113.949 148.271 111.787 145.247 111.686C148.271 111.585 151.26 109.423 151.26 107.262ZM173.387 102.803H153.961V120.535C157.056 120.535 160.187 117.597 160.187 114.624V104.289H167.161C169.901 104.289 172.605 106.856 172.64 109.457V120.535C175.736 120.535 178.867 117.597 178.867 114.624V107.971C178.867 105.404 176.127 102.803 173.387 102.803ZM181.528 103.884V120.569C184.446 120.569 187.363 117.766 187.363 114.996V103.884H181.528ZM184.446 101.081C185.655 101.081 186.652 100.169 186.652 98.9866C186.652 97.8383 185.655 96.9264 184.446 96.9264C183.236 96.9264 182.24 97.8383 182.24 98.9866C182.24 100.169 183.236 101.081 184.446 101.081ZM213.395 102.905V105.134C212.185 103.816 210.442 102.905 208.734 102.905H196.281C193.15 102.905 190.055 105.843 190.055 108.815V114.726C190.055 117.664 193.15 120.636 196.281 120.636H208.734C210.442 120.636 212.185 119.725 213.395 118.374V120.636C213.395 122.089 211.83 123.575 210.264 123.575H190.055C190.055 125.804 193.15 127.999 196.281 127.999H208.734C211.83 127.999 214.961 125.804 214.961 123.575V102.905H213.395ZM213.395 114.726H196.281C193.933 114.726 191.585 112.497 191.585 110.267V108.815H208.734C211.047 108.815 213.395 111.011 213.395 113.24V114.726ZM237.049 102.803H223.849V96.8926H217.622V120.535C220.718 120.535 223.849 117.597 223.849 114.624V104.289H230.822C233.562 104.289 236.266 106.89 236.301 109.457V120.535C239.397 120.535 242.528 117.597 242.528 114.624V108.005C242.528 105.404 239.788 102.837 237.049 102.803ZM257.393 119.083C255.081 119.083 252.732 116.854 252.732 114.624V104.289H255.863V102.803H252.732V96.8926H246.506V102.803H243.41V104.289H246.506V114.624C246.506 117.597 249.637 120.535 252.732 120.535H258.959V119.083H257.393Z" stroke="url(#paint0_linear_815_29250)" stroke-width="0.599857" mask="url(#path-2-inside-2_815_29250)"/>
<g filter="url(#filter1_bdi_815_29250)">
<mask id="path-3-inside-3_815_29250" fill="white">
<path d="M122.382 96.0338V101.944H105.268C102.137 101.944 99.0415 104.883 99.0415 107.855V113.766C99.0415 116.704 102.137 119.676 105.268 119.676H117.721C119.429 119.676 121.172 118.764 122.382 117.413V119.676H123.947V96.0338H122.382ZM122.382 109.341C122.382 111.537 120.034 113.766 117.721 113.766H100.571V112.28C100.571 110.05 102.92 107.855 105.268 107.855H122.382V109.341Z"/>
<path d="M151.301 106.369V101.911C148.206 101.911 145.075 104.14 145.075 106.369C145.075 107.956 143.26 109.51 141.125 110.05H132.835V96H126.609V119.643C129.704 119.643 132.835 116.704 132.835 113.732V111.537H141.125C143.26 112.077 145.075 113.631 145.075 115.218C145.075 117.447 148.206 119.643 151.301 119.643V115.218C151.301 113.056 148.312 110.895 145.288 110.793C148.312 110.692 151.301 108.531 151.301 106.369Z"/>
<path d="M173.429 101.911H154.002V119.643C157.098 119.643 160.229 116.704 160.229 113.732V103.397H167.202C169.942 103.397 172.646 105.964 172.682 108.564V119.643C175.777 119.643 178.908 116.704 178.908 113.732V107.078C178.908 104.511 176.169 101.911 173.429 101.911Z"/>
<path d="M181.57 102.991V119.676C184.487 119.676 187.405 116.873 187.405 114.103V102.991H181.57ZM184.487 100.188C185.697 100.188 186.693 99.2762 186.693 98.0941C186.693 96.9457 185.697 96.0338 184.487 96.0338C183.278 96.0338 182.281 96.9457 182.281 98.0941C182.281 99.2762 183.278 100.188 184.487 100.188Z"/>
<path d="M213.437 102.012V104.241C212.227 102.924 210.483 102.012 208.776 102.012H196.323C193.192 102.012 190.096 104.95 190.096 107.923V113.833C190.096 116.772 193.192 119.744 196.323 119.744H208.776C210.483 119.744 212.227 118.832 213.437 117.481V119.744C213.437 121.196 211.871 122.682 210.306 122.682H190.096C190.096 124.911 193.192 127.107 196.323 127.107H208.776C211.871 127.107 215.002 124.911 215.002 122.682V102.012H213.437ZM213.437 113.833H196.323C193.974 113.833 191.626 111.604 191.626 109.375V107.923H208.776C211.088 107.923 213.437 110.118 213.437 112.347V113.833Z"/>
<path d="M237.09 101.911H223.89V96H217.664V119.643C220.759 119.643 223.89 116.704 223.89 113.732V103.397H230.864C233.603 103.397 236.307 105.997 236.343 108.564V119.643C239.438 119.643 242.569 116.704 242.569 113.732V107.112C242.569 104.511 239.83 101.944 237.09 101.911Z"/>
<path d="M257.435 118.19C255.122 118.19 252.774 115.961 252.774 113.732V103.397H255.905V101.911H252.774V96H246.547V101.911H243.452V103.397H246.547V113.732C246.547 116.704 249.678 119.643 252.774 119.643H259V118.19H257.435Z"/>
</mask>
<path d="M122.382 96.0338V101.944H105.268C102.137 101.944 99.0415 104.883 99.0415 107.855V113.766C99.0415 116.704 102.137 119.676 105.268 119.676H117.721C119.429 119.676 121.172 118.764 122.382 117.413V119.676H123.947V96.0338H122.382ZM122.382 109.341C122.382 111.537 120.034 113.766 117.721 113.766H100.571V112.28C100.571 110.05 102.92 107.855 105.268 107.855H122.382V109.341Z" fill="#C4C4C4" fill-opacity="0.1" shape-rendering="crispEdges"/>
<path d="M151.301 106.369V101.911C148.206 101.911 145.075 104.14 145.075 106.369C145.075 107.956 143.26 109.51 141.125 110.05H132.835V96H126.609V119.643C129.704 119.643 132.835 116.704 132.835 113.732V111.537H141.125C143.26 112.077 145.075 113.631 145.075 115.218C145.075 117.447 148.206 119.643 151.301 119.643V115.218C151.301 113.056 148.312 110.895 145.288 110.793C148.312 110.692 151.301 108.531 151.301 106.369Z" fill="#C4C4C4" fill-opacity="0.1" shape-rendering="crispEdges"/>
<path d="M173.429 101.911H154.002V119.643C157.098 119.643 160.229 116.704 160.229 113.732V103.397H167.202C169.942 103.397 172.646 105.964 172.682 108.564V119.643C175.777 119.643 178.908 116.704 178.908 113.732V107.078C178.908 104.511 176.169 101.911 173.429 101.911Z" fill="#C4C4C4" fill-opacity="0.1" shape-rendering="crispEdges"/>
<path d="M181.57 102.991V119.676C184.487 119.676 187.405 116.873 187.405 114.103V102.991H181.57ZM184.487 100.188C185.697 100.188 186.693 99.2762 186.693 98.0941C186.693 96.9457 185.697 96.0338 184.487 96.0338C183.278 96.0338 182.281 96.9457 182.281 98.0941C182.281 99.2762 183.278 100.188 184.487 100.188Z" fill="#C4C4C4" fill-opacity="0.1" shape-rendering="crispEdges"/>
<path d="M213.437 102.012V104.241C212.227 102.924 210.483 102.012 208.776 102.012H196.323C193.192 102.012 190.096 104.95 190.096 107.923V113.833C190.096 116.772 193.192 119.744 196.323 119.744H208.776C210.483 119.744 212.227 118.832 213.437 117.481V119.744C213.437 121.196 211.871 122.682 210.306 122.682H190.096C190.096 124.911 193.192 127.107 196.323 127.107H208.776C211.871 127.107 215.002 124.911 215.002 122.682V102.012H213.437ZM213.437 113.833H196.323C193.974 113.833 191.626 111.604 191.626 109.375V107.923H208.776C211.088 107.923 213.437 110.118 213.437 112.347V113.833Z" fill="#C4C4C4" fill-opacity="0.1" shape-rendering="crispEdges"/>
<path d="M237.09 101.911H223.89V96H217.664V119.643C220.759 119.643 223.89 116.704 223.89 113.732V103.397H230.864C233.603 103.397 236.307 105.997 236.343 108.564V119.643C239.438 119.643 242.569 116.704 242.569 113.732V107.112C242.569 104.511 239.83 101.944 237.09 101.911Z" fill="#C4C4C4" fill-opacity="0.1" shape-rendering="crispEdges"/>
<path d="M257.435 118.19C255.122 118.19 252.774 115.961 252.774 113.732V103.397H255.905V101.911H252.774V96H246.547V101.911H243.452V103.397H246.547V113.732C246.547 116.704 249.678 119.643 252.774 119.643H259V118.19H257.435Z" fill="#C4C4C4" fill-opacity="0.1" shape-rendering="crispEdges"/>
<path d="M122.382 96.0338V101.944H105.268C102.137 101.944 99.0415 104.883 99.0415 107.855V113.766C99.0415 116.704 102.137 119.676 105.268 119.676H117.721C119.429 119.676 121.172 118.764 122.382 117.413V119.676H123.947V96.0338H122.382ZM122.382 109.341C122.382 111.537 120.034 113.766 117.721 113.766H100.571V112.28C100.571 110.05 102.92 107.855 105.268 107.855H122.382V109.341Z" stroke="white" stroke-opacity="0.8" stroke-width="0.599857" shape-rendering="crispEdges" mask="url(#path-3-inside-3_815_29250)"/>
<path d="M151.301 106.369V101.911C148.206 101.911 145.075 104.14 145.075 106.369C145.075 107.956 143.26 109.51 141.125 110.05H132.835V96H126.609V119.643C129.704 119.643 132.835 116.704 132.835 113.732V111.537H141.125C143.26 112.077 145.075 113.631 145.075 115.218C145.075 117.447 148.206 119.643 151.301 119.643V115.218C151.301 113.056 148.312 110.895 145.288 110.793C148.312 110.692 151.301 108.531 151.301 106.369Z" stroke="white" stroke-opacity="0.8" stroke-width="0.599857" shape-rendering="crispEdges" mask="url(#path-3-inside-3_815_29250)"/>
<path d="M173.429 101.911H154.002V119.643C157.098 119.643 160.229 116.704 160.229 113.732V103.397H167.202C169.942 103.397 172.646 105.964 172.682 108.564V119.643C175.777 119.643 178.908 116.704 178.908 113.732V107.078C178.908 104.511 176.169 101.911 173.429 101.911Z" stroke="white" stroke-opacity="0.8" stroke-width="0.599857" shape-rendering="crispEdges" mask="url(#path-3-inside-3_815_29250)"/>
<path d="M181.57 102.991V119.676C184.487 119.676 187.405 116.873 187.405 114.103V102.991H181.57ZM184.487 100.188C185.697 100.188 186.693 99.2762 186.693 98.0941C186.693 96.9457 185.697 96.0338 184.487 96.0338C183.278 96.0338 182.281 96.9457 182.281 98.0941C182.281 99.2762 183.278 100.188 184.487 100.188Z" stroke="white" stroke-opacity="0.8" stroke-width="0.599857" shape-rendering="crispEdges" mask="url(#path-3-inside-3_815_29250)"/>
<path d="M213.437 102.012V104.241C212.227 102.924 210.483 102.012 208.776 102.012H196.323C193.192 102.012 190.096 104.95 190.096 107.923V113.833C190.096 116.772 193.192 119.744 196.323 119.744H208.776C210.483 119.744 212.227 118.832 213.437 117.481V119.744C213.437 121.196 211.871 122.682 210.306 122.682H190.096C190.096 124.911 193.192 127.107 196.323 127.107H208.776C211.871 127.107 215.002 124.911 215.002 122.682V102.012H213.437ZM213.437 113.833H196.323C193.974 113.833 191.626 111.604 191.626 109.375V107.923H208.776C211.088 107.923 213.437 110.118 213.437 112.347V113.833Z" stroke="white" stroke-opacity="0.8" stroke-width="0.599857" shape-rendering="crispEdges" mask="url(#path-3-inside-3_815_29250)"/>
<path d="M237.09 101.911H223.89V96H217.664V119.643C220.759 119.643 223.89 116.704 223.89 113.732V103.397H230.864C233.603 103.397 236.307 105.997 236.343 108.564V119.643C239.438 119.643 242.569 116.704 242.569 113.732V107.112C242.569 104.511 239.83 101.944 237.09 101.911Z" stroke="white" stroke-opacity="0.8" stroke-width="0.599857" shape-rendering="crispEdges" mask="url(#path-3-inside-3_815_29250)"/>
<path d="M257.435 118.19C255.122 118.19 252.774 115.961 252.774 113.732V103.397H255.905V101.911H252.774V96H246.547V101.911H243.452V103.397H246.547V113.732C246.547 116.704 249.678 119.643 252.774 119.643H259V118.19H257.435Z" stroke="white" stroke-opacity="0.8" stroke-width="0.599857" shape-rendering="crispEdges" mask="url(#path-3-inside-3_815_29250)"/>
</g>
<mask id="path-4-inside-4_815_29250" fill="white">
<path d="M122.34 96.9264V102.837H105.226C102.095 102.837 99 105.775 99 108.748V114.658C99 117.597 102.095 120.569 105.226 120.569H117.679C119.387 120.569 121.131 119.657 122.34 118.306V120.569H123.906V96.9264H122.34ZM122.34 110.234C122.34 112.429 119.992 114.658 117.679 114.658H100.53V113.172C100.53 110.943 102.878 108.748 105.226 108.748H122.34V110.234ZM151.26 107.262V102.803C148.164 102.803 145.033 105.032 145.033 107.262C145.033 108.849 143.219 110.403 141.084 110.943H132.794V96.8926H126.567V120.535C129.663 120.535 132.794 117.597 132.794 114.624V112.429H141.084C143.219 112.969 145.033 114.523 145.033 116.111C145.033 118.34 148.164 120.535 151.26 120.535V116.111C151.26 113.949 148.271 111.787 145.247 111.686C148.271 111.585 151.26 109.423 151.26 107.262ZM173.387 102.803H153.961V120.535C157.056 120.535 160.187 117.597 160.187 114.624V104.289H167.161C169.901 104.289 172.605 106.856 172.64 109.457V120.535C175.736 120.535 178.867 117.597 178.867 114.624V107.971C178.867 105.404 176.127 102.803 173.387 102.803ZM181.528 103.884V120.569C184.446 120.569 187.363 117.766 187.363 114.996V103.884H181.528ZM184.446 101.081C185.655 101.081 186.652 100.169 186.652 98.9866C186.652 97.8383 185.655 96.9264 184.446 96.9264C183.236 96.9264 182.24 97.8383 182.24 98.9866C182.24 100.169 183.236 101.081 184.446 101.081ZM213.395 102.905V105.134C212.185 103.816 210.442 102.905 208.734 102.905H196.281C193.15 102.905 190.055 105.843 190.055 108.815V114.726C190.055 117.664 193.15 120.636 196.281 120.636H208.734C210.442 120.636 212.185 119.725 213.395 118.374V120.636C213.395 122.089 211.83 123.575 210.264 123.575H190.055C190.055 125.804 193.15 127.999 196.281 127.999H208.734C211.83 127.999 214.961 125.804 214.961 123.575V102.905H213.395ZM213.395 114.726H196.281C193.933 114.726 191.585 112.497 191.585 110.267V108.815H208.734C211.047 108.815 213.395 111.011 213.395 113.24V114.726ZM237.049 102.803H223.849V96.8926H217.622V120.535C220.718 120.535 223.849 117.597 223.849 114.624V104.289H230.822C233.562 104.289 236.266 106.89 236.301 109.457V120.535C239.397 120.535 242.528 117.597 242.528 114.624V108.005C242.528 105.404 239.788 102.837 237.049 102.803ZM257.393 119.083C255.081 119.083 252.732 116.854 252.732 114.624V104.289H255.863V102.803H252.732V96.8926H246.506V102.803H243.41V104.289H246.506V114.624C246.506 117.597 249.637 120.535 252.732 120.535H258.959V119.083H257.393Z"/>
</mask>
<path d="M122.34 96.9264V102.837H105.226C102.095 102.837 99 105.775 99 108.748V114.658C99 117.597 102.095 120.569 105.226 120.569H117.679C119.387 120.569 121.131 119.657 122.34 118.306V120.569H123.906V96.9264H122.34ZM122.34 110.234C122.34 112.429 119.992 114.658 117.679 114.658H100.53V113.172C100.53 110.943 102.878 108.748 105.226 108.748H122.34V110.234ZM151.26 107.262V102.803C148.164 102.803 145.033 105.032 145.033 107.262C145.033 108.849 143.219 110.403 141.084 110.943H132.794V96.8926H126.567V120.535C129.663 120.535 132.794 117.597 132.794 114.624V112.429H141.084C143.219 112.969 145.033 114.523 145.033 116.111C145.033 118.34 148.164 120.535 151.26 120.535V116.111C151.26 113.949 148.271 111.787 145.247 111.686C148.271 111.585 151.26 109.423 151.26 107.262ZM173.387 102.803H153.961V120.535C157.056 120.535 160.187 117.597 160.187 114.624V104.289H167.161C169.901 104.289 172.605 106.856 172.64 109.457V120.535C175.736 120.535 178.867 117.597 178.867 114.624V107.971C178.867 105.404 176.127 102.803 173.387 102.803ZM181.528 103.884V120.569C184.446 120.569 187.363 117.766 187.363 114.996V103.884H181.528ZM184.446 101.081C185.655 101.081 186.652 100.169 186.652 98.9866C186.652 97.8383 185.655 96.9264 184.446 96.9264C183.236 96.9264 182.24 97.8383 182.24 98.9866C182.24 100.169 183.236 101.081 184.446 101.081ZM213.395 102.905V105.134C212.185 103.816 210.442 102.905 208.734 102.905H196.281C193.15 102.905 190.055 105.843 190.055 108.815V114.726C190.055 117.664 193.15 120.636 196.281 120.636H208.734C210.442 120.636 212.185 119.725 213.395 118.374V120.636C213.395 122.089 211.83 123.575 210.264 123.575H190.055C190.055 125.804 193.15 127.999 196.281 127.999H208.734C211.83 127.999 214.961 125.804 214.961 123.575V102.905H213.395ZM213.395 114.726H196.281C193.933 114.726 191.585 112.497 191.585 110.267V108.815H208.734C211.047 108.815 213.395 111.011 213.395 113.24V114.726ZM237.049 102.803H223.849V96.8926H217.622V120.535C220.718 120.535 223.849 117.597 223.849 114.624V104.289H230.822C233.562 104.289 236.266 106.89 236.301 109.457V120.535C239.397 120.535 242.528 117.597 242.528 114.624V108.005C242.528 105.404 239.788 102.837 237.049 102.803ZM257.393 119.083C255.081 119.083 252.732 116.854 252.732 114.624V104.289H255.863V102.803H252.732V96.8926H246.506V102.803H243.41V104.289H246.506V114.624C246.506 117.597 249.637 120.535 252.732 120.535H258.959V119.083H257.393Z" stroke="url(#paint1_linear_815_29250)" stroke-width="0.599857" mask="url(#path-4-inside-4_815_29250)"/>
<mask id="path-5-inside-5_815_29250" fill="white">
<path d="M122.34 96.9264V102.837H105.226C102.095 102.837 99 105.775 99 108.748V114.658C99 117.597 102.095 120.569 105.226 120.569H117.679C119.387 120.569 121.131 119.657 122.34 118.306V120.569H123.906V96.9264H122.34ZM122.34 110.234C122.34 112.429 119.992 114.658 117.679 114.658H100.53V113.172C100.53 110.943 102.878 108.748 105.226 108.748H122.34V110.234ZM151.26 107.262V102.803C148.164 102.803 145.033 105.032 145.033 107.262C145.033 108.849 143.219 110.403 141.084 110.943H132.794V96.8926H126.567V120.535C129.663 120.535 132.794 117.597 132.794 114.624V112.429H141.084C143.219 112.969 145.033 114.523 145.033 116.111C145.033 118.34 148.164 120.535 151.26 120.535V116.111C151.26 113.949 148.271 111.787 145.247 111.686C148.271 111.585 151.26 109.423 151.26 107.262ZM173.387 102.803H153.961V120.535C157.056 120.535 160.187 117.597 160.187 114.624V104.289H167.161C169.901 104.289 172.605 106.856 172.64 109.457V120.535C175.736 120.535 178.867 117.597 178.867 114.624V107.971C178.867 105.404 176.127 102.803 173.387 102.803ZM181.528 103.884V120.569C184.446 120.569 187.363 117.766 187.363 114.996V103.884H181.528ZM184.446 101.081C185.655 101.081 186.652 100.169 186.652 98.9866C186.652 97.8383 185.655 96.9264 184.446 96.9264C183.236 96.9264 182.24 97.8383 182.24 98.9866C182.24 100.169 183.236 101.081 184.446 101.081ZM213.395 102.905V105.134C212.185 103.816 210.442 102.905 208.734 102.905H196.281C193.15 102.905 190.055 105.843 190.055 108.815V114.726C190.055 117.664 193.15 120.636 196.281 120.636H208.734C210.442 120.636 212.185 119.725 213.395 118.374V120.636C213.395 122.089 211.83 123.575 210.264 123.575H190.055C190.055 125.804 193.15 127.999 196.281 127.999H208.734C211.83 127.999 214.961 125.804 214.961 123.575V102.905H213.395ZM213.395 114.726H196.281C193.933 114.726 191.585 112.497 191.585 110.267V108.815H208.734C211.047 108.815 213.395 111.011 213.395 113.24V114.726ZM237.049 102.803H223.849V96.8926H217.622V120.535C220.718 120.535 223.849 117.597 223.849 114.624V104.289H230.822C233.562 104.289 236.266 106.89 236.301 109.457V120.535C239.397 120.535 242.528 117.597 242.528 114.624V108.005C242.528 105.404 239.788 102.837 237.049 102.803ZM257.393 119.083C255.081 119.083 252.732 116.854 252.732 114.624V104.289H255.863V102.803H252.732V96.8926H246.506V102.803H243.41V104.289H246.506V114.624C246.506 117.597 249.637 120.535 252.732 120.535H258.959V119.083H257.393Z"/>
</mask>
<path d="M122.34 96.9264V102.837H105.226C102.095 102.837 99 105.775 99 108.748V114.658C99 117.597 102.095 120.569 105.226 120.569H117.679C119.387 120.569 121.131 119.657 122.34 118.306V120.569H123.906V96.9264H122.34ZM122.34 110.234C122.34 112.429 119.992 114.658 117.679 114.658H100.53V113.172C100.53 110.943 102.878 108.748 105.226 108.748H122.34V110.234ZM151.26 107.262V102.803C148.164 102.803 145.033 105.032 145.033 107.262C145.033 108.849 143.219 110.403 141.084 110.943H132.794V96.8926H126.567V120.535C129.663 120.535 132.794 117.597 132.794 114.624V112.429H141.084C143.219 112.969 145.033 114.523 145.033 116.111C145.033 118.34 148.164 120.535 151.26 120.535V116.111C151.26 113.949 148.271 111.787 145.247 111.686C148.271 111.585 151.26 109.423 151.26 107.262ZM173.387 102.803H153.961V120.535C157.056 120.535 160.187 117.597 160.187 114.624V104.289H167.161C169.901 104.289 172.605 106.856 172.64 109.457V120.535C175.736 120.535 178.867 117.597 178.867 114.624V107.971C178.867 105.404 176.127 102.803 173.387 102.803ZM181.528 103.884V120.569C184.446 120.569 187.363 117.766 187.363 114.996V103.884H181.528ZM184.446 101.081C185.655 101.081 186.652 100.169 186.652 98.9866C186.652 97.8383 185.655 96.9264 184.446 96.9264C183.236 96.9264 182.24 97.8383 182.24 98.9866C182.24 100.169 183.236 101.081 184.446 101.081ZM213.395 102.905V105.134C212.185 103.816 210.442 102.905 208.734 102.905H196.281C193.15 102.905 190.055 105.843 190.055 108.815V114.726C190.055 117.664 193.15 120.636 196.281 120.636H208.734C210.442 120.636 212.185 119.725 213.395 118.374V120.636C213.395 122.089 211.83 123.575 210.264 123.575H190.055C190.055 125.804 193.15 127.999 196.281 127.999H208.734C211.83 127.999 214.961 125.804 214.961 123.575V102.905H213.395ZM213.395 114.726H196.281C193.933 114.726 191.585 112.497 191.585 110.267V108.815H208.734C211.047 108.815 213.395 111.011 213.395 113.24V114.726ZM237.049 102.803H223.849V96.8926H217.622V120.535C220.718 120.535 223.849 117.597 223.849 114.624V104.289H230.822C233.562 104.289 236.266 106.89 236.301 109.457V120.535C239.397 120.535 242.528 117.597 242.528 114.624V108.005C242.528 105.404 239.788 102.837 237.049 102.803ZM257.393 119.083C255.081 119.083 252.732 116.854 252.732 114.624V104.289H255.863V102.803H252.732V96.8926H246.506V102.803H243.41V104.289H246.506V114.624C246.506 117.597 249.637 120.535 252.732 120.535H258.959V119.083H257.393Z" stroke="url(#paint2_linear_815_29250)" stroke-width="0.599857" mask="url(#path-5-inside-5_815_29250)"/>
<defs>
<filter id="filter0_bdi_815_29250" x="-57.6112" y="-60.6527" width="473.264" height="344.413" filterUnits="userSpaceOnUse" color-interpolation-filters="sRGB">
<feFlood flood-opacity="0" result="BackgroundImageFix"/>
<feGaussianBlur in="BackgroundImage" stdDeviation="78.3263"/>
<feComposite in2="SourceAlpha" operator="in" result="effect1_backgroundBlur_815_29250"/>
<feColorMatrix in="SourceAlpha" type="matrix" values="0 0 0 0 0 0 0 0 0 0 0 0 0 0 0 0 0 0 127 0" result="hardAlpha"/>
<feOffset dy="2.9343"/>
<feGaussianBlur stdDeviation="49.1495"/>
<feComposite in2="hardAlpha" operator="out"/>
<feColorMatrix type="matrix" values="0 0 0 0 0 0 0 0 0 0 0 0 0 0 0 0 0 0 0.55 0"/>
<feBlend mode="normal" in2="effect1_backgroundBlur_815_29250" result="effect2_dropShadow_815_29250"/>
<feBlend mode="normal" in="SourceGraphic" in2="effect2_dropShadow_815_29250" result="shape"/>
<feColorMatrix in="SourceAlpha" type="matrix" values="0 0 0 0 0 0 0 0 0 0 0 0 0 0 0 0 0 0 127 0" result="hardAlpha"/>
<feOffset dy="10.27"/>
<feGaussianBlur stdDeviation="16.1386"/>
<feComposite in2="hardAlpha" operator="arithmetic" k2="-1" k3="1"/>
<feColorMatrix type="matrix" values="0 0 0 0 1 0 0 0 0 1 0 0 0 0 1 0 0 0 0.1 0"/>
<feBlend mode="normal" in2="shape" result="effect3_innerShadow_815_29250"/>
</filter>
<filter id="filter1_bdi_815_29250" x="-57.6112" y="-60.6527" width="473.264" height="344.413" filterUnits="userSpaceOnUse" color-interpolation-filters="sRGB">
<feFlood flood-opacity="0" result="BackgroundImageFix"/>
<feGaussianBlur in="BackgroundImage" stdDeviation="78.3263"/>
<feComposite in2="SourceAlpha" operator="in" result="effect1_backgroundBlur_815_29250"/>
<feColorMatrix in="SourceAlpha" type="matrix" values="0 0 0 0 0 0 0 0 0 0 0 0 0 0 0 0 0 0 127 0" result="hardAlpha"/>
<feOffset dy="2.9343"/>
<feGaussianBlur stdDeviation="49.1495"/>
<feComposite in2="hardAlpha" operator="out"/>
<feColorMatrix type="matrix" values="0 0 0 0 0 0 0 0 0 0 0 0 0 0 0 0 0 0 0.55 0"/>
<feBlend mode="normal" in2="effect1_backgroundBlur_815_29250" result="effect2_dropShadow_815_29250"/>
<feBlend mode="normal" in="SourceGraphic" in2="effect2_dropShadow_815_29250" result="shape"/>
<feColorMatrix in="SourceAlpha" type="matrix" values="0 0 0 0 0 0 0 0 0 0 0 0 0 0 0 0 0 0 127 0" result="hardAlpha"/>
<feOffset dy="10.27"/>
<feGaussianBlur stdDeviation="16.1386"/>
<feComposite in2="hardAlpha" operator="arithmetic" k2="-1" k3="1"/>
<feColorMatrix type="matrix" values="0 0 0 0 1 0 0 0 0 1 0 0 0 0 1 0 0 0 0.1 0"/>
<feBlend mode="normal" in2="shape" result="effect3_innerShadow_815_29250"/>
</filter>
<linearGradient id="paint0_linear_815_29250" x1="118.194" y1="127.999" x2="118.328" y2="109.661" gradientUnits="userSpaceOnUse">
<stop stop-color="#B9FD02" stop-opacity="0"/>
<stop offset="0.172108" stop-color="#B9FD02"/>
<stop offset="0.495676" stop-color="#4553D2"/>
<stop offset="0.812641" stop-color="#B9FD02"/>
<stop offset="1" stop-color="#B9FD02" stop-opacity="0"/>
</linearGradient>
<linearGradient id="paint1_linear_815_29250" x1="105.729" y1="98.3065" x2="105.673" y2="111.485" gradientUnits="userSpaceOnUse">
<stop stop-color="#4959EC" stop-opacity="0"/>
<stop offset="0.172108" stop-color="#545AE9"/>
<stop offset="0.495676" stop-color="#AEED05"/>
<stop offset="0.812641" stop-color="#4959EC"/>
<stop offset="1" stop-color="#4959EC" stop-opacity="0"/>
</linearGradient>
<linearGradient id="paint2_linear_815_29250" x1="118.194" y1="127.999" x2="118.328" y2="109.661" gradientUnits="userSpaceOnUse">
<stop stop-color="#B9FD02" stop-opacity="0"/>
<stop offset="0.172108" stop-color="#B9FD02"/>
<stop offset="0.495676" stop-color="#4553D2"/>
<stop offset="0.812641" stop-color="#B9FD02"/>
<stop offset="1" stop-color="#B9FD02" stop-opacity="0"/>
</linearGradient>
</defs>
</svg>
