<svg width="162" height="34" viewBox="0 0 162 34" fill="none" xmlns="http://www.w3.org/2000/svg">
<path d="M24.3458 0.796951L24.3458 6.8773L7.22756 6.8773C4.09574 6.8773 0.999512 9.9001 0.999512 12.9576L0.999512 19.038C0.999511 22.0608 4.09574 25.1183 7.22756 25.1183L19.6837 25.1183C21.3919 25.1183 23.1358 24.1802 24.3458 22.7904L24.3458 25.1183L25.9117 25.1183L25.9117 0.796951L24.3458 0.796951ZM24.3458 14.4864C24.3458 16.7448 21.9969 19.038 19.6837 19.038L2.52983 19.038L2.52983 17.5092C2.52983 15.2161 4.8787 12.9576 7.22756 12.9576L24.3458 12.9576L24.3458 14.4864ZM53.2726 11.4289L53.2726 6.84255C50.1764 6.84255 47.0445 9.13571 47.0445 11.4289C47.0445 13.0619 45.2295 14.6601 43.0942 15.2161L34.802 15.2161L34.802 0.762207L28.5739 0.762207L28.5739 25.0836C31.6702 25.0836 34.802 22.0608 34.802 19.0032L34.802 16.7448L43.0942 16.7448C45.2295 17.3007 47.0445 18.899 47.0445 20.532C47.0445 22.8252 50.1764 25.0836 53.2726 25.0836L53.2726 20.532C53.2726 18.3083 50.2831 16.0847 47.2581 15.9804C50.2831 15.8762 53.2726 13.6525 53.2726 11.4289ZM75.4061 6.84255L55.9746 6.84255L55.9746 25.0836C59.0708 25.0836 62.2026 22.0608 62.2026 19.0032L62.2026 8.37133L69.178 8.37133C71.9184 8.37133 74.6231 11.0119 74.6587 13.6873L74.6587 25.0836C77.7549 25.0836 80.8868 22.0608 80.8868 19.0032L80.8868 12.1585C80.8868 9.51791 78.1464 6.84255 75.4061 6.84255ZM83.549 7.95439L83.549 25.1183C86.4673 25.1183 89.3856 22.2345 89.3856 19.3854L89.3856 7.95439L83.549 7.95439ZM86.4673 5.07057C87.6773 5.07057 88.6738 4.13246 88.6738 2.91639C88.6738 1.73506 87.6773 0.79695 86.4673 0.79695C85.2572 0.79695 84.2608 1.73506 84.2608 2.91639C84.2608 4.13246 85.2572 5.07057 86.4673 5.07057ZM115.424 6.94679L115.424 9.23995C114.214 7.8849 112.47 6.94679 110.762 6.94679L98.3058 6.94679C95.174 6.94679 92.0778 9.96959 92.0778 13.0271L92.0778 19.1075C92.0778 22.1303 95.174 25.1878 98.3058 25.1878L110.762 25.1878C112.47 25.1878 114.214 24.2497 115.424 22.8599L115.424 25.1878C115.424 26.6819 113.858 28.2106 112.292 28.2106L92.0778 28.2106C92.0778 30.5038 95.174 32.7622 98.3058 32.7622L110.762 32.7622C113.858 32.7622 116.99 30.5038 116.99 28.2106L116.99 6.94679L115.424 6.94679ZM115.424 19.1075L98.3058 19.1075C95.957 19.1075 93.6081 16.8143 93.6081 14.5212L93.6081 13.0271L110.762 13.0271C113.075 13.0271 115.424 15.2855 115.424 17.5787L115.424 19.1075ZM139.084 6.84255L125.88 6.84255L125.88 0.762205L119.652 0.762205L119.652 25.0836C122.748 25.0836 125.88 22.0608 125.88 19.0032L125.88 8.37132L132.856 8.37132C135.596 8.37132 138.301 11.0467 138.336 13.6873L138.336 25.0836C141.433 25.0836 144.564 22.0608 144.564 19.0032L144.564 12.1933C144.564 9.5179 141.824 6.8773 139.084 6.84255ZM159.434 23.5896C157.12 23.5896 154.771 21.2964 154.771 19.0032L154.771 8.37132L157.903 8.37132L157.903 6.84255L154.771 6.84255L154.771 0.762205L148.543 0.762205L148.543 6.84255L145.447 6.84255L145.447 8.37132L148.543 8.37132L148.543 19.0032C148.543 22.0608 151.675 25.0836 154.771 25.0836L161 25.0836L161 23.5896L159.434 23.5896Z" fill="black" stroke="url(#paint0_linear_815_29255)" stroke-width="0.65372"/>
<path d="M24.3458 0.796951L24.3458 6.8773L7.22756 6.8773C4.09574 6.8773 0.999512 9.9001 0.999512 12.9576L0.999512 19.038C0.999511 22.0608 4.09574 25.1183 7.22756 25.1183L19.6837 25.1183C21.3919 25.1183 23.1358 24.1802 24.3458 22.7904L24.3458 25.1183L25.9117 25.1183L25.9117 0.796951L24.3458 0.796951ZM24.3458 14.4864C24.3458 16.7448 21.9969 19.038 19.6837 19.038L2.52983 19.038L2.52983 17.5092C2.52983 15.2161 4.8787 12.9576 7.22756 12.9576L24.3458 12.9576L24.3458 14.4864Z" fill="black"/>
<path d="M53.2726 11.4289L53.2726 6.84255C50.1764 6.84255 47.0445 9.13571 47.0445 11.4289C47.0445 13.0619 45.2295 14.6601 43.0942 15.2161L34.802 15.2161L34.802 0.762207L28.5739 0.762207L28.5739 25.0836C31.6702 25.0836 34.802 22.0608 34.802 19.0032L34.802 16.7448L43.0942 16.7448C45.2295 17.3007 47.0445 18.899 47.0445 20.532C47.0445 22.8252 50.1764 25.0836 53.2726 25.0836L53.2726 20.532C53.2726 18.3083 50.2831 16.0847 47.2581 15.9804C50.2831 15.8762 53.2726 13.6525 53.2726 11.4289Z" fill="black"/>
<path d="M75.4061 6.84255L55.9746 6.84255L55.9746 25.0836C59.0708 25.0836 62.2026 22.0608 62.2026 19.0032L62.2026 8.37133L69.178 8.37133C71.9184 8.37133 74.6231 11.0119 74.6587 13.6873L74.6587 25.0836C77.7549 25.0836 80.8868 22.0608 80.8868 19.0032L80.8868 12.1585C80.8868 9.51791 78.1464 6.84255 75.4061 6.84255Z" fill="black"/>
<path d="M83.549 7.95439L83.549 25.1183C86.4673 25.1183 89.3856 22.2345 89.3856 19.3854L89.3856 7.95439L83.549 7.95439ZM86.4673 5.07057C87.6773 5.07057 88.6738 4.13246 88.6738 2.91639C88.6738 1.73506 87.6773 0.79695 86.4673 0.79695C85.2572 0.79695 84.2608 1.73506 84.2608 2.91639C84.2608 4.13246 85.2572 5.07057 86.4673 5.07057Z" fill="black"/>
<path d="M115.424 6.94679L115.424 9.23995C114.214 7.8849 112.47 6.94679 110.762 6.94679L98.3058 6.94679C95.174 6.94679 92.0778 9.96959 92.0778 13.0271L92.0778 19.1075C92.0778 22.1303 95.174 25.1878 98.3058 25.1878L110.762 25.1878C112.47 25.1878 114.214 24.2497 115.424 22.8599L115.424 25.1878C115.424 26.6819 113.858 28.2106 112.292 28.2106L92.0778 28.2106C92.0778 30.5038 95.174 32.7622 98.3058 32.7622L110.762 32.7622C113.858 32.7622 116.99 30.5038 116.99 28.2106L116.99 6.94679L115.424 6.94679ZM115.424 19.1075L98.3058 19.1075C95.957 19.1075 93.6081 16.8143 93.6081 14.5212L93.6081 13.0271L110.762 13.0271C113.075 13.0271 115.424 15.2855 115.424 17.5787L115.424 19.1075Z" fill="black"/>
<path d="M139.084 6.84255L125.88 6.84255L125.88 0.762205L119.652 0.762205L119.652 25.0836C122.748 25.0836 125.88 22.0608 125.88 19.0032L125.88 8.37132L132.856 8.37132C135.596 8.37132 138.301 11.0467 138.336 13.6873L138.336 25.0836C141.433 25.0836 144.564 22.0608 144.564 19.0032L144.564 12.1933C144.564 9.5179 141.824 6.8773 139.084 6.84255Z" fill="black"/>
<path d="M159.434 23.5896C157.12 23.5896 154.771 21.2964 154.771 19.0032L154.771 8.37132L157.903 8.37132L157.903 6.84255L154.771 6.84255L154.771 0.762205L148.543 0.762205L148.543 6.84255L145.447 6.84255L145.447 8.37132L148.543 8.37132L148.543 19.0032C148.543 22.0608 151.675 25.0836 154.771 25.0836L161 25.0836L161 23.5896L159.434 23.5896Z" fill="black"/>
<path d="M24.3458 0.796951L24.3458 6.8773L7.22756 6.8773C4.09574 6.8773 0.999512 9.9001 0.999512 12.9576L0.999512 19.038C0.999511 22.0608 4.09574 25.1183 7.22756 25.1183L19.6837 25.1183C21.3919 25.1183 23.1358 24.1802 24.3458 22.7904L24.3458 25.1183L25.9117 25.1183L25.9117 0.796951L24.3458 0.796951ZM24.3458 14.4864C24.3458 16.7448 21.9969 19.038 19.6837 19.038L2.52983 19.038L2.52983 17.5092C2.52983 15.2161 4.8787 12.9576 7.22756 12.9576L24.3458 12.9576L24.3458 14.4864Z" stroke="url(#paint1_linear_815_29255)" stroke-width="0.65372"/>
<path d="M53.2726 11.4289L53.2726 6.84255C50.1764 6.84255 47.0445 9.13571 47.0445 11.4289C47.0445 13.0619 45.2295 14.6601 43.0942 15.2161L34.802 15.2161L34.802 0.762207L28.5739 0.762207L28.5739 25.0836C31.6702 25.0836 34.802 22.0608 34.802 19.0032L34.802 16.7448L43.0942 16.7448C45.2295 17.3007 47.0445 18.899 47.0445 20.532C47.0445 22.8252 50.1764 25.0836 53.2726 25.0836L53.2726 20.532C53.2726 18.3083 50.2831 16.0847 47.2581 15.9804C50.2831 15.8762 53.2726 13.6525 53.2726 11.4289Z" stroke="url(#paint2_linear_815_29255)" stroke-width="0.65372"/>
<path d="M75.4061 6.84255L55.9746 6.84255L55.9746 25.0836C59.0708 25.0836 62.2026 22.0608 62.2026 19.0032L62.2026 8.37133L69.178 8.37133C71.9184 8.37133 74.6231 11.0119 74.6587 13.6873L74.6587 25.0836C77.7549 25.0836 80.8868 22.0608 80.8868 19.0032L80.8868 12.1585C80.8868 9.51791 78.1464 6.84255 75.4061 6.84255Z" stroke="url(#paint3_linear_815_29255)" stroke-width="0.65372"/>
<path d="M83.549 7.95439L83.549 25.1183C86.4673 25.1183 89.3856 22.2345 89.3856 19.3854L89.3856 7.95439L83.549 7.95439ZM86.4673 5.07057C87.6773 5.07057 88.6738 4.13246 88.6738 2.91639C88.6738 1.73506 87.6773 0.79695 86.4673 0.79695C85.2572 0.79695 84.2608 1.73506 84.2608 2.91639C84.2608 4.13246 85.2572 5.07057 86.4673 5.07057Z" stroke="url(#paint4_linear_815_29255)" stroke-width="0.65372"/>
<path d="M115.424 6.94679L115.424 9.23995C114.214 7.8849 112.47 6.94679 110.762 6.94679L98.3058 6.94679C95.174 6.94679 92.0778 9.96959 92.0778 13.0271L92.0778 19.1075C92.0778 22.1303 95.174 25.1878 98.3058 25.1878L110.762 25.1878C112.47 25.1878 114.214 24.2497 115.424 22.8599L115.424 25.1878C115.424 26.6819 113.858 28.2106 112.292 28.2106L92.0778 28.2106C92.0778 30.5038 95.174 32.7622 98.3058 32.7622L110.762 32.7622C113.858 32.7622 116.99 30.5038 116.99 28.2106L116.99 6.94679L115.424 6.94679ZM115.424 19.1075L98.3058 19.1075C95.957 19.1075 93.6081 16.8143 93.6081 14.5212L93.6081 13.0271L110.762 13.0271C113.075 13.0271 115.424 15.2855 115.424 17.5787L115.424 19.1075Z" stroke="url(#paint5_linear_815_29255)" stroke-width="0.65372"/>
<path d="M139.084 6.84255L125.88 6.84255L125.88 0.762205L119.652 0.762205L119.652 25.0836C122.748 25.0836 125.88 22.0608 125.88 19.0032L125.88 8.37132L132.856 8.37132C135.596 8.37132 138.301 11.0467 138.336 13.6873L138.336 25.0836C141.433 25.0836 144.564 22.0608 144.564 19.0032L144.564 12.1933C144.564 9.5179 141.824 6.8773 139.084 6.84255Z" stroke="url(#paint6_linear_815_29255)" stroke-width="0.65372"/>
<path d="M159.434 23.5896C157.12 23.5896 154.771 21.2964 154.771 19.0032L154.771 8.37132L157.903 8.37132L157.903 6.84255L154.771 6.84255L154.771 0.762205L148.543 0.762205L148.543 6.84255L145.447 6.84255L145.447 8.37132L148.543 8.37132L148.543 19.0032C148.543 22.0608 151.675 25.0836 154.771 25.0836L161 25.0836L161 23.5896L159.434 23.5896Z" stroke="url(#paint7_linear_815_29255)" stroke-width="0.65372"/>
<path d="M24.3458 0.796951L24.3458 6.8773L7.22756 6.8773C4.09574 6.8773 0.999512 9.9001 0.999512 12.9576L0.999512 19.038C0.999511 22.0608 4.09574 25.1183 7.22756 25.1183L19.6837 25.1183C21.3919 25.1183 23.1358 24.1802 24.3458 22.7904L24.3458 25.1183L25.9117 25.1183L25.9117 0.796951L24.3458 0.796951ZM24.3458 14.4864C24.3458 16.7448 21.9969 19.038 19.6837 19.038L2.52983 19.038L2.52983 17.5092C2.52983 15.2161 4.8787 12.9576 7.22756 12.9576L24.3458 12.9576L24.3458 14.4864ZM53.2726 11.4289L53.2726 6.84255C50.1764 6.84255 47.0445 9.13571 47.0445 11.4289C47.0445 13.0619 45.2295 14.6601 43.0942 15.2161L34.802 15.2161L34.802 0.762207L28.5739 0.762207L28.5739 25.0836C31.6702 25.0836 34.802 22.0608 34.802 19.0032L34.802 16.7448L43.0942 16.7448C45.2295 17.3007 47.0445 18.899 47.0445 20.532C47.0445 22.8252 50.1764 25.0836 53.2726 25.0836L53.2726 20.532C53.2726 18.3083 50.2831 16.0847 47.2581 15.9804C50.2831 15.8762 53.2726 13.6525 53.2726 11.4289ZM75.4061 6.84255L55.9746 6.84255L55.9746 25.0836C59.0708 25.0836 62.2026 22.0608 62.2026 19.0032L62.2026 8.37133L69.178 8.37133C71.9184 8.37133 74.6231 11.0119 74.6587 13.6873L74.6587 25.0836C77.7549 25.0836 80.8868 22.0608 80.8868 19.0032L80.8868 12.1585C80.8868 9.51791 78.1464 6.84255 75.4061 6.84255ZM83.549 7.95439L83.549 25.1183C86.4673 25.1183 89.3856 22.2345 89.3856 19.3854L89.3856 7.95439L83.549 7.95439ZM86.4673 5.07057C87.6773 5.07057 88.6738 4.13246 88.6738 2.91639C88.6738 1.73506 87.6773 0.79695 86.4673 0.79695C85.2572 0.79695 84.2608 1.73506 84.2608 2.91639C84.2608 4.13246 85.2572 5.07057 86.4673 5.07057ZM115.424 6.94679L115.424 9.23995C114.214 7.8849 112.47 6.94679 110.762 6.94679L98.3058 6.94679C95.174 6.94679 92.0778 9.96959 92.0778 13.0271L92.0778 19.1075C92.0778 22.1303 95.174 25.1878 98.3058 25.1878L110.762 25.1878C112.47 25.1878 114.214 24.2497 115.424 22.8599L115.424 25.1878C115.424 26.6819 113.858 28.2106 112.292 28.2106L92.0778 28.2106C92.0778 30.5038 95.174 32.7622 98.3058 32.7622L110.762 32.7622C113.858 32.7622 116.99 30.5038 116.99 28.2106L116.99 6.94679L115.424 6.94679ZM115.424 19.1075L98.3058 19.1075C95.957 19.1075 93.6081 16.8143 93.6081 14.5212L93.6081 13.0271L110.762 13.0271C113.075 13.0271 115.424 15.2855 115.424 17.5787L115.424 19.1075ZM139.084 6.84255L125.88 6.84255L125.88 0.762205L119.652 0.762205L119.652 25.0836C122.748 25.0836 125.88 22.0608 125.88 19.0032L125.88 8.37132L132.856 8.37132C135.596 8.37132 138.301 11.0467 138.336 13.6873L138.336 25.0836C141.433 25.0836 144.564 22.0608 144.564 19.0032L144.564 12.1933C144.564 9.5179 141.824 6.8773 139.084 6.84255ZM159.434 23.5896C157.12 23.5896 154.771 21.2964 154.771 19.0032L154.771 8.37132L157.903 8.37132L157.903 6.84255L154.771 6.84255L154.771 0.762205L148.543 0.762205L148.543 6.84255L145.447 6.84255L145.447 8.37132L148.543 8.37132L148.543 19.0032C148.543 22.0608 151.675 25.0836 154.771 25.0836L161 25.0836L161 23.5896L159.434 23.5896Z" stroke="url(#paint8_linear_815_29255)" stroke-width="0.65372"/>
<defs>
<linearGradient id="paint0_linear_815_29255" x1="20.198" y1="32.7622" x2="20.3404" y2="13.8973" gradientUnits="userSpaceOnUse">
<stop stop-color="#B9FD02" stop-opacity="0"/>
<stop offset="0.172108" stop-color="#B9FD02"/>
<stop offset="0.495676" stop-color="#4553D2"/>
<stop offset="0.812641" stop-color="#B9FD02"/>
<stop offset="1" stop-color="#B9FD02" stop-opacity="0"/>
</linearGradient>
<linearGradient id="paint1_linear_815_29255" x1="1.85517" y1="0.762208" x2="22.6673" y2="70.5287" gradientUnits="userSpaceOnUse">
<stop stop-color="#E5E5E5"/>
<stop offset="0.515625" stop-color="#CDD5E0"/>
<stop offset="1" stop-color="#E5E5E5" stop-opacity="0"/>
</linearGradient>
<linearGradient id="paint2_linear_815_29255" x1="1.85517" y1="0.762208" x2="22.6673" y2="70.5287" gradientUnits="userSpaceOnUse">
<stop stop-color="#E5E5E5"/>
<stop offset="0.515625" stop-color="#CDD5E0"/>
<stop offset="1" stop-color="#E5E5E5" stop-opacity="0"/>
</linearGradient>
<linearGradient id="paint3_linear_815_29255" x1="1.85517" y1="0.762208" x2="22.6673" y2="70.5287" gradientUnits="userSpaceOnUse">
<stop stop-color="#E5E5E5"/>
<stop offset="0.515625" stop-color="#CDD5E0"/>
<stop offset="1" stop-color="#E5E5E5" stop-opacity="0"/>
</linearGradient>
<linearGradient id="paint4_linear_815_29255" x1="1.85517" y1="0.762208" x2="22.6673" y2="70.5287" gradientUnits="userSpaceOnUse">
<stop stop-color="#E5E5E5"/>
<stop offset="0.515625" stop-color="#CDD5E0"/>
<stop offset="1" stop-color="#E5E5E5" stop-opacity="0"/>
</linearGradient>
<linearGradient id="paint5_linear_815_29255" x1="1.85517" y1="0.762208" x2="22.6673" y2="70.5287" gradientUnits="userSpaceOnUse">
<stop stop-color="#E5E5E5"/>
<stop offset="0.515625" stop-color="#CDD5E0"/>
<stop offset="1" stop-color="#E5E5E5" stop-opacity="0"/>
</linearGradient>
<linearGradient id="paint6_linear_815_29255" x1="1.85517" y1="0.762208" x2="22.6673" y2="70.5287" gradientUnits="userSpaceOnUse">
<stop stop-color="#E5E5E5"/>
<stop offset="0.515625" stop-color="#CDD5E0"/>
<stop offset="1" stop-color="#E5E5E5" stop-opacity="0"/>
</linearGradient>
<linearGradient id="paint7_linear_815_29255" x1="1.85517" y1="0.762208" x2="22.6673" y2="70.5287" gradientUnits="userSpaceOnUse">
<stop stop-color="#E5E5E5"/>
<stop offset="0.515625" stop-color="#CDD5E0"/>
<stop offset="1" stop-color="#E5E5E5" stop-opacity="0"/>
</linearGradient>
<linearGradient id="paint8_linear_815_29255" x1="7.73043" y1="2.21675" x2="7.67094" y2="15.774" gradientUnits="userSpaceOnUse">
<stop stop-color="#4959EC" stop-opacity="0"/>
<stop offset="0.172108" stop-color="#545AE9"/>
<stop offset="0.495676" stop-color="#AEED05"/>
<stop offset="0.812641" stop-color="#4959EC"/>
<stop offset="1" stop-color="#4959EC" stop-opacity="0"/>
</linearGradient>
</defs>
</svg>
