<?xml version="1.0" standalone="no"?>
<svg id="FRAME-UI-003" width="1936" height="1089" viewBox="0 0 1936 1089" fill="none" xmlns="http://www.w3.org/2000/svg" style="max-width: 100%; max-height: 100%;">
<g clip-path="url(#clip0_815_29299)">
<path d="M994.54 501.393C994.54 496.183 1003.12 490.675 1017.05 488.07L1433.62 488.07C1448.37 488.07 1488.51 487.743 1504.65 488.071C1520.79 488.398 1573.1 533.158 1573.1 533.158C1573.1 533.158 1579.26 538.784 1579.26 543.993L1579.26 636.521C1579.26 641.73 1570.69 646.544 1556.76 649.149M1579.26 635.761C1579.26 640.97 1570.69 646.479 1556.76 649.084L1140.18 649.084C1125.43 649.084 1085.3 649.411 1069.16 649.083C1053.01 648.756 1000.71 603.995 1000.71 603.995C1000.71 603.995 994.54 598.37 994.54 593.16L994.54 500.633C994.54 495.424 1003.12 490.609 1017.05 488.004" stroke="white" stroke-width="3.55608" stroke-dasharray="0,0,0,0,0,1460.9622802734375"><animate attributeType="XML" attributeName="stroke-dasharray" repeatCount="indefinite" dur="3.5714285714285716s" values="0,0,0,0,0,1460.9622802734375; 0,0,0,905.7966137695313,555.1656665039062,0; 0,0,277.5828332519531,1183.3794470214846,0,0; 0,730.4811401367188,0,730.4811401367188,0,0" keyTimes="0; 0.5; 0.69; 1"></animate></path>
<path d="M1579.26 674.532C1579.26 679.741 1570.68 685.25 1556.76 687.855L1140.18 687.855C1125.43 687.855 1085.3 688.182 1069.16 687.854C1053.01 687.527 1000.71 642.767 1000.71 642.767C1000.71 642.767 994.54 637.141 994.54 631.932L994.54 539.404C994.54 534.195 1003.12 529.38 1017.05 526.775M994.54 540.164C994.54 534.955 1003.12 529.446 1017.05 526.841L1433.62 526.841C1448.37 526.841 1488.51 526.514 1504.65 526.842C1520.79 527.169 1573.1 571.929 1573.1 571.929C1573.1 571.929 1579.26 577.555 1579.26 582.764L1579.26 675.292C1579.26 680.501 1570.68 685.316 1556.76 687.921" stroke="white" stroke-width="3.55608" stroke-dasharray="0,0,0,0,0,1460.960693359375"><animate attributeType="XML" attributeName="stroke-dasharray" repeatCount="indefinite" dur="3.5714285714285716s" values="0,0,0,0,0,1460.960693359375; 0,0,0,905.7956298828125,555.1650634765625,0; 0,0,277.58253173828126,1183.3781616210938,0,0; 0,730.4803466796875,0,730.4803466796875,0,0" keyTimes="0; 0.5; 0.69; 1"></animate></path>
<path d="M994.54 587.998C994.54 593.207 1003.12 598.716 1017.05 601.321L1433.62 601.321C1448.37 601.321 1488.51 601.648 1504.65 601.32C1520.79 600.993 1573.1 556.232 1573.1 556.232C1573.1 556.232 1579.26 550.607 1579.26 545.397L1579.26 452.87C1579.26 447.66 1570.69 442.846 1556.76 440.241M1579.26 453.63C1579.26 448.42 1570.69 442.912 1556.76 440.307L1140.18 440.307C1125.43 440.307 1085.3 439.98 1069.16 440.307C1053.01 440.635 1000.71 485.395 1000.71 485.395C1000.71 485.395 994.54 491.021 994.54 496.23L994.54 588.758C994.54 593.967 1003.12 598.781 1017.05 601.386" stroke="white" stroke-width="3.55608" stroke-dasharray="0,0,0,0,0,1460.9630126953125"><animate attributeType="XML" attributeName="stroke-dasharray" repeatCount="indefinite" dur="3.5714285714285716s" values="0,0,0,0,0,1460.9630126953125; 0,0,0,905.7970678710938,555.1659448242187,0; 0,0,277.58297241210937,1183.3800402832032,0,0; 0,730.4815063476562,0,730.4815063476562,0,0" keyTimes="0; 0.5; 0.69; 1"></animate></path>
<path d="M1579.26 414.856C1579.26 409.646 1570.68 404.138 1556.76 401.533L1140.18 401.533C1125.43 401.533 1085.3 401.206 1069.16 401.533C1053.01 401.861 1000.71 446.621 1000.71 446.621C1000.71 446.621 994.54 452.247 994.54 457.456L994.54 549.984C994.54 555.193 1003.12 560.007 1017.05 562.612M994.54 549.224C994.54 554.433 1003.12 559.942 1017.05 562.547L1433.62 562.547C1448.37 562.547 1488.51 562.873 1504.65 562.546C1520.79 562.219 1573.09 517.458 1573.09 517.458C1573.09 517.458 1579.26 511.833 1579.26 506.623L1579.26 414.096C1579.26 408.886 1570.68 404.072 1556.76 401.467" stroke="white" stroke-width="3.55608" stroke-dasharray="0,0,0,0,0,1460.9580078125"><animate attributeType="XML" attributeName="stroke-dasharray" repeatCount="indefinite" dur="3.5714285714285716s" values="0,0,0,0,0,1460.9580078125; 0,0,0,905.79396484375,555.16404296875,0; 0,0,277.582021484375,1183.375986328125,0,0; 0,730.47900390625,0,730.47900390625,0,0" keyTimes="0; 0.5; 0.69; 1"></animate></path>
<path d="M994.541 587.998C994.541 593.207 1003.12 598.716 1017.05 601.321L1433.62 601.321C1448.37 601.321 1488.51 601.648 1504.65 601.32C1520.79 600.993 1573.1 556.232 1573.1 556.232C1573.1 556.232 1579.26 550.607 1579.26 545.397L1579.26 452.87C1579.26 447.66 1570.69 442.846 1556.76 440.241M1579.26 453.63C1579.26 448.42 1570.69 442.912 1556.76 440.307L1140.19 440.307C1125.43 440.307 1085.3 439.98 1069.16 440.308C1053.01 440.635 1000.71 485.395 1000.71 485.395C1000.71 485.395 994.541 491.021 994.541 496.23L994.541 588.758C994.541 593.967 1003.12 598.781 1017.05 601.386" stroke="white" stroke-width="3.55608" stroke-dasharray="0,0,0,0,0,1460.9603271484375"><animate attributeType="XML" attributeName="stroke-dasharray" repeatCount="indefinite" dur="3.5714285714285716s" values="0,0,0,0,0,1460.9603271484375; 0,0,0,905.7954028320313,555.1649243164062,0; 0,0,277.5824621582031,1183.3778649902345,0,0; 0,730.4801635742188,0,730.4801635742188,0,0" keyTimes="0; 0.5; 0.69; 1"></animate></path>
<path d="M1579.26 414.856C1579.26 409.646 1570.68 404.138 1556.76 401.533L1140.18 401.533C1125.43 401.533 1085.3 401.206 1069.16 401.533C1053.01 401.861 1000.71 446.621 1000.71 446.621C1000.71 446.621 994.54 452.247 994.54 457.456L994.54 549.984C994.54 555.193 1003.12 560.007 1017.05 562.612M994.54 549.224C994.54 554.433 1003.12 559.942 1017.05 562.547L1433.62 562.547C1448.37 562.547 1488.51 562.874 1504.65 562.546C1520.79 562.219 1573.09 517.458 1573.09 517.458C1573.09 517.458 1579.26 511.833 1579.26 506.623L1579.26 414.096C1579.26 408.886 1570.68 404.072 1556.76 401.467" stroke="white" stroke-width="3.55608" stroke-dasharray="0,0,0,0,0,1460.9580078125"><animate attributeType="XML" attributeName="stroke-dasharray" repeatCount="indefinite" dur="3.5714285714285716s" values="0,0,0,0,0,1460.9580078125; 0,0,0,905.79396484375,555.16404296875,0; 0,0,277.582021484375,1183.375986328125,0,0; 0,730.47900390625,0,730.47900390625,0,0" keyTimes="0; 0.5; 0.69; 1"></animate></path>
<path d="M994.54 501.393C994.54 496.183 1003.12 490.675 1017.05 488.07L1433.62 488.07C1448.37 488.07 1488.51 487.743 1504.65 488.071C1520.79 488.398 1573.1 533.158 1573.1 533.158C1573.1 533.158 1579.26 538.784 1579.26 543.993L1579.26 636.521C1579.26 641.73 1570.69 646.544 1556.76 649.149M1579.26 635.761C1579.26 640.97 1570.69 646.479 1556.76 649.084L1140.18 649.084C1125.43 649.084 1085.3 649.411 1069.16 649.083C1053.01 648.756 1000.71 603.995 1000.71 603.995C1000.71 603.995 994.54 598.37 994.54 593.16L994.54 500.633C994.54 495.424 1003.12 490.609 1017.05 488.004" stroke="white" stroke-width="3.55608" stroke-dasharray="0,0,0,0,0,1460.9622802734375"><animate attributeType="XML" attributeName="stroke-dasharray" repeatCount="indefinite" dur="3.5714285714285716s" values="0,0,0,0,0,1460.9622802734375; 0,0,0,905.7966137695313,555.1656665039062,0; 0,0,277.5828332519531,1183.3794470214846,0,0; 0,730.4811401367188,0,730.4811401367188,0,0" keyTimes="0; 0.5; 0.69; 1"></animate></path>
<path d="M1579.26 674.532C1579.26 679.741 1570.68 685.25 1556.76 687.855L1140.18 687.855C1125.43 687.855 1085.3 688.182 1069.16 687.854C1053.01 687.527 1000.71 642.767 1000.71 642.767C1000.71 642.767 994.54 637.141 994.54 631.932L994.54 539.404C994.54 534.195 1003.12 529.38 1017.05 526.775M994.54 540.164C994.54 534.955 1003.12 529.446 1017.05 526.841L1433.62 526.841C1448.37 526.841 1488.51 526.514 1504.65 526.842C1520.79 527.169 1573.1 571.929 1573.1 571.929C1573.1 571.929 1579.26 577.555 1579.26 582.764L1579.26 675.292C1579.26 680.501 1570.68 685.315 1556.76 687.921" stroke="white" stroke-width="3.55608" stroke-dasharray="0,0,0,0,0,1460.96044921875"><animate attributeType="XML" attributeName="stroke-dasharray" repeatCount="indefinite" dur="3.5714285714285716s" values="0,0,0,0,0,1460.96044921875; 0,0,0,905.795478515625,555.164970703125,0; 0,0,277.5824853515625,1183.3779638671876,0,0; 0,730.480224609375,0,730.480224609375,0,0" keyTimes="0; 0.5; 0.69; 1"></animate></path>
<path d="M941.671 501.393C941.671 496.183 933.082 490.675 919.14 488.07L502.113 488.07C487.345 488.07 447.166 487.743 431.006 488.071C414.846 488.398 362.485 533.158 362.485 533.158C362.485 533.158 356.31 538.784 356.31 543.993L356.31 636.521C356.31 641.73 364.898 646.544 378.84 649.149M356.31 635.761C356.31 640.97 364.898 646.479 378.84 649.084L795.867 649.084C810.636 649.084 850.814 649.411 866.974 649.083C883.135 648.756 935.495 603.995 935.495 603.995C935.495 603.995 941.671 598.37 941.671 593.16L941.671 500.633C941.671 495.423 933.082 490.609 919.14 488.004" stroke="white" stroke-width="3.55608" stroke-dasharray="0,0,0,0,0,1462.2476806640625"><animate attributeType="XML" attributeName="stroke-dasharray" repeatCount="indefinite" dur="3.5714285714285716s" values="0,0,0,0,0,1462.2476806640625; 0,0,0,906.5935620117187,555.6541186523438,0; 0,0,277.8270593261719,1184.4206213378907,0,0; 0,731.1238403320312,0,731.1238403320312,0,0" keyTimes="0; 0.5; 0.69; 1"></animate></path>
<path d="M356.314 674.532C356.314 679.741 364.903 685.25 378.844 687.855L795.872 687.855C810.64 687.855 850.818 688.182 866.979 687.854C883.139 687.527 935.499 642.767 935.499 642.767C935.499 642.767 941.675 637.141 941.675 631.932L941.675 539.404C941.675 534.195 933.086 529.38 919.144 526.775M941.675 540.164C941.675 534.954 933.086 529.446 919.144 526.841L502.117 526.841C487.349 526.841 447.17 526.514 431.01 526.842C414.85 527.169 362.49 571.929 362.49 571.929C362.49 571.929 356.314 577.555 356.314 582.764L356.314 675.292C356.314 680.501 364.903 685.316 378.844 687.921" stroke="white" stroke-width="3.55608" stroke-dasharray="0,0,0,0,0,1462.247802734375"><animate attributeType="XML" attributeName="stroke-dasharray" repeatCount="indefinite" dur="3.5714285714285716s" values="0,0,0,0,0,1462.247802734375; 0,0,0,906.5936376953125,555.6541650390625,0; 0,0,277.82708251953125,1184.4207202148439,0,0; 0,731.1239013671875,0,731.1239013671875,0,0" keyTimes="0; 0.5; 0.69; 1"></animate></path>
<path d="M941.671 587.998C941.671 593.207 933.082 598.716 919.14 601.321L502.113 601.321C487.345 601.321 447.166 601.648 431.006 601.32C414.846 600.993 362.485 556.232 362.485 556.232C362.485 556.232 356.31 550.607 356.31 545.397L356.31 452.87C356.31 447.661 364.898 442.846 378.84 440.241M356.31 453.63C356.31 448.42 364.898 442.912 378.84 440.307L795.868 440.307C810.636 440.307 850.814 439.98 866.975 440.307C883.135 440.635 935.495 485.395 935.495 485.395C935.495 485.395 941.671 491.021 941.671 496.23L941.671 588.758C941.671 593.967 933.082 598.781 919.14 601.386" stroke="white" stroke-width="3.55608" stroke-dasharray="0,0,0,0,0,1462.2479248046875"><animate attributeType="XML" attributeName="stroke-dasharray" repeatCount="indefinite" dur="3.5714285714285716s" values="0,0,0,0,0,1462.2479248046875; 0,0,0,906.5937133789063,555.6542114257812,0; 0,0,277.8271057128906,1184.420819091797,0,0; 0,731.1239624023438,0,731.1239624023438,0,0" keyTimes="0; 0.5; 0.69; 1"></animate></path>
<path d="M356.312 414.856C356.312 409.646 364.901 404.138 378.843 401.533L795.87 401.533C810.639 401.533 850.817 401.206 866.977 401.533C883.138 401.861 935.498 446.621 935.498 446.621C935.498 446.621 941.674 452.247 941.674 457.456L941.674 549.984C941.674 555.193 933.085 560.007 919.143 562.612M941.674 549.224C941.674 554.433 933.085 559.942 919.143 562.547L502.116 562.547C487.347 562.547 447.169 562.874 431.009 562.546C414.849 562.219 362.488 517.458 362.488 517.458C362.488 517.458 356.312 511.833 356.312 506.623L356.312 414.096C356.312 408.886 364.901 404.072 378.843 401.467" stroke="white" stroke-width="3.55608" stroke-dasharray="0,0,0,0,0,1462.2501220703125"><animate attributeType="XML" attributeName="stroke-dasharray" repeatCount="indefinite" dur="3.5714285714285716s" values="0,0,0,0,0,1462.2501220703125; 0,0,0,906.5950756835938,555.6550463867187,0; 0,0,277.82752319335935,1184.4225988769533,0,0; 0,731.1250610351562,0,731.1250610351562,0,0" keyTimes="0; 0.5; 0.69; 1"></animate></path>
<path d="M941.671 587.998C941.671 593.207 933.082 598.716 919.14 601.321L502.113 601.321C487.345 601.321 447.166 601.648 431.006 601.32C414.846 600.993 362.485 556.232 362.485 556.232C362.485 556.232 356.31 550.607 356.31 545.397L356.31 452.87C356.31 447.661 364.898 442.846 378.84 440.241M356.31 453.63C356.31 448.42 364.898 442.912 378.84 440.307L795.868 440.307C810.636 440.307 850.814 439.98 866.975 440.307C883.135 440.635 935.495 485.395 935.495 485.395C935.495 485.395 941.671 491.021 941.671 496.23L941.671 588.758C941.671 593.967 933.082 598.781 919.14 601.386" stroke="white" stroke-width="3.55608" stroke-dasharray="0,0,0,0,0,1462.2479248046875"><animate attributeType="XML" attributeName="stroke-dasharray" repeatCount="indefinite" dur="3.5714285714285716s" values="0,0,0,0,0,1462.2479248046875; 0,0,0,906.5937133789063,555.6542114257812,0; 0,0,277.8271057128906,1184.420819091797,0,0; 0,731.1239624023438,0,731.1239624023438,0,0" keyTimes="0; 0.5; 0.69; 1"></animate></path>
<path d="M356.313 414.856C356.313 409.646 364.901 404.138 378.843 401.533L795.871 401.533C810.639 401.533 850.817 401.206 866.977 401.533C883.138 401.861 935.498 446.621 935.498 446.621C935.498 446.621 941.674 452.247 941.674 457.456L941.674 549.984C941.674 555.193 933.085 560.007 919.143 562.612M941.674 549.224C941.674 554.433 933.085 559.942 919.143 562.547L502.116 562.547C487.348 562.547 447.169 562.873 431.009 562.546C414.849 562.219 362.488 517.458 362.488 517.458C362.488 517.458 356.313 511.833 356.313 506.623L356.313 414.096C356.313 408.886 364.901 404.072 378.843 401.467" stroke="white" stroke-width="3.55608" stroke-dasharray="0,0,0,0,0,1462.248046875"><animate attributeType="XML" attributeName="stroke-dasharray" repeatCount="indefinite" dur="3.5714285714285716s" values="0,0,0,0,0,1462.248046875; 0,0,0,906.5937890625,555.6542578125,0; 0,0,277.82712890625,1184.42091796875,0,0; 0,731.1240234375,0,731.1240234375,0,0" keyTimes="0; 0.5; 0.69; 1"></animate></path>
<path d="M941.671 501.393C941.671 496.183 933.082 490.675 919.14 488.07L502.113 488.07C487.345 488.07 447.166 487.743 431.006 488.071C414.846 488.398 362.485 533.158 362.485 533.158C362.485 533.158 356.31 538.784 356.31 543.993L356.31 636.521C356.31 641.73 364.898 646.544 378.84 649.149M356.31 635.761C356.31 640.97 364.898 646.479 378.84 649.084L795.868 649.084C810.636 649.084 850.814 649.41 866.975 649.083C883.135 648.756 935.495 603.995 935.495 603.995C935.495 603.995 941.671 598.37 941.671 593.16L941.671 500.633C941.671 495.423 933.082 490.609 919.14 488.004" stroke="white" stroke-width="3.55608" stroke-dasharray="0,0,0,0,0,1462.247802734375"><animate attributeType="XML" attributeName="stroke-dasharray" repeatCount="indefinite" dur="3.5714285714285716s" values="0,0,0,0,0,1462.247802734375; 0,0,0,906.5936376953125,555.6541650390625,0; 0,0,277.82708251953125,1184.4207202148439,0,0; 0,731.1239013671875,0,731.1239013671875,0,0" keyTimes="0; 0.5; 0.69; 1"></animate></path>
<path d="M356.313 674.532C356.313 679.741 364.902 685.25 378.844 687.855L795.871 687.855C810.64 687.855 850.818 688.182 866.978 687.854C883.139 687.527 935.499 642.767 935.499 642.767C935.499 642.767 941.675 637.141 941.675 631.932L941.675 539.404C941.675 534.195 933.086 529.38 919.144 526.775M941.675 540.164C941.675 534.955 933.086 529.446 919.144 526.841L502.117 526.841C487.348 526.841 447.17 526.514 431.01 526.842C414.85 527.169 362.489 571.929 362.489 571.929C362.489 571.929 356.313 577.555 356.313 582.764L356.313 675.292C356.313 680.501 364.902 685.316 378.844 687.921" stroke="white" stroke-width="3.55608" stroke-dasharray="0,0,0,0,0,1462.250244140625"><animate attributeType="XML" attributeName="stroke-dasharray" repeatCount="indefinite" dur="3.5714285714285716s" values="0,0,0,0,0,1462.250244140625; 0,0,0,906.5951513671874,555.6550927734376,0; 0,0,277.8275463867188,1184.4226977539063,0,0; 0,731.1251220703125,0,731.1251220703125,0,0" keyTimes="0; 0.5; 0.69; 1"></animate></path>
<path d="M1211.48 497.301C1211.48 504.476 1214.87 513.259 1218.96 520.303C1220.99 523.811 1223.17 526.837 1225.13 528.97C1226.1 530.038 1227.01 530.859 1227.79 531.405C1228.6 531.971 1229.16 532.152 1229.47 532.152L1581.27 532.152C1584.84 532.152 1590.14 532.228 1596.21 532.315C1611.43 532.532 1631.47 532.819 1641.18 532.153C1641.68 532.119 1642.43 531.764 1643.46 530.82C1644.45 529.903 1645.58 528.549 1646.81 526.785C1649.28 523.262 1652.1 518.246 1655.12 512.204C1661.16 500.13 1667.95 484.099 1674.32 468.072C1680.68 452.051 1686.63 436.056 1690.98 424.065C1693.16 418.069 1694.93 413.076 1696.17 409.582C1696.78 407.835 1697.26 406.463 1697.59 405.527C1697.75 405.06 1697.88 404.701 1697.96 404.46L1698.06 404.187L1698.08 404.118L1698.08 404.113L1698.08 404.113L1698.08 404.111L1698.09 404.104L1698.09 404.1L1698.09 404.096L1698.1 404.071C1698.11 404.041 1698.12 403.997 1698.14 403.938C1698.18 403.819 1698.23 403.643 1698.3 403.412C1698.44 402.95 1698.64 402.271 1698.89 401.41C1699.37 399.686 1700.02 397.232 1700.66 394.316C1701.96 388.475 1703.24 380.822 1703.24 373.49V109.287C1703.24 94.6373 1698.09 80.07 1685.05 74.4355L1333.46 74.4355C1329.89 74.4355 1324.58 74.3596 1318.51 74.2729C1303.3 74.0554 1283.26 73.7689 1273.55 74.4351C1273.05 74.469 1272.3 74.8233 1271.27 75.7673C1270.28 76.6844 1269.15 78.039 1267.91 79.8026C1265.44 83.3253 1262.63 88.342 1259.61 94.3834C1253.57 106.457 1246.78 122.488 1240.41 138.516C1234.04 154.537 1228.1 170.532 1223.75 182.523C1221.57 188.518 1219.79 193.512 1218.56 197.006C1217.94 198.753 1217.46 200.125 1217.14 201.06C1216.97 201.528 1216.85 201.886 1216.76 202.128L1216.67 202.401L1216.65 202.47L1216.64 202.474L1216.64 202.475L1216.64 202.476L1216.64 202.484L1216.64 202.487L1216.64 202.492L1216.63 202.517C1216.62 202.546 1216.61 202.591 1216.59 202.65C1216.55 202.768 1216.5 202.945 1216.43 203.176C1216.29 203.638 1216.08 204.316 1215.84 205.178C1215.36 206.901 1214.71 209.356 1214.07 212.271C1212.77 218.113 1211.48 225.766 1211.48 233.098V497.301Z" stroke="url(#paint0_linear_815_29299)" stroke-width="2.04337" stroke-dasharray="0,0,0,0,0,1778.426513671875"><animate attributeType="XML" attributeName="stroke-dasharray" repeatCount="indefinite" dur="3.5714285714285716s" values="0,0,0,0,0,1778.426513671875; 0,0,0,1102.6244384765625,675.8020751953125,0; 0,0,337.9010375976562,1440.525476074219,0,0; 0,889.2132568359375,0,889.2132568359375,0,0" keyTimes="0; 0.5; 0.69; 1"></animate></path>
<path d="M1211.48 592.522C1211.48 585.347 1214.87 576.565 1218.96 569.52C1220.99 566.012 1223.17 562.986 1225.13 560.853C1226.1 559.785 1227.01 558.964 1227.79 558.419C1228.6 557.852 1229.16 557.671 1229.47 557.671L1581.27 557.671C1584.84 557.671 1590.14 557.595 1596.21 557.508C1611.43 557.291 1631.47 557.005 1641.18 557.671C1641.68 557.705 1642.43 558.059 1643.46 559.003C1644.45 559.92 1645.58 561.275 1646.81 563.038C1649.28 566.561 1652.1 571.578 1655.12 577.619C1661.16 589.693 1667.95 605.724 1674.32 621.751C1680.68 637.773 1686.63 653.768 1690.98 665.759C1693.16 671.754 1694.93 676.747 1696.17 680.241C1696.78 681.988 1697.26 683.361 1697.59 684.296C1697.75 684.764 1697.88 685.122 1697.96 685.363L1698.06 685.637L1698.08 685.706L1698.08 685.71L1698.08 685.71L1698.08 685.712L1698.09 685.72L1698.09 685.723L1698.09 685.727L1698.1 685.752C1698.11 685.782 1698.12 685.826 1698.14 685.885C1698.18 686.004 1698.23 686.181 1698.3 686.411C1698.44 686.873 1698.64 687.552 1698.89 688.414C1699.37 690.137 1700.02 692.591 1700.66 695.507C1701.96 701.348 1703.24 709.001 1703.24 716.333V980.537C1703.24 995.186 1698.09 1009.75 1685.05 1015.39H1333.46C1329.89 1015.39 1324.58 1015.46 1318.51 1015.55C1303.3 1015.77 1283.26 1016.05 1273.55 1015.39C1273.05 1015.35 1272.3 1015 1271.27 1014.06C1270.28 1013.14 1269.15 1011.78 1267.91 1010.02C1265.44 1006.5 1262.63 1001.48 1259.61 995.44C1253.57 983.366 1246.78 967.335 1240.41 951.308C1234.04 935.286 1228.1 919.291 1223.75 907.3C1221.57 901.305 1219.79 896.312 1218.56 892.818C1217.94 891.07 1217.46 889.698 1217.14 888.763C1216.97 888.295 1216.85 887.937 1216.76 887.696L1216.67 887.422L1216.65 887.353L1216.64 887.349L1216.64 887.349L1216.64 887.347L1216.64 887.339L1216.64 887.336L1216.64 887.332L1216.63 887.307C1216.62 887.277 1216.61 887.233 1216.59 887.173C1216.55 887.055 1216.5 886.878 1216.43 886.647C1216.29 886.186 1216.08 885.507 1215.84 884.645C1215.36 882.922 1214.71 880.468 1214.07 877.552C1212.77 871.711 1211.48 864.058 1211.48 856.726V592.522Z" stroke="url(#paint1_linear_815_29299)" stroke-width="2.04337" stroke-dasharray="0,0,0,0,0,1778.4267578125"><animate attributeType="XML" attributeName="stroke-dasharray" repeatCount="indefinite" dur="3.5714285714285716s" values="0,0,0,0,0,1778.4267578125; 0,0,0,1102.62458984375,675.80216796875,0; 0,0,337.901083984375,1440.525673828125,0,0; 0,889.21337890625,0,889.21337890625,0,0" keyTimes="0; 0.5; 0.69; 1"></animate></path>
<path d="M723.923 592.522C723.923 585.347 720.533 576.565 716.448 569.52C714.415 566.012 712.238 562.986 710.282 560.853C709.303 559.785 708.4 558.964 707.618 558.419C706.807 557.852 706.251 557.671 705.938 557.671L354.14 557.671C350.566 557.671 345.264 557.595 339.194 557.508C323.978 557.291 303.939 557.005 294.225 557.671C293.73 557.705 292.977 558.059 291.952 559.003C290.956 559.92 289.83 561.275 288.594 563.038C286.125 566.561 283.308 571.578 280.286 577.619C274.248 589.693 267.461 605.724 261.091 621.751C254.723 637.773 248.779 653.768 244.427 665.759C242.252 671.754 240.474 676.747 239.24 680.241C238.624 681.988 238.143 683.361 237.816 684.296C237.653 684.764 237.528 685.122 237.445 685.363L237.35 685.637L237.326 685.706L237.324 685.71L237.324 685.71L237.324 685.712L237.321 685.72L237.32 685.723L237.319 685.727L237.311 685.752C237.301 685.782 237.287 685.826 237.268 685.885C237.231 686.004 237.176 686.181 237.106 686.411C236.966 686.873 236.764 687.552 236.522 688.414C236.038 690.137 235.391 692.591 234.745 695.507C233.45 701.348 232.164 709.001 232.164 716.333L232.164 980.537C232.164 995.186 237.32 1009.75 250.358 1015.39H601.947C605.522 1015.39 610.825 1015.46 616.895 1015.55C632.112 1015.77 652.149 1016.05 661.862 1015.39C662.357 1015.35 663.111 1015 664.136 1014.06C665.132 1013.14 666.257 1011.78 667.493 1010.02C669.962 1006.5 672.78 1001.48 675.801 995.44C681.839 983.366 688.626 967.335 694.996 951.308C701.364 935.286 707.308 919.291 711.66 907.3C713.836 901.305 715.613 896.312 716.847 892.818C717.464 891.07 717.944 889.698 718.271 888.763C718.434 888.295 718.559 887.937 718.643 887.696L718.737 887.422L718.761 887.353L718.763 887.349L718.763 887.349L718.764 887.347L718.766 887.339L718.767 887.336L718.769 887.332L718.777 887.307C718.786 887.277 718.8 887.233 718.819 887.173C718.856 887.055 718.911 886.878 718.981 886.647C719.122 886.186 719.323 885.507 719.565 884.645C720.05 882.922 720.696 880.468 721.342 877.552C722.637 871.711 723.923 864.058 723.923 856.726V592.522Z" stroke="url(#paint2_linear_815_29299)" stroke-width="2.04337" stroke-dasharray="0,0,0,0,0,1778.418212890625"><animate attributeType="XML" attributeName="stroke-dasharray" repeatCount="indefinite" dur="3.5714285714285716s" values="0,0,0,0,0,1778.418212890625; 0,0,0,1102.6192919921875,675.7989208984375,0; 0,0,337.89946044921874,1440.5187524414064,0,0; 0,889.2091064453125,0,889.2091064453125,0,0" keyTimes="0; 0.5; 0.69; 1"></animate></path>
<path d="M723.923 497.301C723.923 504.477 720.532 513.259 716.448 520.304C714.415 523.812 712.238 526.837 710.282 528.971C709.303 530.039 708.4 530.86 707.618 531.405C706.806 531.971 706.251 532.153 705.938 532.153L354.14 532.153C350.566 532.153 345.264 532.228 339.194 532.315C323.978 532.533 303.939 532.819 294.225 532.153C293.73 532.119 292.977 531.765 291.952 530.821C290.956 529.904 289.83 528.549 288.594 526.785C286.125 523.263 283.308 518.246 280.286 512.205C274.248 500.131 267.461 484.1 261.091 468.073C254.723 452.051 248.779 436.056 244.427 424.065C242.252 418.07 240.474 413.077 239.24 409.582C238.624 407.835 238.143 406.463 237.816 405.528C237.653 405.06 237.528 404.702 237.445 404.46L237.35 404.187L237.326 404.118L237.324 404.114L237.324 404.113L237.324 404.112L237.321 404.104L237.32 404.101L237.319 404.097L237.311 404.071C237.301 404.042 237.287 403.997 237.268 403.938C237.231 403.82 237.176 403.643 237.106 403.412C236.966 402.95 236.764 402.272 236.522 401.41C236.038 399.687 235.391 397.233 234.745 394.317C233.45 388.475 232.164 380.822 232.164 373.491L232.164 109.287C232.164 94.6377 237.32 80.0705 250.358 74.4359L601.947 74.4359C605.521 74.4359 610.825 74.3601 616.895 74.2733C632.112 74.0558 652.149 73.7693 661.862 74.4355C662.357 74.4695 663.11 74.8238 664.136 75.7677C665.132 76.6848 666.257 78.0394 667.493 79.803C669.962 83.3258 672.78 88.3424 675.801 94.3838C681.839 106.458 688.626 122.489 694.996 138.516C701.364 154.538 707.308 170.532 711.66 182.524C713.836 188.519 715.613 193.512 716.847 197.006C717.464 198.753 717.944 200.126 718.271 201.061C718.434 201.528 718.559 201.887 718.643 202.128L718.737 202.401L718.761 202.47L718.763 202.475L718.763 202.475L718.764 202.477L718.766 202.484L718.767 202.488L718.769 202.492L718.777 202.517C718.786 202.547 718.8 202.591 718.819 202.65C718.856 202.769 718.911 202.945 718.981 203.176C719.122 203.638 719.323 204.317 719.565 205.178C720.049 206.902 720.696 209.356 721.342 212.272C722.637 218.113 723.923 225.766 723.923 233.098V497.301Z" stroke="url(#paint3_linear_815_29299)" stroke-width="2.04337" stroke-dasharray="0,0,0,0,0,1778.4169921875"><animate attributeType="XML" attributeName="stroke-dasharray" repeatCount="indefinite" dur="3.5714285714285716s" values="0,0,0,0,0,1778.4169921875; 0,0,0,1102.61853515625,675.79845703125,0; 0,0,337.899228515625,1440.5177636718752,0,0; 0,889.20849609375,0,889.20849609375,0,0" keyTimes="0; 0.5; 0.69; 1"></animate></path>
<path d="M1042.75 707.953C1031.14 707.953 1017.1 710.268 1005.94 713.011C1000.37 714.383 995.545 715.853 992.132 717.181C990.42 717.847 989.1 718.462 988.225 718.995C987.783 719.263 987.497 719.485 987.334 719.652C987.293 719.694 987.266 719.726 987.248 719.749L987.248 954.786C987.248 957.163 987.128 960.721 986.992 964.783C986.889 967.852 986.776 971.208 986.697 974.563C986.514 982.4 986.52 990.215 987.231 994.669C987.248 994.693 987.322 994.799 987.56 994.981C987.899 995.239 988.43 995.544 989.178 995.888C990.667 996.575 992.851 997.343 995.66 998.178C1001.27 999.845 1009.22 1001.74 1018.76 1003.76C1037.82 1007.81 1063.11 1012.35 1088.37 1016.61C1113.63 1020.87 1138.84 1024.84 1157.74 1027.75C1167.19 1029.21 1175.06 1030.4 1180.57 1031.22C1183.32 1031.63 1185.49 1031.95 1186.96 1032.17C1187.7 1032.28 1188.26 1032.37 1188.65 1032.42L1189.08 1032.49L1189.19 1032.5L1189.21 1032.51L1189.21 1032.51L1189.21 1032.51L1189.22 1032.51L1189.22 1032.51L1189.23 1032.51L1189.28 1032.52L1189.5 1032.54C1189.69 1032.57 1189.97 1032.61 1190.34 1032.65C1191.07 1032.75 1192.15 1032.88 1193.52 1033.05C1196.25 1033.37 1200.14 1033.81 1204.75 1034.24C1213.99 1035.11 1226.15 1035.98 1237.82 1035.98L1654.09 1035.98C1665.77 1035.98 1677.53 1035.1 1687.5 1033.09C1697.29 1031.12 1705.17 1028.08 1709.59 1023.87L1709.59 789.145C1709.59 786.768 1709.71 783.21 1709.85 779.148C1709.95 776.079 1710.06 772.723 1710.14 769.368C1710.32 761.531 1710.32 753.716 1709.61 749.262C1709.59 749.238 1709.52 749.132 1709.28 748.95C1708.94 748.692 1708.41 748.387 1707.66 748.043C1706.17 747.356 1703.99 746.588 1701.18 745.753C1695.57 744.086 1687.62 742.192 1678.08 740.168C1659.02 736.124 1633.72 731.582 1608.46 727.322C1583.21 723.063 1557.99 719.089 1539.1 716.179C1529.65 714.724 1521.78 713.535 1516.27 712.71C1513.51 712.298 1511.35 711.976 1509.88 711.758C1509.14 711.649 1508.57 711.565 1508.19 711.509L1507.76 711.446L1507.65 711.43L1507.62 711.426L1507.62 711.425L1507.62 711.425L1507.62 711.425L1507.61 711.423L1507.55 711.416L1507.34 711.387C1507.15 711.362 1506.87 711.324 1506.5 711.277C1505.76 711.182 1504.69 711.047 1503.32 710.884C1500.59 710.558 1496.7 710.124 1492.08 709.689C1482.84 708.82 1470.69 707.953 1459.02 707.953L1042.75 707.953ZM987.22 719.79C987.22 719.79 987.22 719.789 987.221 719.787C987.22 719.789 987.22 719.79 987.22 719.79Z" stroke="url(#paint4_linear_815_29299)" stroke-width="2.04337" stroke-dasharray="0,0,0,0,0,2006.3907470703125"><animate attributeType="XML" attributeName="stroke-dasharray" repeatCount="indefinite" dur="3.5714285714285716s" values="0,0,0,0,0,2006.3907470703125; 0,0,0,1243.9622631835937,762.4284838867187,0; 0,0,381.21424194335935,1625.1765051269533,0,0; 0,1003.1953735351562,0,1003.1953735351562,0,0" keyTimes="0; 0.5; 0.69; 1"></animate></path>
<path d="M892.715 707.953C904.322 707.953 918.365 710.268 929.52 713.011C935.095 714.383 939.917 715.853 943.329 717.181C945.042 717.847 946.362 718.462 947.237 718.995C947.678 719.263 947.965 719.485 948.128 719.652C948.169 719.694 948.196 719.726 948.214 719.749L948.214 954.786C948.214 957.163 948.333 960.721 948.47 964.783C948.573 967.852 948.686 971.208 948.765 974.563C948.948 982.4 948.942 990.215 948.231 994.669C948.214 994.693 948.14 994.799 947.902 994.981C947.563 995.239 947.032 995.544 946.284 995.888C944.795 996.575 942.611 997.343 939.802 998.178C934.195 999.845 926.24 1001.74 916.704 1003.76C897.64 1007.81 872.348 1012.35 847.088 1016.61C821.831 1020.87 796.618 1024.84 777.72 1027.75C768.27 1029.21 760.4 1030.4 754.892 1031.22C752.138 1031.63 749.975 1031.95 748.5 1032.17C747.763 1032.28 747.197 1032.37 746.817 1032.42L746.385 1032.49L746.276 1032.5L746.249 1032.51L746.248 1032.51L746.248 1032.51L746.244 1032.51L746.242 1032.51L746.231 1032.51L746.177 1032.52L745.963 1032.54C745.773 1032.57 745.491 1032.61 745.124 1032.65C744.389 1032.75 743.312 1032.88 741.946 1033.05C739.214 1033.37 735.327 1033.81 730.708 1034.24C721.467 1035.11 709.316 1035.98 697.642 1035.98L281.371 1035.98C269.696 1035.98 257.928 1035.1 247.96 1033.09C238.167 1031.12 230.29 1028.08 225.872 1023.87L225.872 789.145C225.872 786.768 225.753 783.211 225.616 779.149C225.513 776.08 225.4 772.723 225.321 769.368C225.138 761.531 225.144 753.716 225.855 749.262C225.872 749.238 225.946 749.132 226.185 748.95C226.523 748.692 227.054 748.387 227.802 748.043C229.292 747.356 231.475 746.588 234.284 745.753C239.891 744.086 247.846 742.192 257.382 740.168C276.446 736.124 301.738 731.582 326.998 727.322C352.255 723.063 377.468 719.089 396.367 716.179C405.816 714.724 413.686 713.535 419.194 712.71C421.948 712.298 424.111 711.976 425.586 711.758C426.323 711.649 426.889 711.565 427.27 711.509L427.701 711.446L427.81 711.43L427.837 711.426L427.839 711.425L427.842 711.425L427.844 711.425L427.855 711.423L427.909 711.416L428.123 711.387C428.313 711.362 428.595 711.324 428.962 711.277C429.697 711.182 430.774 711.047 432.14 710.884C434.872 710.558 438.759 710.124 443.378 709.689C452.619 708.82 464.77 707.953 476.444 707.953L892.715 707.953ZM948.242 719.79C948.242 719.79 948.242 719.789 948.24 719.787C948.242 719.789 948.242 719.79 948.242 719.79Z" stroke="url(#paint5_linear_815_29299)" stroke-width="2.04337" stroke-dasharray="0,0,0,0,0,2006.388671875"><animate attributeType="XML" attributeName="stroke-dasharray" repeatCount="indefinite" dur="3.5714285714285716s" values="0,0,0,0,0,2006.388671875; 0,0,0,1243.9609765625,762.4276953125,0; 0,0,381.21384765625,1625.17482421875,0,0; 0,1003.1943359375,0,1003.1943359375,0,0" keyTimes="0; 0.5; 0.69; 1"></animate></path>
<path d="M892.715 381.375C904.322 381.375 918.365 379.06 929.52 376.317C935.095 374.946 939.917 373.475 943.329 372.147C945.042 371.481 946.362 370.866 947.237 370.333C947.678 370.065 947.965 369.843 948.128 369.676C948.169 369.634 948.196 369.602 948.214 369.579L948.214 134.543C948.214 132.165 948.333 128.607 948.47 124.545C948.573 121.476 948.686 118.12 948.765 114.765C948.948 106.928 948.942 99.1131 948.231 94.6588C948.214 94.6351 948.14 94.5292 947.902 94.3475C947.563 94.0895 947.032 93.7844 946.284 93.4397C944.795 92.7535 942.611 91.9855 939.802 91.1502C934.195 89.4827 926.24 87.5887 916.704 85.5655C897.64 81.5207 872.348 76.9788 847.088 72.7193C821.831 68.4603 796.618 64.4857 777.719 61.5759C768.27 60.121 760.4 58.9323 754.892 58.1073C752.138 57.6949 749.975 57.3733 748.5 57.155C747.762 57.0458 747.197 56.9623 746.816 56.9062L746.385 56.8428L746.276 56.8267L746.249 56.8227L746.248 56.8226L746.247 56.8225L746.244 56.8221L746.242 56.8217L746.231 56.8203L746.177 56.8129L745.963 56.7841C745.773 56.7588 745.491 56.7216 745.124 56.6741C744.389 56.5793 743.312 56.4437 741.946 56.2809C739.214 55.9552 735.327 55.5209 730.708 55.0865C721.467 54.2174 709.316 53.3498 697.642 53.3498L281.371 53.3498C269.696 53.3498 257.928 54.2264 247.96 56.2366C238.167 58.2113 230.29 61.2464 225.872 65.4622L225.872 300.183C225.872 302.56 225.752 306.117 225.616 310.179C225.512 313.248 225.399 316.605 225.321 319.96C225.138 327.797 225.143 335.612 225.854 340.066C225.871 340.09 225.945 340.196 226.184 340.378C226.523 340.636 227.054 340.941 227.802 341.285C229.291 341.972 231.475 342.74 234.284 343.575C239.891 345.242 247.846 347.137 257.382 349.16C276.446 353.204 301.738 357.746 326.998 362.006C352.255 366.265 377.467 370.239 396.366 373.149C405.815 374.604 413.686 375.793 419.194 376.618C421.948 377.03 424.111 377.352 425.586 377.57C426.323 377.679 426.888 377.763 427.269 377.819L427.701 377.882L427.81 377.898L427.837 377.902L427.838 377.903L427.841 377.903L427.844 377.903L427.855 377.905L427.909 377.912L428.123 377.941C428.313 377.966 428.595 378.004 428.962 378.051C429.697 378.146 430.774 378.281 432.14 378.444C434.872 378.77 438.759 379.204 443.378 379.639C452.619 380.508 464.77 381.375 476.444 381.375L892.715 381.375ZM948.242 369.538C948.242 369.538 948.242 369.539 948.24 369.541C948.242 369.539 948.242 369.538 948.242 369.538Z" stroke="url(#paint6_linear_815_29299)" stroke-width="2.04337" stroke-dasharray="0,0,0,0,0,2006.3857421875"><animate attributeType="XML" attributeName="stroke-dasharray" repeatCount="indefinite" dur="3.5714285714285716s" values="0,0,0,0,0,2006.3857421875; 0,0,0,1243.95916015625,762.4265820312501,0; 0,0,381.21329101562503,1625.172451171875,0,0; 0,1003.19287109375,0,1003.19287109375,0,0" keyTimes="0; 0.5; 0.69; 1"></animate></path>
<path d="M1042.75 381.375C1031.14 381.375 1017.1 379.06 1005.94 376.317C1000.37 374.946 995.546 373.475 992.133 372.147C990.421 371.481 989.101 370.866 988.226 370.333C987.784 370.065 987.498 369.843 987.335 369.676C987.294 369.634 987.267 369.602 987.249 369.579L987.249 134.543C987.249 132.165 987.129 128.607 986.993 124.545C986.889 121.476 986.777 118.12 986.698 114.765C986.515 106.928 986.521 99.1131 987.232 94.6588C987.249 94.6351 987.323 94.5292 987.561 94.3475C987.9 94.0896 988.431 93.7844 989.179 93.4397C990.668 92.7535 992.852 91.9855 995.661 91.1502C1001.27 89.4827 1009.22 87.5887 1018.76 85.5655C1037.82 81.5208 1063.12 76.9788 1088.38 72.7193C1113.63 68.4603 1138.84 64.4858 1157.74 61.5759C1167.19 60.121 1175.06 58.9323 1180.57 58.1074C1183.32 57.6949 1185.49 57.3734 1186.96 57.155C1187.7 57.0458 1188.27 56.9624 1188.65 56.9063L1189.08 56.8428L1189.19 56.8267L1189.21 56.8227L1189.21 56.8226L1189.22 56.8225L1189.22 56.8221L1189.22 56.8217L1189.23 56.8203L1189.29 56.8129L1189.5 56.7841C1189.69 56.7588 1189.97 56.7216 1190.34 56.6742C1191.07 56.5793 1192.15 56.4437 1193.52 56.2809C1196.25 55.9552 1200.14 55.5209 1204.75 55.0865C1214 54.2174 1226.15 53.3498 1237.82 53.3498L1654.09 53.3498C1665.77 53.3498 1677.53 54.2264 1687.5 56.2366C1697.3 58.2114 1705.17 61.2465 1709.59 65.4623L1709.59 300.183C1709.59 302.56 1709.71 306.118 1709.85 310.18C1709.95 313.249 1710.06 316.606 1710.14 319.96C1710.32 327.797 1710.32 335.612 1709.61 340.066C1709.59 340.09 1709.52 340.196 1709.28 340.378C1708.94 340.636 1708.41 340.941 1707.66 341.286C1706.17 341.972 1703.99 342.74 1701.18 343.575C1695.57 345.242 1687.62 347.137 1678.08 349.16C1659.02 353.204 1633.72 357.746 1608.46 362.006C1583.21 366.265 1558 370.239 1539.1 373.149C1529.65 374.604 1521.78 375.793 1516.27 376.618C1513.51 377.03 1511.35 377.352 1509.88 377.57C1509.14 377.679 1508.57 377.763 1508.19 377.819L1507.76 377.882L1507.65 377.898L1507.63 377.902L1507.62 377.903L1507.62 377.903L1507.62 377.903L1507.61 377.905L1507.55 377.912L1507.34 377.941C1507.15 377.966 1506.87 378.004 1506.5 378.051C1505.77 378.146 1504.69 378.282 1503.32 378.444C1500.59 378.77 1496.7 379.204 1492.08 379.639C1482.84 380.508 1470.69 381.375 1459.02 381.375L1042.75 381.375ZM987.221 369.538C987.221 369.538 987.221 369.539 987.222 369.541C987.221 369.539 987.221 369.538 987.221 369.538Z" stroke="url(#paint7_linear_815_29299)" stroke-width="2.04337" stroke-dasharray="0,0,0,0,0,2006.385009765625"><animate attributeType="XML" attributeName="stroke-dasharray" repeatCount="indefinite" dur="3.5714285714285716s" values="0,0,0,0,0,2006.385009765625; 0,0,0,1243.9587060546876,762.4263037109375,0; 0,0,381.21315185546877,1625.1718579101564,0,0; 0,1003.1925048828125,0,1003.1925048828125,0,0" keyTimes="0; 0.5; 0.69; 1"></animate></path>
<g filter="url(#filter0_ddf_815_29299)">
<path d="M56.8649 48.1495L56.865 254.075L158.205 297.987L158.205 794.491L56.8651 825.48L56.8651 1044.33C56.8651 1044.33 431.709 1044.33 665.092 1044.33L725.572 963.231C729.431 955.581 737.706 950.695 746.801 950.695L1228.39 950.695C1237.48 950.695 1245.76 955.581 1249.61 963.231L1299.48 1025.66C1303.34 1033.31 1311.61 1044.33 1320.71 1044.33L1888.38 1044.33L1888.38 843.638L1772.08 796.32L1772.08 294.591L1888.38 251.241L1888.38 48.1494M56.8649 48.1495L1888.38 48.1494M56.8649 48.1495L664.557 48.1496C673.652 48.1496 681.927 56.1006 685.785 63.7502L721.541 129.247C725.399 136.897 737.706 141.783 746.801 141.783L1218.41 141.783C1227.5 141.783 1237.79 136.897 1241.65 129.248L1279.42 63.7502C1283.28 56.1006 1291.55 48.1496 1300.65 48.1496L1888.38 48.1494M1935.26 1089L-0.000167847 1089L-0.00021543 0.413625L1935.26 0.413541L1935.26 1089Z" stroke="white" stroke-width="23.1145" stroke-dasharray="0,0,0,0,0,14021.5546875"><animate attributeType="XML" attributeName="stroke-dasharray" repeatCount="indefinite" dur="3.5714285714285716s" values="0,0,0,0,0,14021.5546875; 0,0,0,8693.36390625,5328.19078125,0; 0,0,2664.095390625,11357.459296875,0,0; 0,7010.77734375,0,7010.77734375,0,0" keyTimes="0; 0.5; 0.69; 1"></animate></path>
</g>
<g filter="url(#filter1_dd_815_29299)">
<g filter="url(#filter2_dd_815_29299)">
<path fill-rule="evenodd" clip-rule="evenodd" d="M1935.26 1089L-0.000167847 1089L-0.00021543 0.413625L1935.26 0.413541L1935.26 1089ZM49.3748 222.379L49.3748 48.7952L662.213 48.7952L727.37 131.346C730.906 138.995 738.49 143.882 746.825 143.882L1206.48 143.882C1214.82 143.882 1222.4 138.995 1225.94 131.346L1271.64 48.7952L1886.88 49.0117L1886.88 222.379L1815.89 291.928L1816.33 797.326L1886.88 867.467L1886.88 1040.83L1271.64 1040.83L1225.94 956.934C1222.4 949.284 1214.82 944.398 1206.48 944.398L746.825 944.398C738.49 944.398 730.906 949.284 727.37 956.934L681.668 1040.83L49.3749 1040.84L49.3749 867.468L95.1842 797.326L94.7471 291.928L49.3748 222.379Z" fill="url(#paint8_radial_815_29299)" stroke-dasharray="0,0,0,0,0,12001.1552734375"><animate attributeType="XML" attributeName="stroke-dasharray" repeatCount="indefinite" dur="3.5714285714285716s" values="0,0,0,0,0,12001.1552734375; 0,0,0,7440.71626953125,4560.43900390625,0; 0,0,2280.219501953125,9720.935771484375,0,0; 0,6000.57763671875,0,6000.57763671875,0,0" keyTimes="0; 0.5; 0.69; 1"></animate></path>
</g>
</g>
</g>
<defs>
<filter id="filter0_ddf_815_29299" x="-337.827" y="-104.413" width="2377.92" height="1495.68" filterUnits="userSpaceOnUse" color-interpolation-filters="sRGB">
<feFlood flood-opacity="0" result="BackgroundImageFix"></feFlood>
<feColorMatrix in="SourceAlpha" type="matrix" values="0 0 0 0 0 0 0 0 0 0 0 0 0 0 0 0 0 0 127 0" result="hardAlpha"></feColorMatrix>
<feOffset dx="-142.243" dy="106.682"></feOffset>
<feGaussianBlur stdDeviation="97.7922"></feGaussianBlur>
<feColorMatrix type="matrix" values="0 0 0 0 1 0 0 0 0 1 0 0 0 0 1 0 0 0 0.3 0"></feColorMatrix>
<feBlend mode="normal" in2="BackgroundImageFix" result="effect1_dropShadow_815_29299"></feBlend>
<feColorMatrix in="SourceAlpha" type="matrix" values="0 0 0 0 0 0 0 0 0 0 0 0 0 0 0 0 0 0 127 0" result="hardAlpha"></feColorMatrix>
<feOffset dx="-53.3412" dy="53.3412"></feOffset>
<feGaussianBlur stdDeviation="35.5608"></feGaussianBlur>
<feColorMatrix type="matrix" values="0 0 0 0 1 0 0 0 0 1 0 0 0 0 1 0 0 0 0.3 0"></feColorMatrix>
<feBlend mode="normal" in2="effect1_dropShadow_815_29299" result="effect2_dropShadow_815_29299"></feBlend>
<feBlend mode="normal" in="SourceGraphic" in2="effect2_dropShadow_815_29299" result="shape"></feBlend>
<feGaussianBlur stdDeviation="52.4134" result="effect3_foregroundBlur_815_29299"></feGaussianBlur>
</filter>
<filter id="filter1_dd_815_29299" x="-212.705" y="-55.5615" width="2181.56" height="1334.88" filterUnits="userSpaceOnUse" color-interpolation-filters="sRGB">
<feFlood flood-opacity="0" result="BackgroundImageFix"></feFlood>
<feColorMatrix in="SourceAlpha" type="matrix" values="0 0 0 0 0 0 0 0 0 0 0 0 0 0 0 0 0 0 127 0" result="hardAlpha"></feColorMatrix>
<feOffset dx="-89.5601" dy="67.1701"></feOffset>
<feGaussianBlur stdDeviation="61.5726"></feGaussianBlur>
<feColorMatrix type="matrix" values="0 0 0 0 0.13 0 0 0 0 0.1428 0 0 0 0 0.15 0 0 0 0.3 0"></feColorMatrix>
<feBlend mode="normal" in2="BackgroundImageFix" result="effect1_dropShadow_815_29299"></feBlend>
<feColorMatrix in="SourceAlpha" type="matrix" values="0 0 0 0 0 0 0 0 0 0 0 0 0 0 0 0 0 0 127 0" result="hardAlpha"></feColorMatrix>
<feOffset dx="-33.585" dy="33.585"></feOffset>
<feGaussianBlur stdDeviation="22.39"></feGaussianBlur>
<feColorMatrix type="matrix" values="0 0 0 0 0.13 0 0 0 0 0.1428 0 0 0 0 0.15 0 0 0 0.3 0"></feColorMatrix>
<feBlend mode="normal" in2="effect1_dropShadow_815_29299" result="effect2_dropShadow_815_29299"></feBlend>
<feBlend mode="normal" in="SourceGraphic" in2="effect2_dropShadow_815_29299" result="shape"></feBlend>
</filter>
<filter id="filter2_dd_815_29299" x="-212.705" y="-55.5615" width="2181.56" height="1334.88" filterUnits="userSpaceOnUse" color-interpolation-filters="sRGB">
<feFlood flood-opacity="0" result="BackgroundImageFix"></feFlood>
<feColorMatrix in="SourceAlpha" type="matrix" values="0 0 0 0 0 0 0 0 0 0 0 0 0 0 0 0 0 0 127 0" result="hardAlpha"></feColorMatrix>
<feOffset dx="-89.5601" dy="67.1701"></feOffset>
<feGaussianBlur stdDeviation="61.5726"></feGaussianBlur>
<feColorMatrix type="matrix" values="0 0 0 0 0.13 0 0 0 0 0.1428 0 0 0 0 0.15 0 0 0 0.3 0"></feColorMatrix>
<feBlend mode="normal" in2="BackgroundImageFix" result="effect1_dropShadow_815_29299"></feBlend>
<feColorMatrix in="SourceAlpha" type="matrix" values="0 0 0 0 0 0 0 0 0 0 0 0 0 0 0 0 0 0 127 0" result="hardAlpha"></feColorMatrix>
<feOffset dx="-33.585" dy="33.585"></feOffset>
<feGaussianBlur stdDeviation="22.39"></feGaussianBlur>
<feColorMatrix type="matrix" values="0 0 0 0 0.13 0 0 0 0 0.1428 0 0 0 0 0.15 0 0 0 0.3 0"></feColorMatrix>
<feBlend mode="normal" in2="effect1_dropShadow_815_29299" result="effect2_dropShadow_815_29299"></feBlend>
<feBlend mode="normal" in="SourceGraphic" in2="effect2_dropShadow_815_29299" result="shape"></feBlend>
</filter>
<linearGradient id="paint0_linear_815_29299" x1="1449.32" y1="671.04" x2="1449.32" y2="59.3584" gradientUnits="userSpaceOnUse">
<stop stop-color="white"></stop>
<stop offset="1" stop-color="white"></stop>
</linearGradient>
<linearGradient id="paint1_linear_815_29299" x1="1449.32" y1="418.783" x2="1449.32" y2="1030.46" gradientUnits="userSpaceOnUse">
<stop stop-color="white"></stop>
<stop offset="1" stop-color="white"></stop>
</linearGradient>
<linearGradient id="paint2_linear_815_29299" x1="486.085" y1="418.783" x2="486.085" y2="1030.46" gradientUnits="userSpaceOnUse">
<stop stop-color="white"></stop>
<stop offset="1" stop-color="white"></stop>
</linearGradient>
<linearGradient id="paint3_linear_815_29299" x1="486.085" y1="671.041" x2="486.085" y2="59.3589" gradientUnits="userSpaceOnUse">
<stop stop-color="white"></stop>
<stop offset="1" stop-color="white"></stop>
</linearGradient>
<linearGradient id="paint4_linear_815_29299" x1="769.009" y1="866.591" x2="1732.76" y2="866.59" gradientUnits="userSpaceOnUse">
<stop stop-color="white"></stop>
<stop offset="1" stop-color="white"></stop>
</linearGradient>
<linearGradient id="paint5_linear_815_29299" x1="1166.45" y1="866.591" x2="202.705" y2="866.59" gradientUnits="userSpaceOnUse">
<stop stop-color="white"></stop>
<stop offset="1" stop-color="white"></stop>
</linearGradient>
<linearGradient id="paint6_linear_815_29299" x1="1166.45" y1="222.738" x2="202.705" y2="222.738" gradientUnits="userSpaceOnUse">
<stop stop-color="white"></stop>
<stop offset="1" stop-color="white"></stop>
</linearGradient>
<linearGradient id="paint7_linear_815_29299" x1="769.01" y1="222.738" x2="1732.76" y2="222.738" gradientUnits="userSpaceOnUse">
<stop stop-color="white"></stop>
<stop offset="1" stop-color="white"></stop>
</linearGradient>
<radialGradient id="paint8_radial_815_29299" cx="0" cy="0" r="1" gradientUnits="userSpaceOnUse" gradientTransform="translate(1884.46 1098.07) rotate(-149.78) scale(2180.84 2610.54)">
<stop stop-color="#0F2326"></stop>
<stop offset="0.476178" stop-color="#0A142A"></stop>
<stop offset="1" stop-color="#302437"></stop>
</radialGradient>
<clipPath id="clip0_815_29299">
<rect width="1935.26" height="1088.59" fill="white" transform="translate(0 0.413574)" stroke-dasharray="0,0,0,0,0,6047.7001953125"><animate attributeType="XML" attributeName="stroke-dasharray" repeatCount="indefinite" dur="3.5714285714285716s" values="0,0,0,0,0,6047.7001953125; 0,0,0,3749.57412109375,2298.12607421875,0; 0,0,1149.063037109375,4898.637158203125,0,0; 0,3023.85009765625,0,3023.85009765625,0,0" keyTimes="0; 0.5; 0.69; 1"></animate></rect>
</clipPath>
</defs>
<setting>{"type":"shift","speed":14,"random":1,"shift":1,"size":1,"rupture":62}</setting></svg>