<?xml version="1.0" standalone="no"?>
<svg id="FRAME-UI-001" width="1920" height="1080" viewBox="0 0 1920 1080" fill="none" xmlns="http://www.w3.org/2000/svg" style="max-width: 100%; max-height: 100%;">
<g clip-path="url(#clip0_815_29300)">
<g filter="url(#filter0_bddf_815_29300)">
<path d="M1863.58 1032.64L1863.58 828.339L1763.04 784.773L1763.04 292.186L1863.58 261.441L1863.58 44.3189C1863.58 44.3189 1491.7 44.3189 1260.15 44.3189L1200.15 124.777C1196.32 132.366 1188.11 137.214 1179.09 137.214L701.303 137.214C692.279 137.214 684.069 132.366 680.242 124.777L630.768 62.837C626.94 55.2478 618.731 44.3189 609.707 44.3189L46.5147 44.3189L46.5147 243.426L161.898 290.372L161.898 788.143L46.5147 831.151L46.5148 1032.64M1863.58 1032.64L46.5148 1032.64M1863.58 1032.64L1260.68 1032.64C1251.66 1032.64 1243.45 1024.75 1239.62 1017.16L1204.15 952.182C1200.32 944.593 1188.11 939.745 1179.09 939.745L711.204 939.745C702.181 939.745 691.971 944.593 688.144 952.182L650.67 1017.16C646.842 1024.75 638.633 1032.64 629.609 1032.64L46.5148 1032.64M0 7.97437e-07L1920 8.39259e-05L1920 1080L-4.72083e-05 1080L0 7.97437e-07Z" stroke="url(#paint0_linear_815_29300)" stroke-width="22.9322" stroke-dasharray="0,0,8012.707875000001,5898.243296874999"><animate attributeType="XML" attributeName="stroke-dasharray" repeatCount="indefinite" dur="4.008593826209649s" values="0,0,8012.707875000001,5898.243296874999; 
          0,5898.243296874999,8012.707875000001,0; 
          8012.707875000001,5898.243296874999,0,0" keyTimes="0; 0.42399999999999993; 1" begin="0.8871061250051349s"></animate></path>
</g>
<path fill-rule="evenodd" clip-rule="evenodd" d="M0 3.1891e-06L1920 8.39259e-05L1920 1080L-4.72083e-05 1080L0 3.1891e-06ZM1871.01 859.785L1871.01 1032L1263.01 1032L1198.37 950.101C1194.86 942.511 1187.34 937.664 1179.07 937.664L723.034 937.663C714.764 937.663 707.24 942.511 703.732 950.1L658.391 1032L48 1031.79L48 859.785L118.434 790.785L118 289.374L48 219.785L48 47.7852L658.391 47.7852L703.732 131.025C707.24 138.614 714.764 143.462 723.034 143.462L1179.07 143.462C1187.34 143.462 1194.86 138.614 1198.37 131.025L1243.71 47.7852L1871.01 47.7852L1871.01 219.785L1825.57 289.374L1826 790.785L1871.01 859.785Z" fill="url(#paint1_radial_815_29300)" stroke-dasharray="0,0,6858.154125000001,5048.363453124999"><animate attributeType="XML" attributeName="stroke-dasharray" repeatCount="indefinite" dur="4.184578532614394s" values="0,0,6858.154125000001,5048.363453124999; 
          0,5048.363453124999,6858.154125000001,0; 
          6858.154125000001,5048.363453124999,0,0" keyTimes="0; 0.42399999999999993; 1" begin="0.1061572321808919s"></animate></path>
<g filter="url(#filter1_dd_815_29300)">
<path d="M1913.58 47.3593L1913.58 251.661L1813.04 295.227L1813.04 787.814L1913.58 818.559L1913.58 1035.68C1913.58 1035.68 1491.7 1035.68 1260.15 1035.68L1200.15 955.223C1196.32 947.634 1188.11 942.786 1179.09 942.786L701.303 942.786C692.279 942.786 684.069 947.634 680.242 955.223L630.768 1017.16C626.94 1024.75 618.731 1035.68 609.707 1035.68L6.51468 1035.68L6.51472 836.574L121.898 789.628L121.898 291.857L6.51482 248.849L6.51486 47.3593M1913.58 47.3593L6.51486 47.3593M1913.58 47.3593L1260.68 47.3594C1251.66 47.3594 1243.45 55.2477 1239.62 62.8369L1204.15 127.818C1200.32 135.407 1188.11 140.255 1179.09 140.255L711.205 140.255C702.181 140.255 691.972 135.407 688.144 127.818L650.67 62.8369C646.842 55.2477 638.633 47.3594 629.609 47.3594L6.51486 47.3593M-40 1080L1970 1080L1970 -3.42104e-05L-40 -0.00012207L-40 1080Z" stroke="white" stroke-width="9" stroke-linejoin="bevel" stroke-dasharray="0,0,8271.9061875,6089.042054687499"><animate attributeType="XML" attributeName="stroke-dasharray" repeatCount="indefinite" dur="3.7943075863108766s" values="0,0,8271.9061875,6089.042054687499; 
          0,6089.042054687499,8271.9061875,0; 
          8271.9061875,6089.042054687499,0,0" keyTimes="0; 0.42399999999999993; 1" begin="1.6797838654045951s"></animate></path>
</g>
</g>
<defs>
<filter id="filter0_bddf_815_29300" x="-218.738" y="-250.49" width="2357.48" height="1580.98" filterUnits="userSpaceOnUse" color-interpolation-filters="sRGB">
<feFlood flood-opacity="0" result="BackgroundImageFix"></feFlood>
<feGaussianBlur in="BackgroundImage" stdDeviation="38.8083"></feGaussianBlur>
<feComposite in2="SourceAlpha" operator="in" result="effect1_backgroundBlur_815_29300"></feComposite>
<feColorMatrix in="SourceAlpha" type="matrix" values="0 0 0 0 0 0 0 0 0 0 0 0 0 0 0 0 0 0 127 0" result="hardAlpha"></feColorMatrix>
<feOffset dx="35.2803" dy="-67.0326"></feOffset>
<feGaussianBlur stdDeviation="91.7288"></feGaussianBlur>
<feColorMatrix type="matrix" values="0 0 0 0 0.72549 0 0 0 0 0.992157 0 0 0 0 0.00784314 0 0 0 0.3 0"></feColorMatrix>
<feBlend mode="normal" in2="effect1_backgroundBlur_815_29300" result="effect2_dropShadow_815_29300"></feBlend>
<feColorMatrix in="SourceAlpha" type="matrix" values="0 0 0 0 0 0 0 0 0 0 0 0 0 0 0 0 0 0 127 0" result="hardAlpha"></feColorMatrix>
<feOffset dx="-35.2803" dy="67.0326"></feOffset>
<feGaussianBlur stdDeviation="91.7288"></feGaussianBlur>
<feColorMatrix type="matrix" values="0 0 0 0 0.72549 0 0 0 0 0.992157 0 0 0 0 0.00784314 0 0 0 0.4 0"></feColorMatrix>
<feBlend mode="normal" in2="effect2_dropShadow_815_29300" result="effect3_dropShadow_815_29300"></feBlend>
<feBlend mode="normal" in="SourceGraphic" in2="effect3_dropShadow_815_29300" result="shape"></feBlend>
<feGaussianBlur stdDeviation="29.9882" result="effect4_foregroundBlur_815_29300"></feGaussianBlur>
</filter>
<filter id="filter1_dd_815_29300" x="-375.163" y="-88.2007" width="2398.08" height="1468.08" filterUnits="userSpaceOnUse" color-interpolation-filters="sRGB">
<feFlood flood-opacity="0" result="BackgroundImageFix"></feFlood>
<feColorMatrix in="SourceAlpha" type="matrix" values="0 0 0 0 0 0 0 0 0 0 0 0 0 0 0 0 0 0 127 0" result="hardAlpha"></feColorMatrix>
<feOffset dx="-141.121" dy="105.841"></feOffset>
<feGaussianBlur stdDeviation="97.0208"></feGaussianBlur>
<feColorMatrix type="matrix" values="0 0 0 0 1 0 0 0 0 1 0 0 0 0 1 0 0 0 0.3 0"></feColorMatrix>
<feBlend mode="normal" in2="BackgroundImageFix" result="effect1_dropShadow_815_29300"></feBlend>
<feColorMatrix in="SourceAlpha" type="matrix" values="0 0 0 0 0 0 0 0 0 0 0 0 0 0 0 0 0 0 127 0" result="hardAlpha"></feColorMatrix>
<feOffset dx="-52.9204" dy="52.9204"></feOffset>
<feGaussianBlur stdDeviation="35.2803"></feGaussianBlur>
<feColorMatrix type="matrix" values="0 0 0 0 1 0 0 0 0 1 0 0 0 0 1 0 0 0 0.3 0"></feColorMatrix>
<feBlend mode="normal" in2="effect1_dropShadow_815_29300" result="effect2_dropShadow_815_29300"></feBlend>
<feBlend mode="normal" in="SourceGraphic" in2="effect2_dropShadow_815_29300" result="shape"></feBlend>
</filter>
<linearGradient id="paint0_linear_815_29300" x1="1920.51" y1="968.846" x2="588.381" y2="-533.243" gradientUnits="userSpaceOnUse">
<stop stop-color="#59E037"></stop>
<stop offset="1" stop-color="#FBFF31"></stop>
</linearGradient>
<radialGradient id="paint1_radial_815_29300" cx="0" cy="0" r="1" gradientUnits="userSpaceOnUse" gradientTransform="translate(50.4 -8.99998) rotate(30.2198) scale(2163.64 2589.95)">
<stop stop-color="#0F2326"></stop>
<stop offset="0.476178" stop-color="#0A142A"></stop>
<stop offset="1" stop-color="#302437"></stop>
</radialGradient>
<clipPath id="clip0_815_29300">
<rect width="1920" height="1080" fill="white" stroke-dasharray="0,0,3456.0000000000005,2543.9999999999995"><animate attributeType="XML" attributeName="stroke-dasharray" repeatCount="indefinite" dur="4.250400728017221s" values="0,0,3456.0000000000005,2543.9999999999995; 
          0,2543.9999999999995,3456.0000000000005,0; 
          3456.0000000000005,2543.9999999999995,0,0" keyTimes="0; 0.42399999999999993; 1" begin="1.4226984343139046s"></animate></rect>
</clipPath>
</defs>
<setting>{"type":"loader","speed":11,"random":0.8,"shift":0.5,"size":1,"rupture":36}</setting></svg>