<?xml version="1.0" standalone="no"?>
<svg id="FRAME-UI-004" width="1080" height="1920" viewBox="0 0 1080 1920" fill="none" xmlns="http://www.w3.org/2000/svg" style="max-width: 100%; max-height: 100%;">
<g clip-path="url(#clip0_805_29224)">
<g filter="url(#filter0_ddd_805_29224)">
<path d="M611.591 1008.45C619.703 1008.45 628.281 1021.81 632.338 1043.5L632.338 1692.2C632.338 1715.17 632.846 1777.67 632.337 1802.81C631.827 1827.94 562.125 1909.39 562.125 1909.39C562.125 1909.39 553.364 1919 545.252 1919L401.165 1919C393.053 1919 385.556 1905.64 381.499 1883.95M402.349 1919C394.236 1919 385.658 1905.64 381.601 1883.95L381.601 1235.25C381.601 1212.28 381.093 1149.78 381.603 1124.64C382.112 1099.5 451.814 1018.05 451.814 1018.05C451.814 1018.05 460.575 1008.45 468.687 1008.45L612.774 1008.45C620.886 1008.45 628.383 1021.81 632.44 1043.5" stroke="white" stroke-width="3.55608" stroke-dasharray="0,0,1820.0568359375002,455.0142089843749"><animate attributeType="XML" attributeName="stroke-dasharray" repeatCount="indefinite" dur="2.5s" values="0,0,1820.0568359375002,455.0142089843749; 
          0,455.0142089843749,1820.0568359375002,0; 
          1820.0568359375002,455.0142089843749,0,0" keyTimes="0; 0.19999999999999996; 1"></animate></path>
</g>
<g filter="url(#filter1_ddd_805_29224)">
<path d="M341.973 1919C333.861 1919 325.282 1905.64 321.226 1883.95L321.226 1235.25C321.226 1212.28 320.717 1149.78 321.227 1124.64C321.737 1099.5 391.439 1018.05 391.439 1018.05C391.439 1018.05 400.199 1008.45 408.312 1008.45L552.398 1008.45C560.511 1008.45 568.008 1021.81 572.064 1043.49M551.215 1008.45C559.327 1008.45 567.905 1021.81 571.962 1043.49L571.962 1692.2C571.962 1715.17 572.471 1777.67 571.961 1802.81C571.451 1827.94 501.749 1909.39 501.749 1909.39C501.749 1909.39 492.989 1919 484.876 1919L340.789 1919C332.677 1919 325.18 1905.64 321.124 1883.95" stroke="white" stroke-width="3.55608" stroke-dasharray="0,0,1820.0494140625,455.0123535156249"><animate attributeType="XML" attributeName="stroke-dasharray" repeatCount="indefinite" dur="2.5s" values="0,0,1820.0494140625,455.0123535156249; 
          0,455.0123535156249,1820.0494140625,0; 
          1820.0494140625,455.0123535156249,0,0" keyTimes="0; 0.19999999999999996; 1"></animate></path>
</g>
<g filter="url(#filter2_ddd_805_29224)">
<path d="M476.727 1008.45C468.614 1008.45 460.036 1021.81 455.98 1043.5L455.98 1692.2C455.98 1715.17 455.471 1777.67 455.981 1802.81C456.491 1827.94 526.193 1909.39 526.193 1909.39C526.193 1909.39 534.953 1919 543.065 1919L687.152 1919C695.265 1919 702.762 1905.64 706.818 1883.95M685.969 1919C694.081 1919 702.659 1905.64 706.716 1883.95L706.716 1235.25C706.716 1212.28 707.225 1149.78 706.715 1124.64C706.205 1099.5 636.503 1018.05 636.503 1018.05C636.503 1018.05 627.743 1008.45 619.63 1008.45L475.543 1008.45C467.431 1008.45 459.934 1021.81 455.877 1043.5" stroke="white" stroke-width="3.55608" stroke-dasharray="0,0,1820.056640625,455.0141601562499"><animate attributeType="XML" attributeName="stroke-dasharray" repeatCount="indefinite" dur="2.5s" values="0,0,1820.056640625,455.0141601562499; 
          0,455.0141601562499,1820.056640625,0; 
          1820.056640625,455.0141601562499,0,0" keyTimes="0; 0.19999999999999996; 1"></animate></path>
</g>
<g filter="url(#filter3_ddd_805_29224)">
<path d="M746.349 1919C754.462 1919 763.04 1905.64 767.096 1883.95L767.096 1235.25C767.096 1212.28 767.605 1149.78 767.095 1124.64C766.585 1099.5 696.883 1018.05 696.883 1018.05C696.883 1018.05 688.123 1008.45 680.011 1008.45L535.924 1008.45C527.812 1008.45 520.315 1021.81 516.258 1043.49M537.107 1008.45C528.995 1008.45 520.417 1021.81 516.36 1043.49L516.36 1692.2C516.36 1715.17 515.851 1777.67 516.361 1802.81C516.871 1827.94 586.573 1909.39 586.573 1909.39C586.573 1909.39 595.334 1919 603.446 1919L747.533 1919C755.645 1919 763.142 1905.64 767.199 1883.95" stroke="white" stroke-width="3.55608" stroke-dasharray="0,0,1820.0494140625,455.0123535156249"><animate attributeType="XML" attributeName="stroke-dasharray" repeatCount="indefinite" dur="2.5s" values="0,0,1820.0494140625,455.0123535156249; 
          0,455.0123535156249,1820.0494140625,0; 
          1820.0494140625,455.0123535156249,0,0" keyTimes="0; 0.19999999999999996; 1"></animate></path>
</g>
<g filter="url(#filter4_ddd_805_29224)">
<path d="M476.727 1008.45C468.614 1008.45 460.036 1021.81 455.98 1043.5L455.98 1692.2C455.98 1715.17 455.471 1777.67 455.981 1802.81C456.491 1827.94 526.193 1909.39 526.193 1909.39C526.193 1909.39 534.953 1919 543.065 1919L687.152 1919C695.265 1919 702.762 1905.64 706.818 1883.95M685.969 1919C694.081 1919 702.659 1905.64 706.716 1883.95L706.716 1235.25C706.716 1212.28 707.225 1149.78 706.715 1124.64C706.205 1099.5 636.503 1018.06 636.503 1018.06C636.503 1018.06 627.743 1008.45 619.63 1008.45L475.543 1008.45C467.431 1008.45 459.934 1021.81 455.877 1043.5" stroke="white" stroke-width="3.55608" stroke-dasharray="0,0,1820.0544921875,455.0136230468749"><animate attributeType="XML" attributeName="stroke-dasharray" repeatCount="indefinite" dur="2.5s" values="0,0,1820.0544921875,455.0136230468749; 
          0,455.0136230468749,1820.0544921875,0; 
          1820.0544921875,455.0136230468749,0,0" keyTimes="0; 0.19999999999999996; 1"></animate></path>
</g>
<g filter="url(#filter5_ddd_805_29224)">
<path d="M746.349 1919C754.462 1919 763.04 1905.64 767.097 1883.95L767.096 1235.25C767.096 1212.28 767.605 1149.78 767.095 1124.64C766.585 1099.5 696.883 1018.05 696.883 1018.05C696.883 1018.05 688.123 1008.45 680.011 1008.45L535.924 1008.45C527.811 1008.45 520.314 1021.81 516.258 1043.49M537.107 1008.45C528.995 1008.45 520.417 1021.81 516.36 1043.49L516.36 1692.2C516.36 1715.17 515.851 1777.67 516.361 1802.81C516.871 1827.94 586.573 1909.39 586.573 1909.39C586.573 1909.39 595.333 1919 603.446 1919L747.533 1919C755.645 1919 763.142 1905.64 767.199 1883.95" stroke="white" stroke-width="3.55608" stroke-dasharray="0,0,1820.0501953125001,455.0125488281249"><animate attributeType="XML" attributeName="stroke-dasharray" repeatCount="indefinite" dur="2.5s" values="0,0,1820.0501953125001,455.0125488281249; 
          0,455.0125488281249,1820.0501953125001,0; 
          1820.0501953125001,455.0125488281249,0,0" keyTimes="0; 0.19999999999999996; 1"></animate></path>
</g>
<g filter="url(#filter6_ddd_805_29224)">
<path d="M611.591 1008.45C619.703 1008.45 628.281 1021.81 632.338 1043.5L632.338 1692.2C632.338 1715.17 632.846 1777.67 632.337 1802.81C631.827 1827.94 562.125 1909.39 562.125 1909.39C562.125 1909.39 553.364 1919 545.252 1919L401.165 1919C393.053 1919 385.556 1905.64 381.499 1883.95M402.348 1919C394.236 1919 385.658 1905.64 381.601 1883.95L381.601 1235.25C381.601 1212.28 381.093 1149.78 381.602 1124.64C382.112 1099.5 451.814 1018.05 451.814 1018.05C451.814 1018.05 460.575 1008.45 468.687 1008.45L612.774 1008.45C620.886 1008.45 628.383 1021.81 632.44 1043.5" stroke="white" stroke-width="3.55608" stroke-dasharray="0,0,1820.0564453125,455.0141113281249"><animate attributeType="XML" attributeName="stroke-dasharray" repeatCount="indefinite" dur="2.5s" values="0,0,1820.0564453125,455.0141113281249; 
          0,455.0141113281249,1820.0564453125,0; 
          1820.0564453125,455.0141113281249,0,0" keyTimes="0; 0.19999999999999996; 1"></animate></path>
</g>
<g filter="url(#filter7_ddd_805_29224)">
<path d="M341.973 1919C333.861 1919 325.283 1905.64 321.226 1883.95L321.226 1235.25C321.226 1212.28 320.717 1149.78 321.227 1124.64C321.737 1099.5 391.439 1018.05 391.439 1018.05C391.439 1018.05 400.199 1008.45 408.312 1008.45L552.398 1008.45C560.511 1008.45 568.008 1021.81 572.064 1043.49M551.215 1008.45C559.327 1008.45 567.905 1021.81 571.962 1043.49L571.962 1692.2C571.962 1715.17 572.471 1777.67 571.961 1802.81C571.451 1827.94 501.749 1909.39 501.749 1909.39C501.749 1909.39 492.989 1919 484.877 1919L340.79 1919C332.677 1919 325.18 1905.64 321.124 1883.95" stroke="white" stroke-width="3.55608" stroke-dasharray="0,0,1820.0490234375002,455.0122558593749"><animate attributeType="XML" attributeName="stroke-dasharray" repeatCount="indefinite" dur="2.5s" values="0,0,1820.0490234375002,455.0122558593749; 
          0,455.0122558593749,1820.0490234375002,0; 
          1820.0490234375002,455.0122558593749,0,0" keyTimes="0; 0.19999999999999996; 1"></animate></path>
</g>
<g filter="url(#filter8_ddd_805_29224)">
<path d="M611.591 926.118C619.703 926.118 628.282 912.743 632.338 891.033L632.338 241.624C632.338 218.626 632.847 156.059 632.337 130.894C631.827 105.729 562.125 24.1914 562.125 24.1914C562.125 24.1914 553.365 14.5742 545.252 14.5742L401.166 14.5743C393.053 14.5743 385.556 27.9488 381.5 49.6595M402.349 14.5743C394.237 14.5743 385.659 27.9488 381.602 49.6596L381.602 699.068C381.602 722.066 381.093 784.633 381.603 809.798C382.113 834.964 451.815 916.501 451.815 916.501C451.815 916.501 460.575 926.118 468.688 926.118L612.774 926.118C620.887 926.118 628.384 912.743 632.44 891.033" stroke="white" stroke-width="3.55608" stroke-dasharray="0,0,1821.6476562500002,455.4119140624999"><animate attributeType="XML" attributeName="stroke-dasharray" repeatCount="indefinite" dur="2.5s" values="0,0,1821.6476562500002,455.4119140624999; 
          0,455.4119140624999,1821.6476562500002,0; 
          1821.6476562500002,455.4119140624999,0,0" keyTimes="0; 0.19999999999999996; 1"></animate></path>
</g>
<g filter="url(#filter9_ddd_805_29224)">
<path d="M341.973 14.5803C333.86 14.5803 325.282 27.9548 321.226 49.6656L321.226 699.074C321.226 722.072 320.717 784.639 321.227 809.804C321.737 834.969 391.439 916.506 391.439 916.506C391.439 916.506 400.199 926.124 408.312 926.124L552.399 926.123C560.511 926.123 568.008 912.749 572.064 891.038M551.215 926.123C559.327 926.123 567.906 912.749 571.962 891.038L571.962 241.63C571.962 218.632 572.471 156.065 571.961 130.9C571.451 105.735 501.749 24.1975 501.749 24.1975C501.749 24.1975 492.989 14.5803 484.876 14.5803L340.789 14.5803C332.677 14.5803 325.18 27.9548 321.123 49.6656" stroke="white" stroke-width="3.55608" stroke-dasharray="0,0,1821.6476562500002,455.4119140624999"><animate attributeType="XML" attributeName="stroke-dasharray" repeatCount="indefinite" dur="2.5s" values="0,0,1821.6476562500002,455.4119140624999; 
          0,455.4119140624999,1821.6476562500002,0; 
          1821.6476562500002,455.4119140624999,0,0" keyTimes="0; 0.19999999999999996; 1"></animate></path>
</g>
<g filter="url(#filter10_ddd_805_29224)">
<path d="M476.727 926.118C468.615 926.118 460.036 912.744 455.98 891.033L455.98 241.624C455.98 218.626 455.471 156.059 455.981 130.894C456.491 105.729 526.193 24.1914 526.193 24.1914C526.193 24.1914 534.953 14.5742 543.065 14.5742L687.152 14.5742C695.265 14.5742 702.762 27.9487 706.818 49.6595M685.969 14.5742C694.081 14.5742 702.659 27.9487 706.716 49.6595L706.716 699.069C706.716 722.066 707.225 784.633 706.715 809.799C706.205 834.964 636.503 916.501 636.503 916.501C636.503 916.501 627.743 926.118 619.63 926.118L475.544 926.118C467.431 926.118 459.934 912.744 455.878 891.033" stroke="white" stroke-width="3.55608" stroke-dasharray="0,0,1821.6482421875,455.4120605468749"><animate attributeType="XML" attributeName="stroke-dasharray" repeatCount="indefinite" dur="2.5s" values="0,0,1821.6482421875,455.4120605468749; 
          0,455.4120605468749,1821.6482421875,0; 
          1821.6482421875,455.4120605468749,0,0" keyTimes="0; 0.19999999999999996; 1"></animate></path>
</g>
<g filter="url(#filter11_ddd_805_29224)">
<path d="M746.349 14.5775C754.462 14.5775 763.04 27.9521 767.096 49.6628L767.096 699.072C767.096 722.07 767.605 784.637 767.095 809.802C766.585 834.967 696.883 916.504 696.883 916.504C696.883 916.504 688.123 926.122 680.011 926.122L535.924 926.122C527.811 926.122 520.315 912.747 516.258 891.036M537.107 926.122C528.995 926.122 520.417 912.747 516.36 891.036L516.36 241.627C516.36 218.63 515.851 156.062 516.361 130.897C516.871 105.732 586.573 24.1948 586.573 24.1948C586.573 24.1948 595.333 14.5776 603.446 14.5776L747.533 14.5775C755.645 14.5775 763.142 27.9521 767.199 49.6628" stroke="white" stroke-width="3.55608" stroke-dasharray="0,0,1821.6501953125,455.4125488281249"><animate attributeType="XML" attributeName="stroke-dasharray" repeatCount="indefinite" dur="2.5s" values="0,0,1821.6501953125,455.4125488281249; 
          0,455.4125488281249,1821.6501953125,0; 
          1821.6501953125,455.4125488281249,0,0" keyTimes="0; 0.19999999999999996; 1"></animate></path>
</g>
<g filter="url(#filter12_ddd_805_29224)">
<path d="M476.727 926.118C468.615 926.118 460.036 912.744 455.98 891.033L455.98 241.624C455.98 218.626 455.471 156.059 455.981 130.894C456.491 105.729 526.193 24.1914 526.193 24.1914C526.193 24.1914 534.953 14.5742 543.065 14.5742L687.152 14.5742C695.265 14.5742 702.762 27.9487 706.818 49.6595M685.969 14.5742C694.081 14.5742 702.659 27.9488 706.716 49.6595L706.716 699.069C706.716 722.066 707.225 784.633 706.715 809.799C706.205 834.964 636.503 916.501 636.503 916.501C636.503 916.501 627.743 926.118 619.63 926.118L475.543 926.118C467.431 926.118 459.934 912.744 455.878 891.033" stroke="white" stroke-width="3.55608" stroke-dasharray="0,0,1821.6484375,455.4121093749999"><animate attributeType="XML" attributeName="stroke-dasharray" repeatCount="indefinite" dur="2.5s" values="0,0,1821.6484375,455.4121093749999; 
          0,455.4121093749999,1821.6484375,0; 
          1821.6484375,455.4121093749999,0,0" keyTimes="0; 0.19999999999999996; 1"></animate></path>
</g>
<g filter="url(#filter13_ddd_805_29224)">
<path d="M746.349 14.5778C754.462 14.5778 763.04 27.9523 767.096 49.6631L767.096 699.072C767.096 722.07 767.605 784.637 767.095 809.802C766.585 834.967 696.883 916.504 696.883 916.504C696.883 916.504 688.123 926.122 680.011 926.122L535.924 926.122C527.812 926.122 520.315 912.747 516.258 891.036M537.107 926.122C528.995 926.122 520.417 912.747 516.36 891.036L516.36 241.627C516.36 218.63 515.851 156.062 516.361 130.897C516.871 105.732 586.573 24.1949 586.573 24.1949C586.573 24.1949 595.333 14.5777 603.446 14.5777L747.533 14.5778C755.645 14.5778 763.142 27.9523 767.199 49.6631" stroke="white" stroke-width="3.55608" stroke-dasharray="0,0,1821.6498046875001,455.4124511718749"><animate attributeType="XML" attributeName="stroke-dasharray" repeatCount="indefinite" dur="2.5s" values="0,0,1821.6498046875001,455.4124511718749; 
          0,455.4124511718749,1821.6498046875001,0; 
          1821.6498046875001,455.4124511718749,0,0" keyTimes="0; 0.19999999999999996; 1"></animate></path>
</g>
<g filter="url(#filter14_ddd_805_29224)">
<path d="M611.591 926.118C619.703 926.118 628.282 912.744 632.338 891.033L632.338 241.624C632.338 218.626 632.847 156.059 632.337 130.894C631.827 105.729 562.125 24.1914 562.125 24.1914C562.125 24.1914 553.365 14.5742 545.252 14.5742L401.166 14.5742C393.053 14.5742 385.556 27.9488 381.5 49.6595M402.349 14.5742C394.237 14.5742 385.659 27.9488 381.602 49.6596L381.602 699.069C381.602 722.066 381.093 784.633 381.603 809.799C382.113 834.964 451.815 916.501 451.815 916.501C451.815 916.501 460.575 926.118 468.688 926.118L612.774 926.118C620.887 926.118 628.384 912.744 632.44 891.033" stroke="white" stroke-width="3.55608" stroke-dasharray="0,0,1821.6478515625001,455.4119628906249"><animate attributeType="XML" attributeName="stroke-dasharray" repeatCount="indefinite" dur="2.5s" values="0,0,1821.6478515625001,455.4119628906249; 
          0,455.4119628906249,1821.6478515625001,0; 
          1821.6478515625001,455.4119628906249,0,0" keyTimes="0; 0.19999999999999996; 1"></animate></path>
</g>
<g filter="url(#filter15_ddd_805_29224)">
<path d="M341.973 14.58C333.861 14.58 325.283 27.9546 321.226 49.6653L321.226 699.074C321.226 722.072 320.717 784.639 321.227 809.804C321.737 834.97 391.439 916.507 391.439 916.507C391.439 916.507 400.199 926.124 408.312 926.124L552.398 926.124C560.511 926.124 568.008 912.75 572.064 891.039M551.215 926.124C559.327 926.124 567.905 912.749 571.962 891.039L571.962 241.63C571.962 218.632 572.471 156.065 571.961 130.9C571.451 105.734 501.749 24.1972 501.749 24.1972C501.749 24.1972 492.989 14.58 484.876 14.58L340.79 14.58C332.677 14.58 325.18 27.9546 321.124 49.6653" stroke="white" stroke-width="3.55608" stroke-dasharray="0,0,1821.6482421875,455.4120605468749"><animate attributeType="XML" attributeName="stroke-dasharray" repeatCount="indefinite" dur="2.5s" values="0,0,1821.6482421875,455.4120605468749; 
          0,455.4120605468749,1821.6482421875,0; 
          1821.6482421875,455.4120605468749,0,0" keyTimes="0; 0.19999999999999996; 1"></animate></path>
</g>
<path d="M591.698 1211.48C584.523 1211.48 575.74 1214.87 568.696 1218.96C565.188 1220.99 562.162 1223.17 560.029 1225.13C558.961 1226.1 558.14 1227.01 557.594 1227.79C557.028 1228.6 556.847 1229.16 556.847 1229.47L556.847 1581.27C556.847 1584.84 556.771 1590.14 556.684 1596.21C556.467 1611.43 556.18 1631.47 556.846 1641.18C556.88 1641.68 557.235 1642.43 558.179 1643.46C559.096 1644.45 560.45 1645.58 562.214 1646.81C565.737 1649.28 570.753 1652.1 576.795 1655.12C588.869 1661.16 604.9 1667.95 620.927 1674.32C636.948 1680.68 652.943 1686.63 664.934 1690.98C670.93 1693.16 675.923 1694.93 679.417 1696.17C681.164 1696.78 682.536 1697.26 683.472 1697.59C683.939 1697.75 684.298 1697.88 684.539 1697.96L684.812 1698.06L684.881 1698.08L684.886 1698.08L684.886 1698.08L684.888 1698.08L684.895 1698.09L684.899 1698.09L684.903 1698.09L684.928 1698.1C684.958 1698.11 685.002 1698.12 685.061 1698.14C685.18 1698.18 685.356 1698.23 685.587 1698.3C686.049 1698.44 686.728 1698.64 687.589 1698.89C689.313 1699.37 691.767 1700.02 694.683 1700.66C700.524 1701.96 708.177 1703.24 715.509 1703.24H979.712C994.362 1703.24 1008.93 1698.09 1014.56 1685.05V1333.46C1014.56 1329.89 1014.64 1324.58 1014.73 1318.51C1014.94 1303.3 1015.23 1283.26 1014.56 1273.55C1014.53 1273.05 1014.18 1272.3 1013.23 1271.27C1012.31 1270.28 1010.96 1269.15 1009.2 1267.91C1005.67 1265.44 1000.66 1262.63 994.616 1259.61C982.542 1253.57 966.511 1246.78 950.484 1240.41C934.462 1234.04 918.467 1228.1 906.476 1223.75C900.481 1221.57 895.487 1219.79 891.993 1218.56C890.246 1217.94 888.874 1217.46 887.939 1217.14C887.471 1216.97 887.113 1216.85 886.871 1216.76L886.598 1216.67L886.529 1216.65L886.525 1216.64L886.524 1216.64L886.523 1216.64L886.515 1216.64L886.512 1216.64L886.507 1216.64L886.482 1216.63C886.453 1216.62 886.408 1216.61 886.349 1216.59C886.231 1216.55 886.054 1216.5 885.823 1216.43C885.361 1216.29 884.683 1216.08 883.821 1215.84C882.098 1215.36 879.643 1214.71 876.728 1214.07C870.886 1212.77 863.233 1211.48 855.901 1211.48H591.698Z" stroke="url(#paint0_linear_805_29224)" stroke-width="2.04337" stroke-dasharray="0,0,1422.73876953125,355.68469238281244"><animate attributeType="XML" attributeName="stroke-dasharray" repeatCount="indefinite" dur="2.5s" values="0,0,1422.73876953125,355.68469238281244; 
          0,355.68469238281244,1422.73876953125,0; 
          1422.73876953125,355.68469238281244,0,0" keyTimes="0; 0.19999999999999996; 1"></animate></path>
<path d="M496.477 1211.48C503.653 1211.48 512.435 1214.87 519.479 1218.96C522.988 1220.99 526.013 1223.17 528.146 1225.13C529.215 1226.1 530.035 1227.01 530.581 1227.79C531.147 1228.6 531.328 1229.16 531.328 1229.47L531.328 1581.27C531.328 1584.84 531.404 1590.14 531.491 1596.21C531.709 1611.43 531.995 1631.47 531.329 1641.18C531.295 1641.68 530.941 1642.43 529.997 1643.46C529.079 1644.45 527.725 1645.58 525.961 1646.81C522.439 1649.28 517.422 1652.1 511.381 1655.12C499.307 1661.16 483.275 1667.95 467.248 1674.32C451.227 1680.68 435.232 1686.63 423.241 1690.98C417.246 1693.16 412.252 1694.93 408.758 1696.17C407.011 1696.78 405.639 1697.26 404.704 1697.59C404.236 1697.75 403.878 1697.88 403.636 1697.96L403.363 1698.06L403.294 1698.08L403.29 1698.08L403.289 1698.08L403.288 1698.08L403.28 1698.09L403.277 1698.09L403.272 1698.09L403.247 1698.1C403.218 1698.11 403.173 1698.12 403.114 1698.14C402.996 1698.18 402.819 1698.23 402.588 1698.3C402.126 1698.44 401.448 1698.64 400.586 1698.89C398.862 1699.37 396.408 1700.02 393.493 1700.66C387.651 1701.96 379.998 1703.24 372.666 1703.24H108.463C93.8135 1703.24 79.2462 1698.09 73.6116 1685.05L73.6116 1333.46C73.6117 1329.89 73.5359 1324.58 73.4491 1318.51C73.2316 1303.3 72.9451 1283.26 73.6113 1273.55C73.6452 1273.05 73.9995 1272.3 74.9435 1271.27C75.8606 1270.28 77.2152 1269.15 78.9788 1267.91C82.5016 1265.44 87.5182 1262.63 93.5596 1259.61C105.633 1253.57 121.665 1246.78 137.692 1240.41C153.713 1234.04 169.708 1228.1 181.699 1223.75C187.694 1221.57 192.688 1219.79 196.182 1218.56C197.929 1217.94 199.301 1217.46 200.237 1217.14C200.704 1216.97 201.063 1216.85 201.304 1216.76L201.577 1216.67L201.646 1216.65L201.651 1216.64L201.651 1216.64L201.653 1216.64L201.66 1216.64L201.664 1216.64L201.668 1216.64L201.693 1216.63C201.722 1216.62 201.767 1216.61 201.826 1216.59C201.944 1216.55 202.121 1216.5 202.352 1216.43C202.814 1216.29 203.493 1216.08 204.354 1215.84C206.078 1215.36 208.532 1214.71 211.448 1214.07C217.289 1212.77 224.942 1211.48 232.274 1211.48H496.477Z" stroke="url(#paint1_linear_805_29224)" stroke-width="2.04337" stroke-dasharray="0,0,1422.7404296875002,355.68510742187493"><animate attributeType="XML" attributeName="stroke-dasharray" repeatCount="indefinite" dur="2.5s" values="0,0,1422.7404296875002,355.68510742187493; 
          0,355.68510742187493,1422.7404296875002,0; 
          1422.7404296875002,355.68510742187493,0,0" keyTimes="0; 0.19999999999999996; 1"></animate></path>
<path d="M496.477 723.924C503.653 723.924 512.435 720.533 519.479 716.449C522.988 714.415 526.013 712.239 528.146 710.283C529.215 709.303 530.035 708.4 530.581 707.618C531.147 706.807 531.328 706.251 531.328 705.939L531.328 354.141C531.328 350.567 531.404 345.264 531.491 339.195C531.709 323.978 531.995 303.939 531.329 294.226C531.295 293.731 530.941 292.977 529.997 291.952C529.079 290.956 527.725 289.831 525.961 288.595C522.439 286.125 517.422 283.308 511.381 280.287C499.307 274.249 483.275 267.462 467.248 261.092C451.227 254.723 435.232 248.78 423.241 244.428C417.246 242.252 412.252 240.474 408.758 239.241C407.011 238.624 405.639 238.143 404.704 237.817C404.236 237.654 403.878 237.529 403.636 237.445L403.363 237.35L403.294 237.326L403.29 237.325L403.289 237.325L403.288 237.324L403.28 237.322L403.277 237.321L403.272 237.319L403.247 237.311C403.218 237.302 403.173 237.288 403.114 237.269C402.996 237.232 402.819 237.177 402.588 237.106C402.126 236.966 401.448 236.765 400.586 236.522C398.862 236.038 396.408 235.392 393.493 234.745C387.651 233.451 379.998 232.165 372.666 232.165L108.463 232.165C93.8135 232.165 79.2462 237.321 73.6116 250.359L73.6116 601.948C73.6117 605.522 73.5359 610.825 73.4491 616.896C73.2316 632.112 72.9451 652.15 73.6113 661.863C73.6452 662.358 73.9995 663.111 74.9435 664.136C75.8606 665.132 77.2152 666.257 78.9788 667.494C82.5016 669.963 87.5182 672.78 93.5596 675.802C105.633 681.84 121.665 688.626 137.692 694.997C153.713 701.365 169.708 707.308 181.699 711.66C187.694 713.836 192.688 715.614 196.182 716.847C197.929 717.464 199.301 717.945 200.237 718.271C200.704 718.435 201.063 718.559 201.304 718.643L201.577 718.738L201.646 718.762L201.651 718.763L201.651 718.764L201.653 718.764L201.66 718.767L201.664 718.768L201.668 718.769L201.693 718.777C201.722 718.786 201.767 718.801 201.826 718.819C201.944 718.856 202.121 718.911 202.352 718.982C202.814 719.122 203.493 719.324 204.354 719.566C206.078 720.05 208.532 720.696 211.448 721.343C217.289 722.638 224.942 723.924 232.274 723.924H496.477Z" stroke="url(#paint2_linear_805_29224)" stroke-width="2.04337" stroke-dasharray="0,0,1422.7341796875,355.6835449218749"><animate attributeType="XML" attributeName="stroke-dasharray" repeatCount="indefinite" dur="2.5s" values="0,0,1422.7341796875,355.6835449218749; 
          0,355.6835449218749,1422.7341796875,0; 
          1422.7341796875,355.6835449218749,0,0" keyTimes="0; 0.19999999999999996; 1"></animate></path>
<path d="M591.698 723.923C584.523 723.923 575.74 720.533 568.696 716.449C565.188 714.415 562.162 712.239 560.029 710.283C558.961 709.303 558.14 708.4 557.594 707.618C557.028 706.807 556.847 706.251 556.847 705.939L556.847 354.141C556.847 350.567 556.771 345.264 556.684 339.195C556.467 323.978 556.18 303.939 556.846 294.226C556.88 293.731 557.235 292.977 558.179 291.952C559.096 290.956 560.45 289.831 562.214 288.595C565.737 286.125 570.753 283.308 576.795 280.287C588.869 274.248 604.9 267.462 620.927 261.092C636.949 254.723 652.943 248.78 664.934 244.428C670.93 242.252 675.923 240.474 679.417 239.241C681.164 238.624 682.536 238.143 683.472 237.817C683.939 237.654 684.298 237.529 684.539 237.445L684.812 237.35L684.881 237.326L684.886 237.325L684.886 237.325L684.888 237.324L684.895 237.322L684.899 237.321L684.903 237.319L684.928 237.311C684.958 237.302 685.002 237.288 685.061 237.269C685.18 237.232 685.356 237.177 685.587 237.106C686.049 236.966 686.728 236.765 687.589 236.522C689.313 236.038 691.767 235.392 694.683 234.745C700.524 233.451 708.177 232.165 715.509 232.165L979.712 232.165C994.362 232.165 1008.93 237.321 1014.56 250.359V601.948C1014.56 605.522 1014.64 610.825 1014.73 616.896C1014.94 632.112 1015.23 652.15 1014.56 661.863C1014.53 662.358 1014.18 663.111 1013.23 664.136C1012.31 665.132 1010.96 666.257 1009.2 667.494C1005.67 669.963 1000.66 672.78 994.616 675.802C982.542 681.84 966.511 688.626 950.484 694.997C934.462 701.365 918.467 707.308 906.476 711.66C900.481 713.836 895.488 715.614 891.993 716.847C890.246 717.464 888.874 717.945 887.939 718.271C887.471 718.435 887.113 718.559 886.871 718.643L886.598 718.738L886.529 718.762L886.525 718.763L886.524 718.764L886.523 718.764L886.515 718.767L886.512 718.768L886.508 718.769L886.482 718.777C886.453 718.786 886.408 718.801 886.349 718.819C886.231 718.856 886.054 718.911 885.823 718.982C885.361 719.122 884.683 719.324 883.821 719.566C882.098 720.05 879.644 720.696 876.728 721.343C870.886 722.638 863.233 723.923 855.901 723.923H591.698Z" stroke="url(#paint3_linear_805_29224)" stroke-width="2.04337" stroke-dasharray="0,0,1422.73076171875,355.6826904296874"><animate attributeType="XML" attributeName="stroke-dasharray" repeatCount="indefinite" dur="2.5s" values="0,0,1422.73076171875,355.6826904296874; 
          0,355.6826904296874,1422.73076171875,0; 
          1422.73076171875,355.6826904296874,0,0" keyTimes="0; 0.19999999999999996; 1"></animate></path>
<path d="M353.627 1056.86C353.627 1041.82 351.133 1023.65 348.181 1009.23C346.705 1002.02 345.121 995.771 343.687 991.342C342.968 989.122 342.299 987.393 341.713 986.236C341.418 985.653 341.167 985.261 340.97 985.029C340.919 984.969 340.879 984.928 340.851 984.902L88.3369 984.902C85.7806 984.902 81.9541 984.747 77.5864 984.571C74.2893 984.437 70.6839 984.292 67.0839 984.19C58.6678 983.954 50.2901 983.962 45.5148 984.875C45.5061 984.882 45.4948 984.892 45.4809 984.905C45.4015 984.98 45.2852 985.118 45.1382 985.35C44.844 985.814 44.5054 986.526 44.13 987.505C43.3827 989.454 42.5519 992.296 41.6527 995.929C39.8568 1003.19 37.8192 1013.47 35.6448 1025.79C31.2971 1050.41 26.4159 1083.07 21.8389 1115.69C17.2624 1148.3 12.9916 1180.86 9.86483 1205.26C8.30148 1217.46 7.0242 1227.62 6.13776 1234.73C5.69455 1238.29 5.34905 1241.08 5.11437 1242.99C4.99702 1243.94 4.90738 1244.67 4.84709 1245.16L4.77885 1245.72L4.76162 1245.86L4.7573 1245.9L4.75672 1245.9L4.7566 1245.9L4.75622 1245.9L4.75611 1245.91L4.75413 1245.92L4.74621 1245.99L4.71511 1246.27C4.68784 1246.52 4.64778 1246.88 4.59676 1247.36C4.49472 1248.31 4.34885 1249.7 4.17375 1251.46C3.82354 1254.99 3.35648 1260.02 2.88941 1265.98C1.95501 1277.92 1.02167 1293.63 1.02167 1308.72L1.02164 1846.18C1.02164 1861.28 1.96457 1876.5 4.131 1889.41C6.26053 1902.1 9.54506 1912.37 14.1357 1918.14L266.312 1918.14C268.868 1918.14 272.695 1918.29 277.063 1918.47C280.36 1918.6 283.965 1918.75 287.565 1918.85C295.981 1919.08 304.359 1919.08 309.134 1918.16C309.143 1918.16 309.154 1918.15 309.168 1918.13C309.248 1918.06 309.364 1917.92 309.511 1917.69C309.805 1917.22 310.144 1916.51 310.519 1915.53C311.266 1913.58 312.097 1910.74 312.996 1907.11C314.792 1899.85 316.83 1889.57 319.004 1877.25C323.352 1852.63 328.233 1819.96 332.81 1787.35C337.387 1754.74 341.657 1722.18 344.784 1697.78C346.348 1685.58 347.625 1675.41 348.511 1668.3C348.954 1664.75 349.3 1661.95 349.535 1660.05C349.652 1659.1 349.742 1658.37 349.802 1657.88L349.87 1657.32L349.887 1657.18L349.892 1657.14L349.892 1657.14L349.892 1657.14L349.893 1657.13L349.893 1657.13L349.895 1657.11L349.903 1657.04L349.934 1656.77C349.945 1656.67 349.958 1656.55 349.973 1656.41C349.995 1656.21 350.022 1655.96 350.052 1655.68C350.154 1654.73 350.3 1653.34 350.475 1651.57C350.825 1648.04 351.293 1643.02 351.76 1637.05C352.694 1625.11 353.627 1609.41 353.627 1594.32L353.627 1056.86ZM340.797 984.859C340.797 984.859 340.799 984.86 340.802 984.862C340.799 984.86 340.797 984.859 340.797 984.859ZM45.5375 984.858C45.5375 984.858 45.5369 984.859 45.5358 984.859C45.5369 984.859 45.5375 984.858 45.5375 984.858Z" stroke="url(#paint4_linear_805_29224)" stroke-width="2.04337" stroke-dasharray="0,0,1974.3851562500001,493.59628906249986"><animate attributeType="XML" attributeName="stroke-dasharray" repeatCount="indefinite" dur="2.5s" values="0,0,1974.3851562500001,493.59628906249986; 
          0,493.59628906249986,1974.3851562500001,0; 
          1974.3851562500001,493.59628906249986,0,0" keyTimes="0; 0.19999999999999996; 1"></animate></path>
<path d="M353.627 863.144C353.627 878.181 351.133 896.352 348.181 910.774C346.705 917.983 345.121 924.229 343.687 928.657C342.968 930.878 342.299 932.606 341.713 933.763C341.418 934.347 341.167 934.739 340.97 934.97C340.919 935.031 340.879 935.071 340.851 935.098L88.3369 935.098C85.7806 935.098 81.9541 935.252 77.5864 935.429C74.2893 935.562 70.6839 935.708 67.0839 935.809C58.6678 936.045 50.2901 936.038 45.5148 935.124C45.5061 935.117 45.4948 935.108 45.4809 935.095C45.4015 935.02 45.2852 934.881 45.1382 934.649C44.844 934.185 44.5054 933.474 44.13 932.495C43.3827 930.545 42.5519 927.703 41.6527 924.07C39.8568 916.813 37.8192 906.529 35.6448 894.213C31.2972 869.589 26.4159 836.926 21.8389 804.31C17.2624 771.697 12.9916 739.143 9.86485 714.741C8.30151 702.54 7.02422 692.377 6.13779 685.265C5.69457 681.709 5.34907 678.916 5.11439 677.012C4.99705 676.059 4.90741 675.329 4.84711 674.838L4.77888 674.281L4.76165 674.14L4.75732 674.104L4.75674 674.1L4.75663 674.099L4.75624 674.095L4.75614 674.094L4.75416 674.077L4.74623 674.007L4.71514 673.729C4.68787 673.483 4.64781 673.119 4.59679 672.644C4.49475 671.694 4.34887 670.302 4.17377 668.537C3.82356 665.006 3.35651 659.983 2.88944 654.015C1.95504 642.077 1.0217 626.372 1.0217 611.279L1.02172 73.8179C1.02173 58.7239 1.96466 43.4976 4.13109 30.5881C6.26062 17.8984 9.54515 7.62891 14.1358 1.86444L266.312 1.86445C268.868 1.86445 272.695 1.70973 277.063 1.53309C280.36 1.39979 283.965 1.25404 287.565 1.1529C295.981 0.916515 304.359 0.924328 309.134 1.83747C309.143 1.84462 309.154 1.85438 309.168 1.86738C309.248 1.94209 309.364 2.08064 309.511 2.31251C309.805 2.77668 310.144 3.48835 310.519 4.46736C311.266 6.41658 312.097 9.2585 312.996 12.8919C314.792 20.1487 316.83 30.4334 319.004 42.7487C323.352 67.3725 328.233 100.036 332.81 132.652C337.387 165.265 341.657 197.819 344.784 222.221C346.348 234.422 347.625 244.585 348.511 251.697C348.955 255.253 349.3 258.046 349.535 259.95C349.652 260.903 349.742 261.633 349.802 262.124L349.87 262.681L349.887 262.822L349.892 262.858L349.892 262.862L349.892 262.863L349.893 262.867L349.893 262.868L349.895 262.885L349.903 262.955L349.934 263.233C349.961 263.479 350.001 263.843 350.052 264.318C350.154 265.268 350.3 266.66 350.475 268.425C350.826 271.956 351.293 276.979 351.76 282.947C352.694 294.885 353.627 310.59 353.627 325.683L353.627 863.144ZM340.797 935.141C340.797 935.14 340.799 935.139 340.802 935.138C340.799 935.14 340.797 935.141 340.797 935.141ZM45.5375 935.141C45.5375 935.141 45.5369 935.141 45.5357 935.14C45.5369 935.141 45.5375 935.141 45.5375 935.141Z" stroke="url(#paint5_linear_805_29224)" stroke-width="2.04337" stroke-dasharray="0,0,1974.3806640625,493.5951660156249"><animate attributeType="XML" attributeName="stroke-dasharray" repeatCount="indefinite" dur="2.5s" values="0,0,1974.3806640625,493.5951660156249; 
          0,493.5951660156249,1974.3806640625,0; 
          1974.3806640625,493.5951660156249,0,0" keyTimes="0; 0.19999999999999996; 1"></animate></path>
<path d="M704.373 863.144C704.373 878.181 706.867 896.352 709.819 910.774C711.295 917.983 712.879 924.229 714.313 928.657C715.032 930.878 715.701 932.606 716.287 933.763C716.582 934.347 716.833 934.739 717.03 934.97C717.081 935.031 717.121 935.071 717.149 935.098L969.663 935.098C972.219 935.098 976.046 935.252 980.414 935.429C983.711 935.562 987.316 935.708 990.916 935.809C999.332 936.045 1007.71 936.038 1012.49 935.124C1012.49 935.117 1012.51 935.108 1012.52 935.095C1012.6 935.02 1012.71 934.881 1012.86 934.649C1013.16 934.185 1013.49 933.474 1013.87 932.495C1014.62 930.545 1015.45 927.703 1016.35 924.07C1018.14 916.813 1020.18 906.529 1022.36 894.213C1026.7 869.589 1031.58 836.926 1036.16 804.31C1040.74 771.697 1045.01 739.143 1048.14 714.74C1049.7 702.54 1050.98 692.377 1051.86 685.265C1052.31 681.709 1052.65 678.916 1052.89 677.011C1053 676.059 1053.09 675.329 1053.15 674.838L1053.22 674.28L1053.24 674.139L1053.24 674.104L1053.24 674.099L1053.24 674.098L1053.24 674.095L1053.24 674.094L1053.25 674.077L1053.25 674.007L1053.28 673.729C1053.31 673.483 1053.35 673.119 1053.4 672.644C1053.51 671.694 1053.65 670.302 1053.83 668.536C1054.18 665.006 1054.64 659.983 1055.11 654.015C1056.04 642.077 1056.98 626.372 1056.98 611.279L1056.98 73.8174C1056.98 58.7234 1056.04 43.4971 1053.87 30.5876C1051.74 17.8979 1048.45 7.62842 1043.86 1.86395L791.688 1.86394C789.132 1.86394 785.305 1.70922 780.937 1.53258C777.64 1.39928 774.035 1.25353 770.435 1.15239C762.019 0.916005 753.641 0.923817 748.866 1.83696C748.857 1.8441 748.846 1.85387 748.832 1.86687C748.753 1.94158 748.636 2.08013 748.489 2.312C748.195 2.77617 747.856 3.48784 747.481 4.46685C746.734 6.41607 745.903 9.25798 745.004 12.8914C743.208 20.1482 741.17 30.4329 738.996 42.7482C734.648 67.372 729.767 100.035 725.19 132.651C720.613 165.264 716.343 197.819 713.216 222.221C711.653 234.422 710.375 244.584 709.489 251.696C709.046 255.252 708.7 258.046 708.465 259.95C708.348 260.902 708.258 261.632 708.198 262.124L708.13 262.681L708.113 262.822L708.108 262.857L708.108 262.862L708.108 262.863L708.107 262.866L708.107 262.867L708.105 262.885L708.097 262.955L708.066 263.233C708.039 263.478 707.999 263.843 707.948 264.318C707.846 265.268 707.7 266.66 707.525 268.425C707.175 271.955 706.708 276.979 706.24 282.946C705.306 294.885 704.373 310.59 704.373 325.683L704.373 863.144ZM717.203 935.141C717.203 935.14 717.201 935.139 717.198 935.138C717.201 935.14 717.203 935.141 717.203 935.141ZM1012.46 935.141C1012.46 935.141 1012.46 935.141 1012.46 935.14C1012.46 935.141 1012.46 935.141 1012.46 935.141Z" stroke="url(#paint6_linear_805_29224)" stroke-width="2.04337" stroke-dasharray="0,0,1974.3814453125,493.5953613281249"><animate attributeType="XML" attributeName="stroke-dasharray" repeatCount="indefinite" dur="2.5s" values="0,0,1974.3814453125,493.5953613281249; 
          0,493.5953613281249,1974.3814453125,0; 
          1974.3814453125,493.5953613281249,0,0" keyTimes="0; 0.19999999999999996; 1"></animate></path>
<path d="M704.373 1056.86C704.373 1041.82 706.867 1023.65 709.819 1009.23C711.295 1002.02 712.879 995.772 714.313 991.343C715.032 989.123 715.701 987.395 716.287 986.237C716.582 985.654 716.833 985.262 717.03 985.031C717.081 984.97 717.121 984.93 717.149 984.903L969.663 984.903C972.219 984.903 976.046 984.749 980.414 984.572C983.711 984.439 987.316 984.293 990.916 984.192C999.332 983.956 1007.71 983.963 1012.49 984.877C1012.49 984.884 1012.51 984.893 1012.52 984.906C1012.6 984.981 1012.71 985.12 1012.86 985.352C1013.16 985.816 1013.49 986.527 1013.87 987.506C1014.62 989.456 1015.45 992.298 1016.35 995.931C1018.14 1003.19 1020.18 1013.47 1022.36 1025.79C1026.7 1050.41 1031.58 1083.07 1036.16 1115.69C1040.74 1148.3 1045.01 1180.86 1048.14 1205.26C1049.7 1217.46 1050.98 1227.62 1051.86 1234.74C1052.31 1238.29 1052.65 1241.09 1052.89 1242.99C1053 1243.94 1053.09 1244.67 1053.15 1245.16L1053.22 1245.72L1053.24 1245.86L1053.24 1245.9L1053.24 1245.9L1053.24 1245.9L1053.24 1245.91L1053.24 1245.91L1053.25 1245.92L1053.25 1245.99L1053.28 1246.27C1053.31 1246.52 1053.35 1246.88 1053.4 1247.36C1053.51 1248.31 1053.65 1249.7 1053.83 1251.46C1054.18 1254.99 1054.64 1260.02 1055.11 1265.99C1056.04 1277.92 1056.98 1293.63 1056.98 1308.72L1056.98 1846.18C1056.98 1861.28 1056.04 1876.5 1053.87 1889.41C1051.74 1902.1 1048.45 1912.37 1043.86 1918.14L791.688 1918.14C789.132 1918.14 785.305 1918.29 780.937 1918.47C777.64 1918.6 774.035 1918.75 770.435 1918.85C762.019 1919.08 753.641 1919.08 748.866 1918.16C748.857 1918.16 748.846 1918.15 748.832 1918.13C748.752 1918.06 748.636 1917.92 748.489 1917.69C748.195 1917.22 747.856 1916.51 747.481 1915.53C746.734 1913.58 745.903 1910.74 745.004 1907.11C743.208 1899.85 741.17 1889.57 738.996 1877.25C734.648 1852.63 729.767 1819.96 725.19 1787.35C720.613 1754.74 716.343 1722.18 713.216 1697.78C711.652 1685.58 710.375 1675.42 709.489 1668.3C709.046 1664.75 708.7 1661.95 708.465 1660.05C708.348 1659.1 708.258 1658.37 708.198 1657.88L708.13 1657.32L708.113 1657.18L708.108 1657.14L708.108 1657.14L708.108 1657.14L708.107 1657.13L708.107 1657.13L708.105 1657.12L708.097 1657.05L708.066 1656.77C708.039 1656.52 707.999 1656.16 707.948 1655.68C707.846 1654.73 707.7 1653.34 707.525 1651.58C707.175 1648.04 706.707 1643.02 706.24 1637.05C705.306 1625.12 704.373 1609.41 704.373 1594.32L704.373 1056.86ZM717.203 984.86C717.203 984.86 717.201 984.861 717.198 984.863C717.201 984.861 717.203 984.86 717.203 984.86ZM1012.46 984.86C1012.46 984.86 1012.46 984.86 1012.46 984.861C1012.46 984.86 1012.46 984.86 1012.46 984.86Z" stroke="url(#paint7_linear_805_29224)" stroke-width="2.04337" stroke-dasharray="0,0,1974.3830078125002,493.5957519531249"><animate attributeType="XML" attributeName="stroke-dasharray" repeatCount="indefinite" dur="2.5s" values="0,0,1974.3830078125002,493.5957519531249; 
          0,493.5957519531249,1974.3830078125002,0; 
          1974.3830078125002,493.5957519531249,0,0" keyTimes="0; 0.19999999999999996; 1"></animate></path>
<g filter="url(#filter16_ddf_805_29224)">
<path d="M1040.85 56.8649L834.925 56.865L791.013 158.205L294.509 158.205L263.52 56.8651L44.6711 56.8651C44.6711 56.8651 44.6711 431.709 44.6711 665.092L125.769 725.572C133.419 729.431 138.305 737.706 138.305 746.801L138.305 1228.39C138.305 1237.48 133.419 1245.76 125.769 1249.61L63.3365 1299.48C55.687 1303.34 44.6712 1311.61 44.6712 1320.71L44.6712 1888.38L245.362 1888.38L292.68 1772.08L794.409 1772.08L837.759 1888.38L1040.85 1888.38M1040.85 56.8649L1040.85 1888.38M1040.85 56.8649L1040.85 664.557C1040.85 673.652 1032.9 681.927 1025.25 685.785L959.753 721.541C952.103 725.399 947.217 737.706 947.217 746.801L947.217 1218.41C947.217 1227.5 952.103 1237.79 959.752 1241.65L1025.25 1279.42C1032.9 1283.28 1040.85 1291.55 1040.85 1300.65L1040.85 1888.38M8.03777e-07 1935.26L-8.45931e-05 -0.000167847L1088.59 -0.00021543L1088.59 1935.26L8.03777e-07 1935.26Z" stroke="white" stroke-width="23.1145" stroke-dasharray="0,0,11217.246875,2804.3117187499993"><animate attributeType="XML" attributeName="stroke-dasharray" repeatCount="indefinite" dur="2.5s" values="0,0,11217.246875,2804.3117187499993; 
          0,2804.3117187499993,11217.246875,0; 
          11217.246875,2804.3117187499993,0,0" keyTimes="0; 0.19999999999999996; 1"></animate></path>
</g>
<g filter="url(#filter17_d_805_29224)">
<g filter="url(#filter18_dd_805_29224)">
<path fill-rule="evenodd" clip-rule="evenodd" d="M3.21445e-06 1935.26L-8.45931e-05 -0.000167847L1088.59 -0.00021543L1088.59 1935.26L3.21445e-06 1935.26ZM866.621 49.3748L1040.2 49.3748L1040.2 662.213L957.654 727.37C950.005 730.906 945.118 738.49 945.118 746.825L945.118 1206.48C945.118 1214.82 950.005 1222.4 957.654 1225.94L1040.2 1271.64L1039.99 1886.88L866.621 1886.88L797.072 1815.89L291.674 1816.33L221.533 1886.88L48.1651 1886.88L48.165 1271.64L132.066 1225.94C139.716 1222.4 144.602 1214.82 144.602 1206.48L144.602 746.825C144.602 738.49 139.716 730.906 132.066 727.37L48.165 681.668L48.165 49.3749L221.532 49.3749L291.674 95.1842L797.072 94.7471L866.621 49.3748Z" fill="url(#paint8_radial_805_29224)" stroke-dasharray="0,0,9600.928125,2400.2320312499996"><animate attributeType="XML" attributeName="stroke-dasharray" repeatCount="indefinite" dur="2.5s" values="0,0,9600.928125,2400.2320312499996; 
          0,2400.2320312499996,9600.928125,0; 
          9600.928125,2400.2320312499996,0,0" keyTimes="0; 0.19999999999999996; 1"></animate></path>
</g>
</g>
<g filter="url(#filter19_dd_805_29224)">
<path d="M-11.94 2024.75L216.954 2024.75L265.763 1912.95L817.643 1912.95L852.089 2024.75L1095.35 2024.75C1095.35 2024.75 1095.35 1566.76 1095.35 1309.31L1005.2 1242.59C996.701 1238.33 991.269 1229.2 991.269 1219.17L991.269 687.91C991.269 677.876 996.701 668.748 1005.2 664.491L1074.6 609.481C1083.1 605.225 1095.35 596.097 1095.35 586.063L1095.35 -51.2795L872.273 -51.2795L819.676 10.3021L261.987 10.3022L213.803 -51.2794L-11.9401 -51.2793M-11.94 2024.75L-11.9401 -51.2793M-11.94 2024.75L-11.9399 1309.9C-11.9399 1299.86 -3.10216 1290.73 5.40061 1286.48L78.203 1247.03C86.7058 1242.78 92.1372 1229.2 92.1372 1219.17L92.1372 698.92C92.1372 688.886 86.706 677.534 78.2033 673.278L5.40065 631.611C-3.10212 627.354 -11.9399 618.226 -11.9399 608.193L-11.9401 -51.2793M1145 -103L1145 2043L-65.0001 2043L-65.0001 -103L1145 -103Z" stroke="white" stroke-width="22.9322" stroke-dasharray="0,0,12461.528906250001,3115.3822265624995"><animate attributeType="XML" attributeName="stroke-dasharray" repeatCount="indefinite" dur="2.5s" values="0,0,12461.528906250001,3115.3822265624995; 
          0,3115.3822265624995,12461.528906250001,0; 
          12461.528906250001,3115.3822265624995,0,0" keyTimes="0; 0.19999999999999996; 1"></animate></path>
</g>
</g>
<defs>
<filter id="filter0_ddd_805_29224" x="256.728" y="1006.67" width="500.483" height="1190.57" filterUnits="userSpaceOnUse" color-interpolation-filters="sRGB">
<feFlood flood-opacity="0" result="BackgroundImageFix"></feFlood>
<feColorMatrix in="SourceAlpha" type="matrix" values="0 0 0 0 0 0 0 0 0 0 0 0 0 0 0 0 0 0 127 0" result="hardAlpha"></feColorMatrix>
<feOffset dy="19.028"></feOffset>
<feGaussianBlur stdDeviation="7.61121"></feGaussianBlur>
<feColorMatrix type="matrix" values="0 0 0 0 0.964706 0 0 0 0 0.964706 0 0 0 0 0.964706 0 0 0 0.38 0"></feColorMatrix>
<feBlend mode="normal" in2="BackgroundImageFix" result="effect1_dropShadow_805_29224"></feBlend>
<feColorMatrix in="SourceAlpha" type="matrix" values="0 0 0 0 0 0 0 0 0 0 0 0 0 0 0 0 0 0 127 0" result="hardAlpha"></feColorMatrix>
<feOffset dy="45.727"></feOffset>
<feGaussianBlur stdDeviation="18.2908"></feGaussianBlur>
<feColorMatrix type="matrix" values="0 0 0 0 0.964706 0 0 0 0 0.964706 0 0 0 0 0.964706 0 0 0 0.27 0"></feColorMatrix>
<feBlend mode="normal" in2="effect1_dropShadow_805_29224" result="effect2_dropShadow_805_29224"></feBlend>
<feColorMatrix in="SourceAlpha" type="matrix" values="0 0 0 0 0 0 0 0 0 0 0 0 0 0 0 0 0 0 127 0" result="hardAlpha"></feColorMatrix>
<feOffset dy="153.587"></feOffset>
<feGaussianBlur stdDeviation="61.435"></feGaussianBlur>
<feColorMatrix type="matrix" values="0 0 0 0 0.964706 0 0 0 0 0.964706 0 0 0 0 0.964706 0 0 0 0.19 0"></feColorMatrix>
<feBlend mode="normal" in2="effect2_dropShadow_805_29224" result="effect3_dropShadow_805_29224"></feBlend>
<feBlend mode="normal" in="SourceGraphic" in2="effect3_dropShadow_805_29224" result="shape"></feBlend>
</filter>
<filter id="filter1_ddd_805_29224" x="196.352" y="1006.67" width="500.483" height="1190.56" filterUnits="userSpaceOnUse" color-interpolation-filters="sRGB">
<feFlood flood-opacity="0" result="BackgroundImageFix"></feFlood>
<feColorMatrix in="SourceAlpha" type="matrix" values="0 0 0 0 0 0 0 0 0 0 0 0 0 0 0 0 0 0 127 0" result="hardAlpha"></feColorMatrix>
<feOffset dy="19.028"></feOffset>
<feGaussianBlur stdDeviation="7.61121"></feGaussianBlur>
<feColorMatrix type="matrix" values="0 0 0 0 0.964706 0 0 0 0 0.964706 0 0 0 0 0.964706 0 0 0 0.38 0"></feColorMatrix>
<feBlend mode="normal" in2="BackgroundImageFix" result="effect1_dropShadow_805_29224"></feBlend>
<feColorMatrix in="SourceAlpha" type="matrix" values="0 0 0 0 0 0 0 0 0 0 0 0 0 0 0 0 0 0 127 0" result="hardAlpha"></feColorMatrix>
<feOffset dy="45.727"></feOffset>
<feGaussianBlur stdDeviation="18.2908"></feGaussianBlur>
<feColorMatrix type="matrix" values="0 0 0 0 0.964706 0 0 0 0 0.964706 0 0 0 0 0.964706 0 0 0 0.27 0"></feColorMatrix>
<feBlend mode="normal" in2="effect1_dropShadow_805_29224" result="effect2_dropShadow_805_29224"></feBlend>
<feColorMatrix in="SourceAlpha" type="matrix" values="0 0 0 0 0 0 0 0 0 0 0 0 0 0 0 0 0 0 127 0" result="hardAlpha"></feColorMatrix>
<feOffset dy="153.587"></feOffset>
<feGaussianBlur stdDeviation="61.435"></feGaussianBlur>
<feColorMatrix type="matrix" values="0 0 0 0 0.964706 0 0 0 0 0.964706 0 0 0 0 0.964706 0 0 0 0.19 0"></feColorMatrix>
<feBlend mode="normal" in2="effect2_dropShadow_805_29224" result="effect3_dropShadow_805_29224"></feBlend>
<feBlend mode="normal" in="SourceGraphic" in2="effect3_dropShadow_805_29224" result="shape"></feBlend>
</filter>
<filter id="filter2_ddd_805_29224" x="331.106" y="1006.67" width="500.483" height="1190.57" filterUnits="userSpaceOnUse" color-interpolation-filters="sRGB">
<feFlood flood-opacity="0" result="BackgroundImageFix"></feFlood>
<feColorMatrix in="SourceAlpha" type="matrix" values="0 0 0 0 0 0 0 0 0 0 0 0 0 0 0 0 0 0 127 0" result="hardAlpha"></feColorMatrix>
<feOffset dy="19.028"></feOffset>
<feGaussianBlur stdDeviation="7.61121"></feGaussianBlur>
<feColorMatrix type="matrix" values="0 0 0 0 0.964706 0 0 0 0 0.964706 0 0 0 0 0.964706 0 0 0 0.38 0"></feColorMatrix>
<feBlend mode="normal" in2="BackgroundImageFix" result="effect1_dropShadow_805_29224"></feBlend>
<feColorMatrix in="SourceAlpha" type="matrix" values="0 0 0 0 0 0 0 0 0 0 0 0 0 0 0 0 0 0 127 0" result="hardAlpha"></feColorMatrix>
<feOffset dy="45.727"></feOffset>
<feGaussianBlur stdDeviation="18.2908"></feGaussianBlur>
<feColorMatrix type="matrix" values="0 0 0 0 0.964706 0 0 0 0 0.964706 0 0 0 0 0.964706 0 0 0 0.27 0"></feColorMatrix>
<feBlend mode="normal" in2="effect1_dropShadow_805_29224" result="effect2_dropShadow_805_29224"></feBlend>
<feColorMatrix in="SourceAlpha" type="matrix" values="0 0 0 0 0 0 0 0 0 0 0 0 0 0 0 0 0 0 127 0" result="hardAlpha"></feColorMatrix>
<feOffset dy="153.587"></feOffset>
<feGaussianBlur stdDeviation="61.435"></feGaussianBlur>
<feColorMatrix type="matrix" values="0 0 0 0 0.964706 0 0 0 0 0.964706 0 0 0 0 0.964706 0 0 0 0.19 0"></feColorMatrix>
<feBlend mode="normal" in2="effect2_dropShadow_805_29224" result="effect3_dropShadow_805_29224"></feBlend>
<feBlend mode="normal" in="SourceGraphic" in2="effect3_dropShadow_805_29224" result="shape"></feBlend>
</filter>
<filter id="filter3_ddd_805_29224" x="391.487" y="1006.67" width="500.483" height="1190.57" filterUnits="userSpaceOnUse" color-interpolation-filters="sRGB">
<feFlood flood-opacity="0" result="BackgroundImageFix"></feFlood>
<feColorMatrix in="SourceAlpha" type="matrix" values="0 0 0 0 0 0 0 0 0 0 0 0 0 0 0 0 0 0 127 0" result="hardAlpha"></feColorMatrix>
<feOffset dy="19.028"></feOffset>
<feGaussianBlur stdDeviation="7.61121"></feGaussianBlur>
<feColorMatrix type="matrix" values="0 0 0 0 0.964706 0 0 0 0 0.964706 0 0 0 0 0.964706 0 0 0 0.38 0"></feColorMatrix>
<feBlend mode="normal" in2="BackgroundImageFix" result="effect1_dropShadow_805_29224"></feBlend>
<feColorMatrix in="SourceAlpha" type="matrix" values="0 0 0 0 0 0 0 0 0 0 0 0 0 0 0 0 0 0 127 0" result="hardAlpha"></feColorMatrix>
<feOffset dy="45.727"></feOffset>
<feGaussianBlur stdDeviation="18.2908"></feGaussianBlur>
<feColorMatrix type="matrix" values="0 0 0 0 0.964706 0 0 0 0 0.964706 0 0 0 0 0.964706 0 0 0 0.27 0"></feColorMatrix>
<feBlend mode="normal" in2="effect1_dropShadow_805_29224" result="effect2_dropShadow_805_29224"></feBlend>
<feColorMatrix in="SourceAlpha" type="matrix" values="0 0 0 0 0 0 0 0 0 0 0 0 0 0 0 0 0 0 127 0" result="hardAlpha"></feColorMatrix>
<feOffset dy="153.587"></feOffset>
<feGaussianBlur stdDeviation="61.435"></feGaussianBlur>
<feColorMatrix type="matrix" values="0 0 0 0 0.964706 0 0 0 0 0.964706 0 0 0 0 0.964706 0 0 0 0.19 0"></feColorMatrix>
<feBlend mode="normal" in2="effect2_dropShadow_805_29224" result="effect3_dropShadow_805_29224"></feBlend>
<feBlend mode="normal" in="SourceGraphic" in2="effect3_dropShadow_805_29224" result="shape"></feBlend>
</filter>
<filter id="filter4_ddd_805_29224" x="331.106" y="1006.67" width="500.483" height="1190.57" filterUnits="userSpaceOnUse" color-interpolation-filters="sRGB">
<feFlood flood-opacity="0" result="BackgroundImageFix"></feFlood>
<feColorMatrix in="SourceAlpha" type="matrix" values="0 0 0 0 0 0 0 0 0 0 0 0 0 0 0 0 0 0 127 0" result="hardAlpha"></feColorMatrix>
<feOffset dy="19.028"></feOffset>
<feGaussianBlur stdDeviation="7.61121"></feGaussianBlur>
<feColorMatrix type="matrix" values="0 0 0 0 0.964706 0 0 0 0 0.964706 0 0 0 0 0.964706 0 0 0 0.38 0"></feColorMatrix>
<feBlend mode="normal" in2="BackgroundImageFix" result="effect1_dropShadow_805_29224"></feBlend>
<feColorMatrix in="SourceAlpha" type="matrix" values="0 0 0 0 0 0 0 0 0 0 0 0 0 0 0 0 0 0 127 0" result="hardAlpha"></feColorMatrix>
<feOffset dy="45.727"></feOffset>
<feGaussianBlur stdDeviation="18.2908"></feGaussianBlur>
<feColorMatrix type="matrix" values="0 0 0 0 0.964706 0 0 0 0 0.964706 0 0 0 0 0.964706 0 0 0 0.27 0"></feColorMatrix>
<feBlend mode="normal" in2="effect1_dropShadow_805_29224" result="effect2_dropShadow_805_29224"></feBlend>
<feColorMatrix in="SourceAlpha" type="matrix" values="0 0 0 0 0 0 0 0 0 0 0 0 0 0 0 0 0 0 127 0" result="hardAlpha"></feColorMatrix>
<feOffset dy="153.587"></feOffset>
<feGaussianBlur stdDeviation="61.435"></feGaussianBlur>
<feColorMatrix type="matrix" values="0 0 0 0 0.964706 0 0 0 0 0.964706 0 0 0 0 0.964706 0 0 0 0.19 0"></feColorMatrix>
<feBlend mode="normal" in2="effect2_dropShadow_805_29224" result="effect3_dropShadow_805_29224"></feBlend>
<feBlend mode="normal" in="SourceGraphic" in2="effect3_dropShadow_805_29224" result="shape"></feBlend>
</filter>
<filter id="filter5_ddd_805_29224" x="391.487" y="1006.67" width="500.483" height="1190.56" filterUnits="userSpaceOnUse" color-interpolation-filters="sRGB">
<feFlood flood-opacity="0" result="BackgroundImageFix"></feFlood>
<feColorMatrix in="SourceAlpha" type="matrix" values="0 0 0 0 0 0 0 0 0 0 0 0 0 0 0 0 0 0 127 0" result="hardAlpha"></feColorMatrix>
<feOffset dy="19.028"></feOffset>
<feGaussianBlur stdDeviation="7.61121"></feGaussianBlur>
<feColorMatrix type="matrix" values="0 0 0 0 0.964706 0 0 0 0 0.964706 0 0 0 0 0.964706 0 0 0 0.38 0"></feColorMatrix>
<feBlend mode="normal" in2="BackgroundImageFix" result="effect1_dropShadow_805_29224"></feBlend>
<feColorMatrix in="SourceAlpha" type="matrix" values="0 0 0 0 0 0 0 0 0 0 0 0 0 0 0 0 0 0 127 0" result="hardAlpha"></feColorMatrix>
<feOffset dy="45.727"></feOffset>
<feGaussianBlur stdDeviation="18.2908"></feGaussianBlur>
<feColorMatrix type="matrix" values="0 0 0 0 0.964706 0 0 0 0 0.964706 0 0 0 0 0.964706 0 0 0 0.27 0"></feColorMatrix>
<feBlend mode="normal" in2="effect1_dropShadow_805_29224" result="effect2_dropShadow_805_29224"></feBlend>
<feColorMatrix in="SourceAlpha" type="matrix" values="0 0 0 0 0 0 0 0 0 0 0 0 0 0 0 0 0 0 127 0" result="hardAlpha"></feColorMatrix>
<feOffset dy="153.587"></feOffset>
<feGaussianBlur stdDeviation="61.435"></feGaussianBlur>
<feColorMatrix type="matrix" values="0 0 0 0 0.964706 0 0 0 0 0.964706 0 0 0 0 0.964706 0 0 0 0.19 0"></feColorMatrix>
<feBlend mode="normal" in2="effect2_dropShadow_805_29224" result="effect3_dropShadow_805_29224"></feBlend>
<feBlend mode="normal" in="SourceGraphic" in2="effect3_dropShadow_805_29224" result="shape"></feBlend>
</filter>
<filter id="filter6_ddd_805_29224" x="256.728" y="1006.67" width="500.483" height="1190.57" filterUnits="userSpaceOnUse" color-interpolation-filters="sRGB">
<feFlood flood-opacity="0" result="BackgroundImageFix"></feFlood>
<feColorMatrix in="SourceAlpha" type="matrix" values="0 0 0 0 0 0 0 0 0 0 0 0 0 0 0 0 0 0 127 0" result="hardAlpha"></feColorMatrix>
<feOffset dy="19.028"></feOffset>
<feGaussianBlur stdDeviation="7.61121"></feGaussianBlur>
<feColorMatrix type="matrix" values="0 0 0 0 0.964706 0 0 0 0 0.964706 0 0 0 0 0.964706 0 0 0 0.38 0"></feColorMatrix>
<feBlend mode="normal" in2="BackgroundImageFix" result="effect1_dropShadow_805_29224"></feBlend>
<feColorMatrix in="SourceAlpha" type="matrix" values="0 0 0 0 0 0 0 0 0 0 0 0 0 0 0 0 0 0 127 0" result="hardAlpha"></feColorMatrix>
<feOffset dy="45.727"></feOffset>
<feGaussianBlur stdDeviation="18.2908"></feGaussianBlur>
<feColorMatrix type="matrix" values="0 0 0 0 0.964706 0 0 0 0 0.964706 0 0 0 0 0.964706 0 0 0 0.27 0"></feColorMatrix>
<feBlend mode="normal" in2="effect1_dropShadow_805_29224" result="effect2_dropShadow_805_29224"></feBlend>
<feColorMatrix in="SourceAlpha" type="matrix" values="0 0 0 0 0 0 0 0 0 0 0 0 0 0 0 0 0 0 127 0" result="hardAlpha"></feColorMatrix>
<feOffset dy="153.587"></feOffset>
<feGaussianBlur stdDeviation="61.435"></feGaussianBlur>
<feColorMatrix type="matrix" values="0 0 0 0 0.964706 0 0 0 0 0.964706 0 0 0 0 0.964706 0 0 0 0.19 0"></feColorMatrix>
<feBlend mode="normal" in2="effect2_dropShadow_805_29224" result="effect3_dropShadow_805_29224"></feBlend>
<feBlend mode="normal" in="SourceGraphic" in2="effect3_dropShadow_805_29224" result="shape"></feBlend>
</filter>
<filter id="filter7_ddd_805_29224" x="196.352" y="1006.67" width="500.483" height="1190.56" filterUnits="userSpaceOnUse" color-interpolation-filters="sRGB">
<feFlood flood-opacity="0" result="BackgroundImageFix"></feFlood>
<feColorMatrix in="SourceAlpha" type="matrix" values="0 0 0 0 0 0 0 0 0 0 0 0 0 0 0 0 0 0 127 0" result="hardAlpha"></feColorMatrix>
<feOffset dy="19.028"></feOffset>
<feGaussianBlur stdDeviation="7.61121"></feGaussianBlur>
<feColorMatrix type="matrix" values="0 0 0 0 0.964706 0 0 0 0 0.964706 0 0 0 0 0.964706 0 0 0 0.38 0"></feColorMatrix>
<feBlend mode="normal" in2="BackgroundImageFix" result="effect1_dropShadow_805_29224"></feBlend>
<feColorMatrix in="SourceAlpha" type="matrix" values="0 0 0 0 0 0 0 0 0 0 0 0 0 0 0 0 0 0 127 0" result="hardAlpha"></feColorMatrix>
<feOffset dy="45.727"></feOffset>
<feGaussianBlur stdDeviation="18.2908"></feGaussianBlur>
<feColorMatrix type="matrix" values="0 0 0 0 0.964706 0 0 0 0 0.964706 0 0 0 0 0.964706 0 0 0 0.27 0"></feColorMatrix>
<feBlend mode="normal" in2="effect1_dropShadow_805_29224" result="effect2_dropShadow_805_29224"></feBlend>
<feColorMatrix in="SourceAlpha" type="matrix" values="0 0 0 0 0 0 0 0 0 0 0 0 0 0 0 0 0 0 127 0" result="hardAlpha"></feColorMatrix>
<feOffset dy="153.587"></feOffset>
<feGaussianBlur stdDeviation="61.435"></feGaussianBlur>
<feColorMatrix type="matrix" values="0 0 0 0 0.964706 0 0 0 0 0.964706 0 0 0 0 0.964706 0 0 0 0.19 0"></feColorMatrix>
<feBlend mode="normal" in2="effect2_dropShadow_805_29224" result="effect3_dropShadow_805_29224"></feBlend>
<feBlend mode="normal" in="SourceGraphic" in2="effect3_dropShadow_805_29224" result="shape"></feBlend>
</filter>
<filter id="filter8_ddd_805_29224" x="256.728" y="12.7964" width="500.483" height="1191.56" filterUnits="userSpaceOnUse" color-interpolation-filters="sRGB">
<feFlood flood-opacity="0" result="BackgroundImageFix"></feFlood>
<feColorMatrix in="SourceAlpha" type="matrix" values="0 0 0 0 0 0 0 0 0 0 0 0 0 0 0 0 0 0 127 0" result="hardAlpha"></feColorMatrix>
<feOffset dy="19.028"></feOffset>
<feGaussianBlur stdDeviation="7.61121"></feGaussianBlur>
<feColorMatrix type="matrix" values="0 0 0 0 0.964706 0 0 0 0 0.964706 0 0 0 0 0.964706 0 0 0 0.38 0"></feColorMatrix>
<feBlend mode="normal" in2="BackgroundImageFix" result="effect1_dropShadow_805_29224"></feBlend>
<feColorMatrix in="SourceAlpha" type="matrix" values="0 0 0 0 0 0 0 0 0 0 0 0 0 0 0 0 0 0 127 0" result="hardAlpha"></feColorMatrix>
<feOffset dy="45.727"></feOffset>
<feGaussianBlur stdDeviation="18.2908"></feGaussianBlur>
<feColorMatrix type="matrix" values="0 0 0 0 0.964706 0 0 0 0 0.964706 0 0 0 0 0.964706 0 0 0 0.27 0"></feColorMatrix>
<feBlend mode="normal" in2="effect1_dropShadow_805_29224" result="effect2_dropShadow_805_29224"></feBlend>
<feColorMatrix in="SourceAlpha" type="matrix" values="0 0 0 0 0 0 0 0 0 0 0 0 0 0 0 0 0 0 127 0" result="hardAlpha"></feColorMatrix>
<feOffset dy="153.587"></feOffset>
<feGaussianBlur stdDeviation="61.435"></feGaussianBlur>
<feColorMatrix type="matrix" values="0 0 0 0 0.964706 0 0 0 0 0.964706 0 0 0 0 0.964706 0 0 0 0.19 0"></feColorMatrix>
<feBlend mode="normal" in2="effect2_dropShadow_805_29224" result="effect3_dropShadow_805_29224"></feBlend>
<feBlend mode="normal" in="SourceGraphic" in2="effect3_dropShadow_805_29224" result="shape"></feBlend>
</filter>
<filter id="filter9_ddd_805_29224" x="196.352" y="12.8022" width="500.483" height="1191.56" filterUnits="userSpaceOnUse" color-interpolation-filters="sRGB">
<feFlood flood-opacity="0" result="BackgroundImageFix"></feFlood>
<feColorMatrix in="SourceAlpha" type="matrix" values="0 0 0 0 0 0 0 0 0 0 0 0 0 0 0 0 0 0 127 0" result="hardAlpha"></feColorMatrix>
<feOffset dy="19.028"></feOffset>
<feGaussianBlur stdDeviation="7.61121"></feGaussianBlur>
<feColorMatrix type="matrix" values="0 0 0 0 0.964706 0 0 0 0 0.964706 0 0 0 0 0.964706 0 0 0 0.38 0"></feColorMatrix>
<feBlend mode="normal" in2="BackgroundImageFix" result="effect1_dropShadow_805_29224"></feBlend>
<feColorMatrix in="SourceAlpha" type="matrix" values="0 0 0 0 0 0 0 0 0 0 0 0 0 0 0 0 0 0 127 0" result="hardAlpha"></feColorMatrix>
<feOffset dy="45.727"></feOffset>
<feGaussianBlur stdDeviation="18.2908"></feGaussianBlur>
<feColorMatrix type="matrix" values="0 0 0 0 0.964706 0 0 0 0 0.964706 0 0 0 0 0.964706 0 0 0 0.27 0"></feColorMatrix>
<feBlend mode="normal" in2="effect1_dropShadow_805_29224" result="effect2_dropShadow_805_29224"></feBlend>
<feColorMatrix in="SourceAlpha" type="matrix" values="0 0 0 0 0 0 0 0 0 0 0 0 0 0 0 0 0 0 127 0" result="hardAlpha"></feColorMatrix>
<feOffset dy="153.587"></feOffset>
<feGaussianBlur stdDeviation="61.435"></feGaussianBlur>
<feColorMatrix type="matrix" values="0 0 0 0 0.964706 0 0 0 0 0.964706 0 0 0 0 0.964706 0 0 0 0.19 0"></feColorMatrix>
<feBlend mode="normal" in2="effect2_dropShadow_805_29224" result="effect3_dropShadow_805_29224"></feBlend>
<feBlend mode="normal" in="SourceGraphic" in2="effect3_dropShadow_805_29224" result="shape"></feBlend>
</filter>
<filter id="filter10_ddd_805_29224" x="331.106" y="12.7959" width="500.483" height="1191.56" filterUnits="userSpaceOnUse" color-interpolation-filters="sRGB">
<feFlood flood-opacity="0" result="BackgroundImageFix"></feFlood>
<feColorMatrix in="SourceAlpha" type="matrix" values="0 0 0 0 0 0 0 0 0 0 0 0 0 0 0 0 0 0 127 0" result="hardAlpha"></feColorMatrix>
<feOffset dy="19.028"></feOffset>
<feGaussianBlur stdDeviation="7.61121"></feGaussianBlur>
<feColorMatrix type="matrix" values="0 0 0 0 0.964706 0 0 0 0 0.964706 0 0 0 0 0.964706 0 0 0 0.38 0"></feColorMatrix>
<feBlend mode="normal" in2="BackgroundImageFix" result="effect1_dropShadow_805_29224"></feBlend>
<feColorMatrix in="SourceAlpha" type="matrix" values="0 0 0 0 0 0 0 0 0 0 0 0 0 0 0 0 0 0 127 0" result="hardAlpha"></feColorMatrix>
<feOffset dy="45.727"></feOffset>
<feGaussianBlur stdDeviation="18.2908"></feGaussianBlur>
<feColorMatrix type="matrix" values="0 0 0 0 0.964706 0 0 0 0 0.964706 0 0 0 0 0.964706 0 0 0 0.27 0"></feColorMatrix>
<feBlend mode="normal" in2="effect1_dropShadow_805_29224" result="effect2_dropShadow_805_29224"></feBlend>
<feColorMatrix in="SourceAlpha" type="matrix" values="0 0 0 0 0 0 0 0 0 0 0 0 0 0 0 0 0 0 127 0" result="hardAlpha"></feColorMatrix>
<feOffset dy="153.587"></feOffset>
<feGaussianBlur stdDeviation="61.435"></feGaussianBlur>
<feColorMatrix type="matrix" values="0 0 0 0 0.964706 0 0 0 0 0.964706 0 0 0 0 0.964706 0 0 0 0.19 0"></feColorMatrix>
<feBlend mode="normal" in2="effect2_dropShadow_805_29224" result="effect3_dropShadow_805_29224"></feBlend>
<feBlend mode="normal" in="SourceGraphic" in2="effect3_dropShadow_805_29224" result="shape"></feBlend>
</filter>
<filter id="filter11_ddd_805_29224" x="391.486" y="12.7993" width="500.484" height="1191.56" filterUnits="userSpaceOnUse" color-interpolation-filters="sRGB">
<feFlood flood-opacity="0" result="BackgroundImageFix"></feFlood>
<feColorMatrix in="SourceAlpha" type="matrix" values="0 0 0 0 0 0 0 0 0 0 0 0 0 0 0 0 0 0 127 0" result="hardAlpha"></feColorMatrix>
<feOffset dy="19.028"></feOffset>
<feGaussianBlur stdDeviation="7.61121"></feGaussianBlur>
<feColorMatrix type="matrix" values="0 0 0 0 0.964706 0 0 0 0 0.964706 0 0 0 0 0.964706 0 0 0 0.38 0"></feColorMatrix>
<feBlend mode="normal" in2="BackgroundImageFix" result="effect1_dropShadow_805_29224"></feBlend>
<feColorMatrix in="SourceAlpha" type="matrix" values="0 0 0 0 0 0 0 0 0 0 0 0 0 0 0 0 0 0 127 0" result="hardAlpha"></feColorMatrix>
<feOffset dy="45.727"></feOffset>
<feGaussianBlur stdDeviation="18.2908"></feGaussianBlur>
<feColorMatrix type="matrix" values="0 0 0 0 0.964706 0 0 0 0 0.964706 0 0 0 0 0.964706 0 0 0 0.27 0"></feColorMatrix>
<feBlend mode="normal" in2="effect1_dropShadow_805_29224" result="effect2_dropShadow_805_29224"></feBlend>
<feColorMatrix in="SourceAlpha" type="matrix" values="0 0 0 0 0 0 0 0 0 0 0 0 0 0 0 0 0 0 127 0" result="hardAlpha"></feColorMatrix>
<feOffset dy="153.587"></feOffset>
<feGaussianBlur stdDeviation="61.435"></feGaussianBlur>
<feColorMatrix type="matrix" values="0 0 0 0 0.964706 0 0 0 0 0.964706 0 0 0 0 0.964706 0 0 0 0.19 0"></feColorMatrix>
<feBlend mode="normal" in2="effect2_dropShadow_805_29224" result="effect3_dropShadow_805_29224"></feBlend>
<feBlend mode="normal" in="SourceGraphic" in2="effect3_dropShadow_805_29224" result="shape"></feBlend>
</filter>
<filter id="filter12_ddd_805_29224" x="331.106" y="12.7964" width="500.483" height="1191.56" filterUnits="userSpaceOnUse" color-interpolation-filters="sRGB">
<feFlood flood-opacity="0" result="BackgroundImageFix"></feFlood>
<feColorMatrix in="SourceAlpha" type="matrix" values="0 0 0 0 0 0 0 0 0 0 0 0 0 0 0 0 0 0 127 0" result="hardAlpha"></feColorMatrix>
<feOffset dy="19.028"></feOffset>
<feGaussianBlur stdDeviation="7.61121"></feGaussianBlur>
<feColorMatrix type="matrix" values="0 0 0 0 0.964706 0 0 0 0 0.964706 0 0 0 0 0.964706 0 0 0 0.38 0"></feColorMatrix>
<feBlend mode="normal" in2="BackgroundImageFix" result="effect1_dropShadow_805_29224"></feBlend>
<feColorMatrix in="SourceAlpha" type="matrix" values="0 0 0 0 0 0 0 0 0 0 0 0 0 0 0 0 0 0 127 0" result="hardAlpha"></feColorMatrix>
<feOffset dy="45.727"></feOffset>
<feGaussianBlur stdDeviation="18.2908"></feGaussianBlur>
<feColorMatrix type="matrix" values="0 0 0 0 0.964706 0 0 0 0 0.964706 0 0 0 0 0.964706 0 0 0 0.27 0"></feColorMatrix>
<feBlend mode="normal" in2="effect1_dropShadow_805_29224" result="effect2_dropShadow_805_29224"></feBlend>
<feColorMatrix in="SourceAlpha" type="matrix" values="0 0 0 0 0 0 0 0 0 0 0 0 0 0 0 0 0 0 127 0" result="hardAlpha"></feColorMatrix>
<feOffset dy="153.587"></feOffset>
<feGaussianBlur stdDeviation="61.435"></feGaussianBlur>
<feColorMatrix type="matrix" values="0 0 0 0 0.964706 0 0 0 0 0.964706 0 0 0 0 0.964706 0 0 0 0.19 0"></feColorMatrix>
<feBlend mode="normal" in2="effect2_dropShadow_805_29224" result="effect3_dropShadow_805_29224"></feBlend>
<feBlend mode="normal" in="SourceGraphic" in2="effect3_dropShadow_805_29224" result="shape"></feBlend>
</filter>
<filter id="filter13_ddd_805_29224" x="391.487" y="12.7998" width="500.483" height="1191.56" filterUnits="userSpaceOnUse" color-interpolation-filters="sRGB">
<feFlood flood-opacity="0" result="BackgroundImageFix"></feFlood>
<feColorMatrix in="SourceAlpha" type="matrix" values="0 0 0 0 0 0 0 0 0 0 0 0 0 0 0 0 0 0 127 0" result="hardAlpha"></feColorMatrix>
<feOffset dy="19.028"></feOffset>
<feGaussianBlur stdDeviation="7.61121"></feGaussianBlur>
<feColorMatrix type="matrix" values="0 0 0 0 0.964706 0 0 0 0 0.964706 0 0 0 0 0.964706 0 0 0 0.38 0"></feColorMatrix>
<feBlend mode="normal" in2="BackgroundImageFix" result="effect1_dropShadow_805_29224"></feBlend>
<feColorMatrix in="SourceAlpha" type="matrix" values="0 0 0 0 0 0 0 0 0 0 0 0 0 0 0 0 0 0 127 0" result="hardAlpha"></feColorMatrix>
<feOffset dy="45.727"></feOffset>
<feGaussianBlur stdDeviation="18.2908"></feGaussianBlur>
<feColorMatrix type="matrix" values="0 0 0 0 0.964706 0 0 0 0 0.964706 0 0 0 0 0.964706 0 0 0 0.27 0"></feColorMatrix>
<feBlend mode="normal" in2="effect1_dropShadow_805_29224" result="effect2_dropShadow_805_29224"></feBlend>
<feColorMatrix in="SourceAlpha" type="matrix" values="0 0 0 0 0 0 0 0 0 0 0 0 0 0 0 0 0 0 127 0" result="hardAlpha"></feColorMatrix>
<feOffset dy="153.587"></feOffset>
<feGaussianBlur stdDeviation="61.435"></feGaussianBlur>
<feColorMatrix type="matrix" values="0 0 0 0 0.964706 0 0 0 0 0.964706 0 0 0 0 0.964706 0 0 0 0.19 0"></feColorMatrix>
<feBlend mode="normal" in2="effect2_dropShadow_805_29224" result="effect3_dropShadow_805_29224"></feBlend>
<feBlend mode="normal" in="SourceGraphic" in2="effect3_dropShadow_805_29224" result="shape"></feBlend>
</filter>
<filter id="filter14_ddd_805_29224" x="256.728" y="12.7964" width="500.483" height="1191.56" filterUnits="userSpaceOnUse" color-interpolation-filters="sRGB">
<feFlood flood-opacity="0" result="BackgroundImageFix"></feFlood>
<feColorMatrix in="SourceAlpha" type="matrix" values="0 0 0 0 0 0 0 0 0 0 0 0 0 0 0 0 0 0 127 0" result="hardAlpha"></feColorMatrix>
<feOffset dy="19.028"></feOffset>
<feGaussianBlur stdDeviation="7.61121"></feGaussianBlur>
<feColorMatrix type="matrix" values="0 0 0 0 0.964706 0 0 0 0 0.964706 0 0 0 0 0.964706 0 0 0 0.38 0"></feColorMatrix>
<feBlend mode="normal" in2="BackgroundImageFix" result="effect1_dropShadow_805_29224"></feBlend>
<feColorMatrix in="SourceAlpha" type="matrix" values="0 0 0 0 0 0 0 0 0 0 0 0 0 0 0 0 0 0 127 0" result="hardAlpha"></feColorMatrix>
<feOffset dy="45.727"></feOffset>
<feGaussianBlur stdDeviation="18.2908"></feGaussianBlur>
<feColorMatrix type="matrix" values="0 0 0 0 0.964706 0 0 0 0 0.964706 0 0 0 0 0.964706 0 0 0 0.27 0"></feColorMatrix>
<feBlend mode="normal" in2="effect1_dropShadow_805_29224" result="effect2_dropShadow_805_29224"></feBlend>
<feColorMatrix in="SourceAlpha" type="matrix" values="0 0 0 0 0 0 0 0 0 0 0 0 0 0 0 0 0 0 127 0" result="hardAlpha"></feColorMatrix>
<feOffset dy="153.587"></feOffset>
<feGaussianBlur stdDeviation="61.435"></feGaussianBlur>
<feColorMatrix type="matrix" values="0 0 0 0 0.964706 0 0 0 0 0.964706 0 0 0 0 0.964706 0 0 0 0.19 0"></feColorMatrix>
<feBlend mode="normal" in2="effect2_dropShadow_805_29224" result="effect3_dropShadow_805_29224"></feBlend>
<feBlend mode="normal" in="SourceGraphic" in2="effect3_dropShadow_805_29224" result="shape"></feBlend>
</filter>
<filter id="filter15_ddd_805_29224" x="196.352" y="12.8018" width="500.483" height="1191.56" filterUnits="userSpaceOnUse" color-interpolation-filters="sRGB">
<feFlood flood-opacity="0" result="BackgroundImageFix"></feFlood>
<feColorMatrix in="SourceAlpha" type="matrix" values="0 0 0 0 0 0 0 0 0 0 0 0 0 0 0 0 0 0 127 0" result="hardAlpha"></feColorMatrix>
<feOffset dy="19.028"></feOffset>
<feGaussianBlur stdDeviation="7.61121"></feGaussianBlur>
<feColorMatrix type="matrix" values="0 0 0 0 0.964706 0 0 0 0 0.964706 0 0 0 0 0.964706 0 0 0 0.38 0"></feColorMatrix>
<feBlend mode="normal" in2="BackgroundImageFix" result="effect1_dropShadow_805_29224"></feBlend>
<feColorMatrix in="SourceAlpha" type="matrix" values="0 0 0 0 0 0 0 0 0 0 0 0 0 0 0 0 0 0 127 0" result="hardAlpha"></feColorMatrix>
<feOffset dy="45.727"></feOffset>
<feGaussianBlur stdDeviation="18.2908"></feGaussianBlur>
<feColorMatrix type="matrix" values="0 0 0 0 0.964706 0 0 0 0 0.964706 0 0 0 0 0.964706 0 0 0 0.27 0"></feColorMatrix>
<feBlend mode="normal" in2="effect1_dropShadow_805_29224" result="effect2_dropShadow_805_29224"></feBlend>
<feColorMatrix in="SourceAlpha" type="matrix" values="0 0 0 0 0 0 0 0 0 0 0 0 0 0 0 0 0 0 127 0" result="hardAlpha"></feColorMatrix>
<feOffset dy="153.587"></feOffset>
<feGaussianBlur stdDeviation="61.435"></feGaussianBlur>
<feColorMatrix type="matrix" values="0 0 0 0 0.964706 0 0 0 0 0.964706 0 0 0 0 0.964706 0 0 0 0.19 0"></feColorMatrix>
<feBlend mode="normal" in2="effect2_dropShadow_805_29224" result="effect3_dropShadow_805_29224"></feBlend>
<feBlend mode="normal" in="SourceGraphic" in2="effect3_dropShadow_805_29224" result="shape"></feBlend>
</filter>
<filter id="filter16_ddf_805_29224" x="-337.827" y="-104.827" width="1531.24" height="2342.36" filterUnits="userSpaceOnUse" color-interpolation-filters="sRGB">
<feFlood flood-opacity="0" result="BackgroundImageFix"></feFlood>
<feColorMatrix in="SourceAlpha" type="matrix" values="0 0 0 0 0 0 0 0 0 0 0 0 0 0 0 0 0 0 127 0" result="hardAlpha"></feColorMatrix>
<feOffset dx="-142.243" dy="106.682"></feOffset>
<feGaussianBlur stdDeviation="97.7922"></feGaussianBlur>
<feColorMatrix type="matrix" values="0 0 0 0 1 0 0 0 0 1 0 0 0 0 1 0 0 0 0.3 0"></feColorMatrix>
<feBlend mode="normal" in2="BackgroundImageFix" result="effect1_dropShadow_805_29224"></feBlend>
<feColorMatrix in="SourceAlpha" type="matrix" values="0 0 0 0 0 0 0 0 0 0 0 0 0 0 0 0 0 0 127 0" result="hardAlpha"></feColorMatrix>
<feOffset dx="-53.3412" dy="53.3412"></feOffset>
<feGaussianBlur stdDeviation="35.5608"></feGaussianBlur>
<feColorMatrix type="matrix" values="0 0 0 0 1 0 0 0 0 1 0 0 0 0 1 0 0 0 0.3 0"></feColorMatrix>
<feBlend mode="normal" in2="effect1_dropShadow_805_29224" result="effect2_dropShadow_805_29224"></feBlend>
<feBlend mode="normal" in="SourceGraphic" in2="effect2_dropShadow_805_29224" result="shape"></feBlend>
<feGaussianBlur stdDeviation="52.4134" result="effect3_foregroundBlur_805_29224"></feGaussianBlur>
</filter>
<filter id="filter17_d_805_29224" x="-212.705" y="-55.9751" width="1334.88" height="2181.56" filterUnits="userSpaceOnUse" color-interpolation-filters="sRGB">
<feFlood flood-opacity="0" result="BackgroundImageFix"></feFlood>
<feColorMatrix in="SourceAlpha" type="matrix" values="0 0 0 0 0 0 0 0 0 0 0 0 0 0 0 0 0 0 127 0" result="hardAlpha"></feColorMatrix>
<feOffset dx="-89.5601" dy="67.1701"></feOffset>
<feGaussianBlur stdDeviation="61.5726"></feGaussianBlur>
<feColorMatrix type="matrix" values="0 0 0 0 0.13 0 0 0 0 0.1428 0 0 0 0 0.15 0 0 0 0.3 0"></feColorMatrix>
<feBlend mode="normal" in2="BackgroundImageFix" result="effect1_dropShadow_805_29224"></feBlend>
<feBlend mode="normal" in="SourceGraphic" in2="effect1_dropShadow_805_29224" result="shape"></feBlend>
</filter>
<filter id="filter18_dd_805_29224" x="-212.705" y="-55.9751" width="1334.88" height="2181.56" filterUnits="userSpaceOnUse" color-interpolation-filters="sRGB">
<feFlood flood-opacity="0" result="BackgroundImageFix"></feFlood>
<feColorMatrix in="SourceAlpha" type="matrix" values="0 0 0 0 0 0 0 0 0 0 0 0 0 0 0 0 0 0 127 0" result="hardAlpha"></feColorMatrix>
<feOffset dx="-89.5601" dy="67.1701"></feOffset>
<feGaussianBlur stdDeviation="61.5726"></feGaussianBlur>
<feColorMatrix type="matrix" values="0 0 0 0 0.13 0 0 0 0 0.1428 0 0 0 0 0.15 0 0 0 0.3 0"></feColorMatrix>
<feBlend mode="normal" in2="BackgroundImageFix" result="effect1_dropShadow_805_29224"></feBlend>
<feColorMatrix in="SourceAlpha" type="matrix" values="0 0 0 0 0 0 0 0 0 0 0 0 0 0 0 0 0 0 127 0" result="hardAlpha"></feColorMatrix>
<feOffset dx="-33.585" dy="33.585"></feOffset>
<feGaussianBlur stdDeviation="22.39"></feGaussianBlur>
<feColorMatrix type="matrix" values="0 0 0 0 0.13 0 0 0 0 0.1428 0 0 0 0 0.15 0 0 0 0.3 0"></feColorMatrix>
<feBlend mode="normal" in2="effect1_dropShadow_805_29224" result="effect2_dropShadow_805_29224"></feBlend>
<feBlend mode="normal" in="SourceGraphic" in2="effect2_dropShadow_805_29224" result="shape"></feBlend>
</filter>
<filter id="filter19_dd_805_29224" x="-400.163" y="-191.201" width="1598.08" height="2534.08" filterUnits="userSpaceOnUse" color-interpolation-filters="sRGB">
<feFlood flood-opacity="0" result="BackgroundImageFix"></feFlood>
<feColorMatrix in="SourceAlpha" type="matrix" values="0 0 0 0 0 0 0 0 0 0 0 0 0 0 0 0 0 0 127 0" result="hardAlpha"></feColorMatrix>
<feOffset dx="-141.121" dy="105.841"></feOffset>
<feGaussianBlur stdDeviation="97.0208"></feGaussianBlur>
<feColorMatrix type="matrix" values="0 0 0 0 1 0 0 0 0 1 0 0 0 0 1 0 0 0 0.3 0"></feColorMatrix>
<feBlend mode="normal" in2="BackgroundImageFix" result="effect1_dropShadow_805_29224"></feBlend>
<feColorMatrix in="SourceAlpha" type="matrix" values="0 0 0 0 0 0 0 0 0 0 0 0 0 0 0 0 0 0 127 0" result="hardAlpha"></feColorMatrix>
<feOffset dx="-52.9204" dy="52.9204"></feOffset>
<feGaussianBlur stdDeviation="35.2803"></feGaussianBlur>
<feColorMatrix type="matrix" values="0 0 0 0 1 0 0 0 0 1 0 0 0 0 1 0 0 0 0.3 0"></feColorMatrix>
<feBlend mode="normal" in2="effect1_dropShadow_805_29224" result="effect2_dropShadow_805_29224"></feBlend>
<feBlend mode="normal" in="SourceGraphic" in2="effect2_dropShadow_805_29224" result="shape"></feBlend>
</filter>
<linearGradient id="paint0_linear_805_29224" x1="417.959" y1="1449.32" x2="1029.64" y2="1449.32" gradientUnits="userSpaceOnUse">
<stop stop-color="white"></stop>
<stop offset="1" stop-color="white"></stop>
</linearGradient>
<linearGradient id="paint1_linear_805_29224" x1="670.216" y1="1449.32" x2="58.5346" y2="1449.32" gradientUnits="userSpaceOnUse">
<stop stop-color="white"></stop>
<stop offset="1" stop-color="white"></stop>
</linearGradient>
<linearGradient id="paint2_linear_805_29224" x1="670.216" y1="486.085" x2="58.5346" y2="486.085" gradientUnits="userSpaceOnUse">
<stop stop-color="white"></stop>
<stop offset="1" stop-color="white"></stop>
</linearGradient>
<linearGradient id="paint3_linear_805_29224" x1="417.959" y1="486.085" x2="1029.64" y2="486.085" gradientUnits="userSpaceOnUse">
<stop stop-color="white"></stop>
<stop offset="1" stop-color="white"></stop>
</linearGradient>
<linearGradient id="paint4_linear_805_29224" x1="183.1" y1="703.423" x2="183.1" y2="1947.75" gradientUnits="userSpaceOnUse">
<stop stop-color="white"></stop>
<stop offset="1" stop-color="white"></stop>
</linearGradient>
<linearGradient id="paint5_linear_805_29224" x1="183.1" y1="1216.58" x2="183.1" y2="-27.7496" gradientUnits="userSpaceOnUse">
<stop stop-color="white"></stop>
<stop offset="1" stop-color="white"></stop>
</linearGradient>
<linearGradient id="paint6_linear_805_29224" x1="874.9" y1="1216.58" x2="874.9" y2="-27.7501" gradientUnits="userSpaceOnUse">
<stop stop-color="white"></stop>
<stop offset="1" stop-color="white"></stop>
</linearGradient>
<linearGradient id="paint7_linear_805_29224" x1="874.9" y1="703.425" x2="874.9" y2="1947.75" gradientUnits="userSpaceOnUse">
<stop stop-color="white"></stop>
<stop offset="1" stop-color="white"></stop>
</linearGradient>
<radialGradient id="paint8_radial_805_29224" cx="0" cy="0" r="1" gradientUnits="userSpaceOnUse" gradientTransform="translate(-9.07154 1884.46) rotate(-59.7802) scale(2180.84 2610.54)">
<stop stop-color="#0F2326"></stop>
<stop offset="0.476178" stop-color="#0A142A"></stop>
<stop offset="1" stop-color="#302437"></stop>
</radialGradient>
<clipPath id="clip0_805_29224">
<rect width="1080" height="1920" fill="white" stroke-dasharray="0,0,4800,1199.9999999999998"><animate attributeType="XML" attributeName="stroke-dasharray" repeatCount="indefinite" dur="2.5s" values="0,0,4800,1199.9999999999998; 
          0,1199.9999999999998,4800,0; 
          4800,1199.9999999999998,0,0" keyTimes="0; 0.19999999999999996; 1"></animate></rect>
</clipPath>
</defs>
<setting>{"type":"loader","speed":20,"random":1,"shift":1,"size":1,"rupture":50}</setting></svg>