<?xml version="1.0" standalone="no"?>
<svg id="Frame48095670" width="548" height="1080" viewBox="0 0 548 1080" fill="none" xmlns="http://www.w3.org/2000/svg" style="max-width: 100%; max-height: 100%;">
<g clip-path="url(#clip0_818_38539)">
<path d="M548 523V544.998C548 578.161 522.782 605.845 489.793 609.233C392.406 619.233 207.001 640.929 207.001 661.165C207.001 724.481 207 795 207 795C207 795 207.001 875.844 207.001 922.837C207.001 944.567 393.363 968.911 490.544 980.128C523.202 983.897 548 1011.44 548 1044.31V1067" stroke="white" stroke-width="4" stroke-linejoin="round" stroke-dasharray="0,0,0,0,0,1078.4859619140625"><animate attributeType="XML" attributeName="stroke-dasharray" repeatCount="indefinite" dur="3.3333333333333335s" values="0,0,0,0,0,1078.4859619140625; 0,0,0,539.2429809570312,539.2429809570312,0; 0,0,269.6214904785156,808.8644714355469,0,0; 0,539.2429809570312,0,539.2429809570312,0,0" keyTimes="0; 0.5; 0.75; 1"></animate></path>
<path d="M0 523V544.998C0 578.161 -25.2177 605.845 -58.2074 609.233C-155.594 619.233 -340.999 640.929 -340.999 661.165C-340.999 724.481 -341 795 -341 795C-341 795 -340.999 875.844 -340.999 922.837C-340.999 944.567 -154.637 968.911 -57.4562 980.128C-24.7984 983.897 0 1011.44 0 1044.31V1067" stroke="white" stroke-width="4" stroke-linejoin="round" stroke-dasharray="0,0,0,0,0,1078.4859619140625"><animate attributeType="XML" attributeName="stroke-dasharray" repeatCount="indefinite" dur="3.3333333333333335s" values="0,0,0,0,0,1078.4859619140625; 0,0,0,539.2429809570312,539.2429809570312,0; 0,0,269.6214904785156,808.8644714355469,0,0; 0,539.2429809570312,0,539.2429809570312,0,0" keyTimes="0; 0.5; 0.75; 1"></animate></path>
<path d="M548 13V34.998C548 68.1612 522.782 95.845 489.793 99.2326C392.406 109.233 207.001 130.929 207.001 151.165C207.001 214.481 207 285 207 285C207 285 207.001 365.844 207.001 412.837C207.001 434.567 393.363 458.911 490.544 470.128C523.202 473.897 548 501.439 548 534.314V557" stroke="white" stroke-width="4" stroke-linejoin="round" stroke-dasharray="0,0,0,0,0,1078.48583984375"><animate attributeType="XML" attributeName="stroke-dasharray" repeatCount="indefinite" dur="3.3333333333333335s" values="0,0,0,0,0,1078.48583984375; 0,0,0,539.242919921875,539.242919921875,0; 0,0,269.6214599609375,808.8643798828125,0,0; 0,539.242919921875,0,539.242919921875,0,0" keyTimes="0; 0.5; 0.75; 1"></animate></path>
<path d="M0 13V34.998C0 68.1612 -25.2177 95.845 -58.2074 99.2326C-155.594 109.233 -340.999 130.929 -340.999 151.165C-340.999 214.481 -341 285 -341 285C-341 285 -340.999 365.844 -340.999 412.837C-340.999 434.567 -154.637 458.911 -57.4562 470.128C-24.7984 473.897 0 501.439 0 534.314V557" stroke="white" stroke-width="4" stroke-linejoin="round" stroke-dasharray="0,0,0,0,0,1078.4853515625"><animate attributeType="XML" attributeName="stroke-dasharray" repeatCount="indefinite" dur="3.3333333333333335s" values="0,0,0,0,0,1078.4853515625; 0,0,0,539.24267578125,539.24267578125,0; 0,0,269.621337890625,808.864013671875,0,0; 0,539.24267578125,0,539.24267578125,0,0" keyTimes="0; 0.5; 0.75; 1"></animate></path>
<path d="M480 523V544.998C480 578.161 454.782 605.845 421.793 609.233C324.406 619.233 139.001 640.929 139.001 661.165C139.001 724.481 139 795 139 795C139 795 139.001 875.844 139.001 922.837C139.001 944.567 325.363 968.911 422.544 980.128C455.202 983.897 480 1011.44 480 1044.31V1067" stroke="white" stroke-width="4" stroke-linejoin="round" stroke-dasharray="0,0,0,0,0,1078.4859619140625"><animate attributeType="XML" attributeName="stroke-dasharray" repeatCount="indefinite" dur="3.3333333333333335s" values="0,0,0,0,0,1078.4859619140625; 0,0,0,539.2429809570312,539.2429809570312,0; 0,0,269.6214904785156,808.8644714355469,0,0; 0,539.2429809570312,0,539.2429809570312,0,0" keyTimes="0; 0.5; 0.75; 1"></animate></path>
<path d="M480 13V34.998C480 68.1612 454.782 95.845 421.793 99.2326C324.406 109.233 139.001 130.929 139.001 151.165C139.001 214.481 139 285 139 285C139 285 139.001 365.844 139.001 412.837C139.001 434.567 325.363 458.911 422.544 470.128C455.202 473.897 480 501.439 480 534.314V557" stroke="white" stroke-width="4" stroke-linejoin="round" stroke-dasharray="0,0,0,0,0,1078.48583984375"><animate attributeType="XML" attributeName="stroke-dasharray" repeatCount="indefinite" dur="3.3333333333333335s" values="0,0,0,0,0,1078.48583984375; 0,0,0,539.242919921875,539.242919921875,0; 0,0,269.6214599609375,808.8643798828125,0,0; 0,539.242919921875,0,539.242919921875,0,0" keyTimes="0; 0.5; 0.75; 1"></animate></path>
<path d="M412 523V544.953C412 578.135 386.752 605.828 353.74 609.186C255.621 619.165 68.0005 640.898 68.0005 661.165C68.0005 724.481 68 795 68 795C68 795 68.0005 875.844 68.0005 922.837C68.0005 944.6 256.571 968.984 354.483 980.179C387.166 983.915 412 1011.47 412 1044.36V1067" stroke="white" stroke-width="4" stroke-linejoin="round" stroke-dasharray="0,0,0,0,0,1084.2774658203125"><animate attributeType="XML" attributeName="stroke-dasharray" repeatCount="indefinite" dur="3.3333333333333335s" values="0,0,0,0,0,1084.2774658203125; 0,0,0,542.1387329101562,542.1387329101562,0; 0,0,271.0693664550781,813.2080993652344,0,0; 0,542.1387329101562,0,542.1387329101562,0,0" keyTimes="0; 0.5; 0.75; 1"></animate></path>
<path d="M412 13V34.953C412 68.135 386.752 95.8284 353.74 99.1859C255.621 109.165 68.0005 130.898 68.0005 151.165C68.0005 214.481 68 285 68 285C68 285 68.0005 365.844 68.0005 412.837C68.0005 434.6 256.571 458.984 354.483 470.179C387.166 473.915 412 501.468 412 534.364V557" stroke="white" stroke-width="4" stroke-linejoin="round" stroke-dasharray="0,0,0,0,0,1084.277587890625"><animate attributeType="XML" attributeName="stroke-dasharray" repeatCount="indefinite" dur="3.3333333333333335s" values="0,0,0,0,0,1084.277587890625; 0,0,0,542.1387939453125,542.1387939453125,0; 0,0,271.06939697265625,813.2081909179688,0,0; 0,542.1387939453125,0,542.1387939453125,0,0" keyTimes="0; 0.5; 0.75; 1"></animate></path>
<path d="M343 523V544.968C343 578.144 317.762 605.834 284.758 609.201C186.883 619.188 0.000531006 640.908 0.000531006 661.165C0.000531006 724.481 7.62939e-06 795 7.62939e-06 795C7.62939e-06 795 0.000531006 875.844 0.000531006 922.837C0.000531006 944.589 187.835 968.96 285.503 980.162C318.178 983.909 343 1011.46 343 1044.35V1067" stroke="white" stroke-width="4" stroke-linejoin="round" stroke-dasharray="0,0,0,0,0,1082.346435546875"><animate attributeType="XML" attributeName="stroke-dasharray" repeatCount="indefinite" dur="3.3333333333333335s" values="0,0,0,0,0,1082.346435546875; 0,0,0,541.1732177734375,541.1732177734375,0; 0,0,270.58660888671875,811.7598266601562,0,0; 0,541.1732177734375,0,541.1732177734375,0,0" keyTimes="0; 0.5; 0.75; 1"></animate></path>
<path d="M343 13V34.9679C343 68.1437 317.762 95.8339 284.758 99.2014C186.883 109.188 0.000531006 130.908 0.000531006 151.165C0.000531006 214.481 7.62939e-06 285 7.62939e-06 285C7.62939e-06 285 0.000531006 365.844 0.000531006 412.837C0.000531006 434.589 187.835 458.96 285.503 470.162C318.178 473.909 343 501.458 343 534.347V557" stroke="white" stroke-width="4" stroke-linejoin="round" stroke-dasharray="0,0,0,0,0,1082.34716796875"><animate attributeType="XML" attributeName="stroke-dasharray" repeatCount="indefinite" dur="3.3333333333333335s" values="0,0,0,0,0,1082.34716796875; 0,0,0,541.173583984375,541.173583984375,0; 0,0,270.5867919921875,811.7603759765625,0,0; 0,541.173583984375,0,541.173583984375,0,0" keyTimes="0; 0.5; 0.75; 1"></animate></path>
<path d="M-1.00008 557L-1.00008 535.047C-1.00008 501.865 24.2483 474.172 57.26 470.814C155.379 460.835 343 439.102 343 418.835C343 355.519 343 285 343 285C343 285 343 204.156 343 157.163C343 135.4 154.429 111.016 56.5174 99.8214C23.8345 96.0846 -1.00001 68.5318 -1 35.636L-1 13" stroke="white" stroke-width="4" stroke-linejoin="round" stroke-dasharray="0,0,0,0,0,1084.278076171875"><animate attributeType="XML" attributeName="stroke-dasharray" repeatCount="indefinite" dur="3.3333333333333335s" values="0,0,0,0,0,1084.278076171875; 0,0,0,542.1390380859375,542.1390380859375,0; 0,0,271.06951904296875,813.2085571289062,0,0; 0,542.1390380859375,0,542.1390380859375,0,0" keyTimes="0; 0.5; 0.75; 1"></animate></path>
<path d="M-1.00009 1067L-1.00009 1045.02C-1.00008 1011.85 24.2277 984.161 57.2248 980.783C154.856 970.79 340.999 949.081 340.999 928.835C341 865.519 341 795 341 795C341 795 341 714.156 341 667.163C341 645.422 153.901 621.065 56.4766 609.855C23.8104 606.097 -1.00001 578.551 -1 545.67L-1 523" stroke="white" stroke-width="4" stroke-linejoin="round" stroke-dasharray="0,0,0,0,0,1080.41552734375"><animate attributeType="XML" attributeName="stroke-dasharray" repeatCount="indefinite" dur="3.3333333333333335s" values="0,0,0,0,0,1080.41552734375; 0,0,0,540.207763671875,540.207763671875,0; 0,0,270.1038818359375,810.3116455078125,0,0; 0,540.207763671875,0,540.207763671875,0,0" keyTimes="0; 0.5; 0.75; 1"></animate></path>
<path d="M67.9999 557L67.9999 535.032C67.9999 501.856 93.2379 474.166 126.242 470.799C224.117 460.812 411 439.092 411 418.835C411 355.519 411 285 411 285C411 285 411 204.156 411 157.163C411 135.411 223.165 111.04 125.497 99.8382C92.8224 96.0906 68 68.5415 68 35.6527L68 13" stroke="white" stroke-width="4" stroke-linejoin="round" stroke-dasharray="0,0,0,0,0,1082.3482666015625"><animate attributeType="XML" attributeName="stroke-dasharray" repeatCount="indefinite" dur="3.3333333333333335s" values="0,0,0,0,0,1082.3482666015625; 0,0,0,541.1741333007812,541.1741333007812,0; 0,0,270.5870666503906,811.7611999511719,0,0; 0,541.1741333007812,0,541.1741333007812,0,0" keyTimes="0; 0.5; 0.75; 1"></animate></path>
<path d="M67.9999 1067L67.9999 1045C67.9999 1011.84 93.2176 984.155 126.207 980.767C223.594 970.767 409 949.071 409 928.835C409 865.519 409 795 409 795C409 795 409 714.156 409 667.163C409 645.433 222.637 621.089 125.456 609.872C92.7984 606.103 68 578.561 68 545.686L68 523" stroke="white" stroke-width="4" stroke-linejoin="round" stroke-dasharray="0,0,0,0,0,1078.48779296875"><animate attributeType="XML" attributeName="stroke-dasharray" repeatCount="indefinite" dur="3.3333333333333335s" values="0,0,0,0,0,1078.48779296875; 0,0,0,539.243896484375,539.243896484375,0; 0,0,269.6219482421875,808.8658447265625,0,0; 0,539.243896484375,0,539.243896484375,0,0" keyTimes="0; 0.5; 0.75; 1"></animate></path>
<path d="M136 557L136 535.032C136 501.856 161.238 474.166 194.242 470.799C292.117 460.812 479 439.092 479 418.835C479 355.519 479 285 479 285C479 285 479 204.156 479 157.163C479 135.411 291.165 111.04 193.497 99.8382C160.822 96.0906 136 68.5415 136 35.6527L136 13" stroke="white" stroke-width="4" stroke-linejoin="round" stroke-dasharray="0,0,0,0,0,1082.3482666015625"><animate attributeType="XML" attributeName="stroke-dasharray" repeatCount="indefinite" dur="3.3333333333333335s" values="0,0,0,0,0,1082.3482666015625; 0,0,0,541.1741333007812,541.1741333007812,0; 0,0,270.5870666503906,811.7611999511719,0,0; 0,541.1741333007812,0,541.1741333007812,0,0" keyTimes="0; 0.5; 0.75; 1"></animate></path>
<path d="M136 1067L136 1045C136 1011.84 161.218 984.155 194.207 980.767C291.594 970.767 477 949.071 477 928.835C477 865.519 477 795 477 795C477 795 477 714.156 477 667.163C477 645.433 290.637 621.089 193.456 609.872C160.798 606.103 136 578.561 136 545.686L136 523" stroke="white" stroke-width="4" stroke-linejoin="round" stroke-dasharray="0,0,0,0,0,1078.48779296875"><animate attributeType="XML" attributeName="stroke-dasharray" repeatCount="indefinite" dur="3.3333333333333335s" values="0,0,0,0,0,1078.48779296875; 0,0,0,539.243896484375,539.243896484375,0; 0,0,269.6219482421875,808.8658447265625,0,0; 0,539.243896484375,0,539.243896484375,0,0" keyTimes="0; 0.5; 0.75; 1"></animate></path>
<path d="M204 557L204 535.047C204 501.865 229.248 474.172 262.26 470.814C360.379 460.835 548 439.102 548 418.835C548 355.519 548 285 548 285C548 285 548 204.156 548 157.163C548 135.4 359.429 111.016 261.517 99.8214C228.834 96.0846 204 68.5318 204 35.636L204 13" stroke="white" stroke-width="4" stroke-linejoin="round" stroke-dasharray="0,0,0,0,0,1084.2783203125"><animate attributeType="XML" attributeName="stroke-dasharray" repeatCount="indefinite" dur="3.3333333333333335s" values="0,0,0,0,0,1084.2783203125; 0,0,0,542.13916015625,542.13916015625,0; 0,0,271.069580078125,813.208740234375,0,0; 0,542.13916015625,0,542.13916015625,0,0" keyTimes="0; 0.5; 0.75; 1"></animate></path>
<path d="M-344 557L-344 535.047C-344 501.865 -318.752 474.172 -285.74 470.814C-187.621 460.835 -0.000499574 439.102 -0.000496424 418.835C-0.000486583 355.519 4.9279e-05 285 4.9279e-05 285C4.9279e-05 285 -0.000463059 204.156 -0.000455755 157.163C-0.000452373 135.4 -188.571 111.016 -286.483 99.8214C-319.166 96.0846 -344 68.5318 -344 35.636L-344 13" stroke="white" stroke-width="4" stroke-linejoin="round" stroke-dasharray="0,0,0,0,0,1084.27734375"><animate attributeType="XML" attributeName="stroke-dasharray" repeatCount="indefinite" dur="3.3333333333333335s" values="0,0,0,0,0,1084.27734375; 0,0,0,542.138671875,542.138671875,0; 0,0,271.0693359375,813.2080078125,0,0; 0,542.138671875,0,542.138671875,0,0" keyTimes="0; 0.5; 0.75; 1"></animate></path>
<path d="M204 1067L204 1045.05C204 1011.87 229.248 984.172 262.26 980.814C360.379 970.835 547.999 949.102 547.999 928.835C548 865.519 548 795 548 795C548 795 548 714.156 548 667.163C548 645.4 359.429 621.016 261.517 609.821C228.834 606.085 204 578.532 204 545.636L204 523" stroke="white" stroke-width="4" stroke-linejoin="round" stroke-dasharray="0,0,0,0,0,1084.276123046875"><animate attributeType="XML" attributeName="stroke-dasharray" repeatCount="indefinite" dur="3.3333333333333335s" values="0,0,0,0,0,1084.276123046875; 0,0,0,542.1380615234375,542.1380615234375,0; 0,0,271.06903076171875,813.2070922851562,0,0; 0,542.1380615234375,0,542.1380615234375,0,0" keyTimes="0; 0.5; 0.75; 1"></animate></path>
<path d="M-344 1067L-344 1045.05C-344 1011.87 -318.752 984.172 -285.74 980.814C-187.621 970.835 -0.000507199 949.102 -0.000503686 928.835C-0.000492713 865.519 4.44116e-05 795 4.44116e-05 795C4.44116e-05 795 -0.000466479 714.156 -0.000458335 667.163C-0.000454563 645.4 -188.571 621.016 -286.483 609.821C-319.166 606.085 -344 578.532 -344 545.636L-344 523" stroke="white" stroke-width="4" stroke-linejoin="round" stroke-dasharray="0,0,0,0,0,1084.276123046875"><animate attributeType="XML" attributeName="stroke-dasharray" repeatCount="indefinite" dur="3.3333333333333335s" values="0,0,0,0,0,1084.276123046875; 0,0,0,542.1380615234375,542.1380615234375,0; 0,0,271.06903076171875,813.2070922851562,0,0; 0,542.1380615234375,0,542.1380615234375,0,0" keyTimes="0; 0.5; 0.75; 1"></animate></path>
</g>
<defs>
<clipPath id="clip0_818_38539">
<rect width="548" height="1080" fill="white" stroke-dasharray="0,0,0,0,0,3256"><animate attributeType="XML" attributeName="stroke-dasharray" repeatCount="indefinite" dur="3.3333333333333335s" values="0,0,0,0,0,3256; 0,0,0,1628,1628,0; 0,0,814,2442,0,0; 0,1628,0,1628,0,0" keyTimes="0; 0.5; 0.75; 1"></animate></rect>
</clipPath>
</defs>
<setting>{"type":"shift","speed":15,"random":1,"shift":1,"size":1,"rupture":50}</setting></svg>