{
	"asset":{
		"version":"2.0",
		"generator":"Created using the official Cinema 4D glTF Exporter 1.000x284978"
	},
	"scenes":[{
		"nodes":[0,
		1]
	}],
	"nodes":[{
		"name":"OctaneCamera",
		"translation":[-3593.871337890625,
		1094.515869140625,
		4254.57763671875],
		"rotation":[-0.015679137781262399,
		-0.25746026635169985,
		-0.004178175237029791,
		0.9661526083946228],
		"scale":[1.0,
		1.0,
		1.0],
		"camera":0
	},
	{
		"name":"CV-ArtSmart Object",
		"translation":[-1734.687744140625,
		943.4127197265625,
		0.0],
		"rotation":[0.0,
		0.0,
		0.0,
		-1.0],
		"scale":[1.0,
		1.0,
		1.0],
		"children":[2,
		3,
		4]
	},
	{
		"name":"Path",
		"translation":[-211.22683715820313,
		2.8850784301757814,
		1656.8167724609376],
		"rotation":[0.0,
		0.0,
		0.0,
		-1.0],
		"scale":[1.0,
		1.0,
		1.0],
		"mesh":0
	},
	{
		"name":"Path",
		"translation":[-145.445068359375,
		15.094820022583008,
		1947.2666015625],
		"rotation":[0.0,
		0.0,
		0.0,
		-1.0],
		"scale":[1.0,
		1.0,
		1.0],
		"mesh":1
	},
	{
		"name":"Path.1",
		"translation":[-85.1794662475586,
		-74.96012878417969,
		852.919677734375],
		"rotation":[0.0,
		0.0,
		0.0,
		-1.0],
		"scale":[1.0,
		1.0,
		1.0],
		"mesh":2
	}],
	"meshes":[{
		"name":"Path",
		"primitives":[{
			"attributes":{
				"POSITION":1,
				"NORMAL":2,
				"TEXCOORD_0":3
			},
			"indices":0,
			"material":0
		}]
	},
	{
		"name":"Path",
		"primitives":[{
			"attributes":{
				"POSITION":5,
				"NORMAL":6,
				"TEXCOORD_0":7
			},
			"indices":4,
			"material":1
		}]
	},
	{
		"name":"Path.1",
		"primitives":[{
			"attributes":{
				"POSITION":9,
				"NORMAL":10,
				"TEXCOORD_0":11
			},
			"indices":8,
			"material":2
		}]
	}],
	"cameras":[{
		"type":"perspective",
		"perspective":{
			"znear":0.009999999776482582,
			"zfar":10000000000.0,
			"aspectRatio":1.7777777910232545,
			"yfov":0.5483348965644836
		}
	}],
	"accessors":[{
		"bufferView":0,
		"max":[12049],
		"type":"SCALAR",
		"componentType":5123,
		"count":57708,
		"byteOffset":0,
		"min":[0]
	},
	{
		"bufferView":1,
		"max":[982.410888671875,
		576.7936401367188,
		1.0],
		"type":"VEC3",
		"componentType":5126,
		"count":12050,
		"byteOffset":0,
		"min":[-743.085693359375,
		-508.702880859375,
		-43.0]
	},
	{
		"bufferView":1,
		"max":[1.0,
		1.0,
		1.0],
		"type":"VEC3",
		"componentType":5126,
		"count":12050,
		"byteOffset":12,
		"min":[-1.0,
		-1.0,
		-1.0]
	},
	{
		"bufferView":1,
		"max":[1.0,
		1.0],
		"type":"VEC2",
		"componentType":5126,
		"count":12050,
		"byteOffset":24,
		"min":[-0.032392941415309909,
		-0.27591168880462649]
	},
	{
		"bufferView":2,
		"max":[11131],
		"type":"SCALAR",
		"componentType":5123,
		"count":55200,
		"byteOffset":0,
		"min":[0]
	},
	{
		"bufferView":3,
		"max":[942.5369262695313,
		582.8172607421875,
		1.0],
		"type":"VEC3",
		"componentType":5126,
		"count":11132,
		"byteOffset":0,
		"min":[-783.4630737304688,
		-503.1827087402344,
		-43.0]
	},
	{
		"bufferView":3,
		"max":[1.0,
		1.0,
		1.0],
		"type":"VEC3",
		"componentType":5126,
		"count":11132,
		"byteOffset":12,
		"min":[-1.0,
		-1.0,
		-1.0]
	},
	{
		"bufferView":3,
		"max":[1.5315585136413575,
		1.0],
		"type":"VEC2",
		"componentType":5126,
		"count":11132,
		"byteOffset":24,
		"min":[0.0,
		-0.09906479716300965]
	},
	{
		"bufferView":4,
		"max":[12049],
		"type":"SCALAR",
		"componentType":5123,
		"count":57708,
		"byteOffset":0,
		"min":[0]
	},
	{
		"bufferView":5,
		"max":[982.410888671875,
		576.7936401367188,
		1.0],
		"type":"VEC3",
		"componentType":5126,
		"count":12050,
		"byteOffset":0,
		"min":[-743.085693359375,
		-508.702880859375,
		-43.0]
	},
	{
		"bufferView":5,
		"max":[1.0,
		1.0,
		1.0],
		"type":"VEC3",
		"componentType":5126,
		"count":12050,
		"byteOffset":12,
		"min":[-1.0,
		-1.0,
		-1.0]
	},
	{
		"bufferView":5,
		"max":[1.0,
		1.0],
		"type":"VEC2",
		"componentType":5126,
		"count":12050,
		"byteOffset":24,
		"min":[-0.032392941415309909,
		-0.27591168880462649]
	}],
	"bufferViews":[{
		"buffer":0,
		"byteOffset":0,
		"byteLength":115416,
		"target":34963
	},
	{
		"buffer":0,
		"byteOffset":115416,
		"byteLength":385600,
		"target":34962,
		"byteStride":32
	},
	{
		"buffer":1,
		"byteOffset":0,
		"byteLength":110400,
		"target":34963
	},
	{
		"buffer":1,
		"byteOffset":110400,
		"byteLength":356224,
		"target":34962,
		"byteStride":32
	},
	{
		"buffer":2,
		"byteOffset":0,
		"byteLength":115416,
		"target":34963
	},
	{
		"buffer":2,
		"byteOffset":115416,
		"byteLength":385600,
		"target":34962,
		"byteStride":32
	}],
	"buffers":[{
		"uri":"data:application/octet-stream;base64,",
		"byteLength":501016
	},
	{
		"uri":"data:application/octet-stream;base64,",
		"byteLength":466624
	},
	{
		"uri":"data:application/octet-stream;base64,",
		"byteLength":501016
	}],
	"materials":[{
		"pbrMetallicRoughness":{
			"baseColorFactor":[1.0,
			1.0,
			1.0,
			1.0],
			"metallicFactor":0.09,
			"roughnessFactor":0.35000000000000006
		},
		"emissiveFactor":[0.0,
		0.0,
		0.0],
		"alphaMode":"OPAQUE",
		"doubleSided":true,
		"name":"Metal - Crumpled"
	},
	{
		"pbrMetallicRoughness":{
			"baseColorFactor":[1.0,
			1.0,
			1.0,
			0.0],
			"metallicFactor":1.0,
			"roughnessFactor":1.0
		},
		"emissiveFactor":[0.0,
		0.0,
		0.0],
		"alphaMode":"BLEND",
		"doubleSided":true,
		"name":"Glass"
	},
	{
		"pbrMetallicRoughness":{
			"baseColorFactor":[0.5306122448979591,
			0.5080914353318967,
			0.39548738750158449,
			1.0],
			"metallicFactor":1.0,
			"roughnessFactor":0.0
		},
		"emissiveFactor":[1.0,
		1.0,
		1.0],
		"alphaMode":"OPAQUE",
		"doubleSided":true,
		"name":"Milk"
	}]
}