{
	"asset":{
		"version":"2.0",
		"generator":"Created using the official Cinema 4D glTF Exporter 1.000x284978"
	},
	"scenes":[{
		"nodes":[0,
		3]
	}],
	"nodes":[{
		"name":"framex2",
		"translation":[-2805.710205078125,
		1050.592529296875,
		2402.515380859375],
		"rotation":[0.0,
		0.0,
		7.450580596923828e-9,
		-1.0],
		"scale":[0.28999999165534975,
		0.2800000011920929,
		0.28999999165534975],
		"children":[1,
		2]
	},
	{
		"name":"Path",
		"translation":[20.061967849731447,
		-2.8850784301757814,
		212.5485076904297],
		"rotation":[0.0,
		0.0,
		0.0,
		-1.0],
		"scale":[1.0,
		1.0,
		1.0],
		"mesh":0
	},
	{
		"name":"Path",
		"translation":[-20.061967849731447,
		2.8850784301757814,
		-459.4910888671875],
		"rotation":[0.0,
		0.0,
		0.0,
		-1.0],
		"scale":[1.0,
		1.0,
		1.0],
		"mesh":1
	},
	{
		"name":"OctaneCamera",
		"translation":[-3350.264892578125,
		1053.381591796875,
		2981.763671875],
		"rotation":[-0.01134525053203106,
		-0.26182597875595095,
		-0.0030780802480876447,
		0.9650434851646423],
		"scale":[1.0,
		1.0,
		1.0],
		"camera":0
	}],
	"meshes":[{
		"name":"Path",
		"primitives":[{
			"attributes":{
				"POSITION":1,
				"NORMAL":2,
				"TEXCOORD_0":3
			},
			"indices":0,
			"material":0
		}]
	},
	{
		"name":"Path",
		"primitives":[{
			"attributes":{
				"POSITION":5,
				"NORMAL":6,
				"TEXCOORD_0":7
			},
			"indices":4,
			"material":1
		}]
	}],
	"cameras":[{
		"type":"perspective",
		"perspective":{
			"znear":0.009999999776482582,
			"zfar":10000000000.0,
			"aspectRatio":1.7777777910232545,
			"yfov":0.5483348965644836
		}
	}],
	"accessors":[{
		"bufferView":0,
		"max":[10475],
		"type":"SCALAR",
		"componentType":5123,
		"count":51318,
		"byteOffset":0,
		"min":[0]
	},
	{
		"bufferView":1,
		"max":[941.5369262695313,
		581.8172607421875,
		-342.87615966796877],
		"type":"VEC3",
		"componentType":5126,
		"count":10476,
		"byteOffset":0,
		"min":[-782.4630737304688,
		-502.1827087402344,
		-404.3320007324219]
	},
	{
		"bufferView":1,
		"max":[1.0,
		1.0,
		1.0],
		"type":"VEC3",
		"componentType":5126,
		"count":10476,
		"byteOffset":12,
		"min":[-1.0,
		-1.0,
		-1.0]
	},
	{
		"bufferView":1,
		"max":[1.0,
		1.0],
		"type":"VEC2",
		"componentType":5126,
		"count":10476,
		"byteOffset":24,
		"min":[0.0,
		0.0]
	},
	{
		"bufferView":2,
		"max":[7985],
		"type":"SCALAR",
		"componentType":5123,
		"count":35856,
		"byteOffset":0,
		"min":[0]
	},
	{
		"bufferView":3,
		"max":[981.410888671875,
		575.7936401367188,
		9.656854629516602],
		"type":"VEC3",
		"componentType":5126,
		"count":7986,
		"byteOffset":0,
		"min":[-742.085693359375,
		-507.702880859375,
		-51.798988342285159]
	},
	{
		"bufferView":3,
		"max":[1.0,
		1.0,
		1.0],
		"type":"VEC3",
		"componentType":5126,
		"count":7986,
		"byteOffset":12,
		"min":[-1.0,
		-1.0,
		-1.0]
	},
	{
		"bufferView":3,
		"max":[1.0,
		1.0],
		"type":"VEC2",
		"componentType":5126,
		"count":7986,
		"byteOffset":24,
		"min":[0.0,
		0.0]
	}],
	"bufferViews":[{
		"buffer":0,
		"byteOffset":0,
		"byteLength":102636,
		"target":34963
	},
	{
		"buffer":0,
		"byteOffset":102636,
		"byteLength":335232,
		"target":34962,
		"byteStride":32
	},
	{
		"buffer":1,
		"byteOffset":0,
		"byteLength":71712,
		"target":34963
	},
	{
		"buffer":1,
		"byteOffset":71712,
		"byteLength":255552,
		"target":34962,
		"byteStride":32
	}],
	"buffers":[{
		"uri":"data:application/octet-stream;base64,",
		"byteLength":437868
	},
	{
		"uri":"data:application/octet-stream;base64,",
		"byteLength":327264
	}],
	"materials":[{
		"pbrMetallicRoughness":{
			"baseColorFactor":[1.0,
			1.0,
			1.0,
			0.0],
			"metallicFactor":1.0,
			"roughnessFactor":1.0
		},
		"emissiveFactor":[0.0,
		0.0,
		0.0],
		"alphaMode":"BLEND",
		"doubleSided":true,
		"name":"Glass Red (Colored Volume)"
	},
	{
		"pbrMetallicRoughness":{
			"baseColorFactor":[1.0,
			1.0,
			1.0,
			0.5],
			"metallicFactor":1.0,
			"roughnessFactor":0.0
		},
		"emissiveFactor":[0.45,
		0.45,
		0.45],
		"alphaMode":"BLEND",
		"doubleSided":true,
		"name":"Deep Blue Sea"
	}]
}