<svg width="121" height="32" viewBox="0 0 121 32" fill="none" xmlns="http://www.w3.org/2000/svg">
<g clip-path="url(#clip0_3542_1853)">
<path d="M64.0506 -3.3438L61.2492 -3.3438L61.2492 -9.51172L64.0506 -9.51172L64.0506 -3.3438ZM45.566 7.30348L42.7647 7.30348L42.7647 1.13556L45.566 1.13556L45.566 7.30348ZM64.0506 7.30348L61.2492 7.30348L61.2492 0.303009L42.7647 0.303007L42.7647 -9.51172L45.566 -9.51172L45.566 -2.49952L64.0506 -2.51125L64.0506 7.30348Z" fill="white"/>
<path d="M54.8024 24.114L52.001 24.114L52.001 10.9456L54.8024 10.9456L54.8024 24.114ZM64.0506 10.1013L42.7646 10.1013L42.7647 7.29879L64.0506 7.29879L64.0506 10.1013Z" fill="white"/>
<path d="M59.4441 40.9245L42.7646 40.9245L42.7646 38.122L59.4441 38.122C59.9989 38.122 60.4638 37.9343 60.8389 37.5591C61.2218 37.176 61.4133 36.7109 61.4133 36.1637L61.4133 28.8818C61.4133 28.3268 61.2218 27.8616 60.8389 27.4864C60.4638 27.1033 59.9989 26.9118 59.4441 26.9118L43.0626 26.9388L43.0626 24.1363L59.4441 24.1093C60.3193 24.1093 61.1163 24.3243 61.8352 24.7542C62.562 25.1842 63.1402 25.7627 63.57 26.4897C63.9998 27.2089 64.2147 28.0063 64.2147 28.8818L64.2147 36.1637C64.2147 37.0314 63.9998 37.8288 63.57 38.5558C63.1402 39.275 62.562 39.8496 61.8352 40.2796C61.1163 40.7095 60.3193 40.9245 59.4441 40.9245Z" fill="white"/>
<path d="M57.6038 57.735L49.1997 57.735L49.1997 54.9325L52.001 54.9325L52.001 44.5666L54.8024 44.5666L54.8024 54.9325L57.6038 54.9325L57.6038 57.735ZM57.6038 43.7223L49.1997 43.7223L49.1997 40.9198L57.6038 40.9198L57.6038 43.7223Z" fill="white"/>
<path d="M37.8606 -3.3438L40.6042 -3.3438L40.6042 -9.51172L37.8606 -9.51172L37.8606 -3.3438ZM55.964 7.30348L59.1499 7.30348L59.1499 1.13556L55.964 1.13556L55.964 7.30348ZM37.8606 7.30347L40.6042 7.30347L40.6042 0.303006L59.1499 0.303007L59.1499 -9.51172L55.964 -9.51172L55.964 -2.49953L37.8606 -2.51125L37.8606 7.30347Z" fill="white"/>
<path d="M46.9181 24.114L49.6617 24.114L49.6617 10.9456L46.9181 10.9456L46.9181 24.114ZM37.8606 10.1013L59.1499 10.1013L59.1499 7.29879L37.8606 7.29878L37.8606 10.1013Z" fill="white"/>
<path d="M42.3721 40.9245L58.547 40.9245L58.547 38.122L42.3721 38.122C41.8287 38.122 41.3734 37.9343 41.006 37.5591C40.631 37.176 40.4435 36.7109 40.4435 36.1637L40.4435 28.8818C40.4435 28.3268 40.631 27.8616 41.006 27.4864C41.3734 27.1033 41.8287 26.9118 42.3721 26.9118L58.547 26.9118L58.547 24.1093L42.3721 24.1093C41.515 24.1093 40.7343 24.3243 40.0303 24.7542C39.3185 25.1842 38.7522 25.7627 38.3313 26.4897C37.9104 27.2089 37.6999 28.0063 37.6999 28.8818L37.6999 36.1637C37.6999 37.0314 37.9104 37.8288 38.3313 38.5558C38.7522 39.275 39.3185 39.8496 40.0303 40.2795C40.7343 40.7095 41.515 40.9245 42.3721 40.9245Z" fill="white"/>
<path d="M44.1744 57.735L52.4053 57.735L52.4053 54.9325L49.6617 54.9325L49.6617 44.5666L46.9181 44.5666L46.9181 54.9325L44.1744 54.9325L44.1744 57.735ZM44.1744 43.7223L52.4053 43.7223L52.4053 40.9198L44.1744 40.9198L44.1744 43.7223Z" fill="white"/>
</g>
<g clip-path="url(#clip1_3542_1853)">
<path d="M36.1472 13.5839L33.3459 13.5839L33.3459 7.41602L36.1472 7.41602L36.1472 13.5839ZM17.6627 24.2312L14.8613 24.2312L14.8613 18.0633L17.6627 18.0633L17.6627 24.2312ZM36.1472 24.2312L33.3459 24.2312L33.3459 17.2307L14.8613 17.2307L14.8613 7.41602L17.6627 7.41602L17.6627 14.4282L36.1472 14.4165L36.1472 24.2312Z" fill="white"/>
<path d="M26.8991 41.0417L24.0977 41.0417L24.0977 27.8733L26.8991 27.8733L26.8991 41.0417ZM36.1472 27.0291L14.8613 27.0291L14.8613 24.2265L36.1472 24.2265L36.1472 27.0291Z" fill="white"/>
<path d="M31.5408 57.8522L14.8613 57.8522L14.8613 55.0497L31.5408 55.0497C32.0956 55.0497 32.5605 54.8621 32.9356 54.4868C33.3185 54.1038 33.5099 53.6387 33.5099 53.0914L33.5099 45.8095C33.5099 45.2545 33.3185 44.7894 32.9356 44.4141C32.5605 44.0311 32.0956 43.8396 31.5408 43.8396L15.1592 43.8666L15.1592 41.064L31.5408 41.037C32.416 41.037 33.213 41.252 33.9319 41.682C34.6586 42.1119 35.2369 42.6904 35.6667 43.4174C36.0964 44.1366 36.3113 44.934 36.3113 45.8095L36.3113 53.0914C36.3113 53.9592 36.0964 54.7565 35.6667 55.4836C35.2369 56.2028 34.6586 56.7773 33.9319 57.2073C33.213 57.6372 32.416 57.8522 31.5408 57.8522Z" fill="white"/>
<path d="M29.7005 74.6627L21.2963 74.6627L21.2963 71.8602L24.0977 71.8602L24.0977 61.4943L26.8991 61.4943L26.8991 71.8602L29.7005 71.8602L29.7005 74.6627ZM29.7005 60.6501L21.2963 60.6501L21.2963 57.8475L29.7005 57.8475L29.7005 60.6501Z" fill="white"/>
<path d="M9.95728 13.5839L12.7009 13.5839L12.7009 7.41601L9.95728 7.41601L9.95728 13.5839ZM28.0607 24.2312L31.2466 24.2312L31.2466 18.0633L28.0607 18.0633L28.0607 24.2312ZM9.95728 24.2312L12.7009 24.2312L12.7009 17.2307L31.2466 17.2307L31.2466 7.41602L28.0607 7.41602L28.0607 14.4282L9.95728 14.4165L9.95728 24.2312Z" fill="white"/>
<path d="M19.0147 41.0417L21.7584 41.0417L21.7584 27.8733L19.0147 27.8733L19.0147 41.0417ZM9.95728 27.0291L31.2466 27.0291L31.2466 24.2265L9.95728 24.2265L9.95728 27.0291Z" fill="white"/>
<path d="M14.4688 57.8522L30.6436 57.8522L30.6436 55.0497L14.4688 55.0497C13.9254 55.0497 13.4701 54.8621 13.1027 54.4868C12.7277 54.1038 12.5402 53.6386 12.5402 53.0914L12.5402 45.8095C12.5402 45.2545 12.7277 44.7894 13.1027 44.4141C13.4701 44.0311 13.9254 43.8396 14.4688 43.8396L30.6436 43.8396L30.6436 41.037L14.4688 41.037C13.6116 41.037 12.831 41.252 12.1269 41.682C11.4152 42.1119 10.8489 42.6904 10.428 43.4174C10.007 44.1366 9.79657 44.934 9.79657 45.8095L9.79657 53.0914C9.79657 53.9592 10.007 54.7565 10.428 55.4835C10.8489 56.2027 11.4152 56.7773 12.1269 57.2073C12.831 57.6372 13.6116 57.8522 14.4688 57.8522Z" fill="white"/>
<path d="M16.2711 74.6627L24.502 74.6627L24.502 71.8602L21.7584 71.8602L21.7584 61.4943L19.0147 61.4943L19.0147 71.8602L16.2711 71.8602L16.2711 74.6627ZM16.2711 60.6501L24.502 60.6501L24.502 57.8475L16.2711 57.8475L16.2711 60.6501Z" fill="white"/>
</g>
<g clip-path="url(#clip2_3542_1853)">
<path d="M119.86 -36.9297L117.058 -36.9297L117.058 -43.0977L119.86 -43.0977L119.86 -36.9297ZM101.375 -26.2825L98.5737 -26.2825L98.5737 -32.4504L101.375 -32.4504L101.375 -26.2825ZM119.86 -26.2825L117.058 -26.2825L117.058 -33.2829L98.5737 -33.2829L98.5737 -43.0977L101.375 -43.0977L101.375 -36.0855L119.86 -36.0972L119.86 -26.2825Z" fill="white"/>
<path d="M110.612 -9.47195L107.81 -9.47195L107.81 -22.6403L110.612 -22.6403L110.612 -9.47195ZM119.86 -23.4846L98.5737 -23.4846L98.5737 -26.2872L119.86 -26.2871L119.86 -23.4846Z" fill="white"/>
<path d="M115.253 7.33855L98.5737 7.33855L98.5737 4.53602L115.253 4.53602C115.808 4.53602 116.273 4.3484 116.648 3.97317C117.031 3.59011 117.222 3.12498 117.222 2.57777L117.222 -4.70413C117.222 -5.25916 117.031 -5.7243 116.648 -6.09953C116.273 -6.48259 115.808 -6.67411 115.253 -6.67411L98.8716 -6.6471L98.8716 -9.44964L115.253 -9.47664C116.128 -9.47664 116.925 -9.26166 117.644 -8.83171C118.371 -8.40175 118.949 -7.82327 119.379 -7.09625C119.809 -6.37705 120.024 -5.57968 120.024 -4.70413L120.024 2.57777C120.024 3.4455 119.809 4.24287 119.379 4.96988C118.949 5.68908 118.371 6.26366 117.644 6.69362C116.925 7.12357 116.128 7.33855 115.253 7.33855Z" fill="white"/>
<path d="M113.413 24.1491L105.009 24.1491L105.009 21.3465L107.81 21.3465L107.81 10.9807L110.612 10.9807L110.612 21.3465L113.413 21.3465L113.413 24.1491ZM113.413 10.1364L105.009 10.1364L105.009 7.33386L113.413 7.33386L113.413 10.1364Z" fill="white"/>
<path d="M93.6697 -36.9297L96.4133 -36.9297L96.4133 -43.0977L93.6697 -43.0977L93.6697 -36.9297ZM111.773 -26.2825L114.959 -26.2825L114.959 -32.4504L111.773 -32.4504L111.773 -26.2825ZM93.6697 -26.2825L96.4133 -26.2825L96.4133 -33.2829L114.959 -33.2829L114.959 -43.0977L111.773 -43.0977L111.773 -36.0855L93.6697 -36.0972L93.6697 -26.2825Z" fill="white"/>
<path d="M102.727 -9.47196L105.471 -9.47196L105.471 -22.6403L102.727 -22.6403L102.727 -9.47196ZM93.6697 -23.4846L114.959 -23.4846L114.959 -26.2872L93.6697 -26.2872L93.6697 -23.4846Z" fill="white"/>
<path d="M98.1812 7.33854L114.356 7.33855L114.356 4.53602L98.1812 4.53601C97.6378 4.53601 97.1825 4.34839 96.8151 3.97316C96.4401 3.59011 96.2526 3.12498 96.2526 2.57776L96.2526 -4.70413C96.2526 -5.25917 96.4401 -5.72431 96.8151 -6.09954C97.1825 -6.48259 97.6378 -6.67411 98.1812 -6.67411L114.356 -6.67411L114.356 -9.47665L98.1812 -9.47665C97.3241 -9.47665 96.5434 -9.26167 95.8393 -8.83172C95.1276 -8.40176 94.5613 -7.82327 94.1404 -7.09626C93.7194 -6.37706 93.509 -5.57968 93.509 -4.70413L93.509 2.57776C93.509 3.44549 93.7194 4.24286 94.1404 4.96988C94.5613 5.68908 95.1276 6.26366 95.8393 6.69361C96.5434 7.12357 97.324 7.33854 98.1812 7.33854Z" fill="white"/>
<path d="M99.9835 24.149L108.214 24.149L108.214 21.3465L105.471 21.3465L105.471 10.9807L102.727 10.9807L102.727 21.3465L99.9835 21.3465L99.9835 24.149ZM99.9835 10.1364L108.214 10.1364L108.214 7.33385L99.9835 7.33385L99.9835 10.1364Z" fill="white"/>
</g>
<g clip-path="url(#clip3_3542_1853)">
<path d="M91.9553 -20.1368L89.154 -20.1368L89.154 -26.3047L91.9553 -26.3047L91.9553 -20.1368ZM73.4708 -9.48949L70.6694 -9.48949L70.6694 -15.6574L73.4708 -15.6574L73.4708 -9.48949ZM91.9553 -9.48949L89.154 -9.48949L89.154 -16.49L70.6694 -16.49L70.6694 -26.3047L73.4708 -26.3047L73.4708 -19.2925L91.9553 -19.3042L91.9553 -9.48949Z" fill="white"/>
<path d="M82.7072 7.32101L79.9058 7.32101L79.9058 -5.84737L82.7072 -5.84737L82.7072 7.32101ZM91.9553 -6.69165L70.6694 -6.69165L70.6694 -9.49418L91.9553 -9.49418L91.9553 -6.69165Z" fill="white"/>
<path d="M87.3489 24.1315L70.6694 24.1315L70.6694 21.329L87.3489 21.329C87.9037 21.329 88.3686 21.1414 88.7437 20.7661C89.1266 20.3831 89.318 19.9179 89.318 19.3707L89.3181 12.0888C89.3181 11.5338 89.1266 11.0687 88.7437 10.6934C88.3686 10.3104 87.9037 10.1189 87.3489 10.1189L70.9673 10.1459L70.9673 7.34333L87.3489 7.31632C88.2241 7.31632 89.0211 7.5313 89.74 7.96126C90.4667 8.39121 91.045 8.9697 91.4748 9.69672C91.9046 10.4159 92.1194 11.2133 92.1194 12.0888L92.1194 19.3707C92.1194 20.2385 91.9046 21.0358 91.4748 21.7628C91.045 22.482 90.4667 23.0566 89.74 23.4866C89.0211 23.9165 88.2241 24.1315 87.3489 24.1315Z" fill="white"/>
<path d="M85.5086 40.942L77.1044 40.942L77.1044 38.1395L79.9058 38.1395L79.9058 27.7736L82.7072 27.7736L82.7072 38.1395L85.5086 38.1395L85.5086 40.942ZM85.5086 26.9294L77.1044 26.9294L77.1044 24.1268L85.5086 24.1268L85.5086 26.9294Z" fill="white"/>
<path d="M65.7654 -20.1368L68.509 -20.1368L68.509 -26.3047L65.7654 -26.3047L65.7654 -20.1368ZM83.8688 -9.48949L87.0547 -9.48949L87.0547 -15.6574L83.8688 -15.6574L83.8688 -9.48949ZM65.7654 -9.48949L68.509 -9.48949L68.509 -16.49L87.0547 -16.49L87.0547 -26.3047L83.8688 -26.3047L83.8688 -19.2925L65.7654 -19.3042L65.7654 -9.48949Z" fill="white"/>
<path d="M74.8228 7.32101L77.5665 7.32101L77.5665 -5.84737L74.8228 -5.84737L74.8228 7.32101ZM65.7654 -6.69165L87.0547 -6.69165L87.0547 -9.49418L65.7654 -9.49419L65.7654 -6.69165Z" fill="white"/>
<path d="M70.2769 24.1315L86.4517 24.1315L86.4517 21.329L70.2769 21.329C69.7335 21.329 69.2782 21.1414 68.9108 20.7661C68.5358 20.3831 68.3483 19.9179 68.3483 19.3707L68.3483 12.0888C68.3483 11.5338 68.5358 11.0687 68.9108 10.6934C69.2782 10.3104 69.7335 10.1189 70.2769 10.1189L86.4517 10.1189L86.4517 7.31632L70.2769 7.31632C69.4198 7.31632 68.6391 7.5313 67.935 7.96125C67.2233 8.39121 66.657 8.9697 66.2361 9.69671C65.8151 10.4159 65.6047 11.2133 65.6047 12.0888L65.6047 19.3707C65.6047 20.2385 65.8151 21.0358 66.2361 21.7628C66.657 22.482 67.2233 23.0566 67.935 23.4866C68.6391 23.9165 69.4198 24.1315 70.2769 24.1315Z" fill="white"/>
<path d="M72.0792 40.942L80.3101 40.942L80.3101 38.1395L77.5665 38.1395L77.5665 27.7736L74.8228 27.7736L74.8228 38.1395L72.0792 38.1395L72.0792 40.942ZM72.0792 26.9294L80.3101 26.9294L80.3101 24.1268L72.0792 24.1268L72.0792 26.9294Z" fill="white"/>
</g>
<defs>
<clipPath id="clip0_3542_1853">
<rect width="26.5153" height="16.793" fill="white" transform="translate(37.7002 7.34766)"/>
</clipPath>
<clipPath id="clip1_3542_1853">
<rect width="26.5153" height="16.793" fill="white" transform="translate(9.7959 7.34766)"/>
</clipPath>
<clipPath id="clip2_3542_1853">
<rect width="26.5153" height="16.793" fill="white" transform="translate(93.5083 7.34766)"/>
</clipPath>
<clipPath id="clip3_3542_1853">
<rect width="26.5153" height="16.793" fill="white" transform="translate(65.6045 7.34766)"/>
</clipPath>
</defs>
</svg>
