<svg width="166" height="57" viewBox="0 0 166 57" fill="none" xmlns="http://www.w3.org/2000/svg">
<path d="M13.9677 43.0643V45.1831H16.0864H23.2174H25.3362V43.0643V29.3483L28.8486 43.5722L29.2464 45.1831H30.9056H43.0506H44.7098L45.1076 43.5722L48.62 29.3483V43.0643V45.1831H50.7387H57.8698H59.9885V43.0643V11.6362V9.51748H57.8698H44.2205H42.5601L42.1632 11.1298L36.9781 32.1957L31.793 11.1298L31.3961 9.51748H29.7356H16.0864H13.9677V11.6362V43.0643Z" fill="black" stroke="white" stroke-width="4.23749"/>
<path d="M35.5797 48.7324L37.0178 50.6408L38.4471 48.7258L63.8635 14.6745L66.0013 11.8104L62.4272 11.8104L11.3503 11.8104L7.75568 11.8104L9.91905 14.6811L35.5797 48.7324Z" fill="#ED75B2" stroke="white" stroke-width="3.58435"/>
<g clip-path="url(#clip0_94_795)">
<path d="M13.9374 43.0643V45.1831H16.0562H23.1977H25.3165V43.0643V29.3232L28.8405 43.573L29.2387 45.1831H30.8973H43.0603H44.7189L45.1171 43.573L48.6411 29.3232V43.0643V45.1831H50.7598H57.9014H60.0201V43.0643V11.6362V9.51748H57.9014H44.232H42.5721L42.1748 11.1291L36.9788 32.2081L31.7828 11.1291L31.3855 9.51748H29.7256H16.0562H13.9374V11.6362V43.0643Z" fill="black" stroke="white" stroke-width="4.23749"/>
</g>
<mask id="path-4-outside-1_94_795" maskUnits="userSpaceOnUse" x="58.0083" y="9.18311" width="104" height="39" fill="black">
<rect fill="white" x="58.0083" y="9.18311" width="104" height="39"/>
<path d="M67.3418 45.0766C66.1387 45.0766 65.0604 44.8723 64.107 44.4637C63.1535 44.0324 62.3931 43.4195 61.8255 42.625C61.2807 41.8077 61.0083 40.8202 61.0083 39.6625C61.0083 38.5047 61.2807 37.54 61.8255 36.7681C62.3931 35.9736 63.1649 35.3834 64.141 34.9975C65.1399 34.5889 66.2749 34.3845 67.5461 34.3845H72.1771V33.4311C72.1771 32.6366 71.9274 31.9896 71.428 31.4902C70.9286 30.9681 70.134 30.707 69.0444 30.707C67.9775 30.707 67.1829 30.9567 66.6608 31.4561C66.1387 31.9329 65.7982 32.5571 65.6393 33.329L61.6893 32.001C61.9617 31.1383 62.3931 30.3551 62.9833 29.6514C63.5962 28.925 64.4021 28.3461 65.4009 27.9148C66.4225 27.4608 67.6597 27.2338 69.1125 27.2338C71.3372 27.2338 73.0965 27.7899 74.3905 28.9023C75.6844 30.0146 76.3314 31.6264 76.3314 33.7376V40.0371C76.3314 40.7181 76.6492 41.0586 77.2848 41.0586H78.6469V44.5999H75.7866C74.9466 44.5999 74.2543 44.3956 73.7094 43.987C73.1646 43.5784 72.8922 43.0336 72.8922 42.3525V42.3185H72.2452C72.1544 42.5909 71.9501 42.9541 71.6323 43.4081C71.3145 43.8394 70.8151 44.2254 70.134 44.5659C69.453 44.9064 68.5223 45.0766 67.3418 45.0766ZM68.091 41.6034C69.2941 41.6034 70.2703 41.2743 71.0194 40.6159C71.7912 39.9349 72.1771 39.0382 72.1771 37.9259V37.5854H67.8526C67.0581 37.5854 66.4338 37.7556 65.9798 38.0961C65.5258 38.4366 65.2988 38.9134 65.2988 39.5263C65.2988 40.1392 65.5371 40.6386 66.0138 41.0245C66.4906 41.4105 67.1829 41.6034 68.091 41.6034Z"/>
<path d="M78.3787 44.5999V27.7105H82.6011V29.6174H83.214C83.4637 28.9363 83.8723 28.4369 84.4398 28.1191C85.0301 27.8013 85.7111 27.6424 86.4829 27.6424H88.526V31.4561H86.4148C85.3252 31.4561 84.4285 31.7512 83.7248 32.3415C83.021 32.909 82.6692 33.7943 82.6692 34.9975V44.5999H78.3787Z"/>
<path d="M88.4744 44.5999V27.7105H92.7648V44.5999H88.4744ZM90.6196 25.7355C89.8478 25.7355 89.1895 25.4858 88.6446 24.9864C88.1225 24.487 87.8615 23.8286 87.8615 23.0114C87.8615 22.1942 88.1225 21.5359 88.6446 21.0364C89.1895 20.537 89.8478 20.2873 90.6196 20.2873C91.4141 20.2873 92.0725 20.537 92.5946 21.0364C93.1167 21.5359 93.3778 22.1942 93.3778 23.0114C93.3778 23.8286 93.1167 24.487 92.5946 24.9864C92.0725 25.4858 91.4141 25.7355 90.6196 25.7355Z"/>
<path d="M106.804 45.2356C102.869 45.2356 99.7515 44.1459 97.4512 41.9666C95.1508 39.7571 94.0006 36.6092 94.0006 32.5231V24.8956C94.0006 20.8094 95.1508 17.6767 97.4512 15.4974C99.7515 13.2879 102.869 12.1831 106.804 12.1831C110.708 12.1831 113.72 13.2576 115.839 15.4066C117.988 17.5254 119.062 20.4462 119.062 24.1692V24.4416H113.16V23.9876C113.16 22.1109 112.63 20.5673 111.571 19.3566C110.542 18.1459 108.953 17.5405 106.804 17.5405C104.685 17.5405 103.02 18.1913 101.81 19.4928C100.599 20.7943 99.9936 22.565 99.9936 24.8048V32.6139C99.9936 34.8234 100.599 36.5941 101.81 37.9259C103.02 39.2274 104.685 39.8781 106.804 39.8781C108.953 39.8781 110.542 39.2728 111.571 38.0621C112.63 36.8211 113.16 35.2774 113.16 33.4311V32.6139H119.062V33.2495C119.062 36.9724 117.988 39.9084 115.839 42.0574C113.72 44.1762 110.708 45.2356 106.804 45.2356Z"/>
<path d="M126.829 45.0766C125.149 45.0766 123.639 44.7361 122.3 44.0551C120.96 43.3741 119.905 42.3866 119.133 41.0926C118.361 39.7987 117.975 38.2437 117.975 36.4276V35.8828C117.975 34.0667 118.361 32.5117 119.133 31.2178C119.905 29.9238 120.96 28.9363 122.3 28.2553C123.639 27.5743 125.149 27.2338 126.829 27.2338C128.508 27.2338 130.018 27.5743 131.357 28.2553C132.697 28.9363 133.752 29.9238 134.524 31.2178C135.296 32.5117 135.682 34.0667 135.682 35.8828V36.4276C135.682 38.2437 135.296 39.7987 134.524 41.0926C133.752 42.3866 132.697 43.3741 131.357 44.0551C130.018 44.7361 128.508 45.0766 126.829 45.0766ZM126.829 41.2629C128.145 41.2629 129.235 40.8429 130.097 40.003C130.96 39.1404 131.391 37.9145 131.391 36.3255V35.985C131.391 34.3959 130.96 33.1814 130.097 32.3415C129.258 31.4788 128.168 31.0475 126.829 31.0475C125.512 31.0475 124.422 31.4788 123.56 32.3415C122.697 33.1814 122.266 34.3959 122.266 35.985V36.3255C122.266 37.9145 122.697 39.1404 123.56 40.003C124.422 40.8429 125.512 41.2629 126.829 41.2629Z"/>
<path d="M136.237 44.5999V27.7105H140.528V44.5999H136.237ZM138.382 25.7355C137.61 25.7355 136.952 25.4858 136.407 24.9864C135.885 24.487 135.624 23.8286 135.624 23.0114C135.624 22.1942 135.885 21.5359 136.407 21.0364C136.952 20.537 137.61 20.2873 138.382 20.2873C139.177 20.2873 139.835 20.537 140.357 21.0364C140.879 21.5359 141.14 22.1942 141.14 23.0114C141.14 23.8286 140.879 24.487 140.357 24.9864C139.835 25.4858 139.177 25.7355 138.382 25.7355Z"/>
<path d="M141.877 44.5999V27.7105H146.099V29.9238H146.712C146.985 29.3336 147.495 28.7774 148.244 28.2553C148.994 27.7105 150.129 27.4381 151.65 27.4381C152.966 27.4381 154.113 27.7445 155.089 28.3575C156.088 28.9477 156.859 29.7763 157.404 30.8432C157.949 31.8874 158.221 33.1133 158.221 34.5207V44.5999H153.931V34.8613C153.931 33.59 153.613 32.6366 152.978 32.001C152.365 31.3653 151.479 31.0475 150.322 31.0475C149.005 31.0475 147.983 31.4902 147.257 32.3755C146.53 33.2381 146.167 34.4526 146.167 36.019V44.5999H141.877Z"/>
</mask>
<path d="M67.3418 45.0766C66.1387 45.0766 65.0604 44.8723 64.107 44.4637C63.1535 44.0324 62.3931 43.4195 61.8255 42.625C61.2807 41.8077 61.0083 40.8202 61.0083 39.6625C61.0083 38.5047 61.2807 37.54 61.8255 36.7681C62.3931 35.9736 63.1649 35.3834 64.141 34.9975C65.1399 34.5889 66.2749 34.3845 67.5461 34.3845H72.1771V33.4311C72.1771 32.6366 71.9274 31.9896 71.428 31.4902C70.9286 30.9681 70.134 30.707 69.0444 30.707C67.9775 30.707 67.1829 30.9567 66.6608 31.4561C66.1387 31.9329 65.7982 32.5571 65.6393 33.329L61.6893 32.001C61.9617 31.1383 62.3931 30.3551 62.9833 29.6514C63.5962 28.925 64.4021 28.3461 65.4009 27.9148C66.4225 27.4608 67.6597 27.2338 69.1125 27.2338C71.3372 27.2338 73.0965 27.7899 74.3905 28.9023C75.6844 30.0146 76.3314 31.6264 76.3314 33.7376V40.0371C76.3314 40.7181 76.6492 41.0586 77.2848 41.0586H78.6469V44.5999H75.7866C74.9466 44.5999 74.2543 44.3956 73.7094 43.987C73.1646 43.5784 72.8922 43.0336 72.8922 42.3525V42.3185H72.2452C72.1544 42.5909 71.9501 42.9541 71.6323 43.4081C71.3145 43.8394 70.8151 44.2254 70.134 44.5659C69.453 44.9064 68.5223 45.0766 67.3418 45.0766ZM68.091 41.6034C69.2941 41.6034 70.2703 41.2743 71.0194 40.6159C71.7912 39.9349 72.1771 39.0382 72.1771 37.9259V37.5854H67.8526C67.0581 37.5854 66.4338 37.7556 65.9798 38.0961C65.5258 38.4366 65.2988 38.9134 65.2988 39.5263C65.2988 40.1392 65.5371 40.6386 66.0138 41.0245C66.4906 41.4105 67.1829 41.6034 68.091 41.6034Z" fill="#222222"/>
<path d="M78.3787 44.5999V27.7105H82.6011V29.6174H83.214C83.4637 28.9363 83.8723 28.4369 84.4398 28.1191C85.0301 27.8013 85.7111 27.6424 86.4829 27.6424H88.526V31.4561H86.4148C85.3252 31.4561 84.4285 31.7512 83.7248 32.3415C83.021 32.909 82.6692 33.7943 82.6692 34.9975V44.5999H78.3787Z" fill="#222222"/>
<path d="M88.4744 44.5999V27.7105H92.7648V44.5999H88.4744ZM90.6196 25.7355C89.8478 25.7355 89.1895 25.4858 88.6446 24.9864C88.1225 24.487 87.8615 23.8286 87.8615 23.0114C87.8615 22.1942 88.1225 21.5359 88.6446 21.0364C89.1895 20.537 89.8478 20.2873 90.6196 20.2873C91.4141 20.2873 92.0725 20.537 92.5946 21.0364C93.1167 21.5359 93.3778 22.1942 93.3778 23.0114C93.3778 23.8286 93.1167 24.487 92.5946 24.9864C92.0725 25.4858 91.4141 25.7355 90.6196 25.7355Z" fill="#222222"/>
<path d="M106.804 45.2356C102.869 45.2356 99.7515 44.1459 97.4512 41.9666C95.1508 39.7571 94.0006 36.6092 94.0006 32.5231V24.8956C94.0006 20.8094 95.1508 17.6767 97.4512 15.4974C99.7515 13.2879 102.869 12.1831 106.804 12.1831C110.708 12.1831 113.72 13.2576 115.839 15.4066C117.988 17.5254 119.062 20.4462 119.062 24.1692V24.4416H113.16V23.9876C113.16 22.1109 112.63 20.5673 111.571 19.3566C110.542 18.1459 108.953 17.5405 106.804 17.5405C104.685 17.5405 103.02 18.1913 101.81 19.4928C100.599 20.7943 99.9936 22.565 99.9936 24.8048V32.6139C99.9936 34.8234 100.599 36.5941 101.81 37.9259C103.02 39.2274 104.685 39.8781 106.804 39.8781C108.953 39.8781 110.542 39.2728 111.571 38.0621C112.63 36.8211 113.16 35.2774 113.16 33.4311V32.6139H119.062V33.2495C119.062 36.9724 117.988 39.9084 115.839 42.0574C113.72 44.1762 110.708 45.2356 106.804 45.2356Z" fill="#222222"/>
<path d="M126.829 45.0766C125.149 45.0766 123.639 44.7361 122.3 44.0551C120.96 43.3741 119.905 42.3866 119.133 41.0926C118.361 39.7987 117.975 38.2437 117.975 36.4276V35.8828C117.975 34.0667 118.361 32.5117 119.133 31.2178C119.905 29.9238 120.96 28.9363 122.3 28.2553C123.639 27.5743 125.149 27.2338 126.829 27.2338C128.508 27.2338 130.018 27.5743 131.357 28.2553C132.697 28.9363 133.752 29.9238 134.524 31.2178C135.296 32.5117 135.682 34.0667 135.682 35.8828V36.4276C135.682 38.2437 135.296 39.7987 134.524 41.0926C133.752 42.3866 132.697 43.3741 131.357 44.0551C130.018 44.7361 128.508 45.0766 126.829 45.0766ZM126.829 41.2629C128.145 41.2629 129.235 40.8429 130.097 40.003C130.96 39.1404 131.391 37.9145 131.391 36.3255V35.985C131.391 34.3959 130.96 33.1814 130.097 32.3415C129.258 31.4788 128.168 31.0475 126.829 31.0475C125.512 31.0475 124.422 31.4788 123.56 32.3415C122.697 33.1814 122.266 34.3959 122.266 35.985V36.3255C122.266 37.9145 122.697 39.1404 123.56 40.003C124.422 40.8429 125.512 41.2629 126.829 41.2629Z" fill="#222222"/>
<path d="M136.237 44.5999V27.7105H140.528V44.5999H136.237ZM138.382 25.7355C137.61 25.7355 136.952 25.4858 136.407 24.9864C135.885 24.487 135.624 23.8286 135.624 23.0114C135.624 22.1942 135.885 21.5359 136.407 21.0364C136.952 20.537 137.61 20.2873 138.382 20.2873C139.177 20.2873 139.835 20.537 140.357 21.0364C140.879 21.5359 141.14 22.1942 141.14 23.0114C141.14 23.8286 140.879 24.487 140.357 24.9864C139.835 25.4858 139.177 25.7355 138.382 25.7355Z" fill="#222222"/>
<path d="M141.877 44.5999V27.7105H146.099V29.9238H146.712C146.985 29.3336 147.495 28.7774 148.244 28.2553C148.994 27.7105 150.129 27.4381 151.65 27.4381C152.966 27.4381 154.113 27.7445 155.089 28.3575C156.088 28.9477 156.859 29.7763 157.404 30.8432C157.949 31.8874 158.221 33.1133 158.221 34.5207V44.5999H153.931V34.8613C153.931 33.59 153.613 32.6366 152.978 32.001C152.365 31.3653 151.479 31.0475 150.322 31.0475C149.005 31.0475 147.983 31.4902 147.257 32.3755C146.53 33.2381 146.167 34.4526 146.167 36.019V44.5999H141.877Z" fill="#222222"/>
<path d="M67.3418 45.0766C66.1387 45.0766 65.0604 44.8723 64.107 44.4637C63.1535 44.0324 62.3931 43.4195 61.8255 42.625C61.2807 41.8077 61.0083 40.8202 61.0083 39.6625C61.0083 38.5047 61.2807 37.54 61.8255 36.7681C62.3931 35.9736 63.1649 35.3834 64.141 34.9975C65.1399 34.5889 66.2749 34.3845 67.5461 34.3845H72.1771V33.4311C72.1771 32.6366 71.9274 31.9896 71.428 31.4902C70.9286 30.9681 70.134 30.707 69.0444 30.707C67.9775 30.707 67.1829 30.9567 66.6608 31.4561C66.1387 31.9329 65.7982 32.5571 65.6393 33.329L61.6893 32.001C61.9617 31.1383 62.3931 30.3551 62.9833 29.6514C63.5962 28.925 64.4021 28.3461 65.4009 27.9148C66.4225 27.4608 67.6597 27.2338 69.1125 27.2338C71.3372 27.2338 73.0965 27.7899 74.3905 28.9023C75.6844 30.0146 76.3314 31.6264 76.3314 33.7376V40.0371C76.3314 40.7181 76.6492 41.0586 77.2848 41.0586H78.6469V44.5999H75.7866C74.9466 44.5999 74.2543 44.3956 73.7094 43.987C73.1646 43.5784 72.8922 43.0336 72.8922 42.3525V42.3185H72.2452C72.1544 42.5909 71.9501 42.9541 71.6323 43.4081C71.3145 43.8394 70.8151 44.2254 70.134 44.5659C69.453 44.9064 68.5223 45.0766 67.3418 45.0766ZM68.091 41.6034C69.2941 41.6034 70.2703 41.2743 71.0194 40.6159C71.7912 39.9349 72.1771 39.0382 72.1771 37.9259V37.5854H67.8526C67.0581 37.5854 66.4338 37.7556 65.9798 38.0961C65.5258 38.4366 65.2988 38.9134 65.2988 39.5263C65.2988 40.1392 65.5371 40.6386 66.0138 41.0245C66.4906 41.4105 67.1829 41.6034 68.091 41.6034Z" stroke="white" stroke-width="5.67521" mask="url(#path-4-outside-1_94_795)"/>
<path d="M78.3787 44.5999V27.7105H82.6011V29.6174H83.214C83.4637 28.9363 83.8723 28.4369 84.4398 28.1191C85.0301 27.8013 85.7111 27.6424 86.4829 27.6424H88.526V31.4561H86.4148C85.3252 31.4561 84.4285 31.7512 83.7248 32.3415C83.021 32.909 82.6692 33.7943 82.6692 34.9975V44.5999H78.3787Z" stroke="white" stroke-width="5.67521" mask="url(#path-4-outside-1_94_795)"/>
<path d="M88.4744 44.5999V27.7105H92.7648V44.5999H88.4744ZM90.6196 25.7355C89.8478 25.7355 89.1895 25.4858 88.6446 24.9864C88.1225 24.487 87.8615 23.8286 87.8615 23.0114C87.8615 22.1942 88.1225 21.5359 88.6446 21.0364C89.1895 20.537 89.8478 20.2873 90.6196 20.2873C91.4141 20.2873 92.0725 20.537 92.5946 21.0364C93.1167 21.5359 93.3778 22.1942 93.3778 23.0114C93.3778 23.8286 93.1167 24.487 92.5946 24.9864C92.0725 25.4858 91.4141 25.7355 90.6196 25.7355Z" stroke="white" stroke-width="5.67521" mask="url(#path-4-outside-1_94_795)"/>
<path d="M106.804 45.2356C102.869 45.2356 99.7515 44.1459 97.4512 41.9666C95.1508 39.7571 94.0006 36.6092 94.0006 32.5231V24.8956C94.0006 20.8094 95.1508 17.6767 97.4512 15.4974C99.7515 13.2879 102.869 12.1831 106.804 12.1831C110.708 12.1831 113.72 13.2576 115.839 15.4066C117.988 17.5254 119.062 20.4462 119.062 24.1692V24.4416H113.16V23.9876C113.16 22.1109 112.63 20.5673 111.571 19.3566C110.542 18.1459 108.953 17.5405 106.804 17.5405C104.685 17.5405 103.02 18.1913 101.81 19.4928C100.599 20.7943 99.9936 22.565 99.9936 24.8048V32.6139C99.9936 34.8234 100.599 36.5941 101.81 37.9259C103.02 39.2274 104.685 39.8781 106.804 39.8781C108.953 39.8781 110.542 39.2728 111.571 38.0621C112.63 36.8211 113.16 35.2774 113.16 33.4311V32.6139H119.062V33.2495C119.062 36.9724 117.988 39.9084 115.839 42.0574C113.72 44.1762 110.708 45.2356 106.804 45.2356Z" stroke="white" stroke-width="5.67521" mask="url(#path-4-outside-1_94_795)"/>
<path d="M126.829 45.0766C125.149 45.0766 123.639 44.7361 122.3 44.0551C120.96 43.3741 119.905 42.3866 119.133 41.0926C118.361 39.7987 117.975 38.2437 117.975 36.4276V35.8828C117.975 34.0667 118.361 32.5117 119.133 31.2178C119.905 29.9238 120.96 28.9363 122.3 28.2553C123.639 27.5743 125.149 27.2338 126.829 27.2338C128.508 27.2338 130.018 27.5743 131.357 28.2553C132.697 28.9363 133.752 29.9238 134.524 31.2178C135.296 32.5117 135.682 34.0667 135.682 35.8828V36.4276C135.682 38.2437 135.296 39.7987 134.524 41.0926C133.752 42.3866 132.697 43.3741 131.357 44.0551C130.018 44.7361 128.508 45.0766 126.829 45.0766ZM126.829 41.2629C128.145 41.2629 129.235 40.8429 130.097 40.003C130.96 39.1404 131.391 37.9145 131.391 36.3255V35.985C131.391 34.3959 130.96 33.1814 130.097 32.3415C129.258 31.4788 128.168 31.0475 126.829 31.0475C125.512 31.0475 124.422 31.4788 123.56 32.3415C122.697 33.1814 122.266 34.3959 122.266 35.985V36.3255C122.266 37.9145 122.697 39.1404 123.56 40.003C124.422 40.8429 125.512 41.2629 126.829 41.2629Z" stroke="white" stroke-width="5.67521" mask="url(#path-4-outside-1_94_795)"/>
<path d="M136.237 44.5999V27.7105H140.528V44.5999H136.237ZM138.382 25.7355C137.61 25.7355 136.952 25.4858 136.407 24.9864C135.885 24.487 135.624 23.8286 135.624 23.0114C135.624 22.1942 135.885 21.5359 136.407 21.0364C136.952 20.537 137.61 20.2873 138.382 20.2873C139.177 20.2873 139.835 20.537 140.357 21.0364C140.879 21.5359 141.14 22.1942 141.14 23.0114C141.14 23.8286 140.879 24.487 140.357 24.9864C139.835 25.4858 139.177 25.7355 138.382 25.7355Z" stroke="white" stroke-width="5.67521" mask="url(#path-4-outside-1_94_795)"/>
<path d="M141.877 44.5999V27.7105H146.099V29.9238H146.712C146.985 29.3336 147.495 28.7774 148.244 28.2553C148.994 27.7105 150.129 27.4381 151.65 27.4381C152.966 27.4381 154.113 27.7445 155.089 28.3575C156.088 28.9477 156.859 29.7763 157.404 30.8432C157.949 31.8874 158.221 33.1133 158.221 34.5207V44.5999H153.931V34.8613C153.931 33.59 153.613 32.6366 152.978 32.001C152.365 31.3653 151.479 31.0475 150.322 31.0475C149.005 31.0475 147.983 31.4902 147.257 32.3755C146.53 33.2381 146.167 34.4526 146.167 36.019V44.5999H141.877Z" stroke="white" stroke-width="5.67521" mask="url(#path-4-outside-1_94_795)"/>
<defs>
<clipPath id="clip0_94_795">
<rect width="20.9798" height="31.4281" fill="white" transform="translate(36.8906 11.6362)"/>
</clipPath>
</defs>
</svg>
