{
    "asset": {
        "copyright": "2020 (c) Adobe Inc.",
        "generator": "Adobe Dimension - 3de52ae4ccc0c25be48106335282fae5a6a58dee",
        "version": "2.0"
    },
    "accessors": [
        {
            "bufferView": 0,
            "componentType": 5126,
            "count": 2048,
            "type": "VEC3",
            "max": [
                -0.44508448243141177,
                1.548993468284607,
                0.14154410362243653
            ],
            "min": [
                -1.2789249420166016,
                0.005000100005418062,
                -1.846025824546814
            ]
        },
        {
            "bufferView": 1,
            "componentType": 5126,
            "count": 2048,
            "type": "VEC3"
        },
        {
            "bufferView": 2,
            "componentType": 5126,
            "count": 2048,
            "type": "VEC2"
        },
        {
            "bufferView": 3,
            "componentType": 5125,
            "count": 5232,
            "type": "SCALAR",
            "max": [
                2047.0
            ],
            "min": [
                0.0
            ]
        }
    ],
    "bufferViews": [
        {
            "buffer": 0,
            "byteOffset": 0,
            "byteLength": 24576,
            "target": 34962
        },
        {
            "buffer": 0,
            "byteOffset": 24576,
            "byteLength": 24576,
            "target": 34962
        },
        {
            "buffer": 0,
            "byteOffset": 49152,
            "byteLength": 16384,
            "target": 34962
        },
        {
            "buffer": 0,
            "byteOffset": 65536,
            "byteLength": 20928,
            "target": 34963
        }
    ],
    "buffers": [
        {
            "byteLength": 86464,
            "uri": "NGTT_binary.bin"
        }
    ],
    "cameras": [
        {
            "perspective": {
                "znear": 0.000010000000656873454,
                "yfov": 0.6024156808853149,
                "zfar": 2.0,
                "aspectRatio": 1.3333333730697632
            },
            "type": "perspective",
            "name": "render_camera"
        }
    ],
    "images": [
        {
            "name": "texture555468_texture194832",
            "uri": "NGTT_images/texture555468_texture194832.png",
            "mimeType": "image/png"
        },
        {
            "name": "texture201320",
            "uri": "NGTT_images/texture201320.png",
            "mimeType": "image/png"
        },
        {
            "name": "2c60c7c7-0907-4d10-9122-08ca2f9041cd",
            "uri": "NGTT_images/2c60c7c7-0907-4d10-9122-08ca2f9041cd.png",
            "mimeType": "image/png"
        }
    ],
    "materials": [
        {
            "pbrMetallicRoughness": {
                "baseColorTexture": {
                    "index": 0
                },
                "metallicFactor": 0.9960784316062927,
                "metallicRoughnessTexture": {
                    "index": 1,
                    "extensions": {
                        "KHR_texture_transform": {
                            "offset": [
                                0,
                                -1.9600000381469729
                            ],
                            "rotation": 0,
                            "scale": [
                                3,
                                3
                            ]
                        }
                    }
                }
            },
            "normalTexture": {
                "index": 2,
                "extensions": {
                    "KHR_texture_transform": {
                        "offset": [
                            0,
                            -1.9600000381469729
                        ],
                        "rotation": 0,
                        "scale": [
                            3,
                            3
                        ]
                    }
                }
            },
            "emissiveTexture": {
                "index": 0
            },
            "emissiveFactor": [
                1.0,
                1.0,
                1.0
            ],
            "alphaMode": "MASK",
            "name": "Glowing 2",
            "doubleSided": true
        }
    ],
    "meshes": [
        {
            "name": "Path",
            "primitives": [
                {
                    "attributes": {
                        "POSITION": 0,
                        "NORMAL": 1,
                        "TEXCOORD_0": 2
                    },
                    "indices": 3,
                    "material": 0
                }
            ]
        }
    ],
    "nodes": [
        {
            "translation": [
                3.202420949935913,
                0.29999998211860659,
                1.530928134918213
            ],
            "rotation": [
                -0.12059047073125839,
                0.379409521818161,
                0.04995020851492882,
                0.9159756302833557
            ],
            "scale": [
                1.0,
                1.0,
                0.9999999403953552
            ],
            "camera": 0,
            "name": "render_camera_n3d"
        },
        {
            "translation": [
                0.07800842076539993,
                -0.00045249174581840634,
                0.07712486386299133
            ],
            "scale": [
                0.09049654006958008,
                0.09049654006958008,
                0.09049654006958008
            ],
            "mesh": 0,
            "name": "god"
        }
    ],
    "samplers": [
        {},
        {},
        {}
    ],
    "scenes": [
        {
            "nodes": [
                0,
                1
            ],
            "name": "scene"
        }
    ],
    "textures": [
        {
            "name": "texture555468_texture194832",
            "sampler": 0,
            "source": 0
        },
        {
            "name": "texture201320",
            "sampler": 1,
            "source": 1
        },
        {
            "name": "texture209074",
            "sampler": 2,
            "source": 2
        }
    ],
    "scene": 0,
    "extensionsUsed": [
        "KHR_texture_transform"
    ],
    "extensionsRequired": [
        "KHR_texture_transform"
    ]
}