<svg width="180" height="180" viewBox="0 0 180 180" fill="none" xmlns="http://www.w3.org/2000/svg">
<path d="M56.7785 146.338L23.9973 89.5598L56.7785 32.7812L122.341 32.7812L155.122 89.5598L122.341 146.338L56.7785 146.338Z" stroke="white" stroke-width="8.76899"/>
<path d="M88.1174 144.357C89.9976 143.995 91.8666 143.732 93.7133 143.26C94.5073 142.909 95.2582 142.472 95.9516 141.955C96.9589 141.418 97.0708 140.716 96.6007 139.762C96.1307 138.807 95.8173 137.568 95.3473 136.471C93.758 132.874 92.1128 129.288 90.5012 125.701C90.4296 125.568 90.3841 125.423 90.3669 125.274C90.2438 122.663 90.1991 120.042 89.9864 117.443C89.8185 115.359 89.9193 113.199 88.5763 111.345C87.9943 110.534 87.6362 110.369 86.9199 111.345C84.9899 113.804 83.5889 116.621 82.8014 119.625C81.8728 123.069 80.6408 126.426 79.1193 129.661C77.933 132.227 77.9441 134.925 77.642 137.557C77.3398 140.189 75.9297 142.087 74.4076 143.995C73.6081 144.903 72.732 145.743 71.7887 146.506C71.5635 146.758 71.2611 146.931 70.9269 147C70.3338 147 69.3377 147 69.237 146.759C68.981 146.049 68.981 145.275 69.237 144.565C69.6495 143.462 70.1627 142.398 70.7703 141.385C71.6768 139.718 72.0349 138.248 70.7703 136.427C69.7406 134.936 70.7143 133.62 72.6169 133.576C73.4787 133.576 73.848 133.236 73.9151 132.479C74.0494 130.681 74.1949 128.882 74.2957 127.072C74.43 124.802 74.5083 122.521 74.6426 120.251C74.6487 119.894 74.779 119.549 75.0119 119.275C76.5165 117.636 77.6257 115.687 78.2575 113.571C79.5669 110.062 81.2681 106.695 82.7902 103.262C83.5288 101.584 84.2227 99.8952 85.0285 97.9978C83.9765 97.603 82.9692 97.2849 82.0291 96.8353C79.511 95.6508 76.9593 94.5212 74.5419 93.1612C72.3437 91.9544 70.2512 90.5714 68.2857 89.0265C65.8328 87.1173 64.0616 84.4945 63.227 81.5358C63.1294 80.6501 63.1977 79.7544 63.4285 78.8927C63.4844 78.3663 63.6187 77.7959 63.7083 77.3463C65.2751 76.5018 66.8308 75.6134 68.4424 74.8348C69.1949 74.3794 70.0383 74.0877 70.9157 73.9793C74.844 73.9793 78.7499 73.6942 82.6782 74.6922C84.9166 75.2625 87.1549 75.4489 89.673 75.7889C89.7826 75.1758 89.7826 74.5486 89.673 73.9354C88.8337 71.9284 87.9383 69.9214 86.9087 68.0021C86.7082 67.5346 86.4029 67.1174 86.0154 66.7814C85.6279 66.4453 85.1682 66.1991 84.6704 66.0609C83.2154 65.6989 82.2977 66.6531 81.2009 67.0041C79.4414 67.7016 77.739 68.5302 76.1087 69.4827C74.3964 70.3272 72.6169 71.051 70.9493 71.9723C68.305 73.5466 65.4651 74.7814 62.4996 75.6463C61.6957 75.8679 60.913 76.1579 60.1605 76.5128C59.836 76.6553 59.4219 76.9515 59.3659 77.2476C59.0764 78.5571 58.8708 79.8831 58.7504 81.2178C58.7339 82.5016 58.6405 83.7833 58.4706 85.0563C58.4034 84.6286 58.3363 84.2009 58.2468 83.5538C58.1125 84.0364 58.0341 84.3106 57.967 84.5738H57.7879V81.2836C54.9004 82.5777 54.7885 84.8809 54.6878 87.3814L54.0163 86.2847L53.0762 86.9537C53.009 86.7782 52.9419 86.6685 52.9083 86.5479C52.6733 85.4512 52.4382 84.3544 52.2144 83.1919C52.1361 82.7751 51.901 82.2816 52.0465 81.9635C53.6134 78.6733 55.225 75.5257 58.963 73.9903C60.6649 73.1657 62.2245 72.0852 63.5852 70.7878C65.1549 69.4708 67.0059 68.5152 69.002 67.9911C71.341 67.366 73.0981 65.9293 75.0007 64.6351C76.9033 63.341 79.0857 62.1565 80.9323 60.6759C82.5663 59.3708 85.0397 59.1185 85.9126 56.8044C86.0246 56.5083 86.9087 56.5412 87.4123 56.3548C89.3933 55.6199 91.363 54.8522 93.3327 54.0845C93.5255 54.0174 93.6958 53.8998 93.8252 53.7445C95.8285 50.893 98.8615 48.7763 99.9359 45.2668C100.162 44.3078 100.446 43.3629 100.786 42.4372C101.392 40.9697 102.107 39.5475 102.924 38.1818C104.245 35.9884 105.901 34.1349 106.573 31.5137C106.953 29.9234 108.945 29.0789 110.725 29.0131C113.075 28.9473 115.436 29.1447 117.787 29.2544C117.977 29.2544 118.156 29.5067 118.335 29.6383C118.156 29.8028 117.999 30.0441 117.787 30.1318C117.622 30.1751 117.448 30.1751 117.283 30.1318C118.148 30.8018 118.96 31.535 119.712 32.3253C121.267 34.1129 123.147 35.6155 122.812 38.5438C122.655 39.8708 123.763 41.3733 124.412 42.7443C125.296 44.6087 125.341 44.6087 123.438 45.4313C122.073 46.0125 120.663 46.528 119.118 47.1422C119.029 46.4074 118.984 45.8371 118.883 45.2668C118.481 43.0733 116.41 42.5139 114.877 41.5817C112.728 40.2876 110.781 37.107 111.094 34.6174C111.195 33.8168 111.407 33.0272 111.575 32.2156C111.129 32.0543 110.668 31.9367 110.199 31.8646C109.426 31.7879 108.99 32.0511 108.844 32.9614C108.632 34.2446 107.893 35.4619 107.792 36.7341C107.692 38.0064 106.326 38.5109 106.035 39.6734C105.715 40.936 105.303 42.1747 104.804 43.3804C103.976 45.3874 103.081 47.3725 102.152 49.3247C101.223 51.2769 100.093 53.3387 99.1188 55.3348C98.5257 56.5522 99.5665 59.4037 100.775 60.4017C101.851 61.3382 102.676 62.5185 103.18 63.8394C103.683 65.1604 103.849 66.582 103.663 67.9802C103.436 69.7401 103.111 71.4865 102.689 73.2116C102.364 74.9773 102.096 76.754 101.782 78.6953C105.14 79.2107 106.998 81.8539 109.438 83.6964C112.303 85.8899 115.179 88.0175 118.022 90.2C119.324 91.0955 120.539 92.1089 121.648 93.227C122.038 93.603 122.313 94.0791 122.441 94.6009C122.569 95.1227 122.545 95.6692 122.371 96.1781C122.197 96.687 121.881 97.1377 121.458 97.4788C121.035 97.82 120.523 98.0378 119.98 98.1075C117.921 98.6449 115.761 98.8204 113.713 99.4126C109.147 100.74 104.413 100.685 99.7456 101.145C98.8879 101.152 98.031 101.093 97.1827 100.97C96.0635 100.97 95.5599 101.376 95.5935 102.571C95.739 107.331 95.7389 112.091 95.9292 116.829C96.0273 118.756 96.3121 120.669 96.7798 122.543C97.0708 123.749 97.9773 124.813 98.3243 126.008C98.8279 127.763 99.0965 129.595 99.4434 131.393C99.9247 134.037 100.339 136.691 100.876 139.334C101.178 140.781 101.727 142.196 102.062 143.644C102.26 144.518 102.335 145.415 102.286 146.309C102.286 146.539 101.536 146.901 101.167 146.901C98.4026 146.901 95.6382 146.792 92.8739 146.726C92.1129 146.726 91.3406 146.726 90.5684 146.726C88.2069 146.857 88.2181 146.868 88.1622 144.39" fill="#191919"/>
</svg>
