<svg width="16" height="16" viewBox="0 0 16 16" fill="none" xmlns="http://www.w3.org/2000/svg">
<g clip-path="url(#clip0_1_18)">
<path d="M3.02924 11.9278V12.3873H3.48873H5.03522H5.49471V11.9278V8.95322L6.25644 12.0379L6.3427 12.3873H6.70252H9.33638H9.69621L9.78247 12.0379L10.5442 8.95323V11.9278V12.3873H11.0037H12.5502H13.0097V11.9278V5.11206V4.65257H12.5502H9.5901H9.23L9.14393 5.00224L8.01945 9.57075L6.89497 5.00224L6.80891 4.65257H6.4488H3.48873H3.02924V5.11206V11.9278Z" fill="#FBFBFB" stroke="black" stroke-width="0.918974"/>
<path d="M7.72051 13.157L8.0324 13.5709L8.34238 13.1556L14.773 4.54019L15.2366 3.91905L14.4615 3.91905L1.53846 3.91905L0.758904 3.91905L1.22807 4.54162L7.72051 13.157Z" fill="#ED75B2" stroke="black" stroke-width="0.777328"/>
<g clip-path="url(#clip1_1_18)">
<path d="M3.02263 11.9278V12.3873H3.48212H5.03089H5.49038V11.9278V8.9478L6.25462 12.0381L6.34097 12.3873H6.70067H9.33843H9.69813L9.78448 12.0381L10.5487 8.9478V11.9278V12.3873H11.0082H12.557H13.0165V11.9278V5.11206V4.65257H12.557H9.59253H9.23255L9.1464 5.00209L8.01955 9.57343L6.89271 5.00209L6.80655 4.65257H6.44657H3.48212H3.02263V5.11206V11.9278Z" fill="white" stroke="black" stroke-width="0.918974"/>
</g>
</g>
<defs>
<clipPath id="clip0_1_18">
<rect width="16" height="16" fill="white"/>
</clipPath>
<clipPath id="clip1_1_18">
<rect width="4.54984" height="6.81573" fill="white" transform="translate(8.00045 5.11206)"/>
</clipPath>
</defs>
</svg>
