<svg width="32" height="64" viewBox="0 0 32 64" fill="none" xmlns="http://www.w3.org/2000/svg">
<path opacity="0.6" fill-rule="evenodd" clip-rule="evenodd" d="M6.25527 7.14285L26.2495 7.14285L26.2495 5.68117e-06L32 6.32654e-06L32 19.7943L19.0726 19.7943L19.0727 32.1206L32 32.1206L32 48.8954L19.0727 48.8954L19.0727 64L13.3662 64L13.3662 48.8954L5.2357e-06 48.8954L3.7692e-06 32.1206L13.3662 32.1206L13.3662 19.7943L2.6916e-06 19.7943L9.61125e-07 2.79753e-06L6.25527 3.39676e-06L6.25527 7.14285ZM26 35.8522L6 35.8523L6 45.6482L26 45.6482L26 35.8522ZM6.36364 11.0359L26.1818 11.0359L26.1818 15.9959L6.36364 15.9959L6.36364 11.0359Z" fill="#9B51E0"/>
</svg>
