<svg width="79" height="79" viewBox="0 0 79 79" fill="none" xmlns="http://www.w3.org/2000/svg">
<path fill-rule="evenodd" clip-rule="evenodd" d="M48.8326 8.6907C48.8326 8.70765 48.8188 8.72139 48.8017 8.72139L29.1409 8.72139C29.1238 8.72139 29.1099 8.70765 29.1099 8.6907L29.1099 0.0306979C29.1099 0.0137474 29.096 6.31926e-06 29.0789 6.32349e-06L23.4685 7.70999e-06C23.4514 7.71422e-06 23.4375 0.0137486 23.4375 0.030699V24.1381C23.4375 24.155 23.4514 24.1687 23.4685 24.1687H36.1583C36.1754 24.1687 36.1893 24.1825 36.1893 24.1994V39.1885C36.1893 39.2054 36.1754 39.2192 36.1583 39.2192H23.4685C23.4514 39.2192 23.4375 39.2329 23.4375 39.2499V59.6705C23.4375 59.6874 23.4514 59.7012 23.4685 59.7012H36.1583C36.1754 59.7012 36.1893 59.7149 36.1893 59.7319V78.1131C36.1893 78.1301 36.2032 78.1438 36.2203 78.1438H41.7873C41.8044 78.1438 41.8183 78.1301 41.8183 78.1131V59.7319C41.8183 59.7149 41.8322 59.7012 41.8493 59.7012H54.972C54.9891 59.7012 55.003 59.6874 55.003 59.6705V39.2499C55.003 39.2329 54.9891 39.2192 54.972 39.2192H41.8493C41.8322 39.2192 41.8183 39.2054 41.8183 39.1885V24.1994C41.8183 24.1825 41.8322 24.1687 41.8493 24.1687H54.972C54.9891 24.1687 55.003 24.155 55.003 24.1381V0.0306915C55.003 0.0137411 54.9891 -3.88205e-09 54.972 0L48.8636 1.38531e-06C48.8465 1.38919e-06 48.8326 0.0137425 48.8326 0.030693V8.6907ZM29.356 43.8062C29.356 43.7892 29.3699 43.7755 29.387 43.7755H49.0535C49.0706 43.7755 49.0844 43.7892 49.0844 43.8062V55.7056C49.0844 55.7225 49.0706 55.7363 49.0535 55.7363H29.387C29.3699 55.7363 29.356 55.7225 29.356 55.7056V43.8062ZM48.7257 13.5055C48.7257 13.4885 48.7119 13.4748 48.6948 13.4748H29.2077C29.1906 13.4748 29.1767 13.4885 29.1767 13.5055V19.5002C29.1767 19.5172 29.1906 19.5309 29.2077 19.5309H48.6948C48.7119 19.5309 48.7257 19.5172 48.7257 19.5002V13.5055Z" fill="#EB5757"/>
<path fill-rule="evenodd" clip-rule="evenodd" d="M48.8326 8.6907C48.8326 8.70765 48.8188 8.72139 48.8017 8.72139L29.1409 8.72139C29.1238 8.72139 29.1099 8.70765 29.1099 8.6907L29.1099 0.0306979C29.1099 0.0137474 29.096 6.31926e-06 29.0789 6.32349e-06L23.4685 7.70999e-06C23.4514 7.71422e-06 23.4375 0.0137486 23.4375 0.030699V24.1381C23.4375 24.155 23.4514 24.1687 23.4685 24.1687H36.1583C36.1754 24.1687 36.1893 24.1825 36.1893 24.1994V39.1885C36.1893 39.2054 36.1754 39.2192 36.1583 39.2192H23.4685C23.4514 39.2192 23.4375 39.2329 23.4375 39.2499V59.6705C23.4375 59.6874 23.4514 59.7012 23.4685 59.7012H36.1583C36.1754 59.7012 36.1893 59.7149 36.1893 59.7319V78.1131C36.1893 78.1301 36.2032 78.1438 36.2203 78.1438H41.7873C41.8044 78.1438 41.8183 78.1301 41.8183 78.1131V59.7319C41.8183 59.7149 41.8322 59.7012 41.8493 59.7012H54.972C54.9891 59.7012 55.003 59.6874 55.003 59.6705V39.2499C55.003 39.2329 54.9891 39.2192 54.972 39.2192H41.8493C41.8322 39.2192 41.8183 39.2054 41.8183 39.1885V24.1994C41.8183 24.1825 41.8322 24.1687 41.8493 24.1687H54.972C54.9891 24.1687 55.003 24.155 55.003 24.1381V0.0306915C55.003 0.0137411 54.9891 -3.88205e-09 54.972 0L48.8636 1.38531e-06C48.8465 1.38919e-06 48.8326 0.0137425 48.8326 0.030693V8.6907ZM29.356 43.8062C29.356 43.7892 29.3699 43.7755 29.387 43.7755H49.0535C49.0706 43.7755 49.0844 43.7892 49.0844 43.8062V55.7056C49.0844 55.7225 49.0706 55.7363 49.0535 55.7363H29.387C29.3699 55.7363 29.356 55.7225 29.356 55.7056V43.8062ZM48.7257 13.5055C48.7257 13.4885 48.7119 13.4748 48.6948 13.4748H29.2077C29.1906 13.4748 29.1767 13.4885 29.1767 13.5055V19.5002C29.1767 19.5172 29.1906 19.5309 29.2077 19.5309H48.6948C48.7119 19.5309 48.7257 19.5172 48.7257 19.5002V13.5055Z" fill="#EB5757"/>
<path fill-rule="evenodd" clip-rule="evenodd" d="M48.8326 8.6907C48.8326 8.70765 48.8188 8.72139 48.8017 8.72139L29.1409 8.72139C29.1238 8.72139 29.1099 8.70765 29.1099 8.6907L29.1099 0.0306979C29.1099 0.0137474 29.096 6.31926e-06 29.0789 6.32349e-06L23.4685 7.70999e-06C23.4514 7.71422e-06 23.4375 0.0137486 23.4375 0.030699L23.4375 24.1381C23.4375 24.155 23.4514 24.1687 23.4685 24.1687H36.1583C36.1754 24.1687 36.1893 24.1825 36.1893 24.1994L36.1893 39.1885C36.1893 39.2054 36.1754 39.2192 36.1583 39.2192H23.4685C23.4514 39.2192 23.4375 39.2329 23.4375 39.2499L23.4375 59.6705C23.4375 59.6874 23.4514 59.7012 23.4685 59.7012H36.1583C36.1754 59.7012 36.1893 59.7149 36.1893 59.7319V78.1131C36.1893 78.1301 36.2032 78.1438 36.2203 78.1438H41.7873C41.8044 78.1438 41.8183 78.1301 41.8183 78.1131L41.8183 59.7319C41.8183 59.7149 41.8322 59.7012 41.8493 59.7012L54.972 59.7012C54.9891 59.7012 55.003 59.6874 55.003 59.6705L55.003 39.2499C55.003 39.2329 54.9891 39.2192 54.972 39.2192L41.8493 39.2192C41.8322 39.2192 41.8183 39.2054 41.8183 39.1885V24.1994C41.8183 24.1825 41.8322 24.1687 41.8493 24.1687H54.972C54.9891 24.1687 55.003 24.155 55.003 24.1381V0.0306915C55.003 0.0137411 54.9891 -3.88206e-09 54.972 0L48.8636 1.38531e-06C48.8465 1.38919e-06 48.8326 0.0137425 48.8326 0.030693V8.6907ZM29.356 43.8062C29.356 43.7892 29.3699 43.7755 29.387 43.7755H49.0535C49.0706 43.7755 49.0844 43.7892 49.0844 43.8062V55.7056C49.0844 55.7225 49.0706 55.7363 49.0535 55.7363H29.387C29.3699 55.7363 29.356 55.7225 29.356 55.7056V43.8062ZM48.7257 13.5055C48.7257 13.4885 48.7119 13.4748 48.6948 13.4748L29.2077 13.4748C29.1906 13.4748 29.1767 13.4885 29.1767 13.5055L29.1767 19.5002C29.1767 19.5172 29.1906 19.5309 29.2077 19.5309L48.6948 19.5309C48.7119 19.5309 48.7257 19.5172 48.7257 19.5002V13.5055Z" fill="#EB5757"/>
<path fill-rule="evenodd" clip-rule="evenodd" d="M29.6088 8.6907C29.6088 8.70765 29.6226 8.72139 29.6398 8.72139L49.3005 8.72139C49.3176 8.72139 49.3315 8.70765 49.3315 8.6907L49.3315 0.0306979C49.3315 0.0137474 49.3454 6.31926e-06 49.3625 6.32349e-06L54.9729 7.70999e-06C54.99 7.71422e-06 55.0039 0.0137486 55.0039 0.030699L55.0039 24.1381C55.0039 24.155 54.99 24.1687 54.9729 24.1687L42.2831 24.1687C42.266 24.1687 42.2521 24.1825 42.2521 24.1994L42.2521 39.1885C42.2521 39.2054 42.266 39.2192 42.2831 39.2192L54.9729 39.2192C54.99 39.2192 55.0039 39.2329 55.0039 39.2499V59.6705C55.0039 59.6874 54.99 59.7012 54.9729 59.7012L42.2831 59.7012C42.266 59.7012 42.2521 59.7149 42.2521 59.7319L42.2521 78.1131C42.2521 78.1301 42.2382 78.1438 42.2211 78.1438H36.6541C36.637 78.1438 36.6231 78.1301 36.6231 78.1131L36.6231 59.7319C36.6231 59.7149 36.6093 59.7012 36.5921 59.7012H23.4694C23.4523 59.7012 23.4384 59.6874 23.4384 59.6705L23.4384 39.2499C23.4384 39.2329 23.4523 39.2192 23.4694 39.2192H36.5921C36.6093 39.2192 36.6231 39.2054 36.6231 39.1885L36.6231 24.1994C36.6231 24.1825 36.6093 24.1687 36.5921 24.1687L23.4694 24.1687C23.4523 24.1687 23.4384 24.155 23.4384 24.1381L23.4384 0.0306915C23.4384 0.0137411 23.4523 -3.88206e-09 23.4694 0L29.5778 1.38531e-06C29.5949 1.38919e-06 29.6088 0.0137425 29.6088 0.030693L29.6088 8.6907ZM49.0854 43.8062C49.0854 43.7892 49.0715 43.7755 49.0544 43.7755L29.388 43.7755C29.3708 43.7755 29.357 43.7892 29.357 43.8062L29.357 55.7056C29.357 55.7225 29.3708 55.7363 29.388 55.7363L49.0544 55.7363C49.0715 55.7363 49.0854 55.7225 49.0854 55.7056V43.8062ZM29.7157 13.5055C29.7157 13.4885 29.7295 13.4748 29.7467 13.4748L49.2337 13.4748C49.2509 13.4748 49.2647 13.4885 49.2647 13.5055L49.2647 19.5002C49.2647 19.5172 49.2509 19.5309 49.2337 19.5309L29.7466 19.5309C29.7295 19.5309 29.7157 19.5172 29.7157 19.5002L29.7157 13.5055Z" fill="#EB5757"/>
</svg>
