<svg width="192" height="192" viewBox="0 0 192 192" fill="none" xmlns="http://www.w3.org/2000/svg">
<path fill-rule="evenodd" clip-rule="evenodd" d="M164.941 59.2727C164.911 59.3022 164.863 59.302 164.833 59.2722L130.642 25.0811C130.612 25.0513 130.612 25.0033 130.642 24.9738L145.702 9.91358C145.731 9.8841 145.731 9.83607 145.701 9.8063L135.945 0.049519C135.915 0.0197508 135.867 0.019515 135.837 0.0489927L93.9133 41.973C93.8838 42.0025 93.884 42.0505 93.9138 42.0802L115.982 64.1485C116.012 64.1783 116.012 64.2263 115.983 64.2558L89.9158 90.3226C89.8863 90.3521 89.8383 90.3518 89.8085 90.3221L67.7403 68.2538C67.7105 68.224 67.6625 68.2238 67.633 68.2532L32.1205 103.766C32.091 103.795 32.0912 103.843 32.121 103.873L54.1893 125.941C54.219 125.971 54.2193 126.019 54.1898 126.049L22.2238 158.015C22.1944 158.044 22.1946 158.092 22.2244 158.122L31.9056 167.803C31.9354 167.833 31.9834 167.833 32.0129 167.804L63.9789 135.838C64.0083 135.808 64.0564 135.808 64.0861 135.838L86.9072 158.659C86.937 158.689 86.985 158.689 87.0145 158.66L122.527 123.147C122.557 123.118 122.556 123.07 122.527 123.04L99.7054 100.219C99.6756 100.189 99.6754 100.141 99.7049 100.112L125.772 74.0449C125.801 74.0154 125.849 74.0156 125.879 74.0454L148.7 96.8665C148.73 96.8963 148.778 96.8965 148.807 96.867L190.731 54.943C190.761 54.9136 190.761 54.8655 190.731 54.8358L180.108 44.213C180.078 44.1833 180.03 44.183 180.001 44.2125L164.941 59.2727ZM70.002 86.4695C70.0314 86.4401 70.0795 86.4403 70.1093 86.4701L104.31 120.671C104.34 120.701 104.34 120.749 104.311 120.778L83.6171 141.472C83.5876 141.501 83.5396 141.501 83.5098 141.471L49.3088 107.27C49.279 107.241 49.2788 107.193 49.3083 107.163L70.002 86.4695ZM156.381 67.46C156.411 67.4305 156.411 67.3825 156.381 67.3527L122.492 33.4636C122.462 33.4339 122.414 33.4336 122.385 33.4631L111.959 43.8882C111.93 43.9177 111.93 43.9657 111.96 43.9955L145.849 77.8846C145.879 77.9144 145.927 77.9146 145.956 77.8851L156.381 67.46Z" fill="#EB5757"/>
<path fill-rule="evenodd" clip-rule="evenodd" d="M25.8407 131.501C25.8702 131.472 25.9182 131.472 25.948 131.502L60.1391 165.693C60.1689 165.723 60.1691 165.771 60.1396 165.8L45.0794 180.86C45.0499 180.89 45.0502 180.938 45.08 180.968L54.8367 190.724C54.8665 190.754 54.9145 190.754 54.944 190.725L96.868 148.801C96.8975 148.771 96.8972 148.723 96.8675 148.694L74.7992 126.625C74.7694 126.596 74.7692 126.548 74.7987 126.518L100.865 100.451C100.895 100.422 100.943 100.422 100.973 100.452L123.041 122.52C123.071 122.55 123.119 122.55 123.148 122.521L158.661 87.0081C158.69 86.9787 158.69 86.9306 158.66 86.9009L136.592 64.8326C136.562 64.8028 136.562 64.7548 136.591 64.7253L168.557 32.7593C168.587 32.7299 168.587 32.6818 168.557 32.6521L158.876 22.9708C158.846 22.941 158.798 22.9408 158.768 22.9703L126.802 54.9363C126.773 54.9657 126.725 54.9655 126.695 54.9357L103.874 32.1146C103.844 32.0848 103.796 32.0846 103.767 32.1141L68.2542 67.6266C68.2247 67.6561 68.225 67.7041 68.2547 67.7339L91.0758 90.555C91.1056 90.5848 91.1058 90.6328 91.0764 90.6623L65.0096 116.729C64.9801 116.759 64.9321 116.758 64.9023 116.729L42.0812 93.9074C42.0514 93.8777 42.0034 93.8774 41.9739 93.9069L0.0499422 135.831C0.0204644 135.86 0.020698 135.908 0.0504662 135.938L10.6732 146.561C10.703 146.591 10.751 146.591 10.7805 146.561L25.8407 131.501ZM120.779 104.304C120.75 104.334 120.702 104.334 120.672 104.304L86.471 70.1029C86.4412 70.0731 86.441 70.0251 86.4705 69.9956L107.164 49.3019C107.194 49.2725 107.242 49.2727 107.271 49.3025L141.472 83.5034C141.502 83.5332 141.502 83.5812 141.473 83.6107L120.779 104.304ZM34.3998 123.314C34.3703 123.343 34.3705 123.391 34.4003 123.421L68.2894 157.31C68.3192 157.34 68.3672 157.34 68.3967 157.311L78.8218 146.886C78.8513 146.856 78.851 146.808 78.8213 146.778L44.9322 112.889C44.9024 112.86 44.8544 112.859 44.8249 112.889L34.3998 123.314Z" fill="#EB5757"/>
<path fill-rule="evenodd" clip-rule="evenodd" d="M131.504 164.942C131.475 164.913 131.475 164.865 131.505 164.835L165.696 130.644C165.726 130.614 165.774 130.614 165.803 130.643L180.863 145.703C180.893 145.733 180.941 145.733 180.971 145.703L190.727 135.946C190.757 135.916 190.757 135.868 190.728 135.839L148.804 93.9147C148.774 93.8852 148.726 93.8855 148.697 93.9152L126.628 115.984C126.599 116.013 126.551 116.014 126.521 115.984L100.454 89.9173C100.425 89.8878 100.425 89.8398 100.455 89.81L122.523 67.7417C122.553 67.712 122.553 67.6639 122.524 67.6344L87.0111 32.1219C86.9816 32.0924 86.9336 32.0927 86.9038 32.1224L64.8355 54.1907C64.8058 54.2205 64.7577 54.2207 64.7283 54.1913L32.7623 22.2253C32.7328 22.1958 32.6848 22.196 32.655 22.2258L22.9737 31.9071C22.944 31.9368 22.9437 31.9849 22.9732 32.0143L54.9392 63.9803C54.9687 64.0098 54.9684 64.0578 54.9387 64.0876L32.1176 86.9087C32.0878 86.9385 32.0876 86.9865 32.117 87.016L67.6296 122.528C67.659 122.558 67.7071 122.558 67.7368 122.528L90.5579 99.7069C90.5877 99.6771 90.6357 99.6769 90.6652 99.7063L116.732 125.773C116.761 125.803 116.761 125.851 116.731 125.88L93.9104 148.701C93.8806 148.731 93.8804 148.779 93.9098 148.809L135.834 190.733C135.863 190.762 135.911 190.762 135.941 190.732L146.564 180.11C146.594 180.08 146.594 180.032 146.564 180.002L131.504 164.942ZM104.307 70.0034C104.337 70.0329 104.337 70.0809 104.307 70.1107L70.1058 104.312C70.0761 104.341 70.028 104.342 69.9985 104.312L49.3049 83.6185C49.2754 83.5891 49.2756 83.541 49.3054 83.5112L83.5064 49.3103C83.5361 49.2805 83.5842 49.2803 83.6137 49.3097L104.307 70.0034ZM123.317 156.383C123.346 156.412 123.394 156.412 123.424 156.382L157.313 122.493C157.343 122.464 157.343 122.416 157.314 122.386L146.889 111.961C146.859 111.931 146.811 111.932 146.781 111.961L112.892 145.851C112.862 145.88 112.862 145.928 112.892 145.958L123.317 156.383Z" fill="#EB5757"/>
<path fill-rule="evenodd" clip-rule="evenodd" d="M25.8407 59.2727C25.8702 59.3022 25.9182 59.302 25.948 59.2722L60.1391 25.0811C60.1689 25.0513 60.1691 25.0033 60.1396 24.9738L45.0794 9.91358C45.0499 9.8841 45.0502 9.83607 45.08 9.8063L54.8367 0.049519C54.8665 0.0197508 54.9145 0.019515 54.944 0.0489927L96.868 41.973C96.8975 42.0025 96.8972 42.0505 96.8675 42.0802L74.7992 64.1485C74.7694 64.1783 74.7692 64.2263 74.7987 64.2558L100.865 90.3226C100.895 90.3521 100.943 90.3518 100.973 90.3221L123.041 68.2538C123.071 68.224 123.119 68.2238 123.148 68.2532L158.661 103.766C158.69 103.795 158.69 103.843 158.66 103.873L136.592 125.941C136.562 125.971 136.562 126.019 136.591 126.049L168.557 158.015C168.587 158.044 168.587 158.092 168.557 158.122L158.876 167.803C158.846 167.833 158.798 167.833 158.768 167.804L126.802 135.838C126.773 135.808 126.725 135.808 126.695 135.838L103.874 158.659C103.844 158.689 103.796 158.689 103.767 158.66L68.2542 123.147C68.2247 123.118 68.225 123.07 68.2547 123.04L91.0758 100.219C91.1056 100.189 91.1058 100.141 91.0764 100.112L65.0096 74.0449C64.9801 74.0154 64.9321 74.0156 64.9023 74.0454L42.0812 96.8665C42.0514 96.8963 42.0034 96.8965 41.9739 96.867L0.0499468 54.943C0.020469 54.9136 0.0207027 54.8655 0.0504709 54.8358L10.6732 44.213C10.703 44.1833 10.751 44.183 10.7805 44.2125L25.8407 59.2727ZM120.779 86.4695C120.75 86.4401 120.702 86.4403 120.672 86.4701L86.471 120.671C86.4413 120.701 86.441 120.749 86.4705 120.778L107.164 141.472C107.194 141.501 107.242 141.501 107.271 141.471L141.472 107.27C141.502 107.241 141.502 107.193 141.473 107.163L120.779 86.4695ZM34.3998 67.46C34.3703 67.4305 34.3705 67.3825 34.4003 67.3527L68.2894 33.4636C68.3192 33.4339 68.3672 33.4336 68.3967 33.4631L78.8218 43.8882C78.8513 43.9177 78.851 43.9657 78.8213 43.9955L44.9322 77.8846C44.9024 77.9144 44.8544 77.9146 44.8249 77.8851L34.3998 67.46Z" fill="#EB5757"/>
</svg>
