{
	"asset":{
		"version":"2.0",
		"generator":"Created using the official Cinema 4D glTF Exporter 1.000x284978"
	},
	"scenes":[{
		"nodes":[0]
	}],
	"nodes":[{
		"name":"cflow-bubble",
		"translation":[-184.0,
		-158.0,
		-795.0],
		"rotation":[0.0,
		0.0,
		0.0,
		-1.0],
		"scale":[1.0,
		1.0,
		1.0],
		"children":[1,
		2]
	},
	{
		"name":"cFlow",
		"translation":[184.0,
		158.0,
		795.0],
		"rotation":[-0.6691306233406067,
		4.09724328791237e-17,
		-0.7431448101997376,
		4.5504495898297638e-17],
		"scale":[0.5,
		0.5,
		0.5],
		"mesh":0
	},
	{
		"name":"Sphere",
		"translation":[184.0,
		158.0,
		795.0],
		"rotation":[0.0,
		0.0,
		0.0,
		-1.0],
		"scale":[0.800000011920929,
		0.800000011920929,
		0.800000011920929],
		"mesh":1
	}],
	"meshes":[{
		"name":"cFlow",
		"primitives":[{
			"attributes":{
				"POSITION":1,
				"NORMAL":2,
				"TEXCOORD_0":3
			},
			"indices":0,
			"material":0
		}]
	},
	{
		"name":"Sphere",
		"primitives":[{
			"attributes":{
				"POSITION":7,
				"NORMAL":8,
				"TEXCOORD_0":9
			},
			"indices":6,
			"material":1
		}]
	}],
	"accessors":[{
		"bufferView":0,
		"type":"SCALAR",
		"componentType":5123,
		"count":142080,
		"byteOffset":0,
		"min":[0],
		"max":[27255]
	},
	{
		"bufferView":1,
		"type":"VEC3",
		"componentType":5126,
		"count":27256,
		"byteOffset":0,
		"min":[-8.221529960632325,
		-17.775293350219728,
		-8.221540451049805],
		"max":[8.221540451049805,
		17.705066680908204,
		8.221529960632325]
	},
	{
		"bufferView":1,
		"type":"VEC3",
		"componentType":5126,
		"count":27256,
		"byteOffset":12,
		"min":[-0.37300002574920657,
		0.0,
		-0.9999688267707825],
		"max":[0.9999688267707825,
		0.9999375343322754,
		0.9239375591278076]
	},
	{
		"bufferView":1,
		"type":"VEC2",
		"componentType":5126,
		"count":27256,
		"byteOffset":24,
		"min":[-80.63700103759766,
		-80.63699340820313],
		"max":[118.17289733886719,
		118.17289733886719]
	},
	{
		"bufferView":2,
		"type":"SCALAR",
		"componentType":5126,
		"count":91,
		"byteOffset":0,
		"min":[0.0],
		"max":[3.0]
	},
	{
		"bufferView":2,
		"type":"VEC4",
		"componentType":5126,
		"count":91,
		"byteOffset":364,
		"min":[-1.0,
		0.0,
		-1.0,
		-1.0021008911564877e-8],
		"max":[0.0,
		9.769469677678444e-9,
		1.0,
		9.470333850458701e-9]
	},
	{
		"bufferView":3,
		"type":"SCALAR",
		"componentType":5123,
		"count":9744,
		"byteOffset":0,
		"min":[0],
		"max":[1767]
	},
	{
		"bufferView":4,
		"type":"VEC3",
		"componentType":5126,
		"count":1768,
		"byteOffset":0,
		"min":[-34.94866943359375,
		-35.0,
		-34.89741516113281],
		"max":[34.94866943359375,
		35.0,
		34.89741516113281]
	},
	{
		"bufferView":4,
		"type":"VEC3",
		"componentType":5126,
		"count":1768,
		"byteOffset":12,
		"min":[-0.9985333681106567,
		-1.0,
		-0.9970717430114746],
		"max":[0.9985334277153015,
		1.0,
		0.9970717430114746]
	},
	{
		"bufferView":4,
		"type":"VEC2",
		"componentType":5126,
		"count":1768,
		"byteOffset":24,
		"min":[-0.6100000143051148,
		-0.23999999463558198],
		"max":[0.38999998569488528,
		0.7599999904632568]
	}],
	"bufferViews":[{
		"buffer":0,
		"byteOffset":0,
		"byteLength":284160,
		"target":34963
	},
	{
		"buffer":0,
		"byteOffset":284160,
		"byteLength":872192,
		"target":34962,
		"byteStride":32
	},
	{
		"buffer":1,
		"byteOffset":0,
		"byteLength":1820
	},
	{
		"buffer":2,
		"byteOffset":0,
		"byteLength":19488,
		"target":34963
	},
	{
		"buffer":2,
		"byteOffset":19488,
		"byteLength":56576,
		"target":34962,
		"byteStride":32
	}],
	"buffers":[{
		"uri":"data:application/octet-stream;base64,",
		"byteLength":1156352
	},
	{
		"uri":"data:application/octet-stream;base64,",
		"byteLength":1820
	},
	{
		"uri":"data:application/octet-stream;base64,",
		"byteLength":76064
	}],
	"materials":[{
		"pbrMetallicRoughness":{
			"baseColorFactor":[1.0,
			1.0,
			1.0,
			1.0],
			"metallicFactor":1.0,
			"roughnessFactor":1.0
		},
		"emissiveFactor":[0.0,
		0.0,
		0.0],
		"alphaMode":"OPAQUE",
		"doubleSided":true,
		"name":""
	},
	{
		"pbrMetallicRoughness":{
			"baseColorFactor":[1.0,
			1.0,
			1.0,
			1.0],
			"metallicFactor":1.0,
			"roughnessFactor":1.0
		},
		"emissiveFactor":[0.0,
		0.0,
		0.0],
		"alphaMode":"OPAQUE",
		"doubleSided":true,
		"name":""
	}],
	"animations":[{
		"samplers":[{
			"input":4,
			"interpolation":"LINEAR",
			"output":5
		}],
		"channels":[{
			"sampler":0,
			"target":{
				"node":1,
				"path":"rotation"
			}
		}]
	}]
}